G04 #@! TF.FileFunction,Legend,Top*
%FSLAX46Y46*%
G04 Gerber Fmt 4.6, Leading zero omitted, Abs format (unit mm)*
G04 Created by KiCad (PCBNEW 4.0.6) date 07/07/17 00:51:22*
%MOMM*%
%LPD*%
G01*
G04 APERTURE LIST*
%ADD10C,0.100000*%
%ADD11C,0.125000*%
%ADD12C,0.200000*%
%ADD13C,0.250000*%
%ADD14C,0.400000*%
%ADD15C,0.150000*%
%ADD16C,0.127000*%
%ADD17C,0.066040*%
%ADD18C,0.152400*%
%ADD19C,0.381000*%
%ADD20C,0.200660*%
%ADD21C,0.120000*%
%ADD22C,0.119380*%
%ADD23C,0.088900*%
%ADD24C,0.304800*%
%ADD25C,0.114300*%
%ADD26C,0.149860*%
%ADD27C,0.190500*%
G04 APERTURE END LIST*
D10*
D11*
X190216668Y-84729167D02*
X189983334Y-84395833D01*
X189816668Y-84729167D02*
X189816668Y-84029167D01*
X190083334Y-84029167D01*
X190150001Y-84062500D01*
X190183334Y-84095833D01*
X190216668Y-84162500D01*
X190216668Y-84262500D01*
X190183334Y-84329167D01*
X190150001Y-84362500D01*
X190083334Y-84395833D01*
X189816668Y-84395833D01*
X190483334Y-84529167D02*
X190816668Y-84529167D01*
X190416668Y-84729167D02*
X190650001Y-84029167D01*
X190883334Y-84729167D01*
X191016668Y-84029167D02*
X191416668Y-84029167D01*
X191216668Y-84729167D02*
X191216668Y-84029167D01*
X191650001Y-84362500D02*
X191883334Y-84362500D01*
X191983334Y-84729167D02*
X191650001Y-84729167D01*
X191650001Y-84029167D01*
X191983334Y-84029167D01*
X192283334Y-84729167D02*
X192283334Y-84029167D01*
X192450000Y-84029167D01*
X192550000Y-84062500D01*
X192616667Y-84129167D01*
X192650000Y-84195833D01*
X192683334Y-84329167D01*
X192683334Y-84429167D01*
X192650000Y-84562500D01*
X192616667Y-84629167D01*
X192550000Y-84695833D01*
X192450000Y-84729167D01*
X192283334Y-84729167D01*
X193916667Y-84662500D02*
X193883333Y-84695833D01*
X193783333Y-84729167D01*
X193716667Y-84729167D01*
X193616667Y-84695833D01*
X193550000Y-84629167D01*
X193516667Y-84562500D01*
X193483333Y-84429167D01*
X193483333Y-84329167D01*
X193516667Y-84195833D01*
X193550000Y-84129167D01*
X193616667Y-84062500D01*
X193716667Y-84029167D01*
X193783333Y-84029167D01*
X193883333Y-84062500D01*
X193916667Y-84095833D01*
X194350000Y-84029167D02*
X194483333Y-84029167D01*
X194550000Y-84062500D01*
X194616667Y-84129167D01*
X194650000Y-84262500D01*
X194650000Y-84495833D01*
X194616667Y-84629167D01*
X194550000Y-84695833D01*
X194483333Y-84729167D01*
X194350000Y-84729167D01*
X194283333Y-84695833D01*
X194216667Y-84629167D01*
X194183333Y-84495833D01*
X194183333Y-84262500D01*
X194216667Y-84129167D01*
X194283333Y-84062500D01*
X194350000Y-84029167D01*
X194950000Y-84729167D02*
X194950000Y-84029167D01*
X195350000Y-84729167D01*
X195350000Y-84029167D01*
X195583333Y-84029167D02*
X195983333Y-84029167D01*
X195783333Y-84729167D02*
X195783333Y-84029167D01*
X196216666Y-84662500D02*
X196249999Y-84695833D01*
X196216666Y-84729167D01*
X196183332Y-84695833D01*
X196216666Y-84662500D01*
X196216666Y-84729167D01*
X197416665Y-84029167D02*
X197083332Y-84029167D01*
X197049998Y-84362500D01*
X197083332Y-84329167D01*
X197149998Y-84295833D01*
X197316665Y-84295833D01*
X197383332Y-84329167D01*
X197416665Y-84362500D01*
X197449998Y-84429167D01*
X197449998Y-84595833D01*
X197416665Y-84662500D01*
X197383332Y-84695833D01*
X197316665Y-84729167D01*
X197149998Y-84729167D01*
X197083332Y-84695833D01*
X197049998Y-84662500D01*
X197883332Y-84029167D02*
X197949999Y-84029167D01*
X198016665Y-84062500D01*
X198049999Y-84095833D01*
X198083332Y-84162500D01*
X198116665Y-84295833D01*
X198116665Y-84462500D01*
X198083332Y-84595833D01*
X198049999Y-84662500D01*
X198016665Y-84695833D01*
X197949999Y-84729167D01*
X197883332Y-84729167D01*
X197816665Y-84695833D01*
X197783332Y-84662500D01*
X197749999Y-84595833D01*
X197716665Y-84462500D01*
X197716665Y-84295833D01*
X197749999Y-84162500D01*
X197783332Y-84095833D01*
X197816665Y-84062500D01*
X197883332Y-84029167D01*
X198383332Y-84529167D02*
X198716666Y-84529167D01*
X198316666Y-84729167D02*
X198549999Y-84029167D01*
X198783332Y-84729167D01*
X189900000Y-85904167D02*
X189900000Y-85204167D01*
X190133333Y-85704167D01*
X190366666Y-85204167D01*
X190366666Y-85904167D01*
X190666666Y-85704167D02*
X191000000Y-85704167D01*
X190600000Y-85904167D02*
X190833333Y-85204167D01*
X191066666Y-85904167D01*
X191233333Y-85204167D02*
X191700000Y-85904167D01*
X191700000Y-85204167D02*
X191233333Y-85904167D01*
X192500000Y-85904167D02*
X192500000Y-85204167D01*
X192766666Y-85204167D01*
X192833333Y-85237500D01*
X192866666Y-85270833D01*
X192900000Y-85337500D01*
X192900000Y-85437500D01*
X192866666Y-85504167D01*
X192833333Y-85537500D01*
X192766666Y-85570833D01*
X192500000Y-85570833D01*
X193200000Y-85204167D02*
X193200000Y-85770833D01*
X193233333Y-85837500D01*
X193266666Y-85870833D01*
X193333333Y-85904167D01*
X193466666Y-85904167D01*
X193533333Y-85870833D01*
X193566666Y-85837500D01*
X193600000Y-85770833D01*
X193600000Y-85204167D01*
X194266666Y-85904167D02*
X193933333Y-85904167D01*
X193933333Y-85204167D01*
X194466666Y-85870833D02*
X194566666Y-85904167D01*
X194733333Y-85904167D01*
X194800000Y-85870833D01*
X194833333Y-85837500D01*
X194866666Y-85770833D01*
X194866666Y-85704167D01*
X194833333Y-85637500D01*
X194800000Y-85604167D01*
X194733333Y-85570833D01*
X194600000Y-85537500D01*
X194533333Y-85504167D01*
X194500000Y-85470833D01*
X194466666Y-85404167D01*
X194466666Y-85337500D01*
X194500000Y-85270833D01*
X194533333Y-85237500D01*
X194600000Y-85204167D01*
X194766666Y-85204167D01*
X194866666Y-85237500D01*
X195166667Y-85537500D02*
X195400000Y-85537500D01*
X195500000Y-85904167D02*
X195166667Y-85904167D01*
X195166667Y-85204167D01*
X195500000Y-85204167D01*
X196299999Y-85270833D02*
X196333333Y-85237500D01*
X196399999Y-85204167D01*
X196566666Y-85204167D01*
X196633333Y-85237500D01*
X196666666Y-85270833D01*
X196699999Y-85337500D01*
X196699999Y-85404167D01*
X196666666Y-85504167D01*
X196266666Y-85904167D01*
X196699999Y-85904167D01*
X197300000Y-85437500D02*
X197300000Y-85904167D01*
X197133333Y-85170833D02*
X196966666Y-85670833D01*
X197400000Y-85670833D01*
X197800000Y-85204167D02*
X197866667Y-85204167D01*
X197933333Y-85237500D01*
X197966667Y-85270833D01*
X198000000Y-85337500D01*
X198033333Y-85470833D01*
X198033333Y-85637500D01*
X198000000Y-85770833D01*
X197966667Y-85837500D01*
X197933333Y-85870833D01*
X197866667Y-85904167D01*
X197800000Y-85904167D01*
X197733333Y-85870833D01*
X197700000Y-85837500D01*
X197666667Y-85770833D01*
X197633333Y-85637500D01*
X197633333Y-85470833D01*
X197666667Y-85337500D01*
X197700000Y-85270833D01*
X197733333Y-85237500D01*
X197800000Y-85204167D01*
X198300000Y-85704167D02*
X198633334Y-85704167D01*
X198233334Y-85904167D02*
X198466667Y-85204167D01*
X198700000Y-85904167D01*
D12*
X201250000Y-131500000D02*
X201000000Y-131500000D01*
D13*
X236583333Y-106702381D02*
X235916666Y-107702381D01*
X235916666Y-106702381D02*
X236583333Y-107702381D01*
X191500000Y-143761904D02*
X191452381Y-143857142D01*
X191452381Y-143999999D01*
X191500000Y-144142857D01*
X191595238Y-144238095D01*
X191690476Y-144285714D01*
X191880952Y-144333333D01*
X192023810Y-144333333D01*
X192214286Y-144285714D01*
X192309524Y-144238095D01*
X192404762Y-144142857D01*
X192452381Y-143999999D01*
X192452381Y-143904761D01*
X192404762Y-143761904D01*
X192357143Y-143714285D01*
X192023810Y-143714285D01*
X192023810Y-143904761D01*
X192452381Y-143285714D02*
X191452381Y-143285714D01*
X192452381Y-142714285D01*
X191452381Y-142714285D01*
X192452381Y-142238095D02*
X191452381Y-142238095D01*
X191452381Y-142000000D01*
X191500000Y-141857142D01*
X191595238Y-141761904D01*
X191690476Y-141714285D01*
X191880952Y-141666666D01*
X192023810Y-141666666D01*
X192214286Y-141714285D01*
X192309524Y-141761904D01*
X192404762Y-141857142D01*
X192452381Y-142000000D01*
X192452381Y-142238095D01*
X203202381Y-145797619D02*
X204202381Y-145464286D01*
X203202381Y-145130952D01*
X204297619Y-145035714D02*
X204297619Y-144273809D01*
X204154762Y-144083333D02*
X204202381Y-143940476D01*
X204202381Y-143702380D01*
X204154762Y-143607142D01*
X204107143Y-143559523D01*
X204011905Y-143511904D01*
X203916667Y-143511904D01*
X203821429Y-143559523D01*
X203773810Y-143607142D01*
X203726190Y-143702380D01*
X203678571Y-143892857D01*
X203630952Y-143988095D01*
X203583333Y-144035714D01*
X203488095Y-144083333D01*
X203392857Y-144083333D01*
X203297619Y-144035714D01*
X203250000Y-143988095D01*
X203202381Y-143892857D01*
X203202381Y-143654761D01*
X203250000Y-143511904D01*
X203202381Y-143083333D02*
X204011905Y-143083333D01*
X204107143Y-143035714D01*
X204154762Y-142988095D01*
X204202381Y-142892857D01*
X204202381Y-142702380D01*
X204154762Y-142607142D01*
X204107143Y-142559523D01*
X204011905Y-142511904D01*
X203202381Y-142511904D01*
X204202381Y-142035714D02*
X203202381Y-142035714D01*
X203202381Y-141654761D01*
X203250000Y-141559523D01*
X203297619Y-141511904D01*
X203392857Y-141464285D01*
X203535714Y-141464285D01*
X203630952Y-141511904D01*
X203678571Y-141559523D01*
X203726190Y-141654761D01*
X203726190Y-142035714D01*
X204202381Y-141035714D02*
X203202381Y-141035714D01*
X203202381Y-140654761D01*
X203250000Y-140559523D01*
X203297619Y-140511904D01*
X203392857Y-140464285D01*
X203535714Y-140464285D01*
X203630952Y-140511904D01*
X203678571Y-140559523D01*
X203726190Y-140654761D01*
X203726190Y-141035714D01*
X204202381Y-139559523D02*
X204202381Y-140035714D01*
X203202381Y-140035714D01*
X203726190Y-139035714D02*
X204202381Y-139035714D01*
X203202381Y-139369047D02*
X203726190Y-139035714D01*
X203202381Y-138702380D01*
D11*
X185333334Y-138964286D02*
X185166668Y-138964286D01*
X185166668Y-139226190D02*
X185166668Y-138726190D01*
X185404763Y-138726190D01*
X185690477Y-138726190D02*
X185785715Y-138726190D01*
X185833334Y-138750000D01*
X185880953Y-138797619D01*
X185904762Y-138892857D01*
X185904762Y-139059524D01*
X185880953Y-139154762D01*
X185833334Y-139202381D01*
X185785715Y-139226190D01*
X185690477Y-139226190D01*
X185642858Y-139202381D01*
X185595239Y-139154762D01*
X185571429Y-139059524D01*
X185571429Y-138892857D01*
X185595239Y-138797619D01*
X185642858Y-138750000D01*
X185690477Y-138726190D01*
X186404763Y-139226190D02*
X186238096Y-138988095D01*
X186119049Y-139226190D02*
X186119049Y-138726190D01*
X186309525Y-138726190D01*
X186357144Y-138750000D01*
X186380953Y-138773810D01*
X186404763Y-138821429D01*
X186404763Y-138892857D01*
X186380953Y-138940476D01*
X186357144Y-138964286D01*
X186309525Y-138988095D01*
X186119049Y-138988095D01*
X186928572Y-138726190D02*
X187214286Y-138726190D01*
X187071429Y-139226190D02*
X187071429Y-138726190D01*
X187380953Y-138964286D02*
X187547619Y-138964286D01*
X187619048Y-139226190D02*
X187380953Y-139226190D01*
X187380953Y-138726190D01*
X187619048Y-138726190D01*
X187809524Y-139202381D02*
X187880953Y-139226190D01*
X188000000Y-139226190D01*
X188047619Y-139202381D01*
X188071429Y-139178571D01*
X188095238Y-139130952D01*
X188095238Y-139083333D01*
X188071429Y-139035714D01*
X188047619Y-139011905D01*
X188000000Y-138988095D01*
X187904762Y-138964286D01*
X187857143Y-138940476D01*
X187833334Y-138916667D01*
X187809524Y-138869048D01*
X187809524Y-138821429D01*
X187833334Y-138773810D01*
X187857143Y-138750000D01*
X187904762Y-138726190D01*
X188023810Y-138726190D01*
X188095238Y-138750000D01*
X188238095Y-138726190D02*
X188523809Y-138726190D01*
X188380952Y-139226190D02*
X188380952Y-138726190D01*
X188690476Y-139226190D02*
X188690476Y-138726190D01*
X188928571Y-139226190D02*
X188928571Y-138726190D01*
X189214285Y-139226190D01*
X189214285Y-138726190D01*
X189714285Y-138750000D02*
X189666666Y-138726190D01*
X189595238Y-138726190D01*
X189523809Y-138750000D01*
X189476190Y-138797619D01*
X189452381Y-138845238D01*
X189428571Y-138940476D01*
X189428571Y-139011905D01*
X189452381Y-139107143D01*
X189476190Y-139154762D01*
X189523809Y-139202381D01*
X189595238Y-139226190D01*
X189642857Y-139226190D01*
X189714285Y-139202381D01*
X189738095Y-139178571D01*
X189738095Y-139011905D01*
X189642857Y-139011905D01*
X190333333Y-139226190D02*
X190333333Y-138726190D01*
X190523809Y-138726190D01*
X190571428Y-138750000D01*
X190595237Y-138773810D01*
X190619047Y-138821429D01*
X190619047Y-138892857D01*
X190595237Y-138940476D01*
X190571428Y-138964286D01*
X190523809Y-138988095D01*
X190333333Y-138988095D01*
X190833333Y-138726190D02*
X190833333Y-139130952D01*
X190857142Y-139178571D01*
X190880952Y-139202381D01*
X190928571Y-139226190D01*
X191023809Y-139226190D01*
X191071428Y-139202381D01*
X191095237Y-139178571D01*
X191119047Y-139130952D01*
X191119047Y-138726190D01*
X191642857Y-139226190D02*
X191476190Y-138988095D01*
X191357143Y-139226190D02*
X191357143Y-138726190D01*
X191547619Y-138726190D01*
X191595238Y-138750000D01*
X191619047Y-138773810D01*
X191642857Y-138821429D01*
X191642857Y-138892857D01*
X191619047Y-138940476D01*
X191595238Y-138964286D01*
X191547619Y-138988095D01*
X191357143Y-138988095D01*
X191857143Y-139226190D02*
X191857143Y-138726190D01*
X192047619Y-138726190D01*
X192095238Y-138750000D01*
X192119047Y-138773810D01*
X192142857Y-138821429D01*
X192142857Y-138892857D01*
X192119047Y-138940476D01*
X192095238Y-138964286D01*
X192047619Y-138988095D01*
X191857143Y-138988095D01*
X192452381Y-138726190D02*
X192547619Y-138726190D01*
X192595238Y-138750000D01*
X192642857Y-138797619D01*
X192666666Y-138892857D01*
X192666666Y-139059524D01*
X192642857Y-139154762D01*
X192595238Y-139202381D01*
X192547619Y-139226190D01*
X192452381Y-139226190D01*
X192404762Y-139202381D01*
X192357143Y-139154762D01*
X192333333Y-139059524D01*
X192333333Y-138892857D01*
X192357143Y-138797619D01*
X192404762Y-138750000D01*
X192452381Y-138726190D01*
X192857143Y-139202381D02*
X192928572Y-139226190D01*
X193047619Y-139226190D01*
X193095238Y-139202381D01*
X193119048Y-139178571D01*
X193142857Y-139130952D01*
X193142857Y-139083333D01*
X193119048Y-139035714D01*
X193095238Y-139011905D01*
X193047619Y-138988095D01*
X192952381Y-138964286D01*
X192904762Y-138940476D01*
X192880953Y-138916667D01*
X192857143Y-138869048D01*
X192857143Y-138821429D01*
X192880953Y-138773810D01*
X192904762Y-138750000D01*
X192952381Y-138726190D01*
X193071429Y-138726190D01*
X193142857Y-138750000D01*
X193357143Y-138964286D02*
X193523809Y-138964286D01*
X193595238Y-139226190D02*
X193357143Y-139226190D01*
X193357143Y-138726190D01*
X193595238Y-138726190D01*
X194285714Y-138726190D02*
X194380952Y-138726190D01*
X194428571Y-138750000D01*
X194476190Y-138797619D01*
X194499999Y-138892857D01*
X194499999Y-139059524D01*
X194476190Y-139154762D01*
X194428571Y-139202381D01*
X194380952Y-139226190D01*
X194285714Y-139226190D01*
X194238095Y-139202381D01*
X194190476Y-139154762D01*
X194166666Y-139059524D01*
X194166666Y-138892857D01*
X194190476Y-138797619D01*
X194238095Y-138750000D01*
X194285714Y-138726190D01*
X194714286Y-139226190D02*
X194714286Y-138726190D01*
X195000000Y-139226190D01*
X195000000Y-138726190D01*
X195476191Y-139226190D02*
X195238096Y-139226190D01*
X195238096Y-138726190D01*
X195738096Y-138988095D02*
X195738096Y-139226190D01*
X195571429Y-138726190D02*
X195738096Y-138988095D01*
X195904762Y-138726190D01*
D13*
X184904762Y-136952381D02*
X185238095Y-137952381D01*
X185571429Y-136952381D01*
X185904762Y-137428571D02*
X186238096Y-137428571D01*
X186380953Y-137952381D02*
X185904762Y-137952381D01*
X185904762Y-136952381D01*
X186380953Y-136952381D01*
X187380953Y-137952381D02*
X187047619Y-137476190D01*
X186809524Y-137952381D02*
X186809524Y-136952381D01*
X187190477Y-136952381D01*
X187285715Y-137000000D01*
X187333334Y-137047619D01*
X187380953Y-137142857D01*
X187380953Y-137285714D01*
X187333334Y-137380952D01*
X187285715Y-137428571D01*
X187190477Y-137476190D01*
X186809524Y-137476190D01*
X187761905Y-137904762D02*
X187904762Y-137952381D01*
X188142858Y-137952381D01*
X188238096Y-137904762D01*
X188285715Y-137857143D01*
X188333334Y-137761905D01*
X188333334Y-137666667D01*
X188285715Y-137571429D01*
X188238096Y-137523810D01*
X188142858Y-137476190D01*
X187952381Y-137428571D01*
X187857143Y-137380952D01*
X187809524Y-137333333D01*
X187761905Y-137238095D01*
X187761905Y-137142857D01*
X187809524Y-137047619D01*
X187857143Y-137000000D01*
X187952381Y-136952381D01*
X188190477Y-136952381D01*
X188333334Y-137000000D01*
X188761905Y-137952381D02*
X188761905Y-136952381D01*
X189428571Y-136952381D02*
X189619048Y-136952381D01*
X189714286Y-137000000D01*
X189809524Y-137095238D01*
X189857143Y-137285714D01*
X189857143Y-137619048D01*
X189809524Y-137809524D01*
X189714286Y-137904762D01*
X189619048Y-137952381D01*
X189428571Y-137952381D01*
X189333333Y-137904762D01*
X189238095Y-137809524D01*
X189190476Y-137619048D01*
X189190476Y-137285714D01*
X189238095Y-137095238D01*
X189333333Y-137000000D01*
X189428571Y-136952381D01*
X190285714Y-137952381D02*
X190285714Y-136952381D01*
X190857143Y-137952381D01*
X190857143Y-136952381D01*
X192619048Y-137952381D02*
X192047619Y-137952381D01*
X192333333Y-137952381D02*
X192333333Y-136952381D01*
X192238095Y-137095238D01*
X192142857Y-137190476D01*
X192047619Y-137238095D01*
X193047619Y-137857143D02*
X193095238Y-137904762D01*
X193047619Y-137952381D01*
X193000000Y-137904762D01*
X193047619Y-137857143D01*
X193047619Y-137952381D01*
X194047619Y-137952381D02*
X193476190Y-137952381D01*
X193761904Y-137952381D02*
X193761904Y-136952381D01*
X193666666Y-137095238D01*
X193571428Y-137190476D01*
X193476190Y-137238095D01*
X195000000Y-137952381D02*
X194428571Y-137952381D01*
X194714285Y-137952381D02*
X194714285Y-136952381D01*
X194619047Y-137095238D01*
X194523809Y-137190476D01*
X194428571Y-137238095D01*
D14*
X185226190Y-134404762D02*
X186559524Y-136404762D01*
X186559524Y-134404762D02*
X185226190Y-136404762D01*
X187321428Y-136404762D02*
X187321428Y-134404762D01*
X187988095Y-135833333D01*
X188654762Y-134404762D01*
X188654762Y-136404762D01*
X190750000Y-136214286D02*
X190654762Y-136309524D01*
X190369047Y-136404762D01*
X190178571Y-136404762D01*
X189892857Y-136309524D01*
X189702381Y-136119048D01*
X189607142Y-135928571D01*
X189511904Y-135547619D01*
X189511904Y-135261905D01*
X189607142Y-134880952D01*
X189702381Y-134690476D01*
X189892857Y-134500000D01*
X190178571Y-134404762D01*
X190369047Y-134404762D01*
X190654762Y-134500000D01*
X190750000Y-134595238D01*
X193035714Y-134595238D02*
X193130952Y-134500000D01*
X193321429Y-134404762D01*
X193797619Y-134404762D01*
X193988095Y-134500000D01*
X194083333Y-134595238D01*
X194178572Y-134785714D01*
X194178572Y-134976190D01*
X194083333Y-135261905D01*
X192940476Y-136404762D01*
X194178572Y-136404762D01*
D15*
X240900000Y-110400000D02*
X244700000Y-110400000D01*
X240900000Y-102700000D02*
X244800000Y-102700000D01*
X240900000Y-102700000D02*
X240900000Y-110300000D01*
X245100000Y-110400000D02*
X244700000Y-110400000D01*
X245100000Y-102700000D02*
X244800000Y-102700000D01*
X245100000Y-102700000D02*
X245100000Y-110400000D01*
D16*
X236397000Y-116956500D02*
X233603000Y-116956500D01*
X236397000Y-117528000D02*
X236397000Y-113972000D01*
X236397000Y-113972000D02*
X233603000Y-113972000D01*
X233603000Y-113972000D02*
X233603000Y-117528000D01*
X233603000Y-117528000D02*
X236397000Y-117528000D01*
X235956500Y-102853000D02*
X235956500Y-105647000D01*
X236528000Y-102853000D02*
X232972000Y-102853000D01*
X232972000Y-102853000D02*
X232972000Y-105647000D01*
X232972000Y-105647000D02*
X236528000Y-105647000D01*
X236528000Y-105647000D02*
X236528000Y-102853000D01*
D17*
X236254000Y-128746000D02*
X235746000Y-128746000D01*
X235746000Y-128746000D02*
X235746000Y-129254000D01*
X236254000Y-129254000D02*
X235746000Y-129254000D01*
X236254000Y-128746000D02*
X236254000Y-129254000D01*
X238794000Y-128746000D02*
X238286000Y-128746000D01*
X238286000Y-128746000D02*
X238286000Y-129254000D01*
X238794000Y-129254000D02*
X238286000Y-129254000D01*
X238794000Y-128746000D02*
X238794000Y-129254000D01*
X233714000Y-128746000D02*
X233206000Y-128746000D01*
X233206000Y-128746000D02*
X233206000Y-129254000D01*
X233714000Y-129254000D02*
X233206000Y-129254000D01*
X233714000Y-128746000D02*
X233714000Y-129254000D01*
D18*
X239175000Y-130270000D02*
X237905000Y-130270000D01*
X237905000Y-130270000D02*
X237270000Y-129635000D01*
X237270000Y-129635000D02*
X237270000Y-128365000D01*
X237270000Y-128365000D02*
X237905000Y-127730000D01*
X237270000Y-129635000D02*
X236635000Y-130270000D01*
X236635000Y-130270000D02*
X235365000Y-130270000D01*
X235365000Y-130270000D02*
X234730000Y-129635000D01*
X234730000Y-129635000D02*
X234730000Y-128365000D01*
X234730000Y-128365000D02*
X235365000Y-127730000D01*
X235365000Y-127730000D02*
X236635000Y-127730000D01*
X236635000Y-127730000D02*
X237270000Y-128365000D01*
X239810000Y-129635000D02*
X239810000Y-128365000D01*
X239175000Y-130270000D02*
X239810000Y-129635000D01*
X239810000Y-128365000D02*
X239175000Y-127730000D01*
X237905000Y-127730000D02*
X239175000Y-127730000D01*
X234730000Y-129635000D02*
X234095000Y-130270000D01*
X234095000Y-130270000D02*
X232825000Y-130270000D01*
X232825000Y-130270000D02*
X232190000Y-129635000D01*
X232190000Y-129635000D02*
X232190000Y-128365000D01*
X232190000Y-128365000D02*
X232825000Y-127730000D01*
X232825000Y-127730000D02*
X234095000Y-127730000D01*
X234095000Y-127730000D02*
X234730000Y-128365000D01*
D19*
X242499740Y-96500000D02*
G75*
G03X242499740Y-96500000I-2999740J0D01*
G01*
X236299600Y-98801240D02*
X242700400Y-98801240D01*
X242700400Y-94198760D02*
X236299600Y-94198760D01*
X243500500Y-96500000D02*
G75*
G03X243500500Y-96500000I-4000500J0D01*
G01*
X225450420Y-84748860D02*
X225450420Y-85851220D01*
X225450420Y-89049080D02*
X225450420Y-86648780D01*
X239049580Y-84748860D02*
X239049580Y-85851220D01*
X239049580Y-89049080D02*
X239049580Y-86648780D01*
X236250500Y-84748860D02*
X239049580Y-84748860D01*
X239049580Y-89049080D02*
X225450420Y-89049080D01*
X225450420Y-84748860D02*
X228249500Y-84748860D01*
X225950420Y-141498860D02*
X225950420Y-142601220D01*
X225950420Y-145799080D02*
X225950420Y-143398780D01*
X239549580Y-141498860D02*
X239549580Y-142601220D01*
X239549580Y-145799080D02*
X239549580Y-143398780D01*
X236750500Y-141498860D02*
X239549580Y-141498860D01*
X239549580Y-145799080D02*
X225950420Y-145799080D01*
X225950420Y-141498860D02*
X228749500Y-141498860D01*
X245099260Y-129699000D02*
X245099260Y-145701000D01*
X241098760Y-145200620D02*
X241098760Y-130199380D01*
X240600920Y-129699000D02*
X240600920Y-145701000D01*
X241098760Y-142597120D02*
X241599140Y-142597120D01*
X241599140Y-142597120D02*
X241599140Y-142795240D01*
X241599140Y-142795240D02*
X241098760Y-142795240D01*
X241098760Y-138596620D02*
X241599140Y-138596620D01*
X241599140Y-138596620D02*
X241599140Y-138794740D01*
X241599140Y-138794740D02*
X241098760Y-138794740D01*
X241599140Y-140796260D02*
X241098760Y-140796260D01*
X241599140Y-140598140D02*
X241599140Y-140796260D01*
X241098760Y-140598140D02*
X241599140Y-140598140D01*
X241599140Y-134796780D02*
X241098760Y-134796780D01*
X241599140Y-134598660D02*
X241599140Y-134796780D01*
X241098760Y-134598660D02*
X241599140Y-134598660D01*
X241599140Y-132795260D02*
X241098760Y-132795260D01*
X241599140Y-132597140D02*
X241599140Y-132795260D01*
X241098760Y-132597140D02*
X241599140Y-132597140D01*
X241098760Y-136597640D02*
X241599140Y-136597640D01*
X241599140Y-136597640D02*
X241599140Y-136795760D01*
X241599140Y-136795760D02*
X241098760Y-136795760D01*
X243900380Y-145698460D02*
X243900380Y-145198080D01*
X242599900Y-145198080D02*
X242599900Y-145698460D01*
X242599900Y-130196840D02*
X242599900Y-129696460D01*
X243900380Y-130196840D02*
X243900380Y-129696460D01*
X245099260Y-132195820D02*
X244598880Y-132195820D01*
X244598880Y-132195820D02*
X244598880Y-130196840D01*
X244598880Y-130196840D02*
X241098760Y-130196840D01*
X241098760Y-145198080D02*
X244598880Y-145198080D01*
X244598880Y-145198080D02*
X244598880Y-143199100D01*
X244598880Y-143199100D02*
X245099260Y-143199100D01*
X245099260Y-129696460D02*
X240600920Y-129696460D01*
X245099260Y-145698460D02*
X240600920Y-145698460D01*
X245099260Y-131395720D02*
X245299920Y-131395720D01*
X245299920Y-131395720D02*
X245299920Y-131096000D01*
X245299920Y-131096000D02*
X245099260Y-131096000D01*
D15*
X204450000Y-140200000D02*
X209050000Y-140200000D01*
X209050000Y-140200000D02*
X209050000Y-145800000D01*
X209050000Y-145800000D02*
X204450000Y-145800000D01*
X204450000Y-145800000D02*
X204450000Y-140200000D01*
X192700000Y-140200000D02*
X197300000Y-140200000D01*
X197300000Y-140200000D02*
X197300000Y-145800000D01*
X197300000Y-145800000D02*
X192700000Y-145800000D01*
X192700000Y-145800000D02*
X192700000Y-140200000D01*
X183950000Y-93550000D02*
X183950000Y-88950000D01*
X183950000Y-88950000D02*
X189550000Y-88950000D01*
X189550000Y-88950000D02*
X189550000Y-93550000D01*
X189550000Y-93550000D02*
X183950000Y-93550000D01*
X183950000Y-104800000D02*
X183950000Y-100200000D01*
X183950000Y-100200000D02*
X189550000Y-100200000D01*
X189550000Y-100200000D02*
X189550000Y-104800000D01*
X189550000Y-104800000D02*
X183950000Y-104800000D01*
X183950000Y-116300000D02*
X183950000Y-111700000D01*
X183950000Y-111700000D02*
X189550000Y-111700000D01*
X189550000Y-111700000D02*
X189550000Y-116300000D01*
X189550000Y-116300000D02*
X183950000Y-116300000D01*
D19*
X241599140Y-123449060D02*
X241098760Y-123449060D01*
X241599140Y-123250940D02*
X241599140Y-123449060D01*
X241098760Y-123250940D02*
X241599140Y-123250940D01*
X240600920Y-118348740D02*
X240600920Y-128351260D01*
X241098760Y-127850880D02*
X241098760Y-118849120D01*
X245099260Y-118348740D02*
X245099260Y-128351260D01*
X241599140Y-121447540D02*
X241098760Y-121447540D01*
X241599140Y-121249420D02*
X241599140Y-121447540D01*
X241098760Y-121249420D02*
X241599140Y-121249420D01*
X241098760Y-125249920D02*
X241599140Y-125249920D01*
X241599140Y-125249920D02*
X241599140Y-125448040D01*
X241599140Y-125448040D02*
X241098760Y-125448040D01*
X243900380Y-128351260D02*
X243900380Y-127850880D01*
X242599900Y-127850880D02*
X242599900Y-128351260D01*
X242599900Y-118849120D02*
X242599900Y-118348740D01*
X243900380Y-118849120D02*
X243900380Y-118348740D01*
X245099260Y-120848100D02*
X244598880Y-120848100D01*
X244598880Y-120848100D02*
X244598880Y-118849120D01*
X244598880Y-118849120D02*
X241098760Y-118849120D01*
X241098760Y-127850880D02*
X244598880Y-127850880D01*
X244598880Y-127850880D02*
X244598880Y-125851900D01*
X244598880Y-125851900D02*
X245099260Y-125851900D01*
X245099260Y-118348740D02*
X240600920Y-118348740D01*
X245099260Y-128351260D02*
X240600920Y-128351260D01*
X245099260Y-120048000D02*
X245299920Y-120048000D01*
X245299920Y-120048000D02*
X245299920Y-119748280D01*
X245299920Y-119748280D02*
X245099260Y-119748280D01*
D16*
X236750380Y-107948500D02*
X237456500Y-107948500D01*
X237456500Y-107948500D02*
X237456500Y-106551500D01*
X237456500Y-106551500D02*
X236750380Y-106551500D01*
X235043500Y-107948500D02*
X235749620Y-107948500D01*
X235043500Y-107948500D02*
X235043500Y-106551500D01*
X235043500Y-106551500D02*
X235749620Y-106551500D01*
X229249620Y-116551500D02*
X228543500Y-116551500D01*
X228543500Y-116551500D02*
X228543500Y-117948500D01*
X228543500Y-117948500D02*
X229249620Y-117948500D01*
X230956500Y-116551500D02*
X230250380Y-116551500D01*
X230956500Y-116551500D02*
X230956500Y-117948500D01*
X230956500Y-117948500D02*
X230250380Y-117948500D01*
X229249620Y-114801500D02*
X228543500Y-114801500D01*
X228543500Y-114801500D02*
X228543500Y-116198500D01*
X228543500Y-116198500D02*
X229249620Y-116198500D01*
X230956500Y-114801500D02*
X230250380Y-114801500D01*
X230956500Y-114801500D02*
X230956500Y-116198500D01*
X230956500Y-116198500D02*
X230250380Y-116198500D01*
X217801500Y-141250380D02*
X217801500Y-141956500D01*
X217801500Y-141956500D02*
X219198500Y-141956500D01*
X219198500Y-141956500D02*
X219198500Y-141250380D01*
X217801500Y-139543500D02*
X217801500Y-140249620D01*
X217801500Y-139543500D02*
X219198500Y-139543500D01*
X219198500Y-139543500D02*
X219198500Y-140249620D01*
X207999620Y-134801500D02*
X207293500Y-134801500D01*
X207293500Y-134801500D02*
X207293500Y-136198500D01*
X207293500Y-136198500D02*
X207999620Y-136198500D01*
X209706500Y-134801500D02*
X209000380Y-134801500D01*
X209706500Y-134801500D02*
X209706500Y-136198500D01*
X209706500Y-136198500D02*
X209000380Y-136198500D01*
X219551500Y-141250380D02*
X219551500Y-141956500D01*
X219551500Y-141956500D02*
X220948500Y-141956500D01*
X220948500Y-141956500D02*
X220948500Y-141250380D01*
X219551500Y-139543500D02*
X219551500Y-140249620D01*
X219551500Y-139543500D02*
X220948500Y-139543500D01*
X220948500Y-139543500D02*
X220948500Y-140249620D01*
X221301500Y-141250380D02*
X221301500Y-141956500D01*
X221301500Y-141956500D02*
X222698500Y-141956500D01*
X222698500Y-141956500D02*
X222698500Y-141250380D01*
X221301500Y-139543500D02*
X221301500Y-140249620D01*
X221301500Y-139543500D02*
X222698500Y-139543500D01*
X222698500Y-139543500D02*
X222698500Y-140249620D01*
D19*
X222429000Y-101397000D02*
X222429000Y-94793000D01*
X222429000Y-94793000D02*
X215571000Y-94793000D01*
X215571000Y-94793000D02*
X215571000Y-101397000D01*
X215571000Y-101397000D02*
X222429000Y-101397000D01*
X215571000Y-85353000D02*
X215571000Y-91957000D01*
X215571000Y-91957000D02*
X222429000Y-91957000D01*
X222429000Y-91957000D02*
X222429000Y-85353000D01*
X222429000Y-85353000D02*
X215571000Y-85353000D01*
D16*
X235749620Y-110551500D02*
X235043500Y-110551500D01*
X235043500Y-110551500D02*
X235043500Y-111948500D01*
X235043500Y-111948500D02*
X235749620Y-111948500D01*
X237456500Y-110551500D02*
X236750380Y-110551500D01*
X237456500Y-110551500D02*
X237456500Y-111948500D01*
X237456500Y-111948500D02*
X236750380Y-111948500D01*
X235749620Y-108551500D02*
X235043500Y-108551500D01*
X235043500Y-108551500D02*
X235043500Y-109948500D01*
X235043500Y-109948500D02*
X235749620Y-109948500D01*
X237456500Y-108551500D02*
X236750380Y-108551500D01*
X237456500Y-108551500D02*
X237456500Y-109948500D01*
X237456500Y-109948500D02*
X236750380Y-109948500D01*
X214246200Y-135995800D02*
X214246200Y-127004200D01*
X214754200Y-136503800D02*
X223745800Y-136503800D01*
X224253800Y-127004200D02*
X224253800Y-135995800D01*
X214754200Y-126496200D02*
X223745800Y-126496200D01*
X215643200Y-127512200D02*
G75*
G03X215643200Y-127512200I-381000J0D01*
G01*
X214246200Y-127004200D02*
X214754200Y-126496200D01*
X214754200Y-136503800D02*
X214246200Y-135995800D01*
X224253800Y-135995800D02*
X223745800Y-136503800D01*
X223745800Y-126496200D02*
X224253800Y-127004200D01*
X222499740Y-119646480D02*
X222499740Y-104647780D01*
X216500260Y-104647780D02*
X216500260Y-119646480D01*
X216500260Y-104647780D02*
X222499740Y-104647780D01*
X222499740Y-119646480D02*
X216500260Y-119646480D01*
X222263718Y-119130860D02*
G75*
G03X222263718Y-119130860I-406598J0D01*
G01*
X232472000Y-120083000D02*
X232345000Y-120083000D01*
X232345000Y-120083000D02*
X232345000Y-125417000D01*
X236155000Y-125417000D02*
X236155000Y-120083000D01*
X236155000Y-120083000D02*
X232472000Y-120083000D01*
X234758000Y-120083000D02*
X234758000Y-120591000D01*
X234758000Y-120591000D02*
X233742000Y-120591000D01*
X233742000Y-120591000D02*
X233742000Y-120083000D01*
X236155000Y-125417000D02*
X232345000Y-125417000D01*
D20*
X212499360Y-124850200D02*
X207500640Y-124850200D01*
X207500640Y-124850200D02*
X207500640Y-121649800D01*
X207500640Y-121649800D02*
X212499360Y-121649800D01*
X212499360Y-121649800D02*
X212499360Y-124850200D01*
D15*
X196550920Y-94800920D02*
X189449080Y-94800920D01*
X189449080Y-94800920D02*
X189449080Y-87699080D01*
X189449080Y-87699080D02*
X196550920Y-87699080D01*
X196550920Y-87699080D02*
X196550920Y-94800920D01*
X200699080Y-93800920D02*
X200699080Y-86699080D01*
X200699080Y-86699080D02*
X207800920Y-86699080D01*
X207800920Y-86699080D02*
X207800920Y-93800920D01*
X207800920Y-93800920D02*
X200699080Y-93800920D01*
X196550920Y-106050920D02*
X189449080Y-106050920D01*
X189449080Y-106050920D02*
X189449080Y-98949080D01*
X189449080Y-98949080D02*
X196550920Y-98949080D01*
X196550920Y-98949080D02*
X196550920Y-106050920D01*
X200699080Y-106050920D02*
X200699080Y-98949080D01*
X200699080Y-98949080D02*
X207800920Y-98949080D01*
X207800920Y-98949080D02*
X207800920Y-106050920D01*
X207800920Y-106050920D02*
X200699080Y-106050920D01*
X196550920Y-117550920D02*
X189449080Y-117550920D01*
X189449080Y-117550920D02*
X189449080Y-110449080D01*
X189449080Y-110449080D02*
X196550920Y-110449080D01*
X196550920Y-110449080D02*
X196550920Y-117550920D01*
X200699080Y-118050920D02*
X200699080Y-110949080D01*
X200699080Y-110949080D02*
X207800920Y-110949080D01*
X207800920Y-110949080D02*
X207800920Y-118050920D01*
X207800920Y-118050920D02*
X200699080Y-118050920D01*
D21*
X222500000Y-142450000D02*
X221500000Y-142450000D01*
X221500000Y-142450000D02*
X221500000Y-144550000D01*
X222500000Y-142450000D02*
X222500000Y-144550000D01*
X220750000Y-142450000D02*
X219750000Y-142450000D01*
X219750000Y-142450000D02*
X219750000Y-144550000D01*
X220750000Y-142450000D02*
X220750000Y-144550000D01*
X219000000Y-142450000D02*
X218000000Y-142450000D01*
X218000000Y-142450000D02*
X218000000Y-144550000D01*
X219000000Y-142450000D02*
X219000000Y-144550000D01*
D16*
X231100580Y-102649540D02*
X231100580Y-99850460D01*
X230998980Y-99850460D02*
X230998980Y-102649540D01*
X230899920Y-102649540D02*
X230899920Y-99850460D01*
X230800860Y-99850460D02*
X230800860Y-102649540D01*
X230699260Y-99850460D02*
X230699260Y-102649540D01*
X231199640Y-99850460D02*
X226800360Y-99850460D01*
X226800360Y-99850460D02*
X226800360Y-102649540D01*
X226800360Y-102649540D02*
X231199640Y-102649540D01*
X231199640Y-102649540D02*
X231199640Y-99850460D01*
D21*
X232660000Y-92590000D02*
X231400000Y-92590000D01*
X225840000Y-92590000D02*
X227100000Y-92590000D01*
X232660000Y-96350000D02*
X232660000Y-92590000D01*
X225840000Y-98600000D02*
X225840000Y-92590000D01*
X190036000Y-142500000D02*
G75*
G03X190036000Y-142500000I-2286000J0D01*
G01*
X213536000Y-87000000D02*
G75*
G03X213536000Y-87000000I-2286000J0D01*
G01*
X244036000Y-114500000D02*
G75*
G03X244036000Y-114500000I-2286000J0D01*
G01*
D16*
X227751020Y-105448760D02*
X231748980Y-105448760D01*
X231748980Y-105550360D02*
X227751020Y-105550360D01*
X227751020Y-105649420D02*
X231748980Y-105649420D01*
X231748980Y-105751020D02*
X227751020Y-105751020D01*
X227751020Y-105850080D02*
X231748980Y-105850080D01*
X227751020Y-105949140D02*
X231748980Y-105949140D01*
X227751020Y-105349700D02*
X231748980Y-105349700D01*
X231748980Y-105349700D02*
X231748980Y-110150300D01*
X231748980Y-110150300D02*
X227751020Y-110150300D01*
X227751020Y-110150300D02*
X227751020Y-105349700D01*
D15*
X196050000Y-121200000D02*
X199900000Y-121200000D01*
X206350000Y-121200000D02*
X202550000Y-121200000D01*
X202500000Y-121200000D02*
X202500000Y-120300000D01*
X202500000Y-120300000D02*
X199900000Y-120300000D01*
X199900000Y-120300000D02*
X199900000Y-125000000D01*
X199900000Y-125000000D02*
X202500000Y-125000000D01*
X202500000Y-125000000D02*
X202500000Y-121200000D01*
X202500000Y-132800000D02*
X202500000Y-129000000D01*
X202500000Y-129000000D02*
X199900000Y-129000000D01*
X199900000Y-129000000D02*
X199900000Y-132800000D01*
X196150000Y-132800000D02*
X196050000Y-132800000D01*
X206350000Y-132800000D02*
X202500000Y-132800000D01*
X202500000Y-133700000D02*
X202500000Y-133600000D01*
X199900000Y-132800000D02*
X196100000Y-132800000D01*
X202500000Y-133700000D02*
X199900000Y-133700000D01*
X199900000Y-133700000D02*
X199900000Y-132800000D01*
X202500000Y-132800000D02*
X202500000Y-133600000D01*
X206350000Y-132800000D02*
X206350000Y-127000000D01*
X206350000Y-127000000D02*
X206350000Y-121200000D01*
X196050000Y-121200000D02*
X196050000Y-132800000D01*
X185050000Y-121200000D02*
X188900000Y-121200000D01*
X195350000Y-121200000D02*
X191550000Y-121200000D01*
X191500000Y-121200000D02*
X191500000Y-120300000D01*
X191500000Y-120300000D02*
X188900000Y-120300000D01*
X188900000Y-120300000D02*
X188900000Y-125000000D01*
X188900000Y-125000000D02*
X191500000Y-125000000D01*
X191500000Y-125000000D02*
X191500000Y-121200000D01*
X191500000Y-132800000D02*
X191500000Y-129000000D01*
X191500000Y-129000000D02*
X188900000Y-129000000D01*
X188900000Y-129000000D02*
X188900000Y-132800000D01*
X185150000Y-132800000D02*
X185050000Y-132800000D01*
X195350000Y-132800000D02*
X191500000Y-132800000D01*
X191500000Y-133700000D02*
X191500000Y-133600000D01*
X188900000Y-132800000D02*
X185100000Y-132800000D01*
X191500000Y-133700000D02*
X188900000Y-133700000D01*
X188900000Y-133700000D02*
X188900000Y-132800000D01*
X191500000Y-132800000D02*
X191500000Y-133600000D01*
X195350000Y-132800000D02*
X195350000Y-127000000D01*
X195350000Y-127000000D02*
X195350000Y-121200000D01*
X185050000Y-121200000D02*
X185050000Y-132800000D01*
D10*
X242171500Y-104950000D02*
G75*
G03X242171500Y-104950000I-521500J0D01*
G01*
X244771500Y-105750000D02*
G75*
G03X244771500Y-105750000I-521500J0D01*
G01*
X242171500Y-106550000D02*
G75*
G03X242171500Y-106550000I-521500J0D01*
G01*
X244771500Y-107350000D02*
G75*
G03X244771500Y-107350000I-521500J0D01*
G01*
X242171500Y-108150000D02*
G75*
G03X242171500Y-108150000I-521500J0D01*
G01*
X239252000Y-129762000D02*
X239252000Y-128238000D01*
X237828000Y-129762000D02*
X237828000Y-128238000D01*
X239252000Y-128238000D02*
G75*
G03X237828000Y-128238000I-712000J0D01*
G01*
X237828000Y-129762000D02*
G75*
G03X239252000Y-129762000I712000J0D01*
G01*
X236712000Y-129762000D02*
X236712000Y-128238000D01*
X235288000Y-129762000D02*
X235288000Y-128238000D01*
X236712000Y-128238000D02*
G75*
G03X235288000Y-128238000I-712000J0D01*
G01*
X235288000Y-129762000D02*
G75*
G03X236712000Y-129762000I712000J0D01*
G01*
X234172000Y-129762000D02*
X234172000Y-128238000D01*
X232748000Y-129762000D02*
X232748000Y-128238000D01*
X234172000Y-128238000D02*
G75*
G03X232748000Y-128238000I-712000J0D01*
G01*
X232748000Y-129762000D02*
G75*
G03X234172000Y-129762000I712000J0D01*
G01*
X233851000Y-86250000D02*
G75*
G03X233851000Y-86250000I-600240J0D01*
G01*
X231849480Y-86250000D02*
G75*
G03X231849480Y-86250000I-600240J0D01*
G01*
X229850500Y-86250000D02*
G75*
G03X229850500Y-86250000I-600240J0D01*
G01*
X227848980Y-86250000D02*
G75*
G03X227848980Y-86250000I-600240J0D01*
G01*
X235849980Y-86250000D02*
G75*
G03X235849980Y-86250000I-600240J0D01*
G01*
X237851500Y-86250000D02*
G75*
G03X237851500Y-86250000I-600240J0D01*
G01*
X234351000Y-143000000D02*
G75*
G03X234351000Y-143000000I-600240J0D01*
G01*
X232349480Y-143000000D02*
G75*
G03X232349480Y-143000000I-600240J0D01*
G01*
X230350500Y-143000000D02*
G75*
G03X230350500Y-143000000I-600240J0D01*
G01*
X228348980Y-143000000D02*
G75*
G03X228348980Y-143000000I-600240J0D01*
G01*
X236349980Y-143000000D02*
G75*
G03X236349980Y-143000000I-600240J0D01*
G01*
X238351500Y-143000000D02*
G75*
G03X238351500Y-143000000I-600240J0D01*
G01*
X244000000Y-135698480D02*
G75*
G03X244000000Y-135698480I-600000J0D01*
G01*
X244000000Y-133696960D02*
G75*
G03X244000000Y-133696960I-600000J0D01*
G01*
X244000000Y-137697460D02*
G75*
G03X244000000Y-137697460I-600000J0D01*
G01*
X244000000Y-139698980D02*
G75*
G03X244000000Y-139698980I-600000J0D01*
G01*
X244000000Y-141700500D02*
G75*
G03X244000000Y-141700500I-600000J0D01*
G01*
X244000000Y-143699480D02*
G75*
G03X244000000Y-143699480I-600000J0D01*
G01*
X243650190Y-123801320D02*
X243149810Y-123801320D01*
X243650190Y-124900200D02*
X243149810Y-124900200D01*
X243149810Y-123801320D02*
G75*
G03X243149810Y-124900200I0J-549440D01*
G01*
X243650190Y-124900200D02*
G75*
G03X243650190Y-123801320I0J549440D01*
G01*
X243650190Y-121799800D02*
X243149810Y-121799800D01*
X243650190Y-122898680D02*
X243149810Y-122898680D01*
X243149810Y-121799800D02*
G75*
G03X243149810Y-122898680I0J-549440D01*
G01*
X243650190Y-122898680D02*
G75*
G03X243650190Y-121799800I0J549440D01*
G01*
X243650190Y-125800300D02*
X243149810Y-125800300D01*
X243650190Y-126899180D02*
X243149810Y-126899180D01*
X243149810Y-125800300D02*
G75*
G03X243149810Y-126899180I0J-549440D01*
G01*
X243650190Y-126899180D02*
G75*
G03X243650190Y-125800300I0J549440D01*
G01*
D15*
X239302381Y-107509524D02*
X240302381Y-106842857D01*
X239302381Y-106842857D02*
X240302381Y-107509524D01*
X240302381Y-105938095D02*
X240302381Y-106509524D01*
X240302381Y-106223810D02*
X239302381Y-106223810D01*
X239445238Y-106319048D01*
X239540476Y-106414286D01*
X239588095Y-106509524D01*
D22*
X237147207Y-116071672D02*
X237171035Y-116095500D01*
X237194862Y-116166983D01*
X237194862Y-116214638D01*
X237171035Y-116286121D01*
X237123380Y-116333776D01*
X237075724Y-116357604D01*
X236980414Y-116381432D01*
X236908931Y-116381432D01*
X236813620Y-116357604D01*
X236765965Y-116333776D01*
X236718310Y-116286121D01*
X236694482Y-116214638D01*
X236694482Y-116166983D01*
X236718310Y-116095500D01*
X236742138Y-116071672D01*
X236742138Y-115881052D02*
X236718310Y-115857224D01*
X236694482Y-115809569D01*
X236694482Y-115690431D01*
X236718310Y-115642775D01*
X236742138Y-115618948D01*
X236789793Y-115595120D01*
X236837448Y-115595120D01*
X236908931Y-115618948D01*
X237194862Y-115904879D01*
X237194862Y-115595120D01*
X236694482Y-115142396D02*
X236694482Y-115380672D01*
X236932759Y-115404500D01*
X236908931Y-115380672D01*
X236885103Y-115333017D01*
X236885103Y-115213879D01*
X236908931Y-115166223D01*
X236932759Y-115142396D01*
X236980414Y-115118568D01*
X237099552Y-115118568D01*
X237147207Y-115142396D01*
X237171035Y-115166223D01*
X237194862Y-115213879D01*
X237194862Y-115333017D01*
X237171035Y-115380672D01*
X237147207Y-115404500D01*
X234428328Y-102460207D02*
X234404500Y-102484035D01*
X234333017Y-102507862D01*
X234285362Y-102507862D01*
X234213879Y-102484035D01*
X234166224Y-102436380D01*
X234142396Y-102388724D01*
X234118568Y-102293414D01*
X234118568Y-102221931D01*
X234142396Y-102126620D01*
X234166224Y-102078965D01*
X234213879Y-102031310D01*
X234285362Y-102007482D01*
X234333017Y-102007482D01*
X234404500Y-102031310D01*
X234428328Y-102055138D01*
X234595121Y-102007482D02*
X234904880Y-102007482D01*
X234738087Y-102198103D01*
X234809569Y-102198103D01*
X234857225Y-102221931D01*
X234881052Y-102245759D01*
X234904880Y-102293414D01*
X234904880Y-102412552D01*
X234881052Y-102460207D01*
X234857225Y-102484035D01*
X234809569Y-102507862D01*
X234666604Y-102507862D01*
X234618948Y-102484035D01*
X234595121Y-102460207D01*
X235071673Y-102007482D02*
X235381432Y-102007482D01*
X235214639Y-102198103D01*
X235286121Y-102198103D01*
X235333777Y-102221931D01*
X235357604Y-102245759D01*
X235381432Y-102293414D01*
X235381432Y-102412552D01*
X235357604Y-102460207D01*
X235333777Y-102484035D01*
X235286121Y-102507862D01*
X235143156Y-102507862D01*
X235095500Y-102484035D01*
X235071673Y-102460207D01*
D23*
X235062619Y-127074524D02*
X235062619Y-125804524D01*
X235788333Y-127074524D02*
X235244048Y-126348810D01*
X235788333Y-125804524D02*
X235062619Y-126530238D01*
X236997857Y-127074524D02*
X236272143Y-127074524D01*
X236635000Y-127074524D02*
X236635000Y-125804524D01*
X236514048Y-125985952D01*
X236393095Y-126106905D01*
X236272143Y-126167381D01*
X233218096Y-132014048D02*
X233399524Y-132074524D01*
X233701905Y-132074524D01*
X233822858Y-132014048D01*
X233883334Y-131953571D01*
X233943810Y-131832619D01*
X233943810Y-131711667D01*
X233883334Y-131590714D01*
X233822858Y-131530238D01*
X233701905Y-131469762D01*
X233460001Y-131409286D01*
X233339048Y-131348810D01*
X233278572Y-131288333D01*
X233218096Y-131167381D01*
X233218096Y-131046429D01*
X233278572Y-130925476D01*
X233339048Y-130865000D01*
X233460001Y-130804524D01*
X233762381Y-130804524D01*
X233943810Y-130865000D01*
X234488096Y-131409286D02*
X234911429Y-131409286D01*
X235092858Y-132074524D02*
X234488096Y-132074524D01*
X234488096Y-130804524D01*
X235092858Y-130804524D01*
X236362858Y-132074524D02*
X235939525Y-131469762D01*
X235637144Y-132074524D02*
X235637144Y-130804524D01*
X236120953Y-130804524D01*
X236241906Y-130865000D01*
X236302382Y-130925476D01*
X236362858Y-131046429D01*
X236362858Y-131227857D01*
X236302382Y-131348810D01*
X236241906Y-131409286D01*
X236120953Y-131469762D01*
X235637144Y-131469762D01*
X236725715Y-130804524D02*
X237149049Y-132074524D01*
X237572382Y-130804524D01*
X238237620Y-130804524D02*
X238479524Y-130804524D01*
X238600477Y-130865000D01*
X238721429Y-130985952D01*
X238781905Y-131227857D01*
X238781905Y-131651190D01*
X238721429Y-131893095D01*
X238600477Y-132014048D01*
X238479524Y-132074524D01*
X238237620Y-132074524D01*
X238116667Y-132014048D01*
X237995715Y-131893095D01*
X237935239Y-131651190D01*
X237935239Y-131227857D01*
X237995715Y-130985952D01*
X238116667Y-130865000D01*
X238237620Y-130804524D01*
D24*
X234939429Y-96754000D02*
X234939429Y-97479714D01*
X233415429Y-97479714D01*
X234939429Y-95447714D02*
X234939429Y-96318571D01*
X234939429Y-95883143D02*
X233415429Y-95883143D01*
X233633143Y-96028286D01*
X233778286Y-96173428D01*
X233850857Y-96318571D01*
X239875143Y-89189429D02*
X239875143Y-87665429D01*
X240455715Y-87665429D01*
X240600857Y-87738000D01*
X240673429Y-87810571D01*
X240746000Y-87955714D01*
X240746000Y-88173429D01*
X240673429Y-88318571D01*
X240600857Y-88391143D01*
X240455715Y-88463714D01*
X239875143Y-88463714D01*
X242197429Y-89189429D02*
X241326572Y-89189429D01*
X241762000Y-89189429D02*
X241762000Y-87665429D01*
X241616857Y-87883143D01*
X241471715Y-88028286D01*
X241326572Y-88100857D01*
X224593715Y-91439429D02*
X224593715Y-89915429D01*
X224593715Y-90641143D02*
X225464572Y-90641143D01*
X225464572Y-91439429D02*
X225464572Y-89915429D01*
X226117715Y-91004000D02*
X226843429Y-91004000D01*
X225972572Y-91439429D02*
X226480572Y-89915429D01*
X226988572Y-91439429D01*
X228222286Y-91439429D02*
X227496572Y-91439429D01*
X227496572Y-89915429D01*
X229456000Y-91439429D02*
X228730286Y-91439429D01*
X228730286Y-89915429D01*
X231052572Y-89842857D02*
X229746286Y-91802286D01*
X231560571Y-90641143D02*
X232068571Y-90641143D01*
X232286285Y-91439429D02*
X231560571Y-91439429D01*
X231560571Y-89915429D01*
X232286285Y-89915429D01*
X232939428Y-90423429D02*
X232939428Y-91439429D01*
X232939428Y-90568571D02*
X233012000Y-90496000D01*
X233157142Y-90423429D01*
X233374857Y-90423429D01*
X233520000Y-90496000D01*
X233592571Y-90641143D01*
X233592571Y-91439429D01*
X234971428Y-91366857D02*
X234826285Y-91439429D01*
X234535999Y-91439429D01*
X234390857Y-91366857D01*
X234318285Y-91294286D01*
X234245714Y-91149143D01*
X234245714Y-90713714D01*
X234318285Y-90568571D01*
X234390857Y-90496000D01*
X234535999Y-90423429D01*
X234826285Y-90423429D01*
X234971428Y-90496000D01*
X235842285Y-91439429D02*
X235697143Y-91366857D01*
X235624571Y-91294286D01*
X235552000Y-91149143D01*
X235552000Y-90713714D01*
X235624571Y-90568571D01*
X235697143Y-90496000D01*
X235842285Y-90423429D01*
X236060000Y-90423429D01*
X236205143Y-90496000D01*
X236277714Y-90568571D01*
X236350285Y-90713714D01*
X236350285Y-91149143D01*
X236277714Y-91294286D01*
X236205143Y-91366857D01*
X236060000Y-91439429D01*
X235842285Y-91439429D01*
X237656571Y-91439429D02*
X237656571Y-89915429D01*
X237656571Y-91366857D02*
X237511428Y-91439429D01*
X237221142Y-91439429D01*
X237076000Y-91366857D01*
X237003428Y-91294286D01*
X236930857Y-91149143D01*
X236930857Y-90713714D01*
X237003428Y-90568571D01*
X237076000Y-90496000D01*
X237221142Y-90423429D01*
X237511428Y-90423429D01*
X237656571Y-90496000D01*
X238962857Y-91366857D02*
X238817714Y-91439429D01*
X238527428Y-91439429D01*
X238382285Y-91366857D01*
X238309714Y-91221714D01*
X238309714Y-90641143D01*
X238382285Y-90496000D01*
X238527428Y-90423429D01*
X238817714Y-90423429D01*
X238962857Y-90496000D01*
X239035428Y-90641143D01*
X239035428Y-90786286D01*
X238309714Y-90931429D01*
X239688571Y-91439429D02*
X239688571Y-90423429D01*
X239688571Y-90713714D02*
X239761143Y-90568571D01*
X239833714Y-90496000D01*
X239978857Y-90423429D01*
X240124000Y-90423429D01*
X231625143Y-138939429D02*
X231625143Y-137415429D01*
X232205715Y-137415429D01*
X232350857Y-137488000D01*
X232423429Y-137560571D01*
X232496000Y-137705714D01*
X232496000Y-137923429D01*
X232423429Y-138068571D01*
X232350857Y-138141143D01*
X232205715Y-138213714D01*
X231625143Y-138213714D01*
X233076572Y-137560571D02*
X233149143Y-137488000D01*
X233294286Y-137415429D01*
X233657143Y-137415429D01*
X233802286Y-137488000D01*
X233874857Y-137560571D01*
X233947429Y-137705714D01*
X233947429Y-137850857D01*
X233874857Y-138068571D01*
X233004000Y-138939429D01*
X233947429Y-138939429D01*
X230985715Y-141026190D02*
X231171429Y-141088095D01*
X231480953Y-141088095D01*
X231604763Y-141026190D01*
X231666667Y-140964286D01*
X231728572Y-140840476D01*
X231728572Y-140716667D01*
X231666667Y-140592857D01*
X231604763Y-140530952D01*
X231480953Y-140469048D01*
X231233334Y-140407143D01*
X231109525Y-140345238D01*
X231047620Y-140283333D01*
X230985715Y-140159524D01*
X230985715Y-140035714D01*
X231047620Y-139911905D01*
X231109525Y-139850000D01*
X231233334Y-139788095D01*
X231542858Y-139788095D01*
X231728572Y-139850000D01*
X232161905Y-139788095D02*
X232471429Y-141088095D01*
X232719048Y-140159524D01*
X232966667Y-141088095D01*
X233276191Y-139788095D01*
X233771429Y-141088095D02*
X233771429Y-139788095D01*
X234080953Y-139788095D01*
X234266667Y-139850000D01*
X234390476Y-139973810D01*
X234452381Y-140097619D01*
X234514286Y-140345238D01*
X234514286Y-140530952D01*
X234452381Y-140778571D01*
X234390476Y-140902381D01*
X234266667Y-141026190D01*
X234080953Y-141088095D01*
X233771429Y-141088095D01*
X238189429Y-137374857D02*
X236665429Y-137374857D01*
X236665429Y-136794285D01*
X236738000Y-136649143D01*
X236810571Y-136576571D01*
X236955714Y-136504000D01*
X237173429Y-136504000D01*
X237318571Y-136576571D01*
X237391143Y-136649143D01*
X237463714Y-136794285D01*
X237463714Y-137374857D01*
X236665429Y-135996000D02*
X236665429Y-135052571D01*
X237246000Y-135560571D01*
X237246000Y-135342857D01*
X237318571Y-135197714D01*
X237391143Y-135125143D01*
X237536286Y-135052571D01*
X237899143Y-135052571D01*
X238044286Y-135125143D01*
X238116857Y-135197714D01*
X238189429Y-135342857D01*
X238189429Y-135778285D01*
X238116857Y-135923428D01*
X238044286Y-135996000D01*
D13*
X239952381Y-140380952D02*
X238952381Y-140380952D01*
X238952381Y-139999999D01*
X239000000Y-139904761D01*
X239047619Y-139857142D01*
X239142857Y-139809523D01*
X239285714Y-139809523D01*
X239380952Y-139857142D01*
X239428571Y-139904761D01*
X239476190Y-139999999D01*
X239476190Y-140380952D01*
X238952381Y-139476190D02*
X239952381Y-139238095D01*
X239238095Y-139047618D01*
X239952381Y-138857142D01*
X238952381Y-138619047D01*
X239952381Y-137666666D02*
X239476190Y-138000000D01*
X239952381Y-138238095D02*
X238952381Y-138238095D01*
X238952381Y-137857142D01*
X239000000Y-137761904D01*
X239047619Y-137714285D01*
X239142857Y-137666666D01*
X239285714Y-137666666D01*
X239380952Y-137714285D01*
X239428571Y-137761904D01*
X239476190Y-137857142D01*
X239476190Y-138238095D01*
X240047619Y-137476190D02*
X240047619Y-136714285D01*
X239857143Y-135904761D02*
X239904762Y-135952380D01*
X239952381Y-136095237D01*
X239952381Y-136190475D01*
X239904762Y-136333333D01*
X239809524Y-136428571D01*
X239714286Y-136476190D01*
X239523810Y-136523809D01*
X239380952Y-136523809D01*
X239190476Y-136476190D01*
X239095238Y-136428571D01*
X239000000Y-136333333D01*
X238952381Y-136190475D01*
X238952381Y-136095237D01*
X239000000Y-135952380D01*
X239047619Y-135904761D01*
X238952381Y-135285714D02*
X238952381Y-135095237D01*
X239000000Y-134999999D01*
X239095238Y-134904761D01*
X239285714Y-134857142D01*
X239619048Y-134857142D01*
X239809524Y-134904761D01*
X239904762Y-134999999D01*
X239952381Y-135095237D01*
X239952381Y-135285714D01*
X239904762Y-135380952D01*
X239809524Y-135476190D01*
X239619048Y-135523809D01*
X239285714Y-135523809D01*
X239095238Y-135476190D01*
X239000000Y-135380952D01*
X238952381Y-135285714D01*
X239952381Y-134428571D02*
X238952381Y-134428571D01*
X239666667Y-134095237D01*
X238952381Y-133761904D01*
X239952381Y-133761904D01*
X239952381Y-133285714D02*
X238952381Y-133285714D01*
X239666667Y-132952380D01*
X238952381Y-132619047D01*
X239952381Y-132619047D01*
X209511905Y-145702381D02*
X209511905Y-144702381D01*
X209892858Y-144702381D01*
X209988096Y-144750000D01*
X210035715Y-144797619D01*
X210083334Y-144892857D01*
X210083334Y-145035714D01*
X210035715Y-145130952D01*
X209988096Y-145178571D01*
X209892858Y-145226190D01*
X209511905Y-145226190D01*
X210940477Y-145035714D02*
X210940477Y-145702381D01*
X210702381Y-144654762D02*
X210464286Y-145369048D01*
X211083334Y-145369048D01*
X197761905Y-145702381D02*
X197761905Y-144702381D01*
X198142858Y-144702381D01*
X198238096Y-144750000D01*
X198285715Y-144797619D01*
X198333334Y-144892857D01*
X198333334Y-145035714D01*
X198285715Y-145130952D01*
X198238096Y-145178571D01*
X198142858Y-145226190D01*
X197761905Y-145226190D01*
X199238096Y-144702381D02*
X198761905Y-144702381D01*
X198714286Y-145178571D01*
X198761905Y-145130952D01*
X198857143Y-145083333D01*
X199095239Y-145083333D01*
X199190477Y-145130952D01*
X199238096Y-145178571D01*
X199285715Y-145273810D01*
X199285715Y-145511905D01*
X199238096Y-145607143D01*
X199190477Y-145654762D01*
X199095239Y-145702381D01*
X198857143Y-145702381D01*
X198761905Y-145654762D01*
X198714286Y-145607143D01*
D24*
X185625143Y-95439429D02*
X185625143Y-93915429D01*
X186205715Y-93915429D01*
X186350857Y-93988000D01*
X186423429Y-94060571D01*
X186496000Y-94205714D01*
X186496000Y-94423429D01*
X186423429Y-94568571D01*
X186350857Y-94641143D01*
X186205715Y-94713714D01*
X185625143Y-94713714D01*
X187802286Y-93915429D02*
X187512000Y-93915429D01*
X187366857Y-93988000D01*
X187294286Y-94060571D01*
X187149143Y-94278286D01*
X187076572Y-94568571D01*
X187076572Y-95149143D01*
X187149143Y-95294286D01*
X187221715Y-95366857D01*
X187366857Y-95439429D01*
X187657143Y-95439429D01*
X187802286Y-95366857D01*
X187874857Y-95294286D01*
X187947429Y-95149143D01*
X187947429Y-94786286D01*
X187874857Y-94641143D01*
X187802286Y-94568571D01*
X187657143Y-94496000D01*
X187366857Y-94496000D01*
X187221715Y-94568571D01*
X187149143Y-94641143D01*
X187076572Y-94786286D01*
X185625143Y-106689429D02*
X185625143Y-105165429D01*
X186205715Y-105165429D01*
X186350857Y-105238000D01*
X186423429Y-105310571D01*
X186496000Y-105455714D01*
X186496000Y-105673429D01*
X186423429Y-105818571D01*
X186350857Y-105891143D01*
X186205715Y-105963714D01*
X185625143Y-105963714D01*
X187004000Y-105165429D02*
X188020000Y-105165429D01*
X187366857Y-106689429D01*
X185625143Y-118189429D02*
X185625143Y-116665429D01*
X186205715Y-116665429D01*
X186350857Y-116738000D01*
X186423429Y-116810571D01*
X186496000Y-116955714D01*
X186496000Y-117173429D01*
X186423429Y-117318571D01*
X186350857Y-117391143D01*
X186205715Y-117463714D01*
X185625143Y-117463714D01*
X187221715Y-118189429D02*
X187512000Y-118189429D01*
X187657143Y-118116857D01*
X187729715Y-118044286D01*
X187874857Y-117826571D01*
X187947429Y-117536286D01*
X187947429Y-116955714D01*
X187874857Y-116810571D01*
X187802286Y-116738000D01*
X187657143Y-116665429D01*
X187366857Y-116665429D01*
X187221715Y-116738000D01*
X187149143Y-116810571D01*
X187076572Y-116955714D01*
X187076572Y-117318571D01*
X187149143Y-117463714D01*
X187221715Y-117536286D01*
X187366857Y-117608857D01*
X187657143Y-117608857D01*
X187802286Y-117536286D01*
X187874857Y-117463714D01*
X187947429Y-117318571D01*
X240173714Y-117939429D02*
X240173714Y-116415429D01*
X240754286Y-116415429D01*
X240899428Y-116488000D01*
X240972000Y-116560571D01*
X241044571Y-116705714D01*
X241044571Y-116923429D01*
X240972000Y-117068571D01*
X240899428Y-117141143D01*
X240754286Y-117213714D01*
X240173714Y-117213714D01*
X242496000Y-117939429D02*
X241625143Y-117939429D01*
X242060571Y-117939429D02*
X242060571Y-116415429D01*
X241915428Y-116633143D01*
X241770286Y-116778286D01*
X241625143Y-116850857D01*
X243439429Y-116415429D02*
X243584572Y-116415429D01*
X243729715Y-116488000D01*
X243802286Y-116560571D01*
X243874857Y-116705714D01*
X243947429Y-116996000D01*
X243947429Y-117358857D01*
X243874857Y-117649143D01*
X243802286Y-117794286D01*
X243729715Y-117866857D01*
X243584572Y-117939429D01*
X243439429Y-117939429D01*
X243294286Y-117866857D01*
X243221715Y-117794286D01*
X243149143Y-117649143D01*
X243076572Y-117358857D01*
X243076572Y-116996000D01*
X243149143Y-116705714D01*
X243221715Y-116560571D01*
X243294286Y-116488000D01*
X243439429Y-116415429D01*
X245398858Y-117939429D02*
X244528001Y-117939429D01*
X244963429Y-117939429D02*
X244963429Y-116415429D01*
X244818286Y-116633143D01*
X244673144Y-116778286D01*
X244528001Y-116850857D01*
X239663126Y-126135714D02*
X239725030Y-126197619D01*
X239786935Y-126383333D01*
X239786935Y-126507143D01*
X239725030Y-126692857D01*
X239601221Y-126816666D01*
X239477411Y-126878571D01*
X239229792Y-126940476D01*
X239044078Y-126940476D01*
X238796459Y-126878571D01*
X238672650Y-126816666D01*
X238548840Y-126692857D01*
X238486935Y-126507143D01*
X238486935Y-126383333D01*
X238548840Y-126197619D01*
X238610745Y-126135714D01*
X239415507Y-125640476D02*
X239415507Y-125021428D01*
X239786935Y-125764285D02*
X238486935Y-125330952D01*
X239786935Y-124897619D01*
X239786935Y-124464285D02*
X238486935Y-124464285D01*
X239786935Y-123721428D01*
X238486935Y-123721428D01*
X239105983Y-122669047D02*
X239167888Y-122483333D01*
X239229792Y-122421428D01*
X239353602Y-122359523D01*
X239539316Y-122359523D01*
X239663126Y-122421428D01*
X239725030Y-122483333D01*
X239786935Y-122607142D01*
X239786935Y-123102380D01*
X238486935Y-123102380D01*
X238486935Y-122669047D01*
X238548840Y-122545237D01*
X238610745Y-122483333D01*
X238734554Y-122421428D01*
X238858364Y-122421428D01*
X238982173Y-122483333D01*
X239044078Y-122545237D01*
X239105983Y-122669047D01*
X239105983Y-123102380D01*
X238486935Y-121802380D02*
X239539316Y-121802380D01*
X239663126Y-121740475D01*
X239725030Y-121678571D01*
X239786935Y-121554761D01*
X239786935Y-121307142D01*
X239725030Y-121183333D01*
X239663126Y-121121428D01*
X239539316Y-121059523D01*
X238486935Y-121059523D01*
X239725030Y-120502380D02*
X239786935Y-120316666D01*
X239786935Y-120007142D01*
X239725030Y-119883332D01*
X239663126Y-119821428D01*
X239539316Y-119759523D01*
X239415507Y-119759523D01*
X239291697Y-119821428D01*
X239229792Y-119883332D01*
X239167888Y-120007142D01*
X239105983Y-120254761D01*
X239044078Y-120378570D01*
X238982173Y-120440475D01*
X238858364Y-120502380D01*
X238734554Y-120502380D01*
X238610745Y-120440475D01*
X238548840Y-120378570D01*
X238486935Y-120254761D01*
X238486935Y-119945237D01*
X238548840Y-119759523D01*
D25*
X238126362Y-107376200D02*
X237888086Y-107528600D01*
X238126362Y-107637457D02*
X237625982Y-107637457D01*
X237625982Y-107463285D01*
X237649810Y-107419743D01*
X237673638Y-107397971D01*
X237721293Y-107376200D01*
X237792776Y-107376200D01*
X237840431Y-107397971D01*
X237864259Y-107419743D01*
X237888086Y-107463285D01*
X237888086Y-107637457D01*
X237625982Y-106984314D02*
X237625982Y-107071400D01*
X237649810Y-107114943D01*
X237673638Y-107136714D01*
X237745120Y-107180257D01*
X237840431Y-107202028D01*
X238031052Y-107202028D01*
X238078707Y-107180257D01*
X238102535Y-107158485D01*
X238126362Y-107114943D01*
X238126362Y-107027857D01*
X238102535Y-106984314D01*
X238078707Y-106962543D01*
X238031052Y-106940771D01*
X237911914Y-106940771D01*
X237864259Y-106962543D01*
X237840431Y-106984314D01*
X237816603Y-107027857D01*
X237816603Y-107114943D01*
X237840431Y-107158485D01*
X237864259Y-107180257D01*
X237911914Y-107202028D01*
X231611362Y-117567915D02*
X231373086Y-117720315D01*
X231611362Y-117829172D02*
X231110982Y-117829172D01*
X231110982Y-117655000D01*
X231134810Y-117611458D01*
X231158638Y-117589686D01*
X231206293Y-117567915D01*
X231277776Y-117567915D01*
X231325431Y-117589686D01*
X231349259Y-117611458D01*
X231373086Y-117655000D01*
X231373086Y-117829172D01*
X231611362Y-117132486D02*
X231611362Y-117393743D01*
X231611362Y-117263115D02*
X231110982Y-117263115D01*
X231182465Y-117306658D01*
X231230120Y-117350200D01*
X231253948Y-117393743D01*
X231325431Y-116871229D02*
X231301603Y-116914771D01*
X231277776Y-116936543D01*
X231230120Y-116958314D01*
X231206293Y-116958314D01*
X231158638Y-116936543D01*
X231134810Y-116914771D01*
X231110982Y-116871229D01*
X231110982Y-116784143D01*
X231134810Y-116740600D01*
X231158638Y-116718829D01*
X231206293Y-116697057D01*
X231230120Y-116697057D01*
X231277776Y-116718829D01*
X231301603Y-116740600D01*
X231325431Y-116784143D01*
X231325431Y-116871229D01*
X231349259Y-116914771D01*
X231373086Y-116936543D01*
X231420741Y-116958314D01*
X231516052Y-116958314D01*
X231563707Y-116936543D01*
X231587535Y-116914771D01*
X231611362Y-116871229D01*
X231611362Y-116784143D01*
X231587535Y-116740600D01*
X231563707Y-116718829D01*
X231516052Y-116697057D01*
X231420741Y-116697057D01*
X231373086Y-116718829D01*
X231349259Y-116740600D01*
X231325431Y-116784143D01*
X231611362Y-115817915D02*
X231373086Y-115970315D01*
X231611362Y-116079172D02*
X231110982Y-116079172D01*
X231110982Y-115905000D01*
X231134810Y-115861458D01*
X231158638Y-115839686D01*
X231206293Y-115817915D01*
X231277776Y-115817915D01*
X231325431Y-115839686D01*
X231349259Y-115861458D01*
X231373086Y-115905000D01*
X231373086Y-116079172D01*
X231158638Y-115643743D02*
X231134810Y-115621972D01*
X231110982Y-115578429D01*
X231110982Y-115469572D01*
X231134810Y-115426029D01*
X231158638Y-115404258D01*
X231206293Y-115382486D01*
X231253948Y-115382486D01*
X231325431Y-115404258D01*
X231611362Y-115665515D01*
X231611362Y-115382486D01*
X231110982Y-115099457D02*
X231110982Y-115055914D01*
X231134810Y-115012371D01*
X231158638Y-114990600D01*
X231206293Y-114968829D01*
X231301603Y-114947057D01*
X231420741Y-114947057D01*
X231516052Y-114968829D01*
X231563707Y-114990600D01*
X231587535Y-115012371D01*
X231611362Y-115055914D01*
X231611362Y-115099457D01*
X231587535Y-115143000D01*
X231563707Y-115164771D01*
X231516052Y-115186543D01*
X231420741Y-115208314D01*
X231301603Y-115208314D01*
X231206293Y-115186543D01*
X231158638Y-115164771D01*
X231134810Y-115143000D01*
X231110982Y-115099457D01*
X218230085Y-139341362D02*
X218077685Y-139103086D01*
X217968828Y-139341362D02*
X217968828Y-138840982D01*
X218143000Y-138840982D01*
X218186542Y-138864810D01*
X218208314Y-138888638D01*
X218230085Y-138936293D01*
X218230085Y-139007776D01*
X218208314Y-139055431D01*
X218186542Y-139079259D01*
X218143000Y-139103086D01*
X217968828Y-139103086D01*
X218404257Y-138888638D02*
X218426028Y-138864810D01*
X218469571Y-138840982D01*
X218578428Y-138840982D01*
X218621971Y-138864810D01*
X218643742Y-138888638D01*
X218665514Y-138936293D01*
X218665514Y-138983948D01*
X218643742Y-139055431D01*
X218382485Y-139341362D01*
X218665514Y-139341362D01*
X218839686Y-138888638D02*
X218861457Y-138864810D01*
X218905000Y-138840982D01*
X219013857Y-138840982D01*
X219057400Y-138864810D01*
X219079171Y-138888638D01*
X219100943Y-138936293D01*
X219100943Y-138983948D01*
X219079171Y-139055431D01*
X218817914Y-139341362D01*
X219100943Y-139341362D01*
X210361362Y-135817915D02*
X210123086Y-135970315D01*
X210361362Y-136079172D02*
X209860982Y-136079172D01*
X209860982Y-135905000D01*
X209884810Y-135861458D01*
X209908638Y-135839686D01*
X209956293Y-135817915D01*
X210027776Y-135817915D01*
X210075431Y-135839686D01*
X210099259Y-135861458D01*
X210123086Y-135905000D01*
X210123086Y-136079172D01*
X209908638Y-135643743D02*
X209884810Y-135621972D01*
X209860982Y-135578429D01*
X209860982Y-135469572D01*
X209884810Y-135426029D01*
X209908638Y-135404258D01*
X209956293Y-135382486D01*
X210003948Y-135382486D01*
X210075431Y-135404258D01*
X210361362Y-135665515D01*
X210361362Y-135382486D01*
X209860982Y-135230086D02*
X209860982Y-134925286D01*
X210361362Y-135121229D01*
X219980085Y-139341362D02*
X219827685Y-139103086D01*
X219718828Y-139341362D02*
X219718828Y-138840982D01*
X219893000Y-138840982D01*
X219936542Y-138864810D01*
X219958314Y-138888638D01*
X219980085Y-138936293D01*
X219980085Y-139007776D01*
X219958314Y-139055431D01*
X219936542Y-139079259D01*
X219893000Y-139103086D01*
X219718828Y-139103086D01*
X220132485Y-138840982D02*
X220415514Y-138840982D01*
X220263114Y-139031603D01*
X220328428Y-139031603D01*
X220371971Y-139055431D01*
X220393742Y-139079259D01*
X220415514Y-139126914D01*
X220415514Y-139246052D01*
X220393742Y-139293707D01*
X220371971Y-139317535D01*
X220328428Y-139341362D01*
X220197800Y-139341362D01*
X220154257Y-139317535D01*
X220132485Y-139293707D01*
X220567914Y-138840982D02*
X220872714Y-138840982D01*
X220676771Y-139341362D01*
X221730085Y-139341362D02*
X221577685Y-139103086D01*
X221468828Y-139341362D02*
X221468828Y-138840982D01*
X221643000Y-138840982D01*
X221686542Y-138864810D01*
X221708314Y-138888638D01*
X221730085Y-138936293D01*
X221730085Y-139007776D01*
X221708314Y-139055431D01*
X221686542Y-139079259D01*
X221643000Y-139103086D01*
X221468828Y-139103086D01*
X221882485Y-138840982D02*
X222165514Y-138840982D01*
X222013114Y-139031603D01*
X222078428Y-139031603D01*
X222121971Y-139055431D01*
X222143742Y-139079259D01*
X222165514Y-139126914D01*
X222165514Y-139246052D01*
X222143742Y-139293707D01*
X222121971Y-139317535D01*
X222078428Y-139341362D01*
X221947800Y-139341362D01*
X221904257Y-139317535D01*
X221882485Y-139293707D01*
X222426771Y-139055431D02*
X222383229Y-139031603D01*
X222361457Y-139007776D01*
X222339686Y-138960120D01*
X222339686Y-138936293D01*
X222361457Y-138888638D01*
X222383229Y-138864810D01*
X222426771Y-138840982D01*
X222513857Y-138840982D01*
X222557400Y-138864810D01*
X222579171Y-138888638D01*
X222600943Y-138936293D01*
X222600943Y-138960120D01*
X222579171Y-139007776D01*
X222557400Y-139031603D01*
X222513857Y-139055431D01*
X222426771Y-139055431D01*
X222383229Y-139079259D01*
X222361457Y-139103086D01*
X222339686Y-139150741D01*
X222339686Y-139246052D01*
X222361457Y-139293707D01*
X222383229Y-139317535D01*
X222426771Y-139341362D01*
X222513857Y-139341362D01*
X222557400Y-139317535D01*
X222579171Y-139293707D01*
X222600943Y-139246052D01*
X222600943Y-139150741D01*
X222579171Y-139103086D01*
X222557400Y-139079259D01*
X222513857Y-139055431D01*
D24*
X219689429Y-98439715D02*
X218963714Y-98947715D01*
X219689429Y-99310572D02*
X218165429Y-99310572D01*
X218165429Y-98730000D01*
X218238000Y-98584858D01*
X218310571Y-98512286D01*
X218455714Y-98439715D01*
X218673429Y-98439715D01*
X218818571Y-98512286D01*
X218891143Y-98584858D01*
X218963714Y-98730000D01*
X218963714Y-99310572D01*
X218165429Y-97060858D02*
X218165429Y-97786572D01*
X218891143Y-97859143D01*
X218818571Y-97786572D01*
X218746000Y-97641429D01*
X218746000Y-97278572D01*
X218818571Y-97133429D01*
X218891143Y-97060858D01*
X219036286Y-96988286D01*
X219399143Y-96988286D01*
X219544286Y-97060858D01*
X219616857Y-97133429D01*
X219689429Y-97278572D01*
X219689429Y-97641429D01*
X219616857Y-97786572D01*
X219544286Y-97859143D01*
X218165429Y-96480286D02*
X218165429Y-95536857D01*
X218746000Y-96044857D01*
X218746000Y-95827143D01*
X218818571Y-95682000D01*
X218891143Y-95609429D01*
X219036286Y-95536857D01*
X219399143Y-95536857D01*
X219544286Y-95609429D01*
X219616857Y-95682000D01*
X219689429Y-95827143D01*
X219689429Y-96262571D01*
X219616857Y-96407714D01*
X219544286Y-96480286D01*
X219689429Y-90269715D02*
X218963714Y-90777715D01*
X219689429Y-91140572D02*
X218165429Y-91140572D01*
X218165429Y-90560000D01*
X218238000Y-90414858D01*
X218310571Y-90342286D01*
X218455714Y-90269715D01*
X218673429Y-90269715D01*
X218818571Y-90342286D01*
X218891143Y-90414858D01*
X218963714Y-90560000D01*
X218963714Y-91140572D01*
X218165429Y-88890858D02*
X218165429Y-89616572D01*
X218891143Y-89689143D01*
X218818571Y-89616572D01*
X218746000Y-89471429D01*
X218746000Y-89108572D01*
X218818571Y-88963429D01*
X218891143Y-88890858D01*
X219036286Y-88818286D01*
X219399143Y-88818286D01*
X219544286Y-88890858D01*
X219616857Y-88963429D01*
X219689429Y-89108572D01*
X219689429Y-89471429D01*
X219616857Y-89616572D01*
X219544286Y-89689143D01*
X218673429Y-87512000D02*
X219689429Y-87512000D01*
X218092857Y-87874857D02*
X219181429Y-88237714D01*
X219181429Y-87294286D01*
D25*
X238111362Y-111785629D02*
X237873086Y-111938029D01*
X238111362Y-112046886D02*
X237610982Y-112046886D01*
X237610982Y-111872714D01*
X237634810Y-111829172D01*
X237658638Y-111807400D01*
X237706293Y-111785629D01*
X237777776Y-111785629D01*
X237825431Y-111807400D01*
X237849259Y-111829172D01*
X237873086Y-111872714D01*
X237873086Y-112046886D01*
X238111362Y-111350200D02*
X238111362Y-111611457D01*
X238111362Y-111480829D02*
X237610982Y-111480829D01*
X237682465Y-111524372D01*
X237730120Y-111567914D01*
X237753948Y-111611457D01*
X237610982Y-111067171D02*
X237610982Y-111023628D01*
X237634810Y-110980085D01*
X237658638Y-110958314D01*
X237706293Y-110936543D01*
X237801603Y-110914771D01*
X237920741Y-110914771D01*
X238016052Y-110936543D01*
X238063707Y-110958314D01*
X238087535Y-110980085D01*
X238111362Y-111023628D01*
X238111362Y-111067171D01*
X238087535Y-111110714D01*
X238063707Y-111132485D01*
X238016052Y-111154257D01*
X237920741Y-111176028D01*
X237801603Y-111176028D01*
X237706293Y-111154257D01*
X237658638Y-111132485D01*
X237634810Y-111110714D01*
X237610982Y-111067171D01*
X237610982Y-110762371D02*
X237610982Y-110479342D01*
X237801603Y-110631742D01*
X237801603Y-110566428D01*
X237825431Y-110522885D01*
X237849259Y-110501114D01*
X237896914Y-110479342D01*
X238016052Y-110479342D01*
X238063707Y-110501114D01*
X238087535Y-110522885D01*
X238111362Y-110566428D01*
X238111362Y-110697056D01*
X238087535Y-110740599D01*
X238063707Y-110762371D01*
X238111362Y-109785629D02*
X237873086Y-109938029D01*
X238111362Y-110046886D02*
X237610982Y-110046886D01*
X237610982Y-109872714D01*
X237634810Y-109829172D01*
X237658638Y-109807400D01*
X237706293Y-109785629D01*
X237777776Y-109785629D01*
X237825431Y-109807400D01*
X237849259Y-109829172D01*
X237873086Y-109872714D01*
X237873086Y-110046886D01*
X238111362Y-109350200D02*
X238111362Y-109611457D01*
X238111362Y-109480829D02*
X237610982Y-109480829D01*
X237682465Y-109524372D01*
X237730120Y-109567914D01*
X237753948Y-109611457D01*
X237610982Y-109067171D02*
X237610982Y-109023628D01*
X237634810Y-108980085D01*
X237658638Y-108958314D01*
X237706293Y-108936543D01*
X237801603Y-108914771D01*
X237920741Y-108914771D01*
X238016052Y-108936543D01*
X238063707Y-108958314D01*
X238087535Y-108980085D01*
X238111362Y-109023628D01*
X238111362Y-109067171D01*
X238087535Y-109110714D01*
X238063707Y-109132485D01*
X238016052Y-109154257D01*
X237920741Y-109176028D01*
X237801603Y-109176028D01*
X237706293Y-109154257D01*
X237658638Y-109132485D01*
X237634810Y-109110714D01*
X237610982Y-109067171D01*
X237777776Y-108522885D02*
X238111362Y-108522885D01*
X237587155Y-108631742D02*
X237944569Y-108740599D01*
X237944569Y-108457571D01*
D26*
X217696669Y-132070895D02*
X218303245Y-132070895D01*
X218374607Y-132035214D01*
X218410288Y-131999533D01*
X218445969Y-131928171D01*
X218445969Y-131785448D01*
X218410288Y-131714086D01*
X218374607Y-131678405D01*
X218303245Y-131642724D01*
X217696669Y-131642724D01*
X218445969Y-130893424D02*
X218445969Y-131321595D01*
X218445969Y-131107509D02*
X217696669Y-131107509D01*
X217803712Y-131178871D01*
X217875074Y-131250233D01*
X217910755Y-131321595D01*
D11*
X220595381Y-135119045D02*
X220619190Y-135047616D01*
X220619190Y-134928569D01*
X220595381Y-134880950D01*
X220571571Y-134857140D01*
X220523952Y-134833331D01*
X220476333Y-134833331D01*
X220428714Y-134857140D01*
X220404905Y-134880950D01*
X220381095Y-134928569D01*
X220357286Y-135023807D01*
X220333476Y-135071426D01*
X220309667Y-135095235D01*
X220262048Y-135119045D01*
X220214429Y-135119045D01*
X220166810Y-135095235D01*
X220143000Y-135071426D01*
X220119190Y-135023807D01*
X220119190Y-134904759D01*
X220143000Y-134833331D01*
X220119190Y-134690474D02*
X220119190Y-134404760D01*
X220619190Y-134547617D02*
X220119190Y-134547617D01*
X220619190Y-134238093D02*
X220119190Y-134238093D01*
X220476333Y-134071427D01*
X220119190Y-133904760D01*
X220619190Y-133904760D01*
X220119190Y-133714283D02*
X220119190Y-133404760D01*
X220309667Y-133571426D01*
X220309667Y-133499998D01*
X220333476Y-133452379D01*
X220357286Y-133428569D01*
X220404905Y-133404760D01*
X220523952Y-133404760D01*
X220571571Y-133428569D01*
X220595381Y-133452379D01*
X220619190Y-133499998D01*
X220619190Y-133642855D01*
X220595381Y-133690474D01*
X220571571Y-133714283D01*
X220166810Y-133214284D02*
X220143000Y-133190474D01*
X220119190Y-133142855D01*
X220119190Y-133023808D01*
X220143000Y-132976189D01*
X220166810Y-132952379D01*
X220214429Y-132928570D01*
X220262048Y-132928570D01*
X220333476Y-132952379D01*
X220619190Y-133238093D01*
X220619190Y-132928570D01*
X220357286Y-132547618D02*
X220357286Y-132714284D01*
X220619190Y-132714284D02*
X220119190Y-132714284D01*
X220119190Y-132476189D01*
X220285857Y-132071428D02*
X220619190Y-132071428D01*
X220095381Y-132190475D02*
X220452524Y-132309523D01*
X220452524Y-131999999D01*
X220119190Y-131714285D02*
X220119190Y-131666666D01*
X220143000Y-131619047D01*
X220166810Y-131595238D01*
X220214429Y-131571428D01*
X220309667Y-131547619D01*
X220428714Y-131547619D01*
X220523952Y-131571428D01*
X220571571Y-131595238D01*
X220595381Y-131619047D01*
X220619190Y-131666666D01*
X220619190Y-131714285D01*
X220595381Y-131761904D01*
X220571571Y-131785714D01*
X220523952Y-131809523D01*
X220428714Y-131833333D01*
X220309667Y-131833333D01*
X220214429Y-131809523D01*
X220166810Y-131785714D01*
X220143000Y-131761904D01*
X220119190Y-131714285D01*
X220119190Y-131380952D02*
X220619190Y-131047619D01*
X220119190Y-131047619D02*
X220619190Y-131380952D01*
X220666810Y-130976191D02*
X220666810Y-130595239D01*
X220619190Y-130238096D02*
X220619190Y-130476191D01*
X220119190Y-130476191D01*
X220666810Y-129738096D02*
X220643000Y-129785715D01*
X220595381Y-129833334D01*
X220523952Y-129904763D01*
X220500143Y-129952382D01*
X220500143Y-130000001D01*
X220619190Y-129976191D02*
X220595381Y-130023810D01*
X220547762Y-130071429D01*
X220452524Y-130095239D01*
X220285857Y-130095239D01*
X220190619Y-130071429D01*
X220143000Y-130023810D01*
X220119190Y-129976191D01*
X220119190Y-129880953D01*
X220143000Y-129833334D01*
X220190619Y-129785715D01*
X220285857Y-129761906D01*
X220452524Y-129761906D01*
X220547762Y-129785715D01*
X220595381Y-129833334D01*
X220619190Y-129880953D01*
X220619190Y-129976191D01*
X220357286Y-129380953D02*
X220357286Y-129547619D01*
X220619190Y-129547619D02*
X220119190Y-129547619D01*
X220119190Y-129309524D01*
X220619190Y-129119048D02*
X220119190Y-129119048D01*
X220119190Y-128928572D01*
X220143000Y-128880953D01*
X220166810Y-128857144D01*
X220214429Y-128833334D01*
X220285857Y-128833334D01*
X220333476Y-128857144D01*
X220357286Y-128880953D01*
X220381095Y-128928572D01*
X220381095Y-129119048D01*
X220119190Y-128404763D02*
X220119190Y-128500001D01*
X220143000Y-128547620D01*
X220166810Y-128571429D01*
X220238238Y-128619048D01*
X220333476Y-128642858D01*
X220523952Y-128642858D01*
X220571571Y-128619048D01*
X220595381Y-128595239D01*
X220619190Y-128547620D01*
X220619190Y-128452382D01*
X220595381Y-128404763D01*
X220571571Y-128380953D01*
X220523952Y-128357144D01*
X220404905Y-128357144D01*
X220357286Y-128380953D01*
X220333476Y-128404763D01*
X220309667Y-128452382D01*
X220309667Y-128547620D01*
X220333476Y-128595239D01*
X220357286Y-128619048D01*
X220404905Y-128642858D01*
X220285857Y-127928573D02*
X220619190Y-127928573D01*
X220095381Y-128047620D02*
X220452524Y-128166668D01*
X220452524Y-127857144D01*
D26*
X220359669Y-112820895D02*
X220966245Y-112820895D01*
X221037607Y-112785214D01*
X221073288Y-112749533D01*
X221108969Y-112678171D01*
X221108969Y-112535448D01*
X221073288Y-112464086D01*
X221037607Y-112428405D01*
X220966245Y-112392724D01*
X220359669Y-112392724D01*
X220359669Y-112107276D02*
X220359669Y-111643424D01*
X220645117Y-111893190D01*
X220645117Y-111786148D01*
X220680798Y-111714786D01*
X220716479Y-111679105D01*
X220787840Y-111643424D01*
X220966245Y-111643424D01*
X221037607Y-111679105D01*
X221073288Y-111714786D01*
X221108969Y-111786148D01*
X221108969Y-112000233D01*
X221073288Y-112071595D01*
X221037607Y-112107276D01*
X218632469Y-114569261D02*
X217883169Y-114569261D01*
X217883169Y-114390856D01*
X217918850Y-114283814D01*
X217990212Y-114212452D01*
X218061574Y-114176771D01*
X218204298Y-114141090D01*
X218311340Y-114141090D01*
X218454064Y-114176771D01*
X218525426Y-114212452D01*
X218596788Y-114283814D01*
X218632469Y-114390856D01*
X218632469Y-114569261D01*
X218632469Y-113391790D02*
X218275660Y-113641556D01*
X218632469Y-113819961D02*
X217883169Y-113819961D01*
X217883169Y-113534514D01*
X217918850Y-113463152D01*
X217954531Y-113427471D01*
X218025893Y-113391790D01*
X218132936Y-113391790D01*
X218204298Y-113427471D01*
X218239979Y-113463152D01*
X218275660Y-113534514D01*
X218275660Y-113819961D01*
X217883169Y-113177704D02*
X218632469Y-112927937D01*
X217883169Y-112678171D01*
X218204298Y-112321361D02*
X218168617Y-112392723D01*
X218132936Y-112428404D01*
X218061574Y-112464085D01*
X218025893Y-112464085D01*
X217954531Y-112428404D01*
X217918850Y-112392723D01*
X217883169Y-112321361D01*
X217883169Y-112178638D01*
X217918850Y-112107276D01*
X217954531Y-112071595D01*
X218025893Y-112035914D01*
X218061574Y-112035914D01*
X218132936Y-112071595D01*
X218168617Y-112107276D01*
X218204298Y-112178638D01*
X218204298Y-112321361D01*
X218239979Y-112392723D01*
X218275660Y-112428404D01*
X218347021Y-112464085D01*
X218489745Y-112464085D01*
X218561107Y-112428404D01*
X218596788Y-112392723D01*
X218632469Y-112321361D01*
X218632469Y-112178638D01*
X218596788Y-112107276D01*
X218561107Y-112071595D01*
X218489745Y-112035914D01*
X218347021Y-112035914D01*
X218275660Y-112071595D01*
X218239979Y-112107276D01*
X218204298Y-112178638D01*
X217883169Y-111786147D02*
X217883169Y-111322295D01*
X218168617Y-111572061D01*
X218168617Y-111465019D01*
X218204298Y-111393657D01*
X218239979Y-111357976D01*
X218311340Y-111322295D01*
X218489745Y-111322295D01*
X218561107Y-111357976D01*
X218596788Y-111393657D01*
X218632469Y-111465019D01*
X218632469Y-111679104D01*
X218596788Y-111750466D01*
X218561107Y-111786147D01*
X217883169Y-110858442D02*
X217883169Y-110787081D01*
X217918850Y-110715719D01*
X217954531Y-110680038D01*
X218025893Y-110644357D01*
X218168617Y-110608676D01*
X218347021Y-110608676D01*
X218489745Y-110644357D01*
X218561107Y-110680038D01*
X218596788Y-110715719D01*
X218632469Y-110787081D01*
X218632469Y-110858442D01*
X218596788Y-110929804D01*
X218561107Y-110965485D01*
X218489745Y-111001166D01*
X218347021Y-111036847D01*
X218168617Y-111036847D01*
X218025893Y-111001166D01*
X217954531Y-110965485D01*
X217918850Y-110929804D01*
X217883169Y-110858442D01*
X217954531Y-110323228D02*
X217918850Y-110287547D01*
X217883169Y-110216185D01*
X217883169Y-110037781D01*
X217918850Y-109966419D01*
X217954531Y-109930738D01*
X218025893Y-109895057D01*
X218097255Y-109895057D01*
X218204298Y-109930738D01*
X218632469Y-110358909D01*
X218632469Y-109895057D01*
D18*
X233050000Y-124366667D02*
X233050000Y-124933333D01*
X233083333Y-125000000D01*
X233116666Y-125033333D01*
X233183333Y-125066667D01*
X233316666Y-125066667D01*
X233383333Y-125033333D01*
X233416666Y-125000000D01*
X233450000Y-124933333D01*
X233450000Y-124366667D01*
X234083333Y-124600000D02*
X234083333Y-125066667D01*
X233916666Y-124333333D02*
X233749999Y-124833333D01*
X234183333Y-124833333D01*
X234583333Y-124366667D02*
X234650000Y-124366667D01*
X234716666Y-124400000D01*
X234750000Y-124433333D01*
X234783333Y-124500000D01*
X234816666Y-124633333D01*
X234816666Y-124800000D01*
X234783333Y-124933333D01*
X234750000Y-125000000D01*
X234716666Y-125033333D01*
X234650000Y-125066667D01*
X234583333Y-125066667D01*
X234516666Y-125033333D01*
X234483333Y-125000000D01*
X234450000Y-124933333D01*
X234416666Y-124800000D01*
X234416666Y-124633333D01*
X234450000Y-124500000D01*
X234483333Y-124433333D01*
X234516666Y-124400000D01*
X234583333Y-124366667D01*
X235483333Y-125066667D02*
X235083333Y-125066667D01*
X235283333Y-125066667D02*
X235283333Y-124366667D01*
X235216667Y-124466667D01*
X235150000Y-124533333D01*
X235083333Y-124566667D01*
D27*
X209383143Y-122832714D02*
X209891143Y-123594714D01*
X209891143Y-122832714D02*
X209383143Y-123594714D01*
X210145143Y-122905286D02*
X210181429Y-122869000D01*
X210254000Y-122832714D01*
X210435429Y-122832714D01*
X210508000Y-122869000D01*
X210544286Y-122905286D01*
X210580571Y-122977857D01*
X210580571Y-123050429D01*
X210544286Y-123159286D01*
X210108857Y-123594714D01*
X210580571Y-123594714D01*
D15*
X192904762Y-87297619D02*
X192809524Y-87250000D01*
X192714286Y-87154762D01*
X192571429Y-87011905D01*
X192476190Y-86964286D01*
X192380952Y-86964286D01*
X192428571Y-87202381D02*
X192333333Y-87154762D01*
X192238095Y-87059524D01*
X192190476Y-86869048D01*
X192190476Y-86535714D01*
X192238095Y-86345238D01*
X192333333Y-86250000D01*
X192428571Y-86202381D01*
X192619048Y-86202381D01*
X192714286Y-86250000D01*
X192809524Y-86345238D01*
X192857143Y-86535714D01*
X192857143Y-86869048D01*
X192809524Y-87059524D01*
X192714286Y-87154762D01*
X192619048Y-87202381D01*
X192428571Y-87202381D01*
X193714286Y-86202381D02*
X193523809Y-86202381D01*
X193428571Y-86250000D01*
X193380952Y-86297619D01*
X193285714Y-86440476D01*
X193238095Y-86630952D01*
X193238095Y-87011905D01*
X193285714Y-87107143D01*
X193333333Y-87154762D01*
X193428571Y-87202381D01*
X193619048Y-87202381D01*
X193714286Y-87154762D01*
X193761905Y-87107143D01*
X193809524Y-87011905D01*
X193809524Y-86773810D01*
X193761905Y-86678571D01*
X193714286Y-86630952D01*
X193619048Y-86583333D01*
X193428571Y-86583333D01*
X193333333Y-86630952D01*
X193285714Y-86678571D01*
X193238095Y-86773810D01*
X200547619Y-90345238D02*
X200500000Y-90440476D01*
X200404762Y-90535714D01*
X200261905Y-90678571D01*
X200214286Y-90773810D01*
X200214286Y-90869048D01*
X200452381Y-90821429D02*
X200404762Y-90916667D01*
X200309524Y-91011905D01*
X200119048Y-91059524D01*
X199785714Y-91059524D01*
X199595238Y-91011905D01*
X199500000Y-90916667D01*
X199452381Y-90821429D01*
X199452381Y-90630952D01*
X199500000Y-90535714D01*
X199595238Y-90440476D01*
X199785714Y-90392857D01*
X200119048Y-90392857D01*
X200309524Y-90440476D01*
X200404762Y-90535714D01*
X200452381Y-90630952D01*
X200452381Y-90821429D01*
X199452381Y-89488095D02*
X199452381Y-89964286D01*
X199928571Y-90011905D01*
X199880952Y-89964286D01*
X199833333Y-89869048D01*
X199833333Y-89630952D01*
X199880952Y-89535714D01*
X199928571Y-89488095D01*
X200023810Y-89440476D01*
X200261905Y-89440476D01*
X200357143Y-89488095D01*
X200404762Y-89535714D01*
X200452381Y-89630952D01*
X200452381Y-89869048D01*
X200404762Y-89964286D01*
X200357143Y-90011905D01*
X192904762Y-98547619D02*
X192809524Y-98500000D01*
X192714286Y-98404762D01*
X192571429Y-98261905D01*
X192476190Y-98214286D01*
X192380952Y-98214286D01*
X192428571Y-98452381D02*
X192333333Y-98404762D01*
X192238095Y-98309524D01*
X192190476Y-98119048D01*
X192190476Y-97785714D01*
X192238095Y-97595238D01*
X192333333Y-97500000D01*
X192428571Y-97452381D01*
X192619048Y-97452381D01*
X192714286Y-97500000D01*
X192809524Y-97595238D01*
X192857143Y-97785714D01*
X192857143Y-98119048D01*
X192809524Y-98309524D01*
X192714286Y-98404762D01*
X192619048Y-98452381D01*
X192428571Y-98452381D01*
X193714286Y-97785714D02*
X193714286Y-98452381D01*
X193476190Y-97404762D02*
X193238095Y-98119048D01*
X193857143Y-98119048D01*
X200547619Y-102595238D02*
X200500000Y-102690476D01*
X200404762Y-102785714D01*
X200261905Y-102928571D01*
X200214286Y-103023810D01*
X200214286Y-103119048D01*
X200452381Y-103071429D02*
X200404762Y-103166667D01*
X200309524Y-103261905D01*
X200119048Y-103309524D01*
X199785714Y-103309524D01*
X199595238Y-103261905D01*
X199500000Y-103166667D01*
X199452381Y-103071429D01*
X199452381Y-102880952D01*
X199500000Y-102785714D01*
X199595238Y-102690476D01*
X199785714Y-102642857D01*
X200119048Y-102642857D01*
X200309524Y-102690476D01*
X200404762Y-102785714D01*
X200452381Y-102880952D01*
X200452381Y-103071429D01*
X199452381Y-102309524D02*
X199452381Y-101690476D01*
X199833333Y-102023810D01*
X199833333Y-101880952D01*
X199880952Y-101785714D01*
X199928571Y-101738095D01*
X200023810Y-101690476D01*
X200261905Y-101690476D01*
X200357143Y-101738095D01*
X200404762Y-101785714D01*
X200452381Y-101880952D01*
X200452381Y-102166667D01*
X200404762Y-102261905D01*
X200357143Y-102309524D01*
X192904762Y-110047619D02*
X192809524Y-110000000D01*
X192714286Y-109904762D01*
X192571429Y-109761905D01*
X192476190Y-109714286D01*
X192380952Y-109714286D01*
X192428571Y-109952381D02*
X192333333Y-109904762D01*
X192238095Y-109809524D01*
X192190476Y-109619048D01*
X192190476Y-109285714D01*
X192238095Y-109095238D01*
X192333333Y-109000000D01*
X192428571Y-108952381D01*
X192619048Y-108952381D01*
X192714286Y-109000000D01*
X192809524Y-109095238D01*
X192857143Y-109285714D01*
X192857143Y-109619048D01*
X192809524Y-109809524D01*
X192714286Y-109904762D01*
X192619048Y-109952381D01*
X192428571Y-109952381D01*
X193238095Y-109047619D02*
X193285714Y-109000000D01*
X193380952Y-108952381D01*
X193619048Y-108952381D01*
X193714286Y-109000000D01*
X193761905Y-109047619D01*
X193809524Y-109142857D01*
X193809524Y-109238095D01*
X193761905Y-109380952D01*
X193190476Y-109952381D01*
X193809524Y-109952381D01*
X200547619Y-114595238D02*
X200500000Y-114690476D01*
X200404762Y-114785714D01*
X200261905Y-114928571D01*
X200214286Y-115023810D01*
X200214286Y-115119048D01*
X200452381Y-115071429D02*
X200404762Y-115166667D01*
X200309524Y-115261905D01*
X200119048Y-115309524D01*
X199785714Y-115309524D01*
X199595238Y-115261905D01*
X199500000Y-115166667D01*
X199452381Y-115071429D01*
X199452381Y-114880952D01*
X199500000Y-114785714D01*
X199595238Y-114690476D01*
X199785714Y-114642857D01*
X200119048Y-114642857D01*
X200309524Y-114690476D01*
X200404762Y-114785714D01*
X200452381Y-114880952D01*
X200452381Y-115071429D01*
X200452381Y-113690476D02*
X200452381Y-114261905D01*
X200452381Y-113976191D02*
X199452381Y-113976191D01*
X199595238Y-114071429D01*
X199690476Y-114166667D01*
X199738095Y-114261905D01*
D11*
X221630953Y-145976190D02*
X221630953Y-145476190D01*
X221750000Y-145476190D01*
X221821429Y-145500000D01*
X221869048Y-145547619D01*
X221892857Y-145595238D01*
X221916667Y-145690476D01*
X221916667Y-145761905D01*
X221892857Y-145857143D01*
X221869048Y-145904762D01*
X221821429Y-145952381D01*
X221750000Y-145976190D01*
X221630953Y-145976190D01*
X222107143Y-145523810D02*
X222130953Y-145500000D01*
X222178572Y-145476190D01*
X222297619Y-145476190D01*
X222345238Y-145500000D01*
X222369048Y-145523810D01*
X222392857Y-145571429D01*
X222392857Y-145619048D01*
X222369048Y-145690476D01*
X222083334Y-145976190D01*
X222392857Y-145976190D01*
X219880953Y-145976190D02*
X219880953Y-145476190D01*
X220000000Y-145476190D01*
X220071429Y-145500000D01*
X220119048Y-145547619D01*
X220142857Y-145595238D01*
X220166667Y-145690476D01*
X220166667Y-145761905D01*
X220142857Y-145857143D01*
X220119048Y-145904762D01*
X220071429Y-145952381D01*
X220000000Y-145976190D01*
X219880953Y-145976190D01*
X220642857Y-145976190D02*
X220357143Y-145976190D01*
X220500000Y-145976190D02*
X220500000Y-145476190D01*
X220452381Y-145547619D01*
X220404762Y-145595238D01*
X220357143Y-145619048D01*
X218130953Y-145976190D02*
X218130953Y-145476190D01*
X218250000Y-145476190D01*
X218321429Y-145500000D01*
X218369048Y-145547619D01*
X218392857Y-145595238D01*
X218416667Y-145690476D01*
X218416667Y-145761905D01*
X218392857Y-145857143D01*
X218369048Y-145904762D01*
X218321429Y-145952381D01*
X218250000Y-145976190D01*
X218130953Y-145976190D01*
X218583334Y-145476190D02*
X218892857Y-145476190D01*
X218726191Y-145666667D01*
X218797619Y-145666667D01*
X218845238Y-145690476D01*
X218869048Y-145714286D01*
X218892857Y-145761905D01*
X218892857Y-145880952D01*
X218869048Y-145928571D01*
X218845238Y-145952381D01*
X218797619Y-145976190D01*
X218654762Y-145976190D01*
X218607143Y-145952381D01*
X218583334Y-145928571D01*
D22*
X228630672Y-99507862D02*
X228630672Y-99007482D01*
X228749810Y-99007482D01*
X228821293Y-99031310D01*
X228868948Y-99078965D01*
X228892776Y-99126620D01*
X228916604Y-99221931D01*
X228916604Y-99293414D01*
X228892776Y-99388724D01*
X228868948Y-99436380D01*
X228821293Y-99484035D01*
X228749810Y-99507862D01*
X228630672Y-99507862D01*
X229369328Y-99007482D02*
X229131052Y-99007482D01*
X229107224Y-99245759D01*
X229131052Y-99221931D01*
X229178707Y-99198103D01*
X229297845Y-99198103D01*
X229345501Y-99221931D01*
X229369328Y-99245759D01*
X229393156Y-99293414D01*
X229393156Y-99412552D01*
X229369328Y-99460207D01*
X229345501Y-99484035D01*
X229297845Y-99507862D01*
X229178707Y-99507862D01*
X229131052Y-99484035D01*
X229107224Y-99460207D01*
D15*
X224202381Y-95261905D02*
X225011905Y-95261905D01*
X225107143Y-95214286D01*
X225154762Y-95166667D01*
X225202381Y-95071429D01*
X225202381Y-94880952D01*
X225154762Y-94785714D01*
X225107143Y-94738095D01*
X225011905Y-94690476D01*
X224202381Y-94690476D01*
X224297619Y-94261905D02*
X224250000Y-94214286D01*
X224202381Y-94119048D01*
X224202381Y-93880952D01*
X224250000Y-93785714D01*
X224297619Y-93738095D01*
X224392857Y-93690476D01*
X224488095Y-93690476D01*
X224630952Y-93738095D01*
X225202381Y-94309524D01*
X225202381Y-93690476D01*
D22*
X232626362Y-108169328D02*
X232125982Y-108169328D01*
X232125982Y-108050190D01*
X232149810Y-107978707D01*
X232197465Y-107931052D01*
X232245120Y-107907224D01*
X232340431Y-107883396D01*
X232411914Y-107883396D01*
X232507224Y-107907224D01*
X232554880Y-107931052D01*
X232602535Y-107978707D01*
X232626362Y-108050190D01*
X232626362Y-108169328D01*
X232292776Y-107454499D02*
X232626362Y-107454499D01*
X232102155Y-107573637D02*
X232459569Y-107692776D01*
X232459569Y-107383016D01*
D15*
X200030953Y-126357143D02*
X199983334Y-126404762D01*
X199840477Y-126452381D01*
X199745239Y-126452381D01*
X199602381Y-126404762D01*
X199507143Y-126309524D01*
X199459524Y-126214286D01*
X199411905Y-126023810D01*
X199411905Y-125880952D01*
X199459524Y-125690476D01*
X199507143Y-125595238D01*
X199602381Y-125500000D01*
X199745239Y-125452381D01*
X199840477Y-125452381D01*
X199983334Y-125500000D01*
X200030953Y-125547619D01*
X200983334Y-126452381D02*
X200411905Y-126452381D01*
X200697619Y-126452381D02*
X200697619Y-125452381D01*
X200602381Y-125595238D01*
X200507143Y-125690476D01*
X200411905Y-125738095D01*
X201602381Y-125452381D02*
X201697620Y-125452381D01*
X201792858Y-125500000D01*
X201840477Y-125547619D01*
X201888096Y-125642857D01*
X201935715Y-125833333D01*
X201935715Y-126071429D01*
X201888096Y-126261905D01*
X201840477Y-126357143D01*
X201792858Y-126404762D01*
X201697620Y-126452381D01*
X201602381Y-126452381D01*
X201507143Y-126404762D01*
X201459524Y-126357143D01*
X201411905Y-126261905D01*
X201364286Y-126071429D01*
X201364286Y-125833333D01*
X201411905Y-125642857D01*
X201459524Y-125547619D01*
X201507143Y-125500000D01*
X201602381Y-125452381D01*
X202554762Y-125452381D02*
X202650001Y-125452381D01*
X202745239Y-125500000D01*
X202792858Y-125547619D01*
X202840477Y-125642857D01*
X202888096Y-125833333D01*
X202888096Y-126071429D01*
X202840477Y-126261905D01*
X202792858Y-126357143D01*
X202745239Y-126404762D01*
X202650001Y-126452381D01*
X202554762Y-126452381D01*
X202459524Y-126404762D01*
X202411905Y-126357143D01*
X202364286Y-126261905D01*
X202316667Y-126071429D01*
X202316667Y-125833333D01*
X202364286Y-125642857D01*
X202411905Y-125547619D01*
X202459524Y-125500000D01*
X202554762Y-125452381D01*
X197188095Y-131742857D02*
X198711905Y-131742857D01*
X189030953Y-126357143D02*
X188983334Y-126404762D01*
X188840477Y-126452381D01*
X188745239Y-126452381D01*
X188602381Y-126404762D01*
X188507143Y-126309524D01*
X188459524Y-126214286D01*
X188411905Y-126023810D01*
X188411905Y-125880952D01*
X188459524Y-125690476D01*
X188507143Y-125595238D01*
X188602381Y-125500000D01*
X188745239Y-125452381D01*
X188840477Y-125452381D01*
X188983334Y-125500000D01*
X189030953Y-125547619D01*
X189983334Y-126452381D02*
X189411905Y-126452381D01*
X189697619Y-126452381D02*
X189697619Y-125452381D01*
X189602381Y-125595238D01*
X189507143Y-125690476D01*
X189411905Y-125738095D01*
X190602381Y-125452381D02*
X190697620Y-125452381D01*
X190792858Y-125500000D01*
X190840477Y-125547619D01*
X190888096Y-125642857D01*
X190935715Y-125833333D01*
X190935715Y-126071429D01*
X190888096Y-126261905D01*
X190840477Y-126357143D01*
X190792858Y-126404762D01*
X190697620Y-126452381D01*
X190602381Y-126452381D01*
X190507143Y-126404762D01*
X190459524Y-126357143D01*
X190411905Y-126261905D01*
X190364286Y-126071429D01*
X190364286Y-125833333D01*
X190411905Y-125642857D01*
X190459524Y-125547619D01*
X190507143Y-125500000D01*
X190602381Y-125452381D01*
X191888096Y-126452381D02*
X191316667Y-126452381D01*
X191602381Y-126452381D02*
X191602381Y-125452381D01*
X191507143Y-125595238D01*
X191411905Y-125690476D01*
X191316667Y-125738095D01*
X186188095Y-131742857D02*
X187711905Y-131742857D01*
M02*
