M48
METRIC,TZ
T1C0.400
T2C0.600
T3C0.701
T4C0.800
T5C0.889
T6C1.016
T7C3.000
T8C3.200
%
G90
G05
T1
X188600Y-95200
X190000Y-117000
X190750Y-109250
X191000Y-117000
X191250Y-88250
X192200Y-94200
X192500Y-114000
X193000Y-99500
X195200Y-106800
X195250Y-89750
X195250Y-94000
X195250Y-105500
X195250Y-115500
X195500Y-112250
X198000Y-130500
X199250Y-119000
X199500Y-94000
X199500Y-106750
X199500Y-110000
X199600Y-96800
X199750Y-85750
X199750Y-98000
X201000Y-141000
X201000Y-144250
X202500Y-105000
X204250Y-89750
X204250Y-102000
X204250Y-114000
X205250Y-99250
X205750Y-117000
X205750Y-132000
X206000Y-108500
X206150Y-92750
X206250Y-105000
X207000Y-96250
X207250Y-91250
X207250Y-112500
X207550Y-108000
X208250Y-106500
X208250Y-126000
X208500Y-95250
X208500Y-111750
X208500Y-113250
X208800Y-90200
X209250Y-111000
X209750Y-91500
X210000Y-111750
X210500Y-134750
X210750Y-111000
X210750Y-129750
X210750Y-130750
X210750Y-132000
X210750Y-133500
X210800Y-97200
X211100Y-110250
X211250Y-102500
X211500Y-107000
X211500Y-136000
X211750Y-110750
X212000Y-128750
X212250Y-115000
X212400Y-108000
X212500Y-107000
X212750Y-136000
X213000Y-115250
X213250Y-108750
X213250Y-109750
X213500Y-106750
X213500Y-126250
X213750Y-115750
X213750Y-122000
X215000Y-134500
X215250Y-141250
X215500Y-129750
X216000Y-135250
X216250Y-133250
X216250Y-140250
X216500Y-121500
X217000Y-116000
X217000Y-117000
X217000Y-118000
X217000Y-135250
X217000Y-141000
X217250Y-105250
X217250Y-106250
X217250Y-124250
X217500Y-139000
X217750Y-134500
X218000Y-122250
X218000Y-128000
X218000Y-129750
X218000Y-135250
X218250Y-90500
X218500Y-100500
X218500Y-130500
X218750Y-86000
X219000Y-120250
X219000Y-122250
X219750Y-86000
X219750Y-100500
X220000Y-135500
X220500Y-132250
X221000Y-133000
X221000Y-135500
X221250Y-131500
X221500Y-106250
X221750Y-107250
X221750Y-133500
X222000Y-109000
X222000Y-110000
X222000Y-111500
X222000Y-130750
X222250Y-138750
X222750Y-124000
X223250Y-129500
X223250Y-135500
X223500Y-128000
X223750Y-123250
X223750Y-125750
X223750Y-140250
X224750Y-96750
X225000Y-121250
X225000Y-122500
X225250Y-111250
X225250Y-137500
X225250Y-138500
X225250Y-140500
X225500Y-114750
X226000Y-110750
X226500Y-107000
X226500Y-112250
X226500Y-115000
X226750Y-96000
X227000Y-110750
X227000Y-119250
X227250Y-94250
X227250Y-95250
X227500Y-133000
X227750Y-106000
X227750Y-108000
X227750Y-109000
X227750Y-113500
X227750Y-114500
X227750Y-116500
X227750Y-117500
X227750Y-118750
X227750Y-126750
X228000Y-110750
X228500Y-133000
X228750Y-94750
X228750Y-139750
X229000Y-101400
X229500Y-133000
X229750Y-93750
X229750Y-94750
X230250Y-128500
X230500Y-126000
X230750Y-129250
X231000Y-94500
X231000Y-111500
X231200Y-103600
X231500Y-93000
X231500Y-126000
X231750Y-109750
X232000Y-91500
X232000Y-112750
X232000Y-116500
X232250Y-133750
X232250Y-136750
X232500Y-110500
X232750Y-117300
X233000Y-112750
X233000Y-123500
X233500Y-121250
X234000Y-109250
X234000Y-111250
X234500Y-123250
X235000Y-119250
X235250Y-120750
X235250Y-122000
X235500Y-140750
X236250Y-91000
X239250Y-96750
X239250Y-119000
X239500Y-102750
X239500Y-109750
X239500Y-135000
X239750Y-131250
X239750Y-138000
X240000Y-89500
X242500Y-91500
T3
X227249Y-86250
X227749Y-143000
X229250Y-86250
X229750Y-143000
X231249Y-86250
X231749Y-143000
X233251Y-86250
X233751Y-143000
X235250Y-86250
X235750Y-143000
X237251Y-86250
X237751Y-143000
X243400Y-120348
X243400Y-122349
X243400Y-124351
X243400Y-126350
T4
X243400Y-131695
X243400Y-133697
X243400Y-135698
X243400Y-137697
X243400Y-139699
X243400Y-141701
X243400Y-143699
T5
X241650Y-104950
X241650Y-106550
X241650Y-108150
X244250Y-105750
X244250Y-107350
T6
X233460Y-129000
X236000Y-129000
X238540Y-129000
T7
X241750Y-114500
T8
X187750Y-142500
X211250Y-87000
T2
X243850Y-102800G85X242350Y-102800
G05
X243850Y-110300G85X242350Y-110300
G05
T0
M30
