G04 #@! TF.FileFunction,Paste,Bot*
%FSLAX46Y46*%
G04 Gerber Fmt 4.6, Leading zero omitted, Abs format (unit mm)*
G04 Created by KiCad (PCBNEW 4.0.6) date 07/07/17 00:51:22*
%MOMM*%
%LPD*%
G01*
G04 APERTURE LIST*
%ADD10C,0.100000*%
%ADD11R,0.635000X1.143000*%
%ADD12R,1.143000X0.635000*%
%ADD13R,2.032000X1.524000*%
%ADD14R,1.524000X2.032000*%
G04 APERTURE END LIST*
D10*
D11*
X207738000Y-135500000D03*
X209262000Y-135500000D03*
X234762000Y-138500000D03*
X233238000Y-138500000D03*
D12*
X238500000Y-90012000D03*
X238500000Y-88488000D03*
X228000000Y-91488000D03*
X228000000Y-93012000D03*
X233250000Y-91488000D03*
X233250000Y-93012000D03*
X235000000Y-91488000D03*
X235000000Y-93012000D03*
D11*
X236488000Y-133750000D03*
X238012000Y-133750000D03*
X238512000Y-94250000D03*
X236988000Y-94250000D03*
X238512000Y-92250000D03*
X236988000Y-92250000D03*
D12*
X240500000Y-92262000D03*
X240500000Y-90738000D03*
D11*
X236488000Y-140250000D03*
X238012000Y-140250000D03*
X233488000Y-136250000D03*
X235012000Y-136250000D03*
D12*
X223750000Y-142988000D03*
X223750000Y-144512000D03*
D11*
X233488000Y-133750000D03*
X235012000Y-133750000D03*
X230512000Y-113750000D03*
X228988000Y-113750000D03*
D12*
X231250000Y-120262000D03*
X231250000Y-118738000D03*
D11*
X230512000Y-115500000D03*
X228988000Y-115500000D03*
D12*
X229250000Y-123262000D03*
X229250000Y-121738000D03*
X229500000Y-112262000D03*
X229500000Y-110738000D03*
X229000000Y-104488000D03*
X229000000Y-106012000D03*
D11*
X238012000Y-138500000D03*
X236488000Y-138500000D03*
D12*
X232000000Y-113988000D03*
X232000000Y-115512000D03*
X234500000Y-98762000D03*
X234500000Y-97238000D03*
D11*
X207238000Y-115000000D03*
X208762000Y-115000000D03*
X203738000Y-105000000D03*
X205262000Y-105000000D03*
X203488000Y-92750000D03*
X205012000Y-92750000D03*
X236488000Y-136250000D03*
X238012000Y-136250000D03*
X207738000Y-130250000D03*
X209262000Y-130250000D03*
D12*
X219000000Y-107012000D03*
X219000000Y-105488000D03*
D11*
X236488000Y-132000000D03*
X238012000Y-132000000D03*
X218238000Y-102250000D03*
X219762000Y-102250000D03*
X209262000Y-128500000D03*
X207738000Y-128500000D03*
D12*
X215000000Y-142988000D03*
X215000000Y-144512000D03*
D11*
X230262000Y-108000000D03*
X228738000Y-108000000D03*
X237238000Y-124750000D03*
X238762000Y-124750000D03*
D12*
X216750000Y-144512000D03*
X216750000Y-142988000D03*
X213250000Y-142988000D03*
X213250000Y-144512000D03*
D11*
X207738000Y-137250000D03*
X209262000Y-137250000D03*
X207738000Y-133750000D03*
X209262000Y-133750000D03*
D12*
X234000000Y-139988000D03*
X234000000Y-141512000D03*
D11*
X209262000Y-132000000D03*
X207738000Y-132000000D03*
D12*
X235000000Y-88488000D03*
X235000000Y-90012000D03*
X233250000Y-88488000D03*
X233250000Y-90012000D03*
X228000000Y-88488000D03*
X228000000Y-90012000D03*
X229750000Y-88488000D03*
X229750000Y-90012000D03*
X231500000Y-88488000D03*
X231500000Y-90012000D03*
X236750000Y-88488000D03*
X236750000Y-90012000D03*
D11*
X230512000Y-117250000D03*
X228988000Y-117250000D03*
D12*
X229250000Y-120262000D03*
X229250000Y-118738000D03*
X223500000Y-122012000D03*
X223500000Y-120488000D03*
D11*
X212012000Y-109250000D03*
X210488000Y-109250000D03*
X207738000Y-109250000D03*
X209262000Y-109250000D03*
D12*
X210750000Y-117012000D03*
X210750000Y-115488000D03*
D11*
X207238000Y-103000000D03*
X208762000Y-103000000D03*
X207238000Y-117000000D03*
X208762000Y-117000000D03*
X193762000Y-117750000D03*
X192238000Y-117750000D03*
X192238000Y-115500000D03*
X193762000Y-115500000D03*
D12*
X204250000Y-117238000D03*
X204250000Y-118762000D03*
D11*
X213262000Y-137250000D03*
X211738000Y-137250000D03*
X207238000Y-105000000D03*
X208762000Y-105000000D03*
X193762000Y-109250000D03*
X192238000Y-109250000D03*
X192238000Y-107250000D03*
X193762000Y-107250000D03*
X207238000Y-92750000D03*
X208762000Y-92750000D03*
X193762000Y-91250000D03*
X192238000Y-91250000D03*
X192238000Y-89250000D03*
X193762000Y-89250000D03*
D12*
X215750000Y-85738000D03*
X215750000Y-87262000D03*
X222250000Y-85638000D03*
X222250000Y-87162000D03*
X215750000Y-100988000D03*
X215750000Y-102512000D03*
X222250000Y-100988000D03*
X222250000Y-102512000D03*
D11*
X237238000Y-122750000D03*
X238762000Y-122750000D03*
X237238000Y-120750000D03*
X238762000Y-120750000D03*
D13*
X205200000Y-144251000D03*
X205200000Y-140949000D03*
X207800000Y-144251000D03*
X207800000Y-140949000D03*
X210400000Y-140949000D03*
X210400000Y-144251000D03*
D14*
X193851000Y-94600000D03*
X190549000Y-94600000D03*
D13*
X197200000Y-91349000D03*
X197200000Y-94651000D03*
D14*
X194651000Y-97200000D03*
X191349000Y-97200000D03*
X194651000Y-99800000D03*
X191349000Y-99800000D03*
X193451000Y-105000000D03*
X190149000Y-105000000D03*
X194651000Y-102400000D03*
X191349000Y-102400000D03*
M02*
