G04 #@! TF.FileFunction,Copper,L3,Inr,Mixed*
%FSLAX46Y46*%
G04 Gerber Fmt 4.6, Leading zero omitted, Abs format (unit mm)*
G04 Created by KiCad (PCBNEW 4.0.6) date 07/07/17 00:51:22*
%MOMM*%
%LPD*%
G01*
G04 APERTURE LIST*
%ADD10C,0.100000*%
%ADD11C,1.143000*%
%ADD12R,2.300000X0.800000*%
%ADD13O,1.524000X3.048000*%
%ADD14C,1.300480*%
%ADD15R,1.300000X1.300000*%
%ADD16C,1.300000*%
%ADD17R,1.699260X1.198880*%
%ADD18O,1.699260X1.198880*%
%ADD19C,5.000000*%
%ADD20C,0.600000*%
%ADD21C,0.250000*%
%ADD22C,1.000000*%
G04 APERTURE END LIST*
D10*
D11*
X241650000Y-104950000D03*
X244250000Y-105750000D03*
X241650000Y-106550000D03*
X244250000Y-107350000D03*
X241650000Y-108150000D03*
D12*
X243100000Y-102800000D03*
X243100000Y-110300000D03*
D13*
X238540000Y-129000000D03*
X236000000Y-129000000D03*
X233460000Y-129000000D03*
D14*
X233250760Y-86250000D03*
X231249240Y-86250000D03*
X229250260Y-86250000D03*
X227248740Y-86250000D03*
X235249740Y-86250000D03*
X237251260Y-86250000D03*
X233750760Y-143000000D03*
X231749240Y-143000000D03*
X229750260Y-143000000D03*
X227748740Y-143000000D03*
X235749740Y-143000000D03*
X237751260Y-143000000D03*
D15*
X243400000Y-131695440D03*
D16*
X243400000Y-135698480D03*
X243400000Y-133696960D03*
X243400000Y-137697460D03*
X243400000Y-139698980D03*
X243400000Y-141700500D03*
X243400000Y-143699480D03*
D17*
X243400000Y-120347720D03*
D18*
X243400000Y-124350760D03*
X243400000Y-122349240D03*
X243400000Y-126349740D03*
D19*
X187750000Y-142500000D03*
X211250000Y-87000000D03*
X241750000Y-114500000D03*
D20*
X231750000Y-109750000D03*
X239500000Y-109750000D03*
X233500000Y-121250000D03*
X198000000Y-130500000D03*
X217750000Y-134500000D03*
X216250000Y-140250000D03*
X201000000Y-144250000D03*
X229000000Y-101400000D03*
X239250000Y-119000000D03*
X193000000Y-99500000D03*
X195200000Y-106800000D03*
X226500000Y-115000000D03*
X242500000Y-91500000D03*
X232000000Y-116500000D03*
X207550000Y-108000000D03*
X217250000Y-124250000D03*
X225000000Y-121250000D03*
X217000000Y-118000000D03*
X231500000Y-93000000D03*
X210750000Y-133500000D03*
X216500000Y-121500000D03*
X225250000Y-140500000D03*
X240000000Y-89500000D03*
X227250000Y-94250000D03*
X210750000Y-132000000D03*
X218500000Y-130500000D03*
X224750000Y-96750000D03*
X219000000Y-120250000D03*
X223750000Y-123250000D03*
X218000000Y-122250000D03*
X227250000Y-95250000D03*
X229750000Y-93750000D03*
X232000000Y-91500000D03*
X236250000Y-91000000D03*
X226750000Y-96000000D03*
X219000000Y-122250000D03*
X233000000Y-123500000D03*
X235000000Y-119250000D03*
X213500000Y-126250000D03*
X231000000Y-94500000D03*
X217000000Y-141000000D03*
X216250000Y-133250000D03*
X225500000Y-114750000D03*
X205750000Y-132000000D03*
X227750000Y-126750000D03*
X226500000Y-107000000D03*
X223750000Y-140250000D03*
X232250000Y-136750000D03*
X213750000Y-122000000D03*
X215500000Y-129750000D03*
X217000000Y-135250000D03*
X222250000Y-138750000D03*
X223500000Y-128000000D03*
X232250000Y-133750000D03*
X232000000Y-112750000D03*
X227750000Y-118750000D03*
X227750000Y-108000000D03*
X227750000Y-109000000D03*
X233000000Y-112750000D03*
X227750000Y-114500000D03*
X226500000Y-112250000D03*
X231000000Y-111500000D03*
X227750000Y-106000000D03*
X231200000Y-103600000D03*
X228750000Y-94750000D03*
X239250000Y-96750000D03*
X217000000Y-116000000D03*
X229750000Y-94750000D03*
X217000000Y-117000000D03*
X204250000Y-114000000D03*
X213000000Y-115250000D03*
X202500000Y-105000000D03*
X206000000Y-108500000D03*
X204250000Y-102000000D03*
X210750000Y-111000000D03*
X208500000Y-111750000D03*
X213250000Y-108750000D03*
X204250000Y-89750000D03*
X206150000Y-92750000D03*
X211100000Y-110250000D03*
X228750000Y-139750000D03*
X210750000Y-130750000D03*
X232750000Y-117300000D03*
X232500000Y-110500000D03*
X239500000Y-102750000D03*
X209750000Y-91500000D03*
X213500000Y-106750000D03*
X217250000Y-106250000D03*
X211250000Y-102500000D03*
X211500000Y-107000000D03*
X217250000Y-105250000D03*
X208250000Y-126000000D03*
X210750000Y-129750000D03*
X215250000Y-141250000D03*
X201000000Y-141000000D03*
X199500000Y-94000000D03*
X199750000Y-85750000D03*
X199500000Y-106750000D03*
X199500000Y-110000000D03*
X199250000Y-119000000D03*
X199750000Y-98000000D03*
X210800000Y-97200000D03*
X199600000Y-96800000D03*
X195500000Y-112250000D03*
X192500000Y-114000000D03*
X190000000Y-117000000D03*
X207250000Y-112500000D03*
X208800000Y-90200000D03*
X192200000Y-94200000D03*
X212500000Y-107000000D03*
X218250000Y-90500000D03*
X195250000Y-94000000D03*
X208500000Y-95250000D03*
X191250000Y-88250000D03*
X235500000Y-140750000D03*
X239750000Y-131250000D03*
X223250000Y-129500000D03*
X225250000Y-138500000D03*
X225250000Y-137500000D03*
X223750000Y-125750000D03*
X217500000Y-139000000D03*
X239750000Y-138000000D03*
X221750000Y-133500000D03*
X216000000Y-135250000D03*
X239500000Y-135000000D03*
X221000000Y-133000000D03*
X218000000Y-135250000D03*
X235250000Y-122000000D03*
X234500000Y-123250000D03*
X205750000Y-117000000D03*
X195250000Y-115500000D03*
X206250000Y-105000000D03*
X195250000Y-105500000D03*
X207250000Y-91250000D03*
X195250000Y-89750000D03*
X227750000Y-117500000D03*
X227000000Y-119250000D03*
X211500000Y-136000000D03*
X209250000Y-111000000D03*
X213750000Y-115750000D03*
X212750000Y-136000000D03*
X205250000Y-99250000D03*
X212250000Y-115000000D03*
X208500000Y-113250000D03*
X191000000Y-117000000D03*
X212000000Y-128750000D03*
X215000000Y-134500000D03*
X210500000Y-134750000D03*
X208250000Y-106500000D03*
X210000000Y-111750000D03*
X211750000Y-110750000D03*
X190750000Y-109250000D03*
X213250000Y-109750000D03*
X207000000Y-96250000D03*
X188600000Y-95200000D03*
X212400000Y-108000000D03*
X218750000Y-86000000D03*
X219750000Y-86000000D03*
X218500000Y-100500000D03*
X219750000Y-100500000D03*
X230750000Y-129250000D03*
X234000000Y-111250000D03*
X230250000Y-128500000D03*
X234000000Y-109250000D03*
X235250000Y-120750000D03*
X227750000Y-113500000D03*
X223250000Y-135500000D03*
X229500000Y-133000000D03*
X228000000Y-110750000D03*
X227000000Y-110750000D03*
X228500000Y-133000000D03*
X227500000Y-133000000D03*
X226000000Y-110750000D03*
X225250000Y-111250000D03*
X222750000Y-124000000D03*
X225000000Y-122500000D03*
X227750000Y-116500000D03*
X221500000Y-106250000D03*
X220000000Y-135500000D03*
X221000000Y-135500000D03*
X221750000Y-107250000D03*
X220500000Y-132250000D03*
X222000000Y-109000000D03*
X222000000Y-110000000D03*
X221250000Y-131500000D03*
X222000000Y-111500000D03*
X222000000Y-130750000D03*
X231500000Y-126000000D03*
X218000000Y-129750000D03*
X218000000Y-128000000D03*
X230500000Y-126000000D03*
D21*
X216500000Y-121500000D02*
X216750000Y-121750000D01*
X216750000Y-121750000D02*
X216750000Y-122750000D01*
X216750000Y-122750000D02*
X217500000Y-123500000D01*
X217500000Y-123500000D02*
X218549998Y-123500000D01*
X218549998Y-123500000D02*
X218750000Y-123700002D01*
X218750000Y-123700002D02*
X218750000Y-127250000D01*
X218750000Y-127250000D02*
X217500000Y-127250000D01*
X217500000Y-127250000D02*
X217250000Y-127500000D01*
X217250000Y-127500000D02*
X217250000Y-130250000D01*
X217250000Y-130250000D02*
X218750000Y-131750000D01*
X218750000Y-131750000D02*
X218750000Y-133250000D01*
X218750000Y-133250000D02*
X220000000Y-134500000D01*
X220000000Y-134500000D02*
X219250000Y-135250000D01*
X219250000Y-135250000D02*
X219250000Y-135750000D01*
X219250000Y-135750000D02*
X219750000Y-136250000D01*
X219750000Y-136250000D02*
X223049998Y-136250000D01*
X223049998Y-136250000D02*
X223500000Y-136700002D01*
X223500000Y-136700002D02*
X223500000Y-137500000D01*
X223500000Y-137500000D02*
X224500000Y-138500000D01*
X224500000Y-138500000D02*
X224500000Y-139750000D01*
X224500000Y-139750000D02*
X225250000Y-140500000D01*
X226750000Y-94750000D02*
X227250000Y-94250000D01*
X224250000Y-94750000D02*
X226750000Y-94750000D01*
X223000000Y-96000000D02*
X224250000Y-94750000D01*
X223000000Y-101500000D02*
X223000000Y-96000000D01*
X219000000Y-105500000D02*
X223000000Y-101500000D01*
X219000000Y-107000000D02*
X219000000Y-105500000D01*
X217750000Y-108250000D02*
X219000000Y-107000000D01*
X217750000Y-119049998D02*
X217750000Y-108250000D01*
X217250000Y-119549998D02*
X217750000Y-119049998D01*
X217250000Y-122500000D02*
X217250000Y-119549998D01*
X217750000Y-123000000D02*
X217250000Y-122500000D01*
X218750000Y-123000000D02*
X217750000Y-123000000D01*
X219250000Y-123500000D02*
X218750000Y-123000000D01*
X219250000Y-127750000D02*
X219250000Y-123500000D01*
X218750000Y-128250000D02*
X219250000Y-127750000D01*
X218750000Y-130250000D02*
X218750000Y-128250000D01*
X218500000Y-130500000D02*
X218750000Y-130250000D01*
X224750000Y-102000000D02*
X224750000Y-96750000D01*
X220500000Y-106250000D02*
X224750000Y-102000000D01*
X220500000Y-107750000D02*
X220500000Y-106250000D01*
X219250000Y-109000000D02*
X220500000Y-107750000D01*
X219250000Y-120000000D02*
X219250000Y-109000000D01*
X219000000Y-120250000D02*
X219250000Y-120000000D01*
X217750000Y-119750000D02*
X218250000Y-119250000D01*
X217750000Y-122000000D02*
X217750000Y-119750000D01*
X218000000Y-122250000D02*
X217750000Y-122000000D01*
X224500000Y-95250000D02*
X227250000Y-95250000D01*
X223500000Y-96250000D02*
X224500000Y-95250000D01*
X223500000Y-101799998D02*
X223500000Y-96250000D01*
X219500000Y-105799998D02*
X223500000Y-101799998D01*
X219500000Y-107250000D02*
X219500000Y-105799998D01*
X218250000Y-108500000D02*
X219500000Y-107250000D01*
X218250000Y-119250000D02*
X218250000Y-108500000D01*
X218250000Y-121500000D02*
X218250000Y-120000000D01*
X224500000Y-96000000D02*
X226750000Y-96000000D01*
X224000000Y-96500000D02*
X224500000Y-96000000D01*
X224000000Y-102000000D02*
X224000000Y-96500000D01*
X220000000Y-106000000D02*
X224000000Y-102000000D01*
X220000000Y-107549998D02*
X220000000Y-106000000D01*
X218750000Y-108799998D02*
X220000000Y-107549998D01*
X218750000Y-119500000D02*
X218750000Y-108799998D01*
X218250000Y-120000000D02*
X218750000Y-119500000D01*
X219000000Y-122250000D02*
X218250000Y-121500000D01*
X215500000Y-123750000D02*
X215500000Y-129750000D01*
X213750000Y-122000000D02*
X215500000Y-123750000D01*
X215500000Y-133750000D02*
X215500000Y-129750000D01*
X217000000Y-135250000D02*
X215500000Y-133750000D01*
X228250000Y-109500000D02*
X227750000Y-109000000D01*
X228250000Y-109750000D02*
X228250000Y-109500000D01*
X231000000Y-112500000D02*
X228250000Y-109750000D01*
X231500000Y-112000000D02*
X231000000Y-112500000D01*
X232250000Y-112000000D02*
X231500000Y-112000000D01*
X233000000Y-112750000D02*
X232250000Y-112000000D01*
X227500000Y-93500000D02*
X228750000Y-94750000D01*
X217000000Y-116000000D02*
X217250000Y-115750000D01*
X217250000Y-115750000D02*
X217250000Y-108113602D01*
X217250000Y-108113602D02*
X218500000Y-106863602D01*
X218500000Y-106863602D02*
X218500000Y-105250000D01*
X218500000Y-105250000D02*
X222549998Y-101200002D01*
X222549998Y-101200002D02*
X222549998Y-95700002D01*
X222549998Y-95700002D02*
X224000000Y-94250000D01*
X224000000Y-94250000D02*
X226250000Y-94250000D01*
X226250000Y-94250000D02*
X227000000Y-93500000D01*
X227000000Y-93500000D02*
X227500000Y-93500000D01*
X228000000Y-93000000D02*
X229750000Y-94750000D01*
X226750000Y-93000000D02*
X228000000Y-93000000D01*
X226068199Y-93681801D02*
X226750000Y-93000000D01*
X223818199Y-93681801D02*
X226068199Y-93681801D01*
X222000000Y-95500000D02*
X223818199Y-93681801D01*
X222000000Y-101113602D02*
X222000000Y-95500000D01*
X218000000Y-105113602D02*
X222000000Y-101113602D01*
X218000000Y-106500000D02*
X218000000Y-105113602D01*
X216750000Y-107750000D02*
X218000000Y-106500000D01*
X216750000Y-115250000D02*
X216750000Y-107750000D01*
X216250000Y-115750000D02*
X216750000Y-115250000D01*
X216250000Y-116250000D02*
X216250000Y-115750000D01*
X217000000Y-117000000D02*
X216250000Y-116250000D01*
X206000000Y-108500000D02*
X202500000Y-105000000D01*
X206150000Y-100350000D02*
X206150000Y-92750000D01*
X208900000Y-103100000D02*
X206150000Y-100350000D01*
X208900000Y-107650000D02*
X208900000Y-103100000D01*
X210500000Y-109250000D02*
X208900000Y-107650000D01*
X210500000Y-109650000D02*
X210500000Y-109250000D01*
X211100000Y-110250000D02*
X210500000Y-109650000D01*
X213250000Y-106750000D02*
X212750000Y-106250000D01*
X212750000Y-106250000D02*
X211500000Y-106250000D01*
X211500000Y-106250000D02*
X211500000Y-103250000D01*
X211500000Y-103250000D02*
X212000000Y-102750000D01*
X212000000Y-102750000D02*
X212000000Y-102250000D01*
X212000000Y-102250000D02*
X211500000Y-101750000D01*
X211500000Y-101750000D02*
X210450002Y-101750000D01*
X210450002Y-101750000D02*
X208250000Y-99549998D01*
X208250000Y-99549998D02*
X208250000Y-97750000D01*
X208250000Y-97750000D02*
X209250000Y-96750000D01*
X209250000Y-96750000D02*
X209250000Y-92000000D01*
X209250000Y-92000000D02*
X209750000Y-91500000D01*
X213500000Y-106750000D02*
X213250000Y-106750000D01*
X211000000Y-102750000D02*
X211250000Y-102500000D01*
X211000000Y-106500000D02*
X211000000Y-102750000D01*
X211500000Y-107000000D02*
X211000000Y-106500000D01*
D22*
X199500000Y-86000000D02*
X199500000Y-94000000D01*
X199750000Y-85750000D02*
X199500000Y-86000000D01*
X199500000Y-106750000D02*
X199500000Y-98250000D01*
X199500000Y-98250000D02*
X199750000Y-98000000D01*
X199500000Y-110000000D02*
X199750000Y-110250000D01*
X199750000Y-110250000D02*
X199750000Y-118500000D01*
X199750000Y-118500000D02*
X199250000Y-119000000D01*
D21*
X208500000Y-96500000D02*
X208500000Y-95250000D01*
X207750000Y-97250000D02*
X208500000Y-96500000D01*
X207750000Y-99750000D02*
X207750000Y-97250000D01*
X210500000Y-102500000D02*
X207750000Y-99750000D01*
X210500000Y-107000000D02*
X210500000Y-102500000D01*
X211500000Y-108000000D02*
X210500000Y-107000000D01*
X212500000Y-107000000D02*
X211500000Y-108000000D01*
X238750000Y-134500000D02*
X239750000Y-133500000D01*
X238750000Y-137500000D02*
X238750000Y-134500000D01*
X235500000Y-140750000D02*
X238750000Y-137500000D01*
X239750000Y-133500000D02*
X239750000Y-131250000D01*
X223250000Y-129500000D02*
X223250000Y-134750000D01*
X224000000Y-137250000D02*
X225250000Y-138500000D01*
X224000000Y-135000000D02*
X224000000Y-137250000D01*
X223750000Y-134750000D02*
X224000000Y-135000000D01*
X223250000Y-134750000D02*
X223750000Y-134750000D01*
X224000000Y-129250000D02*
X224000000Y-128500000D01*
X225250000Y-137500000D02*
X224500000Y-136750000D01*
X224500000Y-136750000D02*
X224500000Y-134750000D01*
X224500000Y-134750000D02*
X223750000Y-134000000D01*
X223750000Y-134000000D02*
X223750000Y-130000000D01*
X223750000Y-130000000D02*
X224000000Y-129750000D01*
X224000000Y-129750000D02*
X224000000Y-129250000D01*
X223750000Y-127000000D02*
X223750000Y-125750000D01*
X224250000Y-127500000D02*
X223750000Y-127000000D01*
X224250000Y-128250000D02*
X224250000Y-127500000D01*
X224000000Y-128500000D02*
X224250000Y-128250000D01*
X241500000Y-139800500D02*
X243400000Y-141700500D01*
X241500000Y-137000000D02*
X241500000Y-139800500D01*
X239500000Y-135000000D02*
X241500000Y-137000000D01*
X209250000Y-126750000D02*
X209250000Y-111000000D01*
X211000000Y-128500000D02*
X209250000Y-126750000D01*
X211000000Y-128750000D02*
X211000000Y-128500000D01*
X211500000Y-129250000D02*
X211000000Y-128750000D01*
X211500000Y-136000000D02*
X211500000Y-129250000D01*
X208250000Y-105500000D02*
X208250000Y-103500000D01*
X208250000Y-103500000D02*
X205250000Y-100500000D01*
X207500000Y-106250000D02*
X208250000Y-105500000D01*
X212750000Y-136000000D02*
X212000000Y-136750000D01*
X212000000Y-136750000D02*
X211250000Y-136750000D01*
X211250000Y-136750000D02*
X210500000Y-136000000D01*
X210500000Y-136000000D02*
X210500000Y-135750000D01*
X210500000Y-135750000D02*
X209750000Y-135000000D01*
X209750000Y-135000000D02*
X209750000Y-128000000D01*
X209750000Y-128000000D02*
X208500000Y-126750000D01*
X208500000Y-126750000D02*
X207750000Y-126750000D01*
X207750000Y-126750000D02*
X207500000Y-126500000D01*
X207500000Y-126500000D02*
X207500000Y-125750000D01*
X207500000Y-125750000D02*
X208750000Y-124500000D01*
X208750000Y-124500000D02*
X208750000Y-115000000D01*
X208750000Y-115000000D02*
X206500000Y-112750000D01*
X206500000Y-112750000D02*
X206500000Y-112250000D01*
X206500000Y-112250000D02*
X206750000Y-112000000D01*
X206750000Y-112000000D02*
X206750000Y-107750000D01*
X206750000Y-107750000D02*
X207500000Y-107000000D01*
X207500000Y-107000000D02*
X207500000Y-106250000D01*
X205250000Y-100500000D02*
X205250000Y-99250000D01*
X212000000Y-128750000D02*
X212250000Y-129000000D01*
X212250000Y-129000000D02*
X212250000Y-134250000D01*
X212250000Y-134250000D02*
X212500000Y-134500000D01*
X212500000Y-134500000D02*
X215000000Y-134500000D01*
X208250000Y-107750000D02*
X208250000Y-106500000D01*
X210000000Y-109500000D02*
X208250000Y-107750000D01*
X210000000Y-111750000D02*
X210000000Y-109500000D01*
X213250000Y-109750000D02*
X213000000Y-109500000D01*
X213000000Y-109500000D02*
X211500000Y-109500000D01*
X211500000Y-109500000D02*
X209500000Y-107500000D01*
X206750000Y-96500000D02*
X207000000Y-96250000D01*
X206750000Y-100250000D02*
X206750000Y-96500000D01*
X209500000Y-103000000D02*
X206750000Y-100250000D01*
X209500000Y-107500000D02*
X209500000Y-103000000D01*
X235500000Y-108000000D02*
X234250000Y-108000000D01*
X237500000Y-108000000D02*
X235500000Y-108000000D01*
X238250000Y-108750000D02*
X237500000Y-108000000D01*
X238250000Y-121750000D02*
X238250000Y-108750000D01*
X230750000Y-129250000D02*
X238250000Y-121750000D01*
X233250000Y-110500000D02*
X234000000Y-111250000D01*
X233250000Y-109000000D02*
X233250000Y-110500000D01*
X234250000Y-108000000D02*
X233250000Y-109000000D01*
X235750000Y-108750000D02*
X234500000Y-108750000D01*
X237250000Y-108750000D02*
X235750000Y-108750000D01*
X237500000Y-109000000D02*
X237250000Y-108750000D01*
X237500000Y-121250000D02*
X237500000Y-109000000D01*
X230250000Y-128500000D02*
X237500000Y-121250000D01*
X234500000Y-108750000D02*
X234000000Y-109250000D01*
X223250000Y-113500000D02*
X227750000Y-113500000D01*
X223000000Y-113750000D02*
X223250000Y-113500000D01*
X223000000Y-122450002D02*
X223000000Y-113750000D01*
X222950002Y-122500000D02*
X223000000Y-122450002D01*
X224000000Y-122500000D02*
X222950002Y-122500000D01*
X224500000Y-123000000D02*
X224000000Y-122500000D01*
X224500000Y-123500000D02*
X224500000Y-123000000D01*
X222500000Y-125500000D02*
X224500000Y-123500000D01*
X222500000Y-130000000D02*
X222500000Y-125500000D01*
X222750000Y-130250000D02*
X222500000Y-130000000D01*
X222750000Y-135000000D02*
X222750000Y-130250000D01*
X223250000Y-135500000D02*
X222750000Y-135000000D01*
X229500000Y-112250000D02*
X229500000Y-133000000D01*
X228000000Y-110750000D02*
X229500000Y-112250000D01*
X229000000Y-112750000D02*
X227000000Y-110750000D01*
X229000000Y-132500000D02*
X229000000Y-112750000D01*
X228500000Y-133000000D02*
X229000000Y-132500000D01*
X228500000Y-132000000D02*
X227500000Y-133000000D01*
X228500000Y-113250000D02*
X228500000Y-132000000D01*
X226000000Y-110750000D02*
X228500000Y-113250000D01*
X225000000Y-111500000D02*
X225250000Y-111250000D01*
X223000000Y-111500000D02*
X225000000Y-111500000D01*
X222500000Y-112000000D02*
X223000000Y-111500000D01*
X222500000Y-123750000D02*
X222500000Y-112000000D01*
X222750000Y-124000000D02*
X222500000Y-123750000D01*
X223750000Y-116500000D02*
X227750000Y-116500000D01*
X223500000Y-116750000D02*
X223750000Y-116500000D01*
X223500000Y-121450002D02*
X223500000Y-116750000D01*
X223450002Y-121500000D02*
X223500000Y-121450002D01*
X224000000Y-121500000D02*
X223450002Y-121500000D01*
X225000000Y-122500000D02*
X224000000Y-121500000D01*
X221000000Y-106750000D02*
X221500000Y-106250000D01*
X221000000Y-108000000D02*
X221000000Y-106750000D01*
X219750000Y-109250000D02*
X221000000Y-108000000D01*
X219750000Y-109799998D02*
X219750000Y-109250000D01*
X219750000Y-128000000D02*
X219750000Y-109799998D01*
X219250000Y-128500000D02*
X219750000Y-128000000D01*
X219250000Y-133000000D02*
X219250000Y-128500000D01*
X220500000Y-134250000D02*
X219250000Y-133000000D01*
X220500000Y-135000000D02*
X220500000Y-134250000D01*
X220000000Y-135500000D02*
X220500000Y-135000000D01*
X221000000Y-135500000D02*
X221000000Y-134000000D01*
X221750000Y-108250000D02*
X221750000Y-107250000D01*
X220250000Y-109750000D02*
X221750000Y-108250000D01*
X220250000Y-128250000D02*
X220250000Y-109750000D01*
X219750000Y-128750000D02*
X220250000Y-128250000D01*
X219750000Y-132750000D02*
X219750000Y-128750000D01*
X221000000Y-134000000D02*
X219750000Y-132750000D01*
X220500000Y-132250000D02*
X220500000Y-129000000D01*
X220500000Y-129000000D02*
X220750000Y-128750000D01*
X220750000Y-110250000D02*
X222000000Y-109000000D01*
X220750000Y-128750000D02*
X220750000Y-110250000D01*
X222000000Y-110250000D02*
X222000000Y-110000000D01*
X221250000Y-111000000D02*
X222000000Y-110250000D01*
X221250000Y-131500000D02*
X221250000Y-111000000D01*
X222000000Y-130750000D02*
X222000000Y-111500000D01*
M02*
