G04 #@! TF.FileFunction,Legend,Bot*
%FSLAX46Y46*%
G04 Gerber Fmt 4.6, Leading zero omitted, Abs format (unit mm)*
G04 Created by KiCad (PCBNEW 4.0.6) date 07/07/17 00:51:22*
%MOMM*%
%LPD*%
G01*
G04 APERTURE LIST*
%ADD10C,0.100000*%
%ADD11C,0.250000*%
%ADD12C,0.125000*%
%ADD13C,0.300000*%
%ADD14C,0.112500*%
%ADD15C,0.075000*%
%ADD16C,0.119380*%
%ADD17C,0.127000*%
%ADD18C,0.114300*%
G04 APERTURE END LIST*
D10*
D11*
X203904762Y-138702381D02*
X203904762Y-137702381D01*
X203523809Y-137702381D01*
X203428571Y-137750000D01*
X203380952Y-137797619D01*
X203333333Y-137892857D01*
X203333333Y-138035714D01*
X203380952Y-138130952D01*
X203428571Y-138178571D01*
X203523809Y-138226190D01*
X203904762Y-138226190D01*
X202333333Y-138702381D02*
X202666667Y-138226190D01*
X202904762Y-138702381D02*
X202904762Y-137702381D01*
X202523809Y-137702381D01*
X202428571Y-137750000D01*
X202380952Y-137797619D01*
X202333333Y-137892857D01*
X202333333Y-138035714D01*
X202380952Y-138130952D01*
X202428571Y-138178571D01*
X202523809Y-138226190D01*
X202904762Y-138226190D01*
X201714286Y-137702381D02*
X201523809Y-137702381D01*
X201428571Y-137750000D01*
X201333333Y-137845238D01*
X201285714Y-138035714D01*
X201285714Y-138369048D01*
X201333333Y-138559524D01*
X201428571Y-138654762D01*
X201523809Y-138702381D01*
X201714286Y-138702381D01*
X201809524Y-138654762D01*
X201904762Y-138559524D01*
X201952381Y-138369048D01*
X201952381Y-138035714D01*
X201904762Y-137845238D01*
X201809524Y-137750000D01*
X201714286Y-137702381D01*
X200857143Y-138702381D02*
X200857143Y-137702381D01*
X200619048Y-137702381D01*
X200476190Y-137750000D01*
X200380952Y-137845238D01*
X200333333Y-137940476D01*
X200285714Y-138130952D01*
X200285714Y-138273810D01*
X200333333Y-138464286D01*
X200380952Y-138559524D01*
X200476190Y-138654762D01*
X200619048Y-138702381D01*
X200857143Y-138702381D01*
X199857143Y-137702381D02*
X199857143Y-138511905D01*
X199809524Y-138607143D01*
X199761905Y-138654762D01*
X199666667Y-138702381D01*
X199476190Y-138702381D01*
X199380952Y-138654762D01*
X199333333Y-138607143D01*
X199285714Y-138511905D01*
X199285714Y-137702381D01*
X198238095Y-138607143D02*
X198285714Y-138654762D01*
X198428571Y-138702381D01*
X198523809Y-138702381D01*
X198666667Y-138654762D01*
X198761905Y-138559524D01*
X198809524Y-138464286D01*
X198857143Y-138273810D01*
X198857143Y-138130952D01*
X198809524Y-137940476D01*
X198761905Y-137845238D01*
X198666667Y-137750000D01*
X198523809Y-137702381D01*
X198428571Y-137702381D01*
X198285714Y-137750000D01*
X198238095Y-137797619D01*
X197952381Y-137702381D02*
X197380952Y-137702381D01*
X197666667Y-138702381D02*
X197666667Y-137702381D01*
X196095238Y-137702381D02*
X195904761Y-137702381D01*
X195809523Y-137750000D01*
X195714285Y-137845238D01*
X195666666Y-138035714D01*
X195666666Y-138369048D01*
X195714285Y-138559524D01*
X195809523Y-138654762D01*
X195904761Y-138702381D01*
X196095238Y-138702381D01*
X196190476Y-138654762D01*
X196285714Y-138559524D01*
X196333333Y-138369048D01*
X196333333Y-138035714D01*
X196285714Y-137845238D01*
X196190476Y-137750000D01*
X196095238Y-137702381D01*
X194904761Y-138178571D02*
X195238095Y-138178571D01*
X195238095Y-138702381D02*
X195238095Y-137702381D01*
X194761904Y-137702381D01*
X193619047Y-138702381D02*
X193619047Y-137702381D01*
X193619047Y-138178571D02*
X193047618Y-138178571D01*
X193047618Y-138702381D02*
X193047618Y-137702381D01*
X192380952Y-137702381D02*
X192190475Y-137702381D01*
X192095237Y-137750000D01*
X191999999Y-137845238D01*
X191952380Y-138035714D01*
X191952380Y-138369048D01*
X191999999Y-138559524D01*
X192095237Y-138654762D01*
X192190475Y-138702381D01*
X192380952Y-138702381D01*
X192476190Y-138654762D01*
X192571428Y-138559524D01*
X192619047Y-138369048D01*
X192619047Y-138035714D01*
X192571428Y-137845238D01*
X192476190Y-137750000D01*
X192380952Y-137702381D01*
X191523809Y-138702381D02*
X191523809Y-137702381D01*
X190952380Y-138702381D01*
X190952380Y-137702381D01*
X189952380Y-137750000D02*
X190047618Y-137702381D01*
X190190475Y-137702381D01*
X190333333Y-137750000D01*
X190428571Y-137845238D01*
X190476190Y-137940476D01*
X190523809Y-138130952D01*
X190523809Y-138273810D01*
X190476190Y-138464286D01*
X190428571Y-138559524D01*
X190333333Y-138654762D01*
X190190475Y-138702381D01*
X190095237Y-138702381D01*
X189952380Y-138654762D01*
X189904761Y-138607143D01*
X189904761Y-138273810D01*
X190095237Y-138273810D01*
X188714285Y-138702381D02*
X188714285Y-137702381D01*
X188142856Y-138702381D02*
X188571428Y-138130952D01*
X188142856Y-137702381D02*
X188714285Y-138273810D01*
X187523809Y-137702381D02*
X187333332Y-137702381D01*
X187238094Y-137750000D01*
X187142856Y-137845238D01*
X187095237Y-138035714D01*
X187095237Y-138369048D01*
X187142856Y-138559524D01*
X187238094Y-138654762D01*
X187333332Y-138702381D01*
X187523809Y-138702381D01*
X187619047Y-138654762D01*
X187714285Y-138559524D01*
X187761904Y-138369048D01*
X187761904Y-138035714D01*
X187714285Y-137845238D01*
X187619047Y-137750000D01*
X187523809Y-137702381D01*
X186666666Y-138702381D02*
X186666666Y-137702381D01*
X186095237Y-138702381D01*
X186095237Y-137702381D01*
X185095237Y-137750000D02*
X185190475Y-137702381D01*
X185333332Y-137702381D01*
X185476190Y-137750000D01*
X185571428Y-137845238D01*
X185619047Y-137940476D01*
X185666666Y-138130952D01*
X185666666Y-138273810D01*
X185619047Y-138464286D01*
X185571428Y-138559524D01*
X185476190Y-138654762D01*
X185333332Y-138702381D01*
X185238094Y-138702381D01*
X185095237Y-138654762D01*
X185047618Y-138607143D01*
X185047618Y-138273810D01*
X185238094Y-138273810D01*
X203523810Y-132077381D02*
X203523810Y-131077381D01*
X203285715Y-131077381D01*
X203142857Y-131125000D01*
X203047619Y-131220238D01*
X203000000Y-131315476D01*
X202952381Y-131505952D01*
X202952381Y-131648810D01*
X203000000Y-131839286D01*
X203047619Y-131934524D01*
X203142857Y-132029762D01*
X203285715Y-132077381D01*
X203523810Y-132077381D01*
X202523810Y-131553571D02*
X202190476Y-131553571D01*
X202047619Y-132077381D02*
X202523810Y-132077381D01*
X202523810Y-131077381D01*
X202047619Y-131077381D01*
X201666667Y-132029762D02*
X201523810Y-132077381D01*
X201285714Y-132077381D01*
X201190476Y-132029762D01*
X201142857Y-131982143D01*
X201095238Y-131886905D01*
X201095238Y-131791667D01*
X201142857Y-131696429D01*
X201190476Y-131648810D01*
X201285714Y-131601190D01*
X201476191Y-131553571D01*
X201571429Y-131505952D01*
X201619048Y-131458333D01*
X201666667Y-131363095D01*
X201666667Y-131267857D01*
X201619048Y-131172619D01*
X201571429Y-131125000D01*
X201476191Y-131077381D01*
X201238095Y-131077381D01*
X201095238Y-131125000D01*
X200666667Y-132077381D02*
X200666667Y-131077381D01*
X199666667Y-131125000D02*
X199761905Y-131077381D01*
X199904762Y-131077381D01*
X200047620Y-131125000D01*
X200142858Y-131220238D01*
X200190477Y-131315476D01*
X200238096Y-131505952D01*
X200238096Y-131648810D01*
X200190477Y-131839286D01*
X200142858Y-131934524D01*
X200047620Y-132029762D01*
X199904762Y-132077381D01*
X199809524Y-132077381D01*
X199666667Y-132029762D01*
X199619048Y-131982143D01*
X199619048Y-131648810D01*
X199809524Y-131648810D01*
X199190477Y-132077381D02*
X199190477Y-131077381D01*
X198619048Y-132077381D01*
X198619048Y-131077381D01*
X198142858Y-131553571D02*
X197809524Y-131553571D01*
X197666667Y-132077381D02*
X198142858Y-132077381D01*
X198142858Y-131077381D01*
X197666667Y-131077381D01*
X197238096Y-132077381D02*
X197238096Y-131077381D01*
X197000001Y-131077381D01*
X196857143Y-131125000D01*
X196761905Y-131220238D01*
X196714286Y-131315476D01*
X196666667Y-131505952D01*
X196666667Y-131648810D01*
X196714286Y-131839286D01*
X196761905Y-131934524D01*
X196857143Y-132029762D01*
X197000001Y-132077381D01*
X197238096Y-132077381D01*
X195142857Y-131553571D02*
X195000000Y-131601190D01*
X194952381Y-131648810D01*
X194904762Y-131744048D01*
X194904762Y-131886905D01*
X194952381Y-131982143D01*
X195000000Y-132029762D01*
X195095238Y-132077381D01*
X195476191Y-132077381D01*
X195476191Y-131077381D01*
X195142857Y-131077381D01*
X195047619Y-131125000D01*
X195000000Y-131172619D01*
X194952381Y-131267857D01*
X194952381Y-131363095D01*
X195000000Y-131458333D01*
X195047619Y-131505952D01*
X195142857Y-131553571D01*
X195476191Y-131553571D01*
X194285715Y-131601190D02*
X194285715Y-132077381D01*
X194619048Y-131077381D02*
X194285715Y-131601190D01*
X193952381Y-131077381D01*
X192571428Y-131077381D02*
X192571428Y-131791667D01*
X192619048Y-131934524D01*
X192714286Y-132029762D01*
X192857143Y-132077381D01*
X192952381Y-132077381D01*
X192095238Y-131077381D02*
X192095238Y-131886905D01*
X192047619Y-131982143D01*
X192000000Y-132029762D01*
X191904762Y-132077381D01*
X191714285Y-132077381D01*
X191619047Y-132029762D01*
X191571428Y-131982143D01*
X191523809Y-131886905D01*
X191523809Y-131077381D01*
X190571428Y-132077381D02*
X191047619Y-132077381D01*
X191047619Y-131077381D01*
X190238095Y-132077381D02*
X190238095Y-131077381D01*
X189809524Y-131791667D02*
X189333333Y-131791667D01*
X189904762Y-132077381D02*
X189571429Y-131077381D01*
X189238095Y-132077381D01*
X188904762Y-132077381D02*
X188904762Y-131077381D01*
X188333333Y-132077381D01*
X188333333Y-131077381D01*
X187095238Y-132077381D02*
X187095238Y-131077381D01*
X187095238Y-131553571D02*
X186523809Y-131553571D01*
X186523809Y-132077381D02*
X186523809Y-131077381D01*
X185857143Y-131077381D02*
X185666666Y-131077381D01*
X185571428Y-131125000D01*
X185476190Y-131220238D01*
X185428571Y-131410714D01*
X185428571Y-131744048D01*
X185476190Y-131934524D01*
X185571428Y-132029762D01*
X185666666Y-132077381D01*
X185857143Y-132077381D01*
X185952381Y-132029762D01*
X186047619Y-131934524D01*
X186095238Y-131744048D01*
X186095238Y-131410714D01*
X186047619Y-131220238D01*
X185952381Y-131125000D01*
X185857143Y-131077381D01*
X200857143Y-133827381D02*
X200857143Y-132827381D01*
X200523809Y-133541667D01*
X200190476Y-132827381D01*
X200190476Y-133827381D01*
X199761905Y-133541667D02*
X199285714Y-133541667D01*
X199857143Y-133827381D02*
X199523810Y-132827381D01*
X199190476Y-133827381D01*
X198857143Y-133827381D02*
X198857143Y-132827381D01*
X198619048Y-132827381D01*
X198476190Y-132875000D01*
X198380952Y-132970238D01*
X198333333Y-133065476D01*
X198285714Y-133255952D01*
X198285714Y-133398810D01*
X198333333Y-133589286D01*
X198380952Y-133684524D01*
X198476190Y-133779762D01*
X198619048Y-133827381D01*
X198857143Y-133827381D01*
X197857143Y-133303571D02*
X197523809Y-133303571D01*
X197380952Y-133827381D02*
X197857143Y-133827381D01*
X197857143Y-132827381D01*
X197380952Y-132827381D01*
X196285714Y-132827381D02*
X196047619Y-133827381D01*
X195857142Y-133113095D01*
X195666666Y-133827381D01*
X195428571Y-132827381D01*
X195047619Y-133827381D02*
X195047619Y-132827381D01*
X194714286Y-132827381D02*
X194142857Y-132827381D01*
X194428572Y-133827381D02*
X194428572Y-132827381D01*
X193809524Y-133827381D02*
X193809524Y-132827381D01*
X193809524Y-133303571D02*
X193238095Y-133303571D01*
X193238095Y-133827381D02*
X193238095Y-132827381D01*
X192000000Y-133827381D02*
X192000000Y-132827381D01*
X191428571Y-133827381D02*
X191857143Y-133255952D01*
X191428571Y-132827381D02*
X192000000Y-133398810D01*
X191000000Y-133827381D02*
X191000000Y-132827381D01*
X189952381Y-133732143D02*
X190000000Y-133779762D01*
X190142857Y-133827381D01*
X190238095Y-133827381D01*
X190380953Y-133779762D01*
X190476191Y-133684524D01*
X190523810Y-133589286D01*
X190571429Y-133398810D01*
X190571429Y-133255952D01*
X190523810Y-133065476D01*
X190476191Y-132970238D01*
X190380953Y-132875000D01*
X190238095Y-132827381D01*
X190142857Y-132827381D01*
X190000000Y-132875000D01*
X189952381Y-132922619D01*
X189571429Y-133541667D02*
X189095238Y-133541667D01*
X189666667Y-133827381D02*
X189333334Y-132827381D01*
X189000000Y-133827381D01*
X188666667Y-133827381D02*
X188666667Y-132827381D01*
X188428572Y-132827381D01*
X188285714Y-132875000D01*
X188190476Y-132970238D01*
X188142857Y-133065476D01*
X188095238Y-133255952D01*
X188095238Y-133398810D01*
X188142857Y-133589286D01*
X188190476Y-133684524D01*
X188285714Y-133779762D01*
X188428572Y-133827381D01*
X188666667Y-133827381D01*
D12*
X239607141Y-127202381D02*
X239535712Y-127226190D01*
X239416665Y-127226190D01*
X239369046Y-127202381D01*
X239345236Y-127178571D01*
X239321427Y-127130952D01*
X239321427Y-127083333D01*
X239345236Y-127035714D01*
X239369046Y-127011905D01*
X239416665Y-126988095D01*
X239511903Y-126964286D01*
X239559522Y-126940476D01*
X239583331Y-126916667D01*
X239607141Y-126869048D01*
X239607141Y-126821429D01*
X239583331Y-126773810D01*
X239559522Y-126750000D01*
X239511903Y-126726190D01*
X239392855Y-126726190D01*
X239321427Y-126750000D01*
X239107141Y-127226190D02*
X239107141Y-126726190D01*
X238607142Y-126750000D02*
X238654761Y-126726190D01*
X238726189Y-126726190D01*
X238797618Y-126750000D01*
X238845237Y-126797619D01*
X238869046Y-126845238D01*
X238892856Y-126940476D01*
X238892856Y-127011905D01*
X238869046Y-127107143D01*
X238845237Y-127154762D01*
X238797618Y-127202381D01*
X238726189Y-127226190D01*
X238678570Y-127226190D01*
X238607142Y-127202381D01*
X238583332Y-127178571D01*
X238583332Y-127011905D01*
X238678570Y-127011905D01*
X238369046Y-127226190D02*
X238369046Y-126726190D01*
X238083332Y-127226190D01*
X238083332Y-126726190D01*
X237869046Y-127083333D02*
X237630951Y-127083333D01*
X237916665Y-127226190D02*
X237749998Y-126726190D01*
X237583332Y-127226190D01*
X237178570Y-127226190D02*
X237416665Y-127226190D01*
X237416665Y-126726190D01*
X236011904Y-126726190D02*
X236249999Y-126726190D01*
X236273809Y-126964286D01*
X236249999Y-126940476D01*
X236202380Y-126916667D01*
X236083333Y-126916667D01*
X236035714Y-126940476D01*
X236011904Y-126964286D01*
X235988095Y-127011905D01*
X235988095Y-127130952D01*
X236011904Y-127178571D01*
X236035714Y-127202381D01*
X236083333Y-127226190D01*
X236202380Y-127226190D01*
X236249999Y-127202381D01*
X236273809Y-127178571D01*
X235845238Y-126726190D02*
X235678571Y-127226190D01*
X235511905Y-126726190D01*
X233940478Y-126750000D02*
X233988097Y-126726190D01*
X234059525Y-126726190D01*
X234130954Y-126750000D01*
X234178573Y-126797619D01*
X234202382Y-126845238D01*
X234226192Y-126940476D01*
X234226192Y-127011905D01*
X234202382Y-127107143D01*
X234178573Y-127154762D01*
X234130954Y-127202381D01*
X234059525Y-127226190D01*
X234011906Y-127226190D01*
X233940478Y-127202381D01*
X233916668Y-127178571D01*
X233916668Y-127011905D01*
X234011906Y-127011905D01*
X233702382Y-127226190D02*
X233702382Y-126726190D01*
X233416668Y-127226190D01*
X233416668Y-126726190D01*
X233178572Y-127226190D02*
X233178572Y-126726190D01*
X233059525Y-126726190D01*
X232988096Y-126750000D01*
X232940477Y-126797619D01*
X232916668Y-126845238D01*
X232892858Y-126940476D01*
X232892858Y-127011905D01*
X232916668Y-127107143D01*
X232940477Y-127154762D01*
X232988096Y-127202381D01*
X233059525Y-127226190D01*
X233178572Y-127226190D01*
D13*
X188273810Y-92154762D02*
X188273810Y-90154762D01*
X188273810Y-91107143D02*
X187130952Y-91107143D01*
X187130952Y-92154762D02*
X187130952Y-90154762D01*
X186369048Y-90154762D02*
X185130952Y-90154762D01*
X185797619Y-90916667D01*
X185511905Y-90916667D01*
X185321429Y-91011905D01*
X185226191Y-91107143D01*
X185130952Y-91297619D01*
X185130952Y-91773810D01*
X185226191Y-91964286D01*
X185321429Y-92059524D01*
X185511905Y-92154762D01*
X186083333Y-92154762D01*
X186273810Y-92059524D01*
X186369048Y-91964286D01*
X188273810Y-103404762D02*
X188273810Y-101404762D01*
X188273810Y-102357143D02*
X187130952Y-102357143D01*
X187130952Y-103404762D02*
X187130952Y-101404762D01*
X186273810Y-101595238D02*
X186178572Y-101500000D01*
X185988095Y-101404762D01*
X185511905Y-101404762D01*
X185321429Y-101500000D01*
X185226191Y-101595238D01*
X185130952Y-101785714D01*
X185130952Y-101976190D01*
X185226191Y-102261905D01*
X186369048Y-103404762D01*
X185130952Y-103404762D01*
D11*
X188523810Y-114904762D02*
X188523810Y-112904762D01*
X188523810Y-113857143D02*
X187380952Y-113857143D01*
X187380952Y-114904762D02*
X187380952Y-112904762D01*
X185380952Y-114904762D02*
X186523810Y-114904762D01*
X185952381Y-114904762D02*
X185952381Y-112904762D01*
X186142857Y-113190476D01*
X186333333Y-113380952D01*
X186523810Y-113476190D01*
D10*
X226969046Y-85100000D02*
X226930951Y-85119048D01*
X226873808Y-85119048D01*
X226816665Y-85100000D01*
X226778570Y-85061905D01*
X226759522Y-85023810D01*
X226740474Y-84947619D01*
X226740474Y-84890476D01*
X226759522Y-84814286D01*
X226778570Y-84776190D01*
X226816665Y-84738095D01*
X226873808Y-84719048D01*
X226911903Y-84719048D01*
X226969046Y-84738095D01*
X226988094Y-84757143D01*
X226988094Y-84890476D01*
X226911903Y-84890476D01*
X227159522Y-84719048D02*
X227159522Y-85119048D01*
X227388094Y-84719048D01*
X227388094Y-85119048D01*
X227578570Y-84719048D02*
X227578570Y-85119048D01*
X227673808Y-85119048D01*
X227730951Y-85100000D01*
X227769046Y-85061905D01*
X227788094Y-85023810D01*
X227807142Y-84947619D01*
X227807142Y-84890476D01*
X227788094Y-84814286D01*
X227769046Y-84776190D01*
X227730951Y-84738095D01*
X227673808Y-84719048D01*
X227578570Y-84719048D01*
X228283332Y-84719048D02*
X228283332Y-85119048D01*
X228283332Y-84928571D02*
X228511904Y-84928571D01*
X228511904Y-84719048D02*
X228511904Y-85119048D01*
X228683332Y-84833333D02*
X228873809Y-84833333D01*
X228645237Y-84719048D02*
X228778571Y-85119048D01*
X228911904Y-84719048D01*
X229235713Y-84719048D02*
X229045237Y-84719048D01*
X229045237Y-85119048D01*
X229559523Y-84719048D02*
X229369047Y-84719048D01*
X229369047Y-85119048D01*
X229654762Y-85119048D02*
X229902381Y-85119048D01*
X229769048Y-84966667D01*
X229826190Y-84966667D01*
X229864286Y-84947619D01*
X229883333Y-84928571D01*
X229902381Y-84890476D01*
X229902381Y-84795238D01*
X229883333Y-84757143D01*
X229864286Y-84738095D01*
X229826190Y-84719048D01*
X229711905Y-84719048D01*
X229673809Y-84738095D01*
X229654762Y-84757143D01*
X230378571Y-84719048D02*
X230378571Y-85119048D01*
X230378571Y-84928571D02*
X230607143Y-84928571D01*
X230607143Y-84719048D02*
X230607143Y-85119048D01*
X230778571Y-84833333D02*
X230969048Y-84833333D01*
X230740476Y-84719048D02*
X230873810Y-85119048D01*
X231007143Y-84719048D01*
X231330952Y-84719048D02*
X231140476Y-84719048D01*
X231140476Y-85119048D01*
X231654762Y-84719048D02*
X231464286Y-84719048D01*
X231464286Y-85119048D01*
X231769048Y-85080952D02*
X231788096Y-85100000D01*
X231826191Y-85119048D01*
X231921429Y-85119048D01*
X231959525Y-85100000D01*
X231978572Y-85080952D01*
X231997620Y-85042857D01*
X231997620Y-85004762D01*
X231978572Y-84947619D01*
X231750001Y-84719048D01*
X231997620Y-84719048D01*
X232473810Y-84719048D02*
X232473810Y-85119048D01*
X232473810Y-84928571D02*
X232702382Y-84928571D01*
X232702382Y-84719048D02*
X232702382Y-85119048D01*
X232873810Y-84833333D02*
X233064287Y-84833333D01*
X232835715Y-84719048D02*
X232969049Y-85119048D01*
X233102382Y-84719048D01*
X233426191Y-84719048D02*
X233235715Y-84719048D01*
X233235715Y-85119048D01*
X233750001Y-84719048D02*
X233559525Y-84719048D01*
X233559525Y-85119048D01*
X234092859Y-84719048D02*
X233864287Y-84719048D01*
X233978573Y-84719048D02*
X233978573Y-85119048D01*
X233940478Y-85061905D01*
X233902383Y-85023810D01*
X233864287Y-85004762D01*
X234511906Y-85119048D02*
X234740478Y-85119048D01*
X234626192Y-84719048D02*
X234626192Y-85119048D01*
X234873811Y-84928571D02*
X235007144Y-84928571D01*
X235064287Y-84719048D02*
X234873811Y-84719048D01*
X234873811Y-85119048D01*
X235064287Y-85119048D01*
X235235716Y-84719048D02*
X235235716Y-85119048D01*
X235369049Y-84833333D01*
X235502383Y-85119048D01*
X235502383Y-84719048D01*
X235692859Y-84719048D02*
X235692859Y-85119048D01*
X235845240Y-85119048D01*
X235883335Y-85100000D01*
X235902383Y-85080952D01*
X235921431Y-85042857D01*
X235921431Y-84985714D01*
X235902383Y-84947619D01*
X235883335Y-84928571D01*
X235845240Y-84909524D01*
X235692859Y-84909524D01*
X237197621Y-85119048D02*
X237007145Y-85119048D01*
X236988097Y-84928571D01*
X237007145Y-84947619D01*
X237045240Y-84966667D01*
X237140478Y-84966667D01*
X237178574Y-84947619D01*
X237197621Y-84928571D01*
X237216669Y-84890476D01*
X237216669Y-84795238D01*
X237197621Y-84757143D01*
X237178574Y-84738095D01*
X237140478Y-84719048D01*
X237045240Y-84719048D01*
X237007145Y-84738095D01*
X236988097Y-84757143D01*
X237330954Y-85119048D02*
X237464288Y-84719048D01*
X237597621Y-85119048D01*
D14*
X244775000Y-120110714D02*
X244753571Y-120067857D01*
X244753571Y-120003571D01*
X244775000Y-119939286D01*
X244817857Y-119896428D01*
X244860714Y-119875000D01*
X244946429Y-119853571D01*
X245010714Y-119853571D01*
X245096429Y-119875000D01*
X245139286Y-119896428D01*
X245182143Y-119939286D01*
X245203571Y-120003571D01*
X245203571Y-120046428D01*
X245182143Y-120110714D01*
X245160714Y-120132143D01*
X245010714Y-120132143D01*
X245010714Y-120046428D01*
X245203571Y-120325000D02*
X244753571Y-120325000D01*
X245203571Y-120582143D01*
X244753571Y-120582143D01*
X245203571Y-120796429D02*
X244753571Y-120796429D01*
X244753571Y-120903572D01*
X244775000Y-120967857D01*
X244817857Y-121010715D01*
X244860714Y-121032143D01*
X244946429Y-121053572D01*
X245010714Y-121053572D01*
X245096429Y-121032143D01*
X245139286Y-121010715D01*
X245182143Y-120967857D01*
X245203571Y-120903572D01*
X245203571Y-120796429D01*
X245160714Y-121846429D02*
X245182143Y-121825000D01*
X245203571Y-121760714D01*
X245203571Y-121717857D01*
X245182143Y-121653572D01*
X245139286Y-121610714D01*
X245096429Y-121589286D01*
X245010714Y-121567857D01*
X244946429Y-121567857D01*
X244860714Y-121589286D01*
X244817857Y-121610714D01*
X244775000Y-121653572D01*
X244753571Y-121717857D01*
X244753571Y-121760714D01*
X244775000Y-121825000D01*
X244796429Y-121846429D01*
X245075000Y-122017857D02*
X245075000Y-122232143D01*
X245203571Y-121975000D02*
X244753571Y-122125000D01*
X245203571Y-122275000D01*
X245203571Y-122425000D02*
X244753571Y-122425000D01*
X245203571Y-122682143D01*
X244753571Y-122682143D01*
X245203571Y-123110715D02*
X245203571Y-122896429D01*
X244753571Y-122896429D01*
X245160714Y-123860715D02*
X245182143Y-123839286D01*
X245203571Y-123775000D01*
X245203571Y-123732143D01*
X245182143Y-123667858D01*
X245139286Y-123625000D01*
X245096429Y-123603572D01*
X245010714Y-123582143D01*
X244946429Y-123582143D01*
X244860714Y-123603572D01*
X244817857Y-123625000D01*
X244775000Y-123667858D01*
X244753571Y-123732143D01*
X244753571Y-123775000D01*
X244775000Y-123839286D01*
X244796429Y-123860715D01*
X245075000Y-124032143D02*
X245075000Y-124246429D01*
X245203571Y-123989286D02*
X244753571Y-124139286D01*
X245203571Y-124289286D01*
X245203571Y-124439286D02*
X244753571Y-124439286D01*
X245203571Y-124696429D01*
X244753571Y-124696429D01*
X245203571Y-124910715D02*
X244753571Y-124910715D01*
X244967857Y-124910715D02*
X244967857Y-125167858D01*
X245203571Y-125167858D02*
X244753571Y-125167858D01*
X244753571Y-125939287D02*
X244753571Y-125725001D01*
X244967857Y-125703572D01*
X244946429Y-125725001D01*
X244925000Y-125767858D01*
X244925000Y-125875001D01*
X244946429Y-125917858D01*
X244967857Y-125939287D01*
X245010714Y-125960715D01*
X245117857Y-125960715D01*
X245160714Y-125939287D01*
X245182143Y-125917858D01*
X245203571Y-125875001D01*
X245203571Y-125767858D01*
X245182143Y-125725001D01*
X245160714Y-125703572D01*
X244753571Y-126089286D02*
X245203571Y-126239286D01*
X244753571Y-126389286D01*
D10*
X244526190Y-131459528D02*
X244526190Y-131221433D01*
X244764286Y-131197623D01*
X244740476Y-131221433D01*
X244716667Y-131269052D01*
X244716667Y-131388099D01*
X244740476Y-131435718D01*
X244764286Y-131459528D01*
X244811905Y-131483337D01*
X244930952Y-131483337D01*
X244978571Y-131459528D01*
X245002381Y-131435718D01*
X245026190Y-131388099D01*
X245026190Y-131269052D01*
X245002381Y-131221433D01*
X244978571Y-131197623D01*
X244526190Y-131626194D02*
X245026190Y-131792861D01*
X244526190Y-131959527D01*
X244526190Y-132816669D02*
X245026190Y-132983336D01*
X244526190Y-133150002D01*
X244978571Y-133602383D02*
X245002381Y-133578573D01*
X245026190Y-133507145D01*
X245026190Y-133459526D01*
X245002381Y-133388097D01*
X244954762Y-133340478D01*
X244907143Y-133316669D01*
X244811905Y-133292859D01*
X244740476Y-133292859D01*
X244645238Y-133316669D01*
X244597619Y-133340478D01*
X244550000Y-133388097D01*
X244526190Y-133459526D01*
X244526190Y-133507145D01*
X244550000Y-133578573D01*
X244573810Y-133602383D01*
X244978571Y-134102383D02*
X245002381Y-134078573D01*
X245026190Y-134007145D01*
X245026190Y-133959526D01*
X245002381Y-133888097D01*
X244954762Y-133840478D01*
X244907143Y-133816669D01*
X244811905Y-133792859D01*
X244740476Y-133792859D01*
X244645238Y-133816669D01*
X244597619Y-133840478D01*
X244550000Y-133888097D01*
X244526190Y-133959526D01*
X244526190Y-134007145D01*
X244550000Y-134078573D01*
X244573810Y-134102383D01*
X244550000Y-135340477D02*
X244526190Y-135292858D01*
X244526190Y-135221430D01*
X244550000Y-135150001D01*
X244597619Y-135102382D01*
X244645238Y-135078573D01*
X244740476Y-135054763D01*
X244811905Y-135054763D01*
X244907143Y-135078573D01*
X244954762Y-135102382D01*
X245002381Y-135150001D01*
X245026190Y-135221430D01*
X245026190Y-135269049D01*
X245002381Y-135340477D01*
X244978571Y-135364287D01*
X244811905Y-135364287D01*
X244811905Y-135269049D01*
X245026190Y-135578573D02*
X244526190Y-135578573D01*
X245026190Y-135864287D01*
X244526190Y-135864287D01*
X245026190Y-136102383D02*
X244526190Y-136102383D01*
X244526190Y-136221430D01*
X244550000Y-136292859D01*
X244597619Y-136340478D01*
X244645238Y-136364287D01*
X244740476Y-136388097D01*
X244811905Y-136388097D01*
X244907143Y-136364287D01*
X244954762Y-136340478D01*
X245002381Y-136292859D01*
X245026190Y-136221430D01*
X245026190Y-136102383D01*
X244883333Y-136959525D02*
X244883333Y-137197620D01*
X245026190Y-136911906D02*
X244526190Y-137078573D01*
X245026190Y-137245239D01*
X245026190Y-137411906D02*
X244526190Y-137411906D01*
X244526190Y-137530953D01*
X244550000Y-137602382D01*
X244597619Y-137650001D01*
X244645238Y-137673810D01*
X244740476Y-137697620D01*
X244811905Y-137697620D01*
X244907143Y-137673810D01*
X244954762Y-137650001D01*
X245002381Y-137602382D01*
X245026190Y-137530953D01*
X245026190Y-137411906D01*
X244978571Y-138197620D02*
X245002381Y-138173810D01*
X245026190Y-138102382D01*
X245026190Y-138054763D01*
X245002381Y-137983334D01*
X244954762Y-137935715D01*
X244907143Y-137911906D01*
X244811905Y-137888096D01*
X244740476Y-137888096D01*
X244645238Y-137911906D01*
X244597619Y-137935715D01*
X244550000Y-137983334D01*
X244526190Y-138054763D01*
X244526190Y-138102382D01*
X244550000Y-138173810D01*
X244573810Y-138197620D01*
X244526190Y-139102381D02*
X244526190Y-139388095D01*
X245026190Y-139245238D02*
X244526190Y-139245238D01*
X244526190Y-139507143D02*
X245026190Y-139840476D01*
X244526190Y-139840476D02*
X245026190Y-139507143D01*
X245026190Y-141459522D02*
X244788095Y-141292855D01*
X245026190Y-141173808D02*
X244526190Y-141173808D01*
X244526190Y-141364284D01*
X244550000Y-141411903D01*
X244573810Y-141435712D01*
X244621429Y-141459522D01*
X244692857Y-141459522D01*
X244740476Y-141435712D01*
X244764286Y-141411903D01*
X244788095Y-141364284D01*
X244788095Y-141173808D01*
X244526190Y-141626189D02*
X245026190Y-141959522D01*
X244526190Y-141959522D02*
X245026190Y-141626189D01*
X244883333Y-142888092D02*
X244883333Y-143126187D01*
X245026190Y-142840473D02*
X244526190Y-143007140D01*
X245026190Y-143173806D01*
X245026190Y-143340473D02*
X244526190Y-143340473D01*
X244526190Y-143459520D01*
X244550000Y-143530949D01*
X244597619Y-143578568D01*
X244645238Y-143602377D01*
X244740476Y-143626187D01*
X244811905Y-143626187D01*
X244907143Y-143602377D01*
X244954762Y-143578568D01*
X245002381Y-143530949D01*
X245026190Y-143459520D01*
X245026190Y-143340473D01*
X244978571Y-144126187D02*
X245002381Y-144102377D01*
X245026190Y-144030949D01*
X245026190Y-143983330D01*
X245002381Y-143911901D01*
X244954762Y-143864282D01*
X244907143Y-143840473D01*
X244811905Y-143816663D01*
X244740476Y-143816663D01*
X244645238Y-143840473D01*
X244597619Y-143864282D01*
X244550000Y-143911901D01*
X244526190Y-143983330D01*
X244526190Y-144030949D01*
X244550000Y-144102377D01*
X244573810Y-144126187D01*
X244573810Y-144316663D02*
X244550000Y-144340473D01*
X244526190Y-144388092D01*
X244526190Y-144507139D01*
X244550000Y-144554758D01*
X244573810Y-144578568D01*
X244621429Y-144602377D01*
X244669048Y-144602377D01*
X244740476Y-144578568D01*
X245026190Y-144292854D01*
X245026190Y-144602377D01*
D15*
X238460714Y-144153571D02*
X238310714Y-144603571D01*
X238160714Y-144153571D01*
X237753571Y-144560714D02*
X237775000Y-144582143D01*
X237839286Y-144603571D01*
X237882143Y-144603571D01*
X237946428Y-144582143D01*
X237989286Y-144539286D01*
X238010714Y-144496429D01*
X238032143Y-144410714D01*
X238032143Y-144346429D01*
X238010714Y-144260714D01*
X237989286Y-144217857D01*
X237946428Y-144175000D01*
X237882143Y-144153571D01*
X237839286Y-144153571D01*
X237775000Y-144175000D01*
X237753571Y-144196429D01*
X237303571Y-144560714D02*
X237325000Y-144582143D01*
X237389286Y-144603571D01*
X237432143Y-144603571D01*
X237496428Y-144582143D01*
X237539286Y-144539286D01*
X237560714Y-144496429D01*
X237582143Y-144410714D01*
X237582143Y-144346429D01*
X237560714Y-144260714D01*
X237539286Y-144217857D01*
X237496428Y-144175000D01*
X237432143Y-144153571D01*
X237389286Y-144153571D01*
X237325000Y-144175000D01*
X237303571Y-144196429D01*
X236789286Y-144582143D02*
X236725000Y-144603571D01*
X236617857Y-144603571D01*
X236575000Y-144582143D01*
X236553571Y-144560714D01*
X236532143Y-144517857D01*
X236532143Y-144475000D01*
X236553571Y-144432143D01*
X236575000Y-144410714D01*
X236617857Y-144389286D01*
X236703571Y-144367857D01*
X236746429Y-144346429D01*
X236767857Y-144325000D01*
X236789286Y-144282143D01*
X236789286Y-144239286D01*
X236767857Y-144196429D01*
X236746429Y-144175000D01*
X236703571Y-144153571D01*
X236596429Y-144153571D01*
X236532143Y-144175000D01*
X236382143Y-144153571D02*
X236275000Y-144603571D01*
X236189286Y-144282143D01*
X236103572Y-144603571D01*
X235996429Y-144153571D01*
X235567857Y-144560714D02*
X235589286Y-144582143D01*
X235653572Y-144603571D01*
X235696429Y-144603571D01*
X235760714Y-144582143D01*
X235803572Y-144539286D01*
X235825000Y-144496429D01*
X235846429Y-144410714D01*
X235846429Y-144346429D01*
X235825000Y-144260714D01*
X235803572Y-144217857D01*
X235760714Y-144175000D01*
X235696429Y-144153571D01*
X235653572Y-144153571D01*
X235589286Y-144175000D01*
X235567857Y-144196429D01*
X235160714Y-144603571D02*
X235375000Y-144603571D01*
X235375000Y-144153571D01*
X235010714Y-144603571D02*
X235010714Y-144153571D01*
X234753571Y-144603571D02*
X234946428Y-144346429D01*
X234753571Y-144153571D02*
X235010714Y-144410714D01*
X233982143Y-144175000D02*
X234025000Y-144153571D01*
X234089286Y-144153571D01*
X234153571Y-144175000D01*
X234196429Y-144217857D01*
X234217857Y-144260714D01*
X234239286Y-144346429D01*
X234239286Y-144410714D01*
X234217857Y-144496429D01*
X234196429Y-144539286D01*
X234153571Y-144582143D01*
X234089286Y-144603571D01*
X234046429Y-144603571D01*
X233982143Y-144582143D01*
X233960714Y-144560714D01*
X233960714Y-144410714D01*
X234046429Y-144410714D01*
X233767857Y-144603571D02*
X233767857Y-144153571D01*
X233510714Y-144603571D01*
X233510714Y-144153571D01*
X233296428Y-144603571D02*
X233296428Y-144153571D01*
X233189285Y-144153571D01*
X233125000Y-144175000D01*
X233082142Y-144217857D01*
X233060714Y-144260714D01*
X233039285Y-144346429D01*
X233039285Y-144410714D01*
X233060714Y-144496429D01*
X233082142Y-144539286D01*
X233125000Y-144582143D01*
X233189285Y-144603571D01*
X233296428Y-144603571D01*
X232525000Y-144582143D02*
X232460714Y-144603571D01*
X232353571Y-144603571D01*
X232310714Y-144582143D01*
X232289285Y-144560714D01*
X232267857Y-144517857D01*
X232267857Y-144475000D01*
X232289285Y-144432143D01*
X232310714Y-144410714D01*
X232353571Y-144389286D01*
X232439285Y-144367857D01*
X232482143Y-144346429D01*
X232503571Y-144325000D01*
X232525000Y-144282143D01*
X232525000Y-144239286D01*
X232503571Y-144196429D01*
X232482143Y-144175000D01*
X232439285Y-144153571D01*
X232332143Y-144153571D01*
X232267857Y-144175000D01*
X232117857Y-144153571D02*
X232010714Y-144603571D01*
X231925000Y-144282143D01*
X231839286Y-144603571D01*
X231732143Y-144153571D01*
X231560714Y-144603571D02*
X231560714Y-144153571D01*
X231453571Y-144153571D01*
X231389286Y-144175000D01*
X231346428Y-144217857D01*
X231325000Y-144260714D01*
X231303571Y-144346429D01*
X231303571Y-144410714D01*
X231325000Y-144496429D01*
X231346428Y-144539286D01*
X231389286Y-144582143D01*
X231453571Y-144603571D01*
X231560714Y-144603571D01*
X231110714Y-144603571D02*
X231110714Y-144153571D01*
X230810714Y-144153571D02*
X230725000Y-144153571D01*
X230682142Y-144175000D01*
X230639285Y-144217857D01*
X230617857Y-144303571D01*
X230617857Y-144453571D01*
X230639285Y-144539286D01*
X230682142Y-144582143D01*
X230725000Y-144603571D01*
X230810714Y-144603571D01*
X230853571Y-144582143D01*
X230896428Y-144539286D01*
X230917857Y-144453571D01*
X230917857Y-144303571D01*
X230896428Y-144217857D01*
X230853571Y-144175000D01*
X230810714Y-144153571D01*
X230082142Y-144603571D02*
X230082142Y-144153571D01*
X229824999Y-144603571D01*
X229824999Y-144153571D01*
X229353570Y-144603571D02*
X229503570Y-144389286D01*
X229610713Y-144603571D02*
X229610713Y-144153571D01*
X229439285Y-144153571D01*
X229396427Y-144175000D01*
X229374999Y-144196429D01*
X229353570Y-144239286D01*
X229353570Y-144303571D01*
X229374999Y-144346429D01*
X229396427Y-144367857D01*
X229439285Y-144389286D01*
X229610713Y-144389286D01*
X229182142Y-144582143D02*
X229117856Y-144603571D01*
X229010713Y-144603571D01*
X228967856Y-144582143D01*
X228946427Y-144560714D01*
X228924999Y-144517857D01*
X228924999Y-144475000D01*
X228946427Y-144432143D01*
X228967856Y-144410714D01*
X229010713Y-144389286D01*
X229096427Y-144367857D01*
X229139285Y-144346429D01*
X229160713Y-144325000D01*
X229182142Y-144282143D01*
X229182142Y-144239286D01*
X229160713Y-144196429D01*
X229139285Y-144175000D01*
X229096427Y-144153571D01*
X228989285Y-144153571D01*
X228924999Y-144175000D01*
X228796428Y-144153571D02*
X228539285Y-144153571D01*
X228667856Y-144603571D02*
X228667856Y-144153571D01*
D11*
X201607144Y-85452381D02*
X201607144Y-84452381D01*
X201226191Y-84452381D01*
X201130953Y-84500000D01*
X201083334Y-84547619D01*
X201035715Y-84642857D01*
X201035715Y-84785714D01*
X201083334Y-84880952D01*
X201130953Y-84928571D01*
X201226191Y-84976190D01*
X201607144Y-84976190D01*
X200035715Y-85452381D02*
X200369049Y-84976190D01*
X200607144Y-85452381D02*
X200607144Y-84452381D01*
X200226191Y-84452381D01*
X200130953Y-84500000D01*
X200083334Y-84547619D01*
X200035715Y-84642857D01*
X200035715Y-84785714D01*
X200083334Y-84880952D01*
X200130953Y-84928571D01*
X200226191Y-84976190D01*
X200607144Y-84976190D01*
X199416668Y-84452381D02*
X199226191Y-84452381D01*
X199130953Y-84500000D01*
X199035715Y-84595238D01*
X198988096Y-84785714D01*
X198988096Y-85119048D01*
X199035715Y-85309524D01*
X199130953Y-85404762D01*
X199226191Y-85452381D01*
X199416668Y-85452381D01*
X199511906Y-85404762D01*
X199607144Y-85309524D01*
X199654763Y-85119048D01*
X199654763Y-84785714D01*
X199607144Y-84595238D01*
X199511906Y-84500000D01*
X199416668Y-84452381D01*
X198702382Y-84452381D02*
X198130953Y-84452381D01*
X198416668Y-85452381D02*
X198416668Y-84452381D01*
X197607144Y-84452381D02*
X197416667Y-84452381D01*
X197321429Y-84500000D01*
X197226191Y-84595238D01*
X197178572Y-84785714D01*
X197178572Y-85119048D01*
X197226191Y-85309524D01*
X197321429Y-85404762D01*
X197416667Y-85452381D01*
X197607144Y-85452381D01*
X197702382Y-85404762D01*
X197797620Y-85309524D01*
X197845239Y-85119048D01*
X197845239Y-84785714D01*
X197797620Y-84595238D01*
X197702382Y-84500000D01*
X197607144Y-84452381D01*
X196892858Y-84452381D02*
X196321429Y-84452381D01*
X196607144Y-85452381D02*
X196607144Y-84452381D01*
X195797620Y-84976190D02*
X195797620Y-85452381D01*
X196130953Y-84452381D02*
X195797620Y-84976190D01*
X195464286Y-84452381D01*
X195130953Y-85452381D02*
X195130953Y-84452381D01*
X194750000Y-84452381D01*
X194654762Y-84500000D01*
X194607143Y-84547619D01*
X194559524Y-84642857D01*
X194559524Y-84785714D01*
X194607143Y-84880952D01*
X194654762Y-84928571D01*
X194750000Y-84976190D01*
X195130953Y-84976190D01*
X194130953Y-84928571D02*
X193797619Y-84928571D01*
X193654762Y-85452381D02*
X194130953Y-85452381D01*
X194130953Y-84452381D01*
X193654762Y-84452381D01*
X192178571Y-84452381D02*
X192178571Y-85166667D01*
X192226191Y-85309524D01*
X192321429Y-85404762D01*
X192464286Y-85452381D01*
X192559524Y-85452381D01*
X191702381Y-84452381D02*
X191702381Y-85261905D01*
X191654762Y-85357143D01*
X191607143Y-85404762D01*
X191511905Y-85452381D01*
X191321428Y-85452381D01*
X191226190Y-85404762D01*
X191178571Y-85357143D01*
X191130952Y-85261905D01*
X191130952Y-84452381D01*
X190178571Y-85452381D02*
X190654762Y-85452381D01*
X190654762Y-84452381D01*
X189654762Y-84976190D02*
X189654762Y-85452381D01*
X189988095Y-84452381D02*
X189654762Y-84976190D01*
X189321428Y-84452381D01*
X188273809Y-84547619D02*
X188226190Y-84500000D01*
X188130952Y-84452381D01*
X187892856Y-84452381D01*
X187797618Y-84500000D01*
X187749999Y-84547619D01*
X187702380Y-84642857D01*
X187702380Y-84738095D01*
X187749999Y-84880952D01*
X188321428Y-85452381D01*
X187702380Y-85452381D01*
X187083333Y-84452381D02*
X186988094Y-84452381D01*
X186892856Y-84500000D01*
X186845237Y-84547619D01*
X186797618Y-84642857D01*
X186749999Y-84833333D01*
X186749999Y-85071429D01*
X186797618Y-85261905D01*
X186845237Y-85357143D01*
X186892856Y-85404762D01*
X186988094Y-85452381D01*
X187083333Y-85452381D01*
X187178571Y-85404762D01*
X187226190Y-85357143D01*
X187273809Y-85261905D01*
X187321428Y-85071429D01*
X187321428Y-84833333D01*
X187273809Y-84642857D01*
X187226190Y-84547619D01*
X187178571Y-84500000D01*
X187083333Y-84452381D01*
X185797618Y-85452381D02*
X186369047Y-85452381D01*
X186083333Y-85452381D02*
X186083333Y-84452381D01*
X186178571Y-84595238D01*
X186273809Y-84690476D01*
X186369047Y-84738095D01*
X185464285Y-84452381D02*
X184797618Y-84452381D01*
X185226190Y-85452381D01*
D16*
X209000380Y-134849760D02*
X209698880Y-134849760D01*
X207999620Y-134849760D02*
X207301120Y-134849760D01*
X209000380Y-136150240D02*
X209698880Y-136150240D01*
X207301120Y-136150240D02*
X207999620Y-136150240D01*
X209698880Y-136135000D02*
X209698880Y-134865000D01*
X207301120Y-134865000D02*
X207301120Y-136135000D01*
X233499620Y-139150240D02*
X232801120Y-139150240D01*
X234500380Y-139150240D02*
X235198880Y-139150240D01*
X233499620Y-137849760D02*
X232801120Y-137849760D01*
X235198880Y-137849760D02*
X234500380Y-137849760D01*
X232801120Y-137865000D02*
X232801120Y-139135000D01*
X235198880Y-139135000D02*
X235198880Y-137865000D01*
X237849760Y-88749620D02*
X237849760Y-88051120D01*
X237849760Y-89750380D02*
X237849760Y-90448880D01*
X239150240Y-88749620D02*
X239150240Y-88051120D01*
X239150240Y-90448880D02*
X239150240Y-89750380D01*
X239135000Y-88051120D02*
X237865000Y-88051120D01*
X237865000Y-90448880D02*
X239135000Y-90448880D01*
X228650240Y-92750380D02*
X228650240Y-93448880D01*
X228650240Y-91749620D02*
X228650240Y-91051120D01*
X227349760Y-92750380D02*
X227349760Y-93448880D01*
X227349760Y-91051120D02*
X227349760Y-91749620D01*
X227365000Y-93448880D02*
X228635000Y-93448880D01*
X228635000Y-91051120D02*
X227365000Y-91051120D01*
X233900240Y-92750380D02*
X233900240Y-93448880D01*
X233900240Y-91749620D02*
X233900240Y-91051120D01*
X232599760Y-92750380D02*
X232599760Y-93448880D01*
X232599760Y-91051120D02*
X232599760Y-91749620D01*
X232615000Y-93448880D02*
X233885000Y-93448880D01*
X233885000Y-91051120D02*
X232615000Y-91051120D01*
X235650240Y-92750380D02*
X235650240Y-93448880D01*
X235650240Y-91749620D02*
X235650240Y-91051120D01*
X234349760Y-92750380D02*
X234349760Y-93448880D01*
X234349760Y-91051120D02*
X234349760Y-91749620D01*
X234365000Y-93448880D02*
X235635000Y-93448880D01*
X235635000Y-91051120D02*
X234365000Y-91051120D01*
X237750380Y-133099760D02*
X238448880Y-133099760D01*
X236749620Y-133099760D02*
X236051120Y-133099760D01*
X237750380Y-134400240D02*
X238448880Y-134400240D01*
X236051120Y-134400240D02*
X236749620Y-134400240D01*
X238448880Y-134385000D02*
X238448880Y-133115000D01*
X236051120Y-133115000D02*
X236051120Y-134385000D01*
X237249620Y-94900240D02*
X236551120Y-94900240D01*
X238250380Y-94900240D02*
X238948880Y-94900240D01*
X237249620Y-93599760D02*
X236551120Y-93599760D01*
X238948880Y-93599760D02*
X238250380Y-93599760D01*
X236551120Y-93615000D02*
X236551120Y-94885000D01*
X238948880Y-94885000D02*
X238948880Y-93615000D01*
X237249620Y-92900240D02*
X236551120Y-92900240D01*
X238250380Y-92900240D02*
X238948880Y-92900240D01*
X237249620Y-91599760D02*
X236551120Y-91599760D01*
X238948880Y-91599760D02*
X238250380Y-91599760D01*
X236551120Y-91615000D02*
X236551120Y-92885000D01*
X238948880Y-92885000D02*
X238948880Y-91615000D01*
X239849760Y-90999620D02*
X239849760Y-90301120D01*
X239849760Y-92000380D02*
X239849760Y-92698880D01*
X241150240Y-90999620D02*
X241150240Y-90301120D01*
X241150240Y-92698880D02*
X241150240Y-92000380D01*
X241135000Y-90301120D02*
X239865000Y-90301120D01*
X239865000Y-92698880D02*
X241135000Y-92698880D01*
X237750380Y-139599760D02*
X238448880Y-139599760D01*
X236749620Y-139599760D02*
X236051120Y-139599760D01*
X237750380Y-140900240D02*
X238448880Y-140900240D01*
X236051120Y-140900240D02*
X236749620Y-140900240D01*
X238448880Y-140885000D02*
X238448880Y-139615000D01*
X236051120Y-139615000D02*
X236051120Y-140885000D01*
X234750380Y-135599760D02*
X235448880Y-135599760D01*
X233749620Y-135599760D02*
X233051120Y-135599760D01*
X234750380Y-136900240D02*
X235448880Y-136900240D01*
X233051120Y-136900240D02*
X233749620Y-136900240D01*
X235448880Y-136885000D02*
X235448880Y-135615000D01*
X233051120Y-135615000D02*
X233051120Y-136885000D01*
X224400240Y-144250380D02*
X224400240Y-144948880D01*
X224400240Y-143249620D02*
X224400240Y-142551120D01*
X223099760Y-144250380D02*
X223099760Y-144948880D01*
X223099760Y-142551120D02*
X223099760Y-143249620D01*
X223115000Y-144948880D02*
X224385000Y-144948880D01*
X224385000Y-142551120D02*
X223115000Y-142551120D01*
X234750380Y-133099760D02*
X235448880Y-133099760D01*
X233749620Y-133099760D02*
X233051120Y-133099760D01*
X234750380Y-134400240D02*
X235448880Y-134400240D01*
X233051120Y-134400240D02*
X233749620Y-134400240D01*
X235448880Y-134385000D02*
X235448880Y-133115000D01*
X233051120Y-133115000D02*
X233051120Y-134385000D01*
X229249620Y-114400240D02*
X228551120Y-114400240D01*
X230250380Y-114400240D02*
X230948880Y-114400240D01*
X229249620Y-113099760D02*
X228551120Y-113099760D01*
X230948880Y-113099760D02*
X230250380Y-113099760D01*
X228551120Y-113115000D02*
X228551120Y-114385000D01*
X230948880Y-114385000D02*
X230948880Y-113115000D01*
X230599760Y-118999620D02*
X230599760Y-118301120D01*
X230599760Y-120000380D02*
X230599760Y-120698880D01*
X231900240Y-118999620D02*
X231900240Y-118301120D01*
X231900240Y-120698880D02*
X231900240Y-120000380D01*
X231885000Y-118301120D02*
X230615000Y-118301120D01*
X230615000Y-120698880D02*
X231885000Y-120698880D01*
X229249620Y-116150240D02*
X228551120Y-116150240D01*
X230250380Y-116150240D02*
X230948880Y-116150240D01*
X229249620Y-114849760D02*
X228551120Y-114849760D01*
X230948880Y-114849760D02*
X230250380Y-114849760D01*
X228551120Y-114865000D02*
X228551120Y-116135000D01*
X230948880Y-116135000D02*
X230948880Y-114865000D01*
X228599760Y-121999620D02*
X228599760Y-121301120D01*
X228599760Y-123000380D02*
X228599760Y-123698880D01*
X229900240Y-121999620D02*
X229900240Y-121301120D01*
X229900240Y-123698880D02*
X229900240Y-123000380D01*
X229885000Y-121301120D02*
X228615000Y-121301120D01*
X228615000Y-123698880D02*
X229885000Y-123698880D01*
X228849760Y-110999620D02*
X228849760Y-110301120D01*
X228849760Y-112000380D02*
X228849760Y-112698880D01*
X230150240Y-110999620D02*
X230150240Y-110301120D01*
X230150240Y-112698880D02*
X230150240Y-112000380D01*
X230135000Y-110301120D02*
X228865000Y-110301120D01*
X228865000Y-112698880D02*
X230135000Y-112698880D01*
X229650240Y-105750380D02*
X229650240Y-106448880D01*
X229650240Y-104749620D02*
X229650240Y-104051120D01*
X228349760Y-105750380D02*
X228349760Y-106448880D01*
X228349760Y-104051120D02*
X228349760Y-104749620D01*
X228365000Y-106448880D02*
X229635000Y-106448880D01*
X229635000Y-104051120D02*
X228365000Y-104051120D01*
X236749620Y-139150240D02*
X236051120Y-139150240D01*
X237750380Y-139150240D02*
X238448880Y-139150240D01*
X236749620Y-137849760D02*
X236051120Y-137849760D01*
X238448880Y-137849760D02*
X237750380Y-137849760D01*
X236051120Y-137865000D02*
X236051120Y-139135000D01*
X238448880Y-139135000D02*
X238448880Y-137865000D01*
X232650240Y-115250380D02*
X232650240Y-115948880D01*
X232650240Y-114249620D02*
X232650240Y-113551120D01*
X231349760Y-115250380D02*
X231349760Y-115948880D01*
X231349760Y-113551120D02*
X231349760Y-114249620D01*
X231365000Y-115948880D02*
X232635000Y-115948880D01*
X232635000Y-113551120D02*
X231365000Y-113551120D01*
X233849760Y-97499620D02*
X233849760Y-96801120D01*
X233849760Y-98500380D02*
X233849760Y-99198880D01*
X235150240Y-97499620D02*
X235150240Y-96801120D01*
X235150240Y-99198880D02*
X235150240Y-98500380D01*
X235135000Y-96801120D02*
X233865000Y-96801120D01*
X233865000Y-99198880D02*
X235135000Y-99198880D01*
X208500380Y-114349760D02*
X209198880Y-114349760D01*
X207499620Y-114349760D02*
X206801120Y-114349760D01*
X208500380Y-115650240D02*
X209198880Y-115650240D01*
X206801120Y-115650240D02*
X207499620Y-115650240D01*
X209198880Y-115635000D02*
X209198880Y-114365000D01*
X206801120Y-114365000D02*
X206801120Y-115635000D01*
X205000380Y-104349760D02*
X205698880Y-104349760D01*
X203999620Y-104349760D02*
X203301120Y-104349760D01*
X205000380Y-105650240D02*
X205698880Y-105650240D01*
X203301120Y-105650240D02*
X203999620Y-105650240D01*
X205698880Y-105635000D02*
X205698880Y-104365000D01*
X203301120Y-104365000D02*
X203301120Y-105635000D01*
X204750380Y-92099760D02*
X205448880Y-92099760D01*
X203749620Y-92099760D02*
X203051120Y-92099760D01*
X204750380Y-93400240D02*
X205448880Y-93400240D01*
X203051120Y-93400240D02*
X203749620Y-93400240D01*
X205448880Y-93385000D02*
X205448880Y-92115000D01*
X203051120Y-92115000D02*
X203051120Y-93385000D01*
X237750380Y-135599760D02*
X238448880Y-135599760D01*
X236749620Y-135599760D02*
X236051120Y-135599760D01*
X237750380Y-136900240D02*
X238448880Y-136900240D01*
X236051120Y-136900240D02*
X236749620Y-136900240D01*
X238448880Y-136885000D02*
X238448880Y-135615000D01*
X236051120Y-135615000D02*
X236051120Y-136885000D01*
X209000380Y-129599760D02*
X209698880Y-129599760D01*
X207999620Y-129599760D02*
X207301120Y-129599760D01*
X209000380Y-130900240D02*
X209698880Y-130900240D01*
X207301120Y-130900240D02*
X207999620Y-130900240D01*
X209698880Y-130885000D02*
X209698880Y-129615000D01*
X207301120Y-129615000D02*
X207301120Y-130885000D01*
X218349760Y-105749620D02*
X218349760Y-105051120D01*
X218349760Y-106750380D02*
X218349760Y-107448880D01*
X219650240Y-105749620D02*
X219650240Y-105051120D01*
X219650240Y-107448880D02*
X219650240Y-106750380D01*
X219635000Y-105051120D02*
X218365000Y-105051120D01*
X218365000Y-107448880D02*
X219635000Y-107448880D01*
X237750380Y-131349760D02*
X238448880Y-131349760D01*
X236749620Y-131349760D02*
X236051120Y-131349760D01*
X237750380Y-132650240D02*
X238448880Y-132650240D01*
X236051120Y-132650240D02*
X236749620Y-132650240D01*
X238448880Y-132635000D02*
X238448880Y-131365000D01*
X236051120Y-131365000D02*
X236051120Y-132635000D01*
X219500380Y-101599760D02*
X220198880Y-101599760D01*
X218499620Y-101599760D02*
X217801120Y-101599760D01*
X219500380Y-102900240D02*
X220198880Y-102900240D01*
X217801120Y-102900240D02*
X218499620Y-102900240D01*
X220198880Y-102885000D02*
X220198880Y-101615000D01*
X217801120Y-101615000D02*
X217801120Y-102885000D01*
X207999620Y-129150240D02*
X207301120Y-129150240D01*
X209000380Y-129150240D02*
X209698880Y-129150240D01*
X207999620Y-127849760D02*
X207301120Y-127849760D01*
X209698880Y-127849760D02*
X209000380Y-127849760D01*
X207301120Y-127865000D02*
X207301120Y-129135000D01*
X209698880Y-129135000D02*
X209698880Y-127865000D01*
X215650240Y-144250380D02*
X215650240Y-144948880D01*
X215650240Y-143249620D02*
X215650240Y-142551120D01*
X214349760Y-144250380D02*
X214349760Y-144948880D01*
X214349760Y-142551120D02*
X214349760Y-143249620D01*
X214365000Y-144948880D02*
X215635000Y-144948880D01*
X215635000Y-142551120D02*
X214365000Y-142551120D01*
X228999620Y-108650240D02*
X228301120Y-108650240D01*
X230000380Y-108650240D02*
X230698880Y-108650240D01*
X228999620Y-107349760D02*
X228301120Y-107349760D01*
X230698880Y-107349760D02*
X230000380Y-107349760D01*
X228301120Y-107365000D02*
X228301120Y-108635000D01*
X230698880Y-108635000D02*
X230698880Y-107365000D01*
X238500380Y-124099760D02*
X239198880Y-124099760D01*
X237499620Y-124099760D02*
X236801120Y-124099760D01*
X238500380Y-125400240D02*
X239198880Y-125400240D01*
X236801120Y-125400240D02*
X237499620Y-125400240D01*
X239198880Y-125385000D02*
X239198880Y-124115000D01*
X236801120Y-124115000D02*
X236801120Y-125385000D01*
D17*
X217448500Y-144250380D02*
X217448500Y-144956500D01*
X217448500Y-144956500D02*
X216051500Y-144956500D01*
X216051500Y-144956500D02*
X216051500Y-144250380D01*
X217448500Y-142543500D02*
X217448500Y-143249620D01*
X217448500Y-142543500D02*
X216051500Y-142543500D01*
X216051500Y-142543500D02*
X216051500Y-143249620D01*
X212551500Y-143249620D02*
X212551500Y-142543500D01*
X212551500Y-142543500D02*
X213948500Y-142543500D01*
X213948500Y-142543500D02*
X213948500Y-143249620D01*
X212551500Y-144956500D02*
X212551500Y-144250380D01*
X212551500Y-144956500D02*
X213948500Y-144956500D01*
X213948500Y-144956500D02*
X213948500Y-144250380D01*
X207999620Y-137948500D02*
X207293500Y-137948500D01*
X207293500Y-137948500D02*
X207293500Y-136551500D01*
X207293500Y-136551500D02*
X207999620Y-136551500D01*
X209706500Y-137948500D02*
X209000380Y-137948500D01*
X209706500Y-137948500D02*
X209706500Y-136551500D01*
X209706500Y-136551500D02*
X209000380Y-136551500D01*
X207999620Y-134448500D02*
X207293500Y-134448500D01*
X207293500Y-134448500D02*
X207293500Y-133051500D01*
X207293500Y-133051500D02*
X207999620Y-133051500D01*
X209706500Y-134448500D02*
X209000380Y-134448500D01*
X209706500Y-134448500D02*
X209706500Y-133051500D01*
X209706500Y-133051500D02*
X209000380Y-133051500D01*
X233301500Y-140249620D02*
X233301500Y-139543500D01*
X233301500Y-139543500D02*
X234698500Y-139543500D01*
X234698500Y-139543500D02*
X234698500Y-140249620D01*
X233301500Y-141956500D02*
X233301500Y-141250380D01*
X233301500Y-141956500D02*
X234698500Y-141956500D01*
X234698500Y-141956500D02*
X234698500Y-141250380D01*
X209000380Y-131301500D02*
X209706500Y-131301500D01*
X209706500Y-131301500D02*
X209706500Y-132698500D01*
X209706500Y-132698500D02*
X209000380Y-132698500D01*
X207293500Y-131301500D02*
X207999620Y-131301500D01*
X207293500Y-131301500D02*
X207293500Y-132698500D01*
X207293500Y-132698500D02*
X207999620Y-132698500D01*
X234301500Y-88749620D02*
X234301500Y-88043500D01*
X234301500Y-88043500D02*
X235698500Y-88043500D01*
X235698500Y-88043500D02*
X235698500Y-88749620D01*
X234301500Y-90456500D02*
X234301500Y-89750380D01*
X234301500Y-90456500D02*
X235698500Y-90456500D01*
X235698500Y-90456500D02*
X235698500Y-89750380D01*
X232551500Y-88749620D02*
X232551500Y-88043500D01*
X232551500Y-88043500D02*
X233948500Y-88043500D01*
X233948500Y-88043500D02*
X233948500Y-88749620D01*
X232551500Y-90456500D02*
X232551500Y-89750380D01*
X232551500Y-90456500D02*
X233948500Y-90456500D01*
X233948500Y-90456500D02*
X233948500Y-89750380D01*
X227301500Y-88749620D02*
X227301500Y-88043500D01*
X227301500Y-88043500D02*
X228698500Y-88043500D01*
X228698500Y-88043500D02*
X228698500Y-88749620D01*
X227301500Y-90456500D02*
X227301500Y-89750380D01*
X227301500Y-90456500D02*
X228698500Y-90456500D01*
X228698500Y-90456500D02*
X228698500Y-89750380D01*
X229051500Y-88749620D02*
X229051500Y-88043500D01*
X229051500Y-88043500D02*
X230448500Y-88043500D01*
X230448500Y-88043500D02*
X230448500Y-88749620D01*
X229051500Y-90456500D02*
X229051500Y-89750380D01*
X229051500Y-90456500D02*
X230448500Y-90456500D01*
X230448500Y-90456500D02*
X230448500Y-89750380D01*
X230801500Y-88749620D02*
X230801500Y-88043500D01*
X230801500Y-88043500D02*
X232198500Y-88043500D01*
X232198500Y-88043500D02*
X232198500Y-88749620D01*
X230801500Y-90456500D02*
X230801500Y-89750380D01*
X230801500Y-90456500D02*
X232198500Y-90456500D01*
X232198500Y-90456500D02*
X232198500Y-89750380D01*
X236051500Y-88749620D02*
X236051500Y-88043500D01*
X236051500Y-88043500D02*
X237448500Y-88043500D01*
X237448500Y-88043500D02*
X237448500Y-88749620D01*
X236051500Y-90456500D02*
X236051500Y-89750380D01*
X236051500Y-90456500D02*
X237448500Y-90456500D01*
X237448500Y-90456500D02*
X237448500Y-89750380D01*
X230250380Y-116551500D02*
X230956500Y-116551500D01*
X230956500Y-116551500D02*
X230956500Y-117948500D01*
X230956500Y-117948500D02*
X230250380Y-117948500D01*
X228543500Y-116551500D02*
X229249620Y-116551500D01*
X228543500Y-116551500D02*
X228543500Y-117948500D01*
X228543500Y-117948500D02*
X229249620Y-117948500D01*
X229948500Y-120000380D02*
X229948500Y-120706500D01*
X229948500Y-120706500D02*
X228551500Y-120706500D01*
X228551500Y-120706500D02*
X228551500Y-120000380D01*
X229948500Y-118293500D02*
X229948500Y-118999620D01*
X229948500Y-118293500D02*
X228551500Y-118293500D01*
X228551500Y-118293500D02*
X228551500Y-118999620D01*
X224198500Y-121750380D02*
X224198500Y-122456500D01*
X224198500Y-122456500D02*
X222801500Y-122456500D01*
X222801500Y-122456500D02*
X222801500Y-121750380D01*
X224198500Y-120043500D02*
X224198500Y-120749620D01*
X224198500Y-120043500D02*
X222801500Y-120043500D01*
X222801500Y-120043500D02*
X222801500Y-120749620D01*
X211750380Y-108551500D02*
X212456500Y-108551500D01*
X212456500Y-108551500D02*
X212456500Y-109948500D01*
X212456500Y-109948500D02*
X211750380Y-109948500D01*
X210043500Y-108551500D02*
X210749620Y-108551500D01*
X210043500Y-108551500D02*
X210043500Y-109948500D01*
X210043500Y-109948500D02*
X210749620Y-109948500D01*
X207999620Y-109948500D02*
X207293500Y-109948500D01*
X207293500Y-109948500D02*
X207293500Y-108551500D01*
X207293500Y-108551500D02*
X207999620Y-108551500D01*
X209706500Y-109948500D02*
X209000380Y-109948500D01*
X209706500Y-109948500D02*
X209706500Y-108551500D01*
X209706500Y-108551500D02*
X209000380Y-108551500D01*
X211448500Y-116750380D02*
X211448500Y-117456500D01*
X211448500Y-117456500D02*
X210051500Y-117456500D01*
X210051500Y-117456500D02*
X210051500Y-116750380D01*
X211448500Y-115043500D02*
X211448500Y-115749620D01*
X211448500Y-115043500D02*
X210051500Y-115043500D01*
X210051500Y-115043500D02*
X210051500Y-115749620D01*
X207499620Y-103698500D02*
X206793500Y-103698500D01*
X206793500Y-103698500D02*
X206793500Y-102301500D01*
X206793500Y-102301500D02*
X207499620Y-102301500D01*
X209206500Y-103698500D02*
X208500380Y-103698500D01*
X209206500Y-103698500D02*
X209206500Y-102301500D01*
X209206500Y-102301500D02*
X208500380Y-102301500D01*
X207499620Y-117698500D02*
X206793500Y-117698500D01*
X206793500Y-117698500D02*
X206793500Y-116301500D01*
X206793500Y-116301500D02*
X207499620Y-116301500D01*
X209206500Y-117698500D02*
X208500380Y-117698500D01*
X209206500Y-117698500D02*
X209206500Y-116301500D01*
X209206500Y-116301500D02*
X208500380Y-116301500D01*
X193500380Y-117051500D02*
X194206500Y-117051500D01*
X194206500Y-117051500D02*
X194206500Y-118448500D01*
X194206500Y-118448500D02*
X193500380Y-118448500D01*
X191793500Y-117051500D02*
X192499620Y-117051500D01*
X191793500Y-117051500D02*
X191793500Y-118448500D01*
X191793500Y-118448500D02*
X192499620Y-118448500D01*
X192499620Y-116198500D02*
X191793500Y-116198500D01*
X191793500Y-116198500D02*
X191793500Y-114801500D01*
X191793500Y-114801500D02*
X192499620Y-114801500D01*
X194206500Y-116198500D02*
X193500380Y-116198500D01*
X194206500Y-116198500D02*
X194206500Y-114801500D01*
X194206500Y-114801500D02*
X193500380Y-114801500D01*
X203551500Y-117499620D02*
X203551500Y-116793500D01*
X203551500Y-116793500D02*
X204948500Y-116793500D01*
X204948500Y-116793500D02*
X204948500Y-117499620D01*
X203551500Y-119206500D02*
X203551500Y-118500380D01*
X203551500Y-119206500D02*
X204948500Y-119206500D01*
X204948500Y-119206500D02*
X204948500Y-118500380D01*
X213000380Y-136551500D02*
X213706500Y-136551500D01*
X213706500Y-136551500D02*
X213706500Y-137948500D01*
X213706500Y-137948500D02*
X213000380Y-137948500D01*
X211293500Y-136551500D02*
X211999620Y-136551500D01*
X211293500Y-136551500D02*
X211293500Y-137948500D01*
X211293500Y-137948500D02*
X211999620Y-137948500D01*
X207499620Y-105698500D02*
X206793500Y-105698500D01*
X206793500Y-105698500D02*
X206793500Y-104301500D01*
X206793500Y-104301500D02*
X207499620Y-104301500D01*
X209206500Y-105698500D02*
X208500380Y-105698500D01*
X209206500Y-105698500D02*
X209206500Y-104301500D01*
X209206500Y-104301500D02*
X208500380Y-104301500D01*
X193500380Y-108551500D02*
X194206500Y-108551500D01*
X194206500Y-108551500D02*
X194206500Y-109948500D01*
X194206500Y-109948500D02*
X193500380Y-109948500D01*
X191793500Y-108551500D02*
X192499620Y-108551500D01*
X191793500Y-108551500D02*
X191793500Y-109948500D01*
X191793500Y-109948500D02*
X192499620Y-109948500D01*
X192499620Y-107948500D02*
X191793500Y-107948500D01*
X191793500Y-107948500D02*
X191793500Y-106551500D01*
X191793500Y-106551500D02*
X192499620Y-106551500D01*
X194206500Y-107948500D02*
X193500380Y-107948500D01*
X194206500Y-107948500D02*
X194206500Y-106551500D01*
X194206500Y-106551500D02*
X193500380Y-106551500D01*
X207499620Y-93448500D02*
X206793500Y-93448500D01*
X206793500Y-93448500D02*
X206793500Y-92051500D01*
X206793500Y-92051500D02*
X207499620Y-92051500D01*
X209206500Y-93448500D02*
X208500380Y-93448500D01*
X209206500Y-93448500D02*
X209206500Y-92051500D01*
X209206500Y-92051500D02*
X208500380Y-92051500D01*
X193500380Y-90551500D02*
X194206500Y-90551500D01*
X194206500Y-90551500D02*
X194206500Y-91948500D01*
X194206500Y-91948500D02*
X193500380Y-91948500D01*
X191793500Y-90551500D02*
X192499620Y-90551500D01*
X191793500Y-90551500D02*
X191793500Y-91948500D01*
X191793500Y-91948500D02*
X192499620Y-91948500D01*
X192499620Y-89948500D02*
X191793500Y-89948500D01*
X191793500Y-89948500D02*
X191793500Y-88551500D01*
X191793500Y-88551500D02*
X192499620Y-88551500D01*
X194206500Y-89948500D02*
X193500380Y-89948500D01*
X194206500Y-89948500D02*
X194206500Y-88551500D01*
X194206500Y-88551500D02*
X193500380Y-88551500D01*
X215051500Y-85999620D02*
X215051500Y-85293500D01*
X215051500Y-85293500D02*
X216448500Y-85293500D01*
X216448500Y-85293500D02*
X216448500Y-85999620D01*
X215051500Y-87706500D02*
X215051500Y-87000380D01*
X215051500Y-87706500D02*
X216448500Y-87706500D01*
X216448500Y-87706500D02*
X216448500Y-87000380D01*
X221551500Y-85899620D02*
X221551500Y-85193500D01*
X221551500Y-85193500D02*
X222948500Y-85193500D01*
X222948500Y-85193500D02*
X222948500Y-85899620D01*
X221551500Y-87606500D02*
X221551500Y-86900380D01*
X221551500Y-87606500D02*
X222948500Y-87606500D01*
X222948500Y-87606500D02*
X222948500Y-86900380D01*
X215051500Y-101249620D02*
X215051500Y-100543500D01*
X215051500Y-100543500D02*
X216448500Y-100543500D01*
X216448500Y-100543500D02*
X216448500Y-101249620D01*
X215051500Y-102956500D02*
X215051500Y-102250380D01*
X215051500Y-102956500D02*
X216448500Y-102956500D01*
X216448500Y-102956500D02*
X216448500Y-102250380D01*
X221551500Y-101249620D02*
X221551500Y-100543500D01*
X221551500Y-100543500D02*
X222948500Y-100543500D01*
X222948500Y-100543500D02*
X222948500Y-101249620D01*
X221551500Y-102956500D02*
X221551500Y-102250380D01*
X221551500Y-102956500D02*
X222948500Y-102956500D01*
X222948500Y-102956500D02*
X222948500Y-102250380D01*
X237499620Y-123448500D02*
X236793500Y-123448500D01*
X236793500Y-123448500D02*
X236793500Y-122051500D01*
X236793500Y-122051500D02*
X237499620Y-122051500D01*
X239206500Y-123448500D02*
X238500380Y-123448500D01*
X239206500Y-123448500D02*
X239206500Y-122051500D01*
X239206500Y-122051500D02*
X238500380Y-122051500D01*
X237499620Y-121448500D02*
X236793500Y-121448500D01*
X236793500Y-121448500D02*
X236793500Y-120051500D01*
X236793500Y-120051500D02*
X237499620Y-120051500D01*
X239206500Y-121448500D02*
X238500380Y-121448500D01*
X239206500Y-121448500D02*
X239206500Y-120051500D01*
X239206500Y-120051500D02*
X238500380Y-120051500D01*
X206343000Y-145140000D02*
X204057000Y-145140000D01*
X204057000Y-145140000D02*
X204057000Y-143489000D01*
X206343000Y-141711000D02*
X206343000Y-140060000D01*
X206343000Y-140060000D02*
X204057000Y-140060000D01*
X204057000Y-140060000D02*
X204057000Y-141711000D01*
X206343000Y-143489000D02*
X206343000Y-145140000D01*
X208943000Y-145140000D02*
X206657000Y-145140000D01*
X206657000Y-145140000D02*
X206657000Y-143489000D01*
X208943000Y-141711000D02*
X208943000Y-140060000D01*
X208943000Y-140060000D02*
X206657000Y-140060000D01*
X206657000Y-140060000D02*
X206657000Y-141711000D01*
X208943000Y-143489000D02*
X208943000Y-145140000D01*
X209257000Y-140060000D02*
X211543000Y-140060000D01*
X211543000Y-140060000D02*
X211543000Y-141711000D01*
X209257000Y-143489000D02*
X209257000Y-145140000D01*
X209257000Y-145140000D02*
X211543000Y-145140000D01*
X211543000Y-145140000D02*
X211543000Y-143489000D01*
X209257000Y-141711000D02*
X209257000Y-140060000D01*
X194740000Y-93457000D02*
X194740000Y-95743000D01*
X194740000Y-95743000D02*
X193089000Y-95743000D01*
X191311000Y-93457000D02*
X189660000Y-93457000D01*
X189660000Y-93457000D02*
X189660000Y-95743000D01*
X189660000Y-95743000D02*
X191311000Y-95743000D01*
X193089000Y-93457000D02*
X194740000Y-93457000D01*
X196057000Y-90460000D02*
X198343000Y-90460000D01*
X198343000Y-90460000D02*
X198343000Y-92111000D01*
X196057000Y-93889000D02*
X196057000Y-95540000D01*
X196057000Y-95540000D02*
X198343000Y-95540000D01*
X198343000Y-95540000D02*
X198343000Y-93889000D01*
X196057000Y-92111000D02*
X196057000Y-90460000D01*
X195540000Y-96057000D02*
X195540000Y-98343000D01*
X195540000Y-98343000D02*
X193889000Y-98343000D01*
X192111000Y-96057000D02*
X190460000Y-96057000D01*
X190460000Y-96057000D02*
X190460000Y-98343000D01*
X190460000Y-98343000D02*
X192111000Y-98343000D01*
X193889000Y-96057000D02*
X195540000Y-96057000D01*
X195540000Y-98657000D02*
X195540000Y-100943000D01*
X195540000Y-100943000D02*
X193889000Y-100943000D01*
X192111000Y-98657000D02*
X190460000Y-98657000D01*
X190460000Y-98657000D02*
X190460000Y-100943000D01*
X190460000Y-100943000D02*
X192111000Y-100943000D01*
X193889000Y-98657000D02*
X195540000Y-98657000D01*
X194340000Y-103857000D02*
X194340000Y-106143000D01*
X194340000Y-106143000D02*
X192689000Y-106143000D01*
X190911000Y-103857000D02*
X189260000Y-103857000D01*
X189260000Y-103857000D02*
X189260000Y-106143000D01*
X189260000Y-106143000D02*
X190911000Y-106143000D01*
X192689000Y-103857000D02*
X194340000Y-103857000D01*
X195540000Y-101257000D02*
X195540000Y-103543000D01*
X195540000Y-103543000D02*
X193889000Y-103543000D01*
X192111000Y-101257000D02*
X190460000Y-101257000D01*
X190460000Y-101257000D02*
X190460000Y-103543000D01*
X190460000Y-103543000D02*
X192111000Y-103543000D01*
X193889000Y-101257000D02*
X195540000Y-101257000D01*
D18*
X206931429Y-135423800D02*
X206955619Y-135402029D01*
X206979810Y-135336715D01*
X206979810Y-135293172D01*
X206955619Y-135227857D01*
X206907238Y-135184315D01*
X206858857Y-135162543D01*
X206762095Y-135140772D01*
X206689524Y-135140772D01*
X206592762Y-135162543D01*
X206544381Y-135184315D01*
X206496000Y-135227857D01*
X206471810Y-135293172D01*
X206471810Y-135336715D01*
X206496000Y-135402029D01*
X206520190Y-135423800D01*
X206520190Y-135597972D02*
X206496000Y-135619743D01*
X206471810Y-135663286D01*
X206471810Y-135772143D01*
X206496000Y-135815686D01*
X206520190Y-135837457D01*
X206568571Y-135859229D01*
X206616952Y-135859229D01*
X206689524Y-135837457D01*
X206979810Y-135576200D01*
X206979810Y-135859229D01*
X232431429Y-138423800D02*
X232455619Y-138402029D01*
X232479810Y-138336715D01*
X232479810Y-138293172D01*
X232455619Y-138227857D01*
X232407238Y-138184315D01*
X232358857Y-138162543D01*
X232262095Y-138140772D01*
X232189524Y-138140772D01*
X232092762Y-138162543D01*
X232044381Y-138184315D01*
X231996000Y-138227857D01*
X231971810Y-138293172D01*
X231971810Y-138336715D01*
X231996000Y-138402029D01*
X232020190Y-138423800D01*
X231971810Y-138576200D02*
X231971810Y-138859229D01*
X232165333Y-138706829D01*
X232165333Y-138772143D01*
X232189524Y-138815686D01*
X232213714Y-138837457D01*
X232262095Y-138859229D01*
X232383048Y-138859229D01*
X232431429Y-138837457D01*
X232455619Y-138815686D01*
X232479810Y-138772143D01*
X232479810Y-138641515D01*
X232455619Y-138597972D01*
X232431429Y-138576200D01*
X238576200Y-89431429D02*
X238597971Y-89455619D01*
X238663285Y-89479810D01*
X238706828Y-89479810D01*
X238772143Y-89455619D01*
X238815685Y-89407238D01*
X238837457Y-89358857D01*
X238859228Y-89262095D01*
X238859228Y-89189524D01*
X238837457Y-89092762D01*
X238815685Y-89044381D01*
X238772143Y-88996000D01*
X238706828Y-88971810D01*
X238663285Y-88971810D01*
X238597971Y-88996000D01*
X238576200Y-89020190D01*
X238184314Y-89141143D02*
X238184314Y-89479810D01*
X238293171Y-88947619D02*
X238402028Y-89310476D01*
X238119000Y-89310476D01*
X228076200Y-92431429D02*
X228097971Y-92455619D01*
X228163285Y-92479810D01*
X228206828Y-92479810D01*
X228272143Y-92455619D01*
X228315685Y-92407238D01*
X228337457Y-92358857D01*
X228359228Y-92262095D01*
X228359228Y-92189524D01*
X228337457Y-92092762D01*
X228315685Y-92044381D01*
X228272143Y-91996000D01*
X228206828Y-91971810D01*
X228163285Y-91971810D01*
X228097971Y-91996000D01*
X228076200Y-92020190D01*
X227662543Y-91971810D02*
X227880257Y-91971810D01*
X227902028Y-92213714D01*
X227880257Y-92189524D01*
X227836714Y-92165333D01*
X227727857Y-92165333D01*
X227684314Y-92189524D01*
X227662543Y-92213714D01*
X227640771Y-92262095D01*
X227640771Y-92383048D01*
X227662543Y-92431429D01*
X227684314Y-92455619D01*
X227727857Y-92479810D01*
X227836714Y-92479810D01*
X227880257Y-92455619D01*
X227902028Y-92431429D01*
X233326200Y-92431429D02*
X233347971Y-92455619D01*
X233413285Y-92479810D01*
X233456828Y-92479810D01*
X233522143Y-92455619D01*
X233565685Y-92407238D01*
X233587457Y-92358857D01*
X233609228Y-92262095D01*
X233609228Y-92189524D01*
X233587457Y-92092762D01*
X233565685Y-92044381D01*
X233522143Y-91996000D01*
X233456828Y-91971810D01*
X233413285Y-91971810D01*
X233347971Y-91996000D01*
X233326200Y-92020190D01*
X232934314Y-91971810D02*
X233021400Y-91971810D01*
X233064943Y-91996000D01*
X233086714Y-92020190D01*
X233130257Y-92092762D01*
X233152028Y-92189524D01*
X233152028Y-92383048D01*
X233130257Y-92431429D01*
X233108485Y-92455619D01*
X233064943Y-92479810D01*
X232977857Y-92479810D01*
X232934314Y-92455619D01*
X232912543Y-92431429D01*
X232890771Y-92383048D01*
X232890771Y-92262095D01*
X232912543Y-92213714D01*
X232934314Y-92189524D01*
X232977857Y-92165333D01*
X233064943Y-92165333D01*
X233108485Y-92189524D01*
X233130257Y-92213714D01*
X233152028Y-92262095D01*
X235076200Y-92431429D02*
X235097971Y-92455619D01*
X235163285Y-92479810D01*
X235206828Y-92479810D01*
X235272143Y-92455619D01*
X235315685Y-92407238D01*
X235337457Y-92358857D01*
X235359228Y-92262095D01*
X235359228Y-92189524D01*
X235337457Y-92092762D01*
X235315685Y-92044381D01*
X235272143Y-91996000D01*
X235206828Y-91971810D01*
X235163285Y-91971810D01*
X235097971Y-91996000D01*
X235076200Y-92020190D01*
X234923800Y-91971810D02*
X234619000Y-91971810D01*
X234814943Y-92479810D01*
X239181429Y-133456085D02*
X239205619Y-133434314D01*
X239229810Y-133369000D01*
X239229810Y-133325457D01*
X239205619Y-133260142D01*
X239157238Y-133216600D01*
X239108857Y-133194828D01*
X239012095Y-133173057D01*
X238939524Y-133173057D01*
X238842762Y-133194828D01*
X238794381Y-133216600D01*
X238746000Y-133260142D01*
X238721810Y-133325457D01*
X238721810Y-133369000D01*
X238746000Y-133434314D01*
X238770190Y-133456085D01*
X239229810Y-133891514D02*
X239229810Y-133630257D01*
X239229810Y-133760885D02*
X238721810Y-133760885D01*
X238794381Y-133717342D01*
X238842762Y-133673800D01*
X238866952Y-133630257D01*
X238721810Y-134174543D02*
X238721810Y-134218086D01*
X238746000Y-134261629D01*
X238770190Y-134283400D01*
X238818571Y-134305171D01*
X238915333Y-134326943D01*
X239036286Y-134326943D01*
X239133048Y-134305171D01*
X239181429Y-134283400D01*
X239205619Y-134261629D01*
X239229810Y-134218086D01*
X239229810Y-134174543D01*
X239205619Y-134131000D01*
X239181429Y-134109229D01*
X239133048Y-134087457D01*
X239036286Y-134065686D01*
X238915333Y-134065686D01*
X238818571Y-134087457D01*
X238770190Y-134109229D01*
X238746000Y-134131000D01*
X238721810Y-134174543D01*
X236181429Y-93956085D02*
X236205619Y-93934314D01*
X236229810Y-93869000D01*
X236229810Y-93825457D01*
X236205619Y-93760142D01*
X236157238Y-93716600D01*
X236108857Y-93694828D01*
X236012095Y-93673057D01*
X235939524Y-93673057D01*
X235842762Y-93694828D01*
X235794381Y-93716600D01*
X235746000Y-93760142D01*
X235721810Y-93825457D01*
X235721810Y-93869000D01*
X235746000Y-93934314D01*
X235770190Y-93956085D01*
X236229810Y-94391514D02*
X236229810Y-94130257D01*
X236229810Y-94260885D02*
X235721810Y-94260885D01*
X235794381Y-94217342D01*
X235842762Y-94173800D01*
X235866952Y-94130257D01*
X236229810Y-94826943D02*
X236229810Y-94565686D01*
X236229810Y-94696314D02*
X235721810Y-94696314D01*
X235794381Y-94652771D01*
X235842762Y-94609229D01*
X235866952Y-94565686D01*
X236181429Y-91956085D02*
X236205619Y-91934314D01*
X236229810Y-91869000D01*
X236229810Y-91825457D01*
X236205619Y-91760142D01*
X236157238Y-91716600D01*
X236108857Y-91694828D01*
X236012095Y-91673057D01*
X235939524Y-91673057D01*
X235842762Y-91694828D01*
X235794381Y-91716600D01*
X235746000Y-91760142D01*
X235721810Y-91825457D01*
X235721810Y-91869000D01*
X235746000Y-91934314D01*
X235770190Y-91956085D01*
X236229810Y-92391514D02*
X236229810Y-92130257D01*
X236229810Y-92260885D02*
X235721810Y-92260885D01*
X235794381Y-92217342D01*
X235842762Y-92173800D01*
X235866952Y-92130257D01*
X235770190Y-92565686D02*
X235746000Y-92587457D01*
X235721810Y-92631000D01*
X235721810Y-92739857D01*
X235746000Y-92783400D01*
X235770190Y-92805171D01*
X235818571Y-92826943D01*
X235866952Y-92826943D01*
X235939524Y-92805171D01*
X236229810Y-92543914D01*
X236229810Y-92826943D01*
X240793915Y-89931429D02*
X240815686Y-89955619D01*
X240881000Y-89979810D01*
X240924543Y-89979810D01*
X240989858Y-89955619D01*
X241033400Y-89907238D01*
X241055172Y-89858857D01*
X241076943Y-89762095D01*
X241076943Y-89689524D01*
X241055172Y-89592762D01*
X241033400Y-89544381D01*
X240989858Y-89496000D01*
X240924543Y-89471810D01*
X240881000Y-89471810D01*
X240815686Y-89496000D01*
X240793915Y-89520190D01*
X240358486Y-89979810D02*
X240619743Y-89979810D01*
X240489115Y-89979810D02*
X240489115Y-89471810D01*
X240532658Y-89544381D01*
X240576200Y-89592762D01*
X240619743Y-89616952D01*
X240206086Y-89471810D02*
X239923057Y-89471810D01*
X240075457Y-89665333D01*
X240010143Y-89665333D01*
X239966600Y-89689524D01*
X239944829Y-89713714D01*
X239923057Y-89762095D01*
X239923057Y-89883048D01*
X239944829Y-89931429D01*
X239966600Y-89955619D01*
X240010143Y-89979810D01*
X240140771Y-89979810D01*
X240184314Y-89955619D01*
X240206086Y-89931429D01*
X239181429Y-139956085D02*
X239205619Y-139934314D01*
X239229810Y-139869000D01*
X239229810Y-139825457D01*
X239205619Y-139760142D01*
X239157238Y-139716600D01*
X239108857Y-139694828D01*
X239012095Y-139673057D01*
X238939524Y-139673057D01*
X238842762Y-139694828D01*
X238794381Y-139716600D01*
X238746000Y-139760142D01*
X238721810Y-139825457D01*
X238721810Y-139869000D01*
X238746000Y-139934314D01*
X238770190Y-139956085D01*
X239229810Y-140391514D02*
X239229810Y-140130257D01*
X239229810Y-140260885D02*
X238721810Y-140260885D01*
X238794381Y-140217342D01*
X238842762Y-140173800D01*
X238866952Y-140130257D01*
X238891143Y-140783400D02*
X239229810Y-140783400D01*
X238697619Y-140674543D02*
X239060476Y-140565686D01*
X239060476Y-140848714D01*
X232681429Y-135956085D02*
X232705619Y-135934314D01*
X232729810Y-135869000D01*
X232729810Y-135825457D01*
X232705619Y-135760142D01*
X232657238Y-135716600D01*
X232608857Y-135694828D01*
X232512095Y-135673057D01*
X232439524Y-135673057D01*
X232342762Y-135694828D01*
X232294381Y-135716600D01*
X232246000Y-135760142D01*
X232221810Y-135825457D01*
X232221810Y-135869000D01*
X232246000Y-135934314D01*
X232270190Y-135956085D01*
X232729810Y-136391514D02*
X232729810Y-136130257D01*
X232729810Y-136260885D02*
X232221810Y-136260885D01*
X232294381Y-136217342D01*
X232342762Y-136173800D01*
X232366952Y-136130257D01*
X232221810Y-136805171D02*
X232221810Y-136587457D01*
X232463714Y-136565686D01*
X232439524Y-136587457D01*
X232415333Y-136631000D01*
X232415333Y-136739857D01*
X232439524Y-136783400D01*
X232463714Y-136805171D01*
X232512095Y-136826943D01*
X232633048Y-136826943D01*
X232681429Y-136805171D01*
X232705619Y-136783400D01*
X232729810Y-136739857D01*
X232729810Y-136631000D01*
X232705619Y-136587457D01*
X232681429Y-136565686D01*
X224043915Y-145681429D02*
X224065686Y-145705619D01*
X224131000Y-145729810D01*
X224174543Y-145729810D01*
X224239858Y-145705619D01*
X224283400Y-145657238D01*
X224305172Y-145608857D01*
X224326943Y-145512095D01*
X224326943Y-145439524D01*
X224305172Y-145342762D01*
X224283400Y-145294381D01*
X224239858Y-145246000D01*
X224174543Y-145221810D01*
X224131000Y-145221810D01*
X224065686Y-145246000D01*
X224043915Y-145270190D01*
X223608486Y-145729810D02*
X223869743Y-145729810D01*
X223739115Y-145729810D02*
X223739115Y-145221810D01*
X223782658Y-145294381D01*
X223826200Y-145342762D01*
X223869743Y-145366952D01*
X223216600Y-145221810D02*
X223303686Y-145221810D01*
X223347229Y-145246000D01*
X223369000Y-145270190D01*
X223412543Y-145342762D01*
X223434314Y-145439524D01*
X223434314Y-145633048D01*
X223412543Y-145681429D01*
X223390771Y-145705619D01*
X223347229Y-145729810D01*
X223260143Y-145729810D01*
X223216600Y-145705619D01*
X223194829Y-145681429D01*
X223173057Y-145633048D01*
X223173057Y-145512095D01*
X223194829Y-145463714D01*
X223216600Y-145439524D01*
X223260143Y-145415333D01*
X223347229Y-145415333D01*
X223390771Y-145439524D01*
X223412543Y-145463714D01*
X223434314Y-145512095D01*
X232681429Y-133456085D02*
X232705619Y-133434314D01*
X232729810Y-133369000D01*
X232729810Y-133325457D01*
X232705619Y-133260142D01*
X232657238Y-133216600D01*
X232608857Y-133194828D01*
X232512095Y-133173057D01*
X232439524Y-133173057D01*
X232342762Y-133194828D01*
X232294381Y-133216600D01*
X232246000Y-133260142D01*
X232221810Y-133325457D01*
X232221810Y-133369000D01*
X232246000Y-133434314D01*
X232270190Y-133456085D01*
X232729810Y-133891514D02*
X232729810Y-133630257D01*
X232729810Y-133760885D02*
X232221810Y-133760885D01*
X232294381Y-133717342D01*
X232342762Y-133673800D01*
X232366952Y-133630257D01*
X232221810Y-134043914D02*
X232221810Y-134348714D01*
X232729810Y-134152771D01*
X228181429Y-113456085D02*
X228205619Y-113434314D01*
X228229810Y-113369000D01*
X228229810Y-113325457D01*
X228205619Y-113260142D01*
X228157238Y-113216600D01*
X228108857Y-113194828D01*
X228012095Y-113173057D01*
X227939524Y-113173057D01*
X227842762Y-113194828D01*
X227794381Y-113216600D01*
X227746000Y-113260142D01*
X227721810Y-113325457D01*
X227721810Y-113369000D01*
X227746000Y-113434314D01*
X227770190Y-113456085D01*
X228229810Y-113891514D02*
X228229810Y-113630257D01*
X228229810Y-113760885D02*
X227721810Y-113760885D01*
X227794381Y-113717342D01*
X227842762Y-113673800D01*
X227866952Y-113630257D01*
X227939524Y-114152771D02*
X227915333Y-114109229D01*
X227891143Y-114087457D01*
X227842762Y-114065686D01*
X227818571Y-114065686D01*
X227770190Y-114087457D01*
X227746000Y-114109229D01*
X227721810Y-114152771D01*
X227721810Y-114239857D01*
X227746000Y-114283400D01*
X227770190Y-114305171D01*
X227818571Y-114326943D01*
X227842762Y-114326943D01*
X227891143Y-114305171D01*
X227915333Y-114283400D01*
X227939524Y-114239857D01*
X227939524Y-114152771D01*
X227963714Y-114109229D01*
X227987905Y-114087457D01*
X228036286Y-114065686D01*
X228133048Y-114065686D01*
X228181429Y-114087457D01*
X228205619Y-114109229D01*
X228229810Y-114152771D01*
X228229810Y-114239857D01*
X228205619Y-114283400D01*
X228181429Y-114305171D01*
X228133048Y-114326943D01*
X228036286Y-114326943D01*
X227987905Y-114305171D01*
X227963714Y-114283400D01*
X227939524Y-114239857D01*
X231543915Y-119681429D02*
X231565686Y-119705619D01*
X231631000Y-119729810D01*
X231674543Y-119729810D01*
X231739858Y-119705619D01*
X231783400Y-119657238D01*
X231805172Y-119608857D01*
X231826943Y-119512095D01*
X231826943Y-119439524D01*
X231805172Y-119342762D01*
X231783400Y-119294381D01*
X231739858Y-119246000D01*
X231674543Y-119221810D01*
X231631000Y-119221810D01*
X231565686Y-119246000D01*
X231543915Y-119270190D01*
X231108486Y-119729810D02*
X231369743Y-119729810D01*
X231239115Y-119729810D02*
X231239115Y-119221810D01*
X231282658Y-119294381D01*
X231326200Y-119342762D01*
X231369743Y-119366952D01*
X230890771Y-119729810D02*
X230803686Y-119729810D01*
X230760143Y-119705619D01*
X230738371Y-119681429D01*
X230694829Y-119608857D01*
X230673057Y-119512095D01*
X230673057Y-119318571D01*
X230694829Y-119270190D01*
X230716600Y-119246000D01*
X230760143Y-119221810D01*
X230847229Y-119221810D01*
X230890771Y-119246000D01*
X230912543Y-119270190D01*
X230934314Y-119318571D01*
X230934314Y-119439524D01*
X230912543Y-119487905D01*
X230890771Y-119512095D01*
X230847229Y-119536286D01*
X230760143Y-119536286D01*
X230716600Y-119512095D01*
X230694829Y-119487905D01*
X230673057Y-119439524D01*
X228181429Y-115206085D02*
X228205619Y-115184314D01*
X228229810Y-115119000D01*
X228229810Y-115075457D01*
X228205619Y-115010142D01*
X228157238Y-114966600D01*
X228108857Y-114944828D01*
X228012095Y-114923057D01*
X227939524Y-114923057D01*
X227842762Y-114944828D01*
X227794381Y-114966600D01*
X227746000Y-115010142D01*
X227721810Y-115075457D01*
X227721810Y-115119000D01*
X227746000Y-115184314D01*
X227770190Y-115206085D01*
X227770190Y-115380257D02*
X227746000Y-115402028D01*
X227721810Y-115445571D01*
X227721810Y-115554428D01*
X227746000Y-115597971D01*
X227770190Y-115619742D01*
X227818571Y-115641514D01*
X227866952Y-115641514D01*
X227939524Y-115619742D01*
X228229810Y-115358485D01*
X228229810Y-115641514D01*
X227721810Y-115924543D02*
X227721810Y-115968086D01*
X227746000Y-116011629D01*
X227770190Y-116033400D01*
X227818571Y-116055171D01*
X227915333Y-116076943D01*
X228036286Y-116076943D01*
X228133048Y-116055171D01*
X228181429Y-116033400D01*
X228205619Y-116011629D01*
X228229810Y-115968086D01*
X228229810Y-115924543D01*
X228205619Y-115881000D01*
X228181429Y-115859229D01*
X228133048Y-115837457D01*
X228036286Y-115815686D01*
X227915333Y-115815686D01*
X227818571Y-115837457D01*
X227770190Y-115859229D01*
X227746000Y-115881000D01*
X227721810Y-115924543D01*
X229543915Y-124431429D02*
X229565686Y-124455619D01*
X229631000Y-124479810D01*
X229674543Y-124479810D01*
X229739858Y-124455619D01*
X229783400Y-124407238D01*
X229805172Y-124358857D01*
X229826943Y-124262095D01*
X229826943Y-124189524D01*
X229805172Y-124092762D01*
X229783400Y-124044381D01*
X229739858Y-123996000D01*
X229674543Y-123971810D01*
X229631000Y-123971810D01*
X229565686Y-123996000D01*
X229543915Y-124020190D01*
X229369743Y-124020190D02*
X229347972Y-123996000D01*
X229304429Y-123971810D01*
X229195572Y-123971810D01*
X229152029Y-123996000D01*
X229130258Y-124020190D01*
X229108486Y-124068571D01*
X229108486Y-124116952D01*
X229130258Y-124189524D01*
X229391515Y-124479810D01*
X229108486Y-124479810D01*
X228673057Y-124479810D02*
X228934314Y-124479810D01*
X228803686Y-124479810D02*
X228803686Y-123971810D01*
X228847229Y-124044381D01*
X228890771Y-124092762D01*
X228934314Y-124116952D01*
X229793915Y-109931429D02*
X229815686Y-109955619D01*
X229881000Y-109979810D01*
X229924543Y-109979810D01*
X229989858Y-109955619D01*
X230033400Y-109907238D01*
X230055172Y-109858857D01*
X230076943Y-109762095D01*
X230076943Y-109689524D01*
X230055172Y-109592762D01*
X230033400Y-109544381D01*
X229989858Y-109496000D01*
X229924543Y-109471810D01*
X229881000Y-109471810D01*
X229815686Y-109496000D01*
X229793915Y-109520190D01*
X229619743Y-109520190D02*
X229597972Y-109496000D01*
X229554429Y-109471810D01*
X229445572Y-109471810D01*
X229402029Y-109496000D01*
X229380258Y-109520190D01*
X229358486Y-109568571D01*
X229358486Y-109616952D01*
X229380258Y-109689524D01*
X229641515Y-109979810D01*
X229358486Y-109979810D01*
X229184314Y-109520190D02*
X229162543Y-109496000D01*
X229119000Y-109471810D01*
X229010143Y-109471810D01*
X228966600Y-109496000D01*
X228944829Y-109520190D01*
X228923057Y-109568571D01*
X228923057Y-109616952D01*
X228944829Y-109689524D01*
X229206086Y-109979810D01*
X228923057Y-109979810D01*
X229293915Y-103681429D02*
X229315686Y-103705619D01*
X229381000Y-103729810D01*
X229424543Y-103729810D01*
X229489858Y-103705619D01*
X229533400Y-103657238D01*
X229555172Y-103608857D01*
X229576943Y-103512095D01*
X229576943Y-103439524D01*
X229555172Y-103342762D01*
X229533400Y-103294381D01*
X229489858Y-103246000D01*
X229424543Y-103221810D01*
X229381000Y-103221810D01*
X229315686Y-103246000D01*
X229293915Y-103270190D01*
X229119743Y-103270190D02*
X229097972Y-103246000D01*
X229054429Y-103221810D01*
X228945572Y-103221810D01*
X228902029Y-103246000D01*
X228880258Y-103270190D01*
X228858486Y-103318571D01*
X228858486Y-103366952D01*
X228880258Y-103439524D01*
X229141515Y-103729810D01*
X228858486Y-103729810D01*
X228706086Y-103221810D02*
X228423057Y-103221810D01*
X228575457Y-103415333D01*
X228510143Y-103415333D01*
X228466600Y-103439524D01*
X228444829Y-103463714D01*
X228423057Y-103512095D01*
X228423057Y-103633048D01*
X228444829Y-103681429D01*
X228466600Y-103705619D01*
X228510143Y-103729810D01*
X228640771Y-103729810D01*
X228684314Y-103705619D01*
X228706086Y-103681429D01*
X239181429Y-138206085D02*
X239205619Y-138184314D01*
X239229810Y-138119000D01*
X239229810Y-138075457D01*
X239205619Y-138010142D01*
X239157238Y-137966600D01*
X239108857Y-137944828D01*
X239012095Y-137923057D01*
X238939524Y-137923057D01*
X238842762Y-137944828D01*
X238794381Y-137966600D01*
X238746000Y-138010142D01*
X238721810Y-138075457D01*
X238721810Y-138119000D01*
X238746000Y-138184314D01*
X238770190Y-138206085D01*
X238770190Y-138380257D02*
X238746000Y-138402028D01*
X238721810Y-138445571D01*
X238721810Y-138554428D01*
X238746000Y-138597971D01*
X238770190Y-138619742D01*
X238818571Y-138641514D01*
X238866952Y-138641514D01*
X238939524Y-138619742D01*
X239229810Y-138358485D01*
X239229810Y-138641514D01*
X238891143Y-139033400D02*
X239229810Y-139033400D01*
X238697619Y-138924543D02*
X239060476Y-138815686D01*
X239060476Y-139098714D01*
X232293915Y-113181429D02*
X232315686Y-113205619D01*
X232381000Y-113229810D01*
X232424543Y-113229810D01*
X232489858Y-113205619D01*
X232533400Y-113157238D01*
X232555172Y-113108857D01*
X232576943Y-113012095D01*
X232576943Y-112939524D01*
X232555172Y-112842762D01*
X232533400Y-112794381D01*
X232489858Y-112746000D01*
X232424543Y-112721810D01*
X232381000Y-112721810D01*
X232315686Y-112746000D01*
X232293915Y-112770190D01*
X232119743Y-112770190D02*
X232097972Y-112746000D01*
X232054429Y-112721810D01*
X231945572Y-112721810D01*
X231902029Y-112746000D01*
X231880258Y-112770190D01*
X231858486Y-112818571D01*
X231858486Y-112866952D01*
X231880258Y-112939524D01*
X232141515Y-113229810D01*
X231858486Y-113229810D01*
X231466600Y-112721810D02*
X231553686Y-112721810D01*
X231597229Y-112746000D01*
X231619000Y-112770190D01*
X231662543Y-112842762D01*
X231684314Y-112939524D01*
X231684314Y-113133048D01*
X231662543Y-113181429D01*
X231640771Y-113205619D01*
X231597229Y-113229810D01*
X231510143Y-113229810D01*
X231466600Y-113205619D01*
X231444829Y-113181429D01*
X231423057Y-113133048D01*
X231423057Y-113012095D01*
X231444829Y-112963714D01*
X231466600Y-112939524D01*
X231510143Y-112915333D01*
X231597229Y-112915333D01*
X231640771Y-112939524D01*
X231662543Y-112963714D01*
X231684314Y-113012095D01*
X234793915Y-96431429D02*
X234815686Y-96455619D01*
X234881000Y-96479810D01*
X234924543Y-96479810D01*
X234989858Y-96455619D01*
X235033400Y-96407238D01*
X235055172Y-96358857D01*
X235076943Y-96262095D01*
X235076943Y-96189524D01*
X235055172Y-96092762D01*
X235033400Y-96044381D01*
X234989858Y-95996000D01*
X234924543Y-95971810D01*
X234881000Y-95971810D01*
X234815686Y-95996000D01*
X234793915Y-96020190D01*
X234619743Y-96020190D02*
X234597972Y-95996000D01*
X234554429Y-95971810D01*
X234445572Y-95971810D01*
X234402029Y-95996000D01*
X234380258Y-96020190D01*
X234358486Y-96068571D01*
X234358486Y-96116952D01*
X234380258Y-96189524D01*
X234641515Y-96479810D01*
X234358486Y-96479810D01*
X234206086Y-95971810D02*
X233901286Y-95971810D01*
X234097229Y-96479810D01*
X206431429Y-114706085D02*
X206455619Y-114684314D01*
X206479810Y-114619000D01*
X206479810Y-114575457D01*
X206455619Y-114510142D01*
X206407238Y-114466600D01*
X206358857Y-114444828D01*
X206262095Y-114423057D01*
X206189524Y-114423057D01*
X206092762Y-114444828D01*
X206044381Y-114466600D01*
X205996000Y-114510142D01*
X205971810Y-114575457D01*
X205971810Y-114619000D01*
X205996000Y-114684314D01*
X206020190Y-114706085D01*
X206020190Y-114880257D02*
X205996000Y-114902028D01*
X205971810Y-114945571D01*
X205971810Y-115054428D01*
X205996000Y-115097971D01*
X206020190Y-115119742D01*
X206068571Y-115141514D01*
X206116952Y-115141514D01*
X206189524Y-115119742D01*
X206479810Y-114858485D01*
X206479810Y-115141514D01*
X206189524Y-115402771D02*
X206165333Y-115359229D01*
X206141143Y-115337457D01*
X206092762Y-115315686D01*
X206068571Y-115315686D01*
X206020190Y-115337457D01*
X205996000Y-115359229D01*
X205971810Y-115402771D01*
X205971810Y-115489857D01*
X205996000Y-115533400D01*
X206020190Y-115555171D01*
X206068571Y-115576943D01*
X206092762Y-115576943D01*
X206141143Y-115555171D01*
X206165333Y-115533400D01*
X206189524Y-115489857D01*
X206189524Y-115402771D01*
X206213714Y-115359229D01*
X206237905Y-115337457D01*
X206286286Y-115315686D01*
X206383048Y-115315686D01*
X206431429Y-115337457D01*
X206455619Y-115359229D01*
X206479810Y-115402771D01*
X206479810Y-115489857D01*
X206455619Y-115533400D01*
X206431429Y-115555171D01*
X206383048Y-115576943D01*
X206286286Y-115576943D01*
X206237905Y-115555171D01*
X206213714Y-115533400D01*
X206189524Y-115489857D01*
X202931429Y-104706085D02*
X202955619Y-104684314D01*
X202979810Y-104619000D01*
X202979810Y-104575457D01*
X202955619Y-104510142D01*
X202907238Y-104466600D01*
X202858857Y-104444828D01*
X202762095Y-104423057D01*
X202689524Y-104423057D01*
X202592762Y-104444828D01*
X202544381Y-104466600D01*
X202496000Y-104510142D01*
X202471810Y-104575457D01*
X202471810Y-104619000D01*
X202496000Y-104684314D01*
X202520190Y-104706085D01*
X202520190Y-104880257D02*
X202496000Y-104902028D01*
X202471810Y-104945571D01*
X202471810Y-105054428D01*
X202496000Y-105097971D01*
X202520190Y-105119742D01*
X202568571Y-105141514D01*
X202616952Y-105141514D01*
X202689524Y-105119742D01*
X202979810Y-104858485D01*
X202979810Y-105141514D01*
X202979810Y-105359229D02*
X202979810Y-105446314D01*
X202955619Y-105489857D01*
X202931429Y-105511629D01*
X202858857Y-105555171D01*
X202762095Y-105576943D01*
X202568571Y-105576943D01*
X202520190Y-105555171D01*
X202496000Y-105533400D01*
X202471810Y-105489857D01*
X202471810Y-105402771D01*
X202496000Y-105359229D01*
X202520190Y-105337457D01*
X202568571Y-105315686D01*
X202689524Y-105315686D01*
X202737905Y-105337457D01*
X202762095Y-105359229D01*
X202786286Y-105402771D01*
X202786286Y-105489857D01*
X202762095Y-105533400D01*
X202737905Y-105555171D01*
X202689524Y-105576943D01*
X202681429Y-92456085D02*
X202705619Y-92434314D01*
X202729810Y-92369000D01*
X202729810Y-92325457D01*
X202705619Y-92260142D01*
X202657238Y-92216600D01*
X202608857Y-92194828D01*
X202512095Y-92173057D01*
X202439524Y-92173057D01*
X202342762Y-92194828D01*
X202294381Y-92216600D01*
X202246000Y-92260142D01*
X202221810Y-92325457D01*
X202221810Y-92369000D01*
X202246000Y-92434314D01*
X202270190Y-92456085D01*
X202221810Y-92608485D02*
X202221810Y-92891514D01*
X202415333Y-92739114D01*
X202415333Y-92804428D01*
X202439524Y-92847971D01*
X202463714Y-92869742D01*
X202512095Y-92891514D01*
X202633048Y-92891514D01*
X202681429Y-92869742D01*
X202705619Y-92847971D01*
X202729810Y-92804428D01*
X202729810Y-92673800D01*
X202705619Y-92630257D01*
X202681429Y-92608485D01*
X202221810Y-93174543D02*
X202221810Y-93218086D01*
X202246000Y-93261629D01*
X202270190Y-93283400D01*
X202318571Y-93305171D01*
X202415333Y-93326943D01*
X202536286Y-93326943D01*
X202633048Y-93305171D01*
X202681429Y-93283400D01*
X202705619Y-93261629D01*
X202729810Y-93218086D01*
X202729810Y-93174543D01*
X202705619Y-93131000D01*
X202681429Y-93109229D01*
X202633048Y-93087457D01*
X202536286Y-93065686D01*
X202415333Y-93065686D01*
X202318571Y-93087457D01*
X202270190Y-93109229D01*
X202246000Y-93131000D01*
X202221810Y-93174543D01*
X239181429Y-135956085D02*
X239205619Y-135934314D01*
X239229810Y-135869000D01*
X239229810Y-135825457D01*
X239205619Y-135760142D01*
X239157238Y-135716600D01*
X239108857Y-135694828D01*
X239012095Y-135673057D01*
X238939524Y-135673057D01*
X238842762Y-135694828D01*
X238794381Y-135716600D01*
X238746000Y-135760142D01*
X238721810Y-135825457D01*
X238721810Y-135869000D01*
X238746000Y-135934314D01*
X238770190Y-135956085D01*
X238721810Y-136108485D02*
X238721810Y-136391514D01*
X238915333Y-136239114D01*
X238915333Y-136304428D01*
X238939524Y-136347971D01*
X238963714Y-136369742D01*
X239012095Y-136391514D01*
X239133048Y-136391514D01*
X239181429Y-136369742D01*
X239205619Y-136347971D01*
X239229810Y-136304428D01*
X239229810Y-136173800D01*
X239205619Y-136130257D01*
X239181429Y-136108485D01*
X239229810Y-136826943D02*
X239229810Y-136565686D01*
X239229810Y-136696314D02*
X238721810Y-136696314D01*
X238794381Y-136652771D01*
X238842762Y-136609229D01*
X238866952Y-136565686D01*
X206931429Y-129956085D02*
X206955619Y-129934314D01*
X206979810Y-129869000D01*
X206979810Y-129825457D01*
X206955619Y-129760142D01*
X206907238Y-129716600D01*
X206858857Y-129694828D01*
X206762095Y-129673057D01*
X206689524Y-129673057D01*
X206592762Y-129694828D01*
X206544381Y-129716600D01*
X206496000Y-129760142D01*
X206471810Y-129825457D01*
X206471810Y-129869000D01*
X206496000Y-129934314D01*
X206520190Y-129956085D01*
X206471810Y-130108485D02*
X206471810Y-130391514D01*
X206665333Y-130239114D01*
X206665333Y-130304428D01*
X206689524Y-130347971D01*
X206713714Y-130369742D01*
X206762095Y-130391514D01*
X206883048Y-130391514D01*
X206931429Y-130369742D01*
X206955619Y-130347971D01*
X206979810Y-130304428D01*
X206979810Y-130173800D01*
X206955619Y-130130257D01*
X206931429Y-130108485D01*
X206520190Y-130565686D02*
X206496000Y-130587457D01*
X206471810Y-130631000D01*
X206471810Y-130739857D01*
X206496000Y-130783400D01*
X206520190Y-130805171D01*
X206568571Y-130826943D01*
X206616952Y-130826943D01*
X206689524Y-130805171D01*
X206979810Y-130543914D01*
X206979810Y-130826943D01*
X219293915Y-104681429D02*
X219315686Y-104705619D01*
X219381000Y-104729810D01*
X219424543Y-104729810D01*
X219489858Y-104705619D01*
X219533400Y-104657238D01*
X219555172Y-104608857D01*
X219576943Y-104512095D01*
X219576943Y-104439524D01*
X219555172Y-104342762D01*
X219533400Y-104294381D01*
X219489858Y-104246000D01*
X219424543Y-104221810D01*
X219381000Y-104221810D01*
X219315686Y-104246000D01*
X219293915Y-104270190D01*
X219141515Y-104221810D02*
X218858486Y-104221810D01*
X219010886Y-104415333D01*
X218945572Y-104415333D01*
X218902029Y-104439524D01*
X218880258Y-104463714D01*
X218858486Y-104512095D01*
X218858486Y-104633048D01*
X218880258Y-104681429D01*
X218902029Y-104705619D01*
X218945572Y-104729810D01*
X219076200Y-104729810D01*
X219119743Y-104705619D01*
X219141515Y-104681429D01*
X218466600Y-104391143D02*
X218466600Y-104729810D01*
X218575457Y-104197619D02*
X218684314Y-104560476D01*
X218401286Y-104560476D01*
X239181429Y-131706085D02*
X239205619Y-131684314D01*
X239229810Y-131619000D01*
X239229810Y-131575457D01*
X239205619Y-131510142D01*
X239157238Y-131466600D01*
X239108857Y-131444828D01*
X239012095Y-131423057D01*
X238939524Y-131423057D01*
X238842762Y-131444828D01*
X238794381Y-131466600D01*
X238746000Y-131510142D01*
X238721810Y-131575457D01*
X238721810Y-131619000D01*
X238746000Y-131684314D01*
X238770190Y-131706085D01*
X238721810Y-131858485D02*
X238721810Y-132141514D01*
X238915333Y-131989114D01*
X238915333Y-132054428D01*
X238939524Y-132097971D01*
X238963714Y-132119742D01*
X239012095Y-132141514D01*
X239133048Y-132141514D01*
X239181429Y-132119742D01*
X239205619Y-132097971D01*
X239229810Y-132054428D01*
X239229810Y-131923800D01*
X239205619Y-131880257D01*
X239181429Y-131858485D01*
X238721810Y-132555171D02*
X238721810Y-132337457D01*
X238963714Y-132315686D01*
X238939524Y-132337457D01*
X238915333Y-132381000D01*
X238915333Y-132489857D01*
X238939524Y-132533400D01*
X238963714Y-132555171D01*
X239012095Y-132576943D01*
X239133048Y-132576943D01*
X239181429Y-132555171D01*
X239205619Y-132533400D01*
X239229810Y-132489857D01*
X239229810Y-132381000D01*
X239205619Y-132337457D01*
X239181429Y-132315686D01*
X219293915Y-103574429D02*
X219315686Y-103598619D01*
X219381000Y-103622810D01*
X219424543Y-103622810D01*
X219489858Y-103598619D01*
X219533400Y-103550238D01*
X219555172Y-103501857D01*
X219576943Y-103405095D01*
X219576943Y-103332524D01*
X219555172Y-103235762D01*
X219533400Y-103187381D01*
X219489858Y-103139000D01*
X219424543Y-103114810D01*
X219381000Y-103114810D01*
X219315686Y-103139000D01*
X219293915Y-103163190D01*
X219141515Y-103114810D02*
X218858486Y-103114810D01*
X219010886Y-103308333D01*
X218945572Y-103308333D01*
X218902029Y-103332524D01*
X218880258Y-103356714D01*
X218858486Y-103405095D01*
X218858486Y-103526048D01*
X218880258Y-103574429D01*
X218902029Y-103598619D01*
X218945572Y-103622810D01*
X219076200Y-103622810D01*
X219119743Y-103598619D01*
X219141515Y-103574429D01*
X218466600Y-103114810D02*
X218553686Y-103114810D01*
X218597229Y-103139000D01*
X218619000Y-103163190D01*
X218662543Y-103235762D01*
X218684314Y-103332524D01*
X218684314Y-103526048D01*
X218662543Y-103574429D01*
X218640771Y-103598619D01*
X218597229Y-103622810D01*
X218510143Y-103622810D01*
X218466600Y-103598619D01*
X218444829Y-103574429D01*
X218423057Y-103526048D01*
X218423057Y-103405095D01*
X218444829Y-103356714D01*
X218466600Y-103332524D01*
X218510143Y-103308333D01*
X218597229Y-103308333D01*
X218640771Y-103332524D01*
X218662543Y-103356714D01*
X218684314Y-103405095D01*
X206931429Y-128206085D02*
X206955619Y-128184314D01*
X206979810Y-128119000D01*
X206979810Y-128075457D01*
X206955619Y-128010142D01*
X206907238Y-127966600D01*
X206858857Y-127944828D01*
X206762095Y-127923057D01*
X206689524Y-127923057D01*
X206592762Y-127944828D01*
X206544381Y-127966600D01*
X206496000Y-128010142D01*
X206471810Y-128075457D01*
X206471810Y-128119000D01*
X206496000Y-128184314D01*
X206520190Y-128206085D01*
X206471810Y-128358485D02*
X206471810Y-128641514D01*
X206665333Y-128489114D01*
X206665333Y-128554428D01*
X206689524Y-128597971D01*
X206713714Y-128619742D01*
X206762095Y-128641514D01*
X206883048Y-128641514D01*
X206931429Y-128619742D01*
X206955619Y-128597971D01*
X206979810Y-128554428D01*
X206979810Y-128423800D01*
X206955619Y-128380257D01*
X206931429Y-128358485D01*
X206689524Y-128902771D02*
X206665333Y-128859229D01*
X206641143Y-128837457D01*
X206592762Y-128815686D01*
X206568571Y-128815686D01*
X206520190Y-128837457D01*
X206496000Y-128859229D01*
X206471810Y-128902771D01*
X206471810Y-128989857D01*
X206496000Y-129033400D01*
X206520190Y-129055171D01*
X206568571Y-129076943D01*
X206592762Y-129076943D01*
X206641143Y-129055171D01*
X206665333Y-129033400D01*
X206689524Y-128989857D01*
X206689524Y-128902771D01*
X206713714Y-128859229D01*
X206737905Y-128837457D01*
X206786286Y-128815686D01*
X206883048Y-128815686D01*
X206931429Y-128837457D01*
X206955619Y-128859229D01*
X206979810Y-128902771D01*
X206979810Y-128989857D01*
X206955619Y-129033400D01*
X206931429Y-129055171D01*
X206883048Y-129076943D01*
X206786286Y-129076943D01*
X206737905Y-129055171D01*
X206713714Y-129033400D01*
X206689524Y-128989857D01*
X215293915Y-145681429D02*
X215315686Y-145705619D01*
X215381000Y-145729810D01*
X215424543Y-145729810D01*
X215489858Y-145705619D01*
X215533400Y-145657238D01*
X215555172Y-145608857D01*
X215576943Y-145512095D01*
X215576943Y-145439524D01*
X215555172Y-145342762D01*
X215533400Y-145294381D01*
X215489858Y-145246000D01*
X215424543Y-145221810D01*
X215381000Y-145221810D01*
X215315686Y-145246000D01*
X215293915Y-145270190D01*
X214902029Y-145391143D02*
X214902029Y-145729810D01*
X215010886Y-145197619D02*
X215119743Y-145560476D01*
X214836715Y-145560476D01*
X214423057Y-145729810D02*
X214684314Y-145729810D01*
X214553686Y-145729810D02*
X214553686Y-145221810D01*
X214597229Y-145294381D01*
X214640771Y-145342762D01*
X214684314Y-145366952D01*
X227931429Y-107706085D02*
X227955619Y-107684314D01*
X227979810Y-107619000D01*
X227979810Y-107575457D01*
X227955619Y-107510142D01*
X227907238Y-107466600D01*
X227858857Y-107444828D01*
X227762095Y-107423057D01*
X227689524Y-107423057D01*
X227592762Y-107444828D01*
X227544381Y-107466600D01*
X227496000Y-107510142D01*
X227471810Y-107575457D01*
X227471810Y-107619000D01*
X227496000Y-107684314D01*
X227520190Y-107706085D01*
X227471810Y-108119742D02*
X227471810Y-107902028D01*
X227713714Y-107880257D01*
X227689524Y-107902028D01*
X227665333Y-107945571D01*
X227665333Y-108054428D01*
X227689524Y-108097971D01*
X227713714Y-108119742D01*
X227762095Y-108141514D01*
X227883048Y-108141514D01*
X227931429Y-108119742D01*
X227955619Y-108097971D01*
X227979810Y-108054428D01*
X227979810Y-107945571D01*
X227955619Y-107902028D01*
X227931429Y-107880257D01*
X227520190Y-108315686D02*
X227496000Y-108337457D01*
X227471810Y-108381000D01*
X227471810Y-108489857D01*
X227496000Y-108533400D01*
X227520190Y-108555171D01*
X227568571Y-108576943D01*
X227616952Y-108576943D01*
X227689524Y-108555171D01*
X227979810Y-108293914D01*
X227979810Y-108576943D01*
X239931429Y-124238371D02*
X239955619Y-124216600D01*
X239979810Y-124151286D01*
X239979810Y-124107743D01*
X239955619Y-124042428D01*
X239907238Y-123998886D01*
X239858857Y-123977114D01*
X239762095Y-123955343D01*
X239689524Y-123955343D01*
X239592762Y-123977114D01*
X239544381Y-123998886D01*
X239496000Y-124042428D01*
X239471810Y-124107743D01*
X239471810Y-124151286D01*
X239496000Y-124216600D01*
X239520190Y-124238371D01*
X239641143Y-124630257D02*
X239979810Y-124630257D01*
X239447619Y-124521400D02*
X239810476Y-124412543D01*
X239810476Y-124695571D01*
X239471810Y-124956829D02*
X239471810Y-125000372D01*
X239496000Y-125043915D01*
X239520190Y-125065686D01*
X239568571Y-125087457D01*
X239665333Y-125109229D01*
X239786286Y-125109229D01*
X239883048Y-125087457D01*
X239931429Y-125065686D01*
X239955619Y-125043915D01*
X239979810Y-125000372D01*
X239979810Y-124956829D01*
X239955619Y-124913286D01*
X239931429Y-124891515D01*
X239883048Y-124869743D01*
X239786286Y-124847972D01*
X239665333Y-124847972D01*
X239568571Y-124869743D01*
X239520190Y-124891515D01*
X239496000Y-124913286D01*
X239471810Y-124956829D01*
X239979810Y-125544658D02*
X239979810Y-125283401D01*
X239979810Y-125414029D02*
X239471810Y-125414029D01*
X239544381Y-125370486D01*
X239592762Y-125326944D01*
X239616952Y-125283401D01*
X216826200Y-145726362D02*
X216978600Y-145488086D01*
X217087457Y-145726362D02*
X217087457Y-145225982D01*
X216913285Y-145225982D01*
X216869743Y-145249810D01*
X216847971Y-145273638D01*
X216826200Y-145321293D01*
X216826200Y-145392776D01*
X216847971Y-145440431D01*
X216869743Y-145464259D01*
X216913285Y-145488086D01*
X217087457Y-145488086D01*
X216390771Y-145726362D02*
X216652028Y-145726362D01*
X216521400Y-145726362D02*
X216521400Y-145225982D01*
X216564943Y-145297465D01*
X216608485Y-145345120D01*
X216652028Y-145368948D01*
X213326200Y-145726362D02*
X213478600Y-145488086D01*
X213587457Y-145726362D02*
X213587457Y-145225982D01*
X213413285Y-145225982D01*
X213369743Y-145249810D01*
X213347971Y-145273638D01*
X213326200Y-145321293D01*
X213326200Y-145392776D01*
X213347971Y-145440431D01*
X213369743Y-145464259D01*
X213413285Y-145488086D01*
X213587457Y-145488086D01*
X213152028Y-145273638D02*
X213130257Y-145249810D01*
X213086714Y-145225982D01*
X212977857Y-145225982D01*
X212934314Y-145249810D01*
X212912543Y-145273638D01*
X212890771Y-145321293D01*
X212890771Y-145368948D01*
X212912543Y-145440431D01*
X213173800Y-145726362D01*
X212890771Y-145726362D01*
X206976362Y-137173800D02*
X206738086Y-137021400D01*
X206976362Y-136912543D02*
X206475982Y-136912543D01*
X206475982Y-137086715D01*
X206499810Y-137130257D01*
X206523638Y-137152029D01*
X206571293Y-137173800D01*
X206642776Y-137173800D01*
X206690431Y-137152029D01*
X206714259Y-137130257D01*
X206738086Y-137086715D01*
X206738086Y-136912543D01*
X206475982Y-137326200D02*
X206475982Y-137609229D01*
X206666603Y-137456829D01*
X206666603Y-137522143D01*
X206690431Y-137565686D01*
X206714259Y-137587457D01*
X206761914Y-137609229D01*
X206881052Y-137609229D01*
X206928707Y-137587457D01*
X206952535Y-137565686D01*
X206976362Y-137522143D01*
X206976362Y-137391515D01*
X206952535Y-137347972D01*
X206928707Y-137326200D01*
X206976362Y-133673800D02*
X206738086Y-133521400D01*
X206976362Y-133412543D02*
X206475982Y-133412543D01*
X206475982Y-133586715D01*
X206499810Y-133630257D01*
X206523638Y-133652029D01*
X206571293Y-133673800D01*
X206642776Y-133673800D01*
X206690431Y-133652029D01*
X206714259Y-133630257D01*
X206738086Y-133586715D01*
X206738086Y-133412543D01*
X206642776Y-134065686D02*
X206976362Y-134065686D01*
X206452155Y-133956829D02*
X206809569Y-133847972D01*
X206809569Y-134131000D01*
X234076200Y-140976362D02*
X234228600Y-140738086D01*
X234337457Y-140976362D02*
X234337457Y-140475982D01*
X234163285Y-140475982D01*
X234119743Y-140499810D01*
X234097971Y-140523638D01*
X234076200Y-140571293D01*
X234076200Y-140642776D01*
X234097971Y-140690431D01*
X234119743Y-140714259D01*
X234163285Y-140738086D01*
X234337457Y-140738086D01*
X233662543Y-140475982D02*
X233880257Y-140475982D01*
X233902028Y-140714259D01*
X233880257Y-140690431D01*
X233836714Y-140666603D01*
X233727857Y-140666603D01*
X233684314Y-140690431D01*
X233662543Y-140714259D01*
X233640771Y-140761914D01*
X233640771Y-140881052D01*
X233662543Y-140928707D01*
X233684314Y-140952535D01*
X233727857Y-140976362D01*
X233836714Y-140976362D01*
X233880257Y-140952535D01*
X233902028Y-140928707D01*
X206976362Y-131923800D02*
X206738086Y-131771400D01*
X206976362Y-131662543D02*
X206475982Y-131662543D01*
X206475982Y-131836715D01*
X206499810Y-131880257D01*
X206523638Y-131902029D01*
X206571293Y-131923800D01*
X206642776Y-131923800D01*
X206690431Y-131902029D01*
X206714259Y-131880257D01*
X206738086Y-131836715D01*
X206738086Y-131662543D01*
X206475982Y-132076200D02*
X206475982Y-132381000D01*
X206976362Y-132185057D01*
X235076200Y-89476362D02*
X235228600Y-89238086D01*
X235337457Y-89476362D02*
X235337457Y-88975982D01*
X235163285Y-88975982D01*
X235119743Y-88999810D01*
X235097971Y-89023638D01*
X235076200Y-89071293D01*
X235076200Y-89142776D01*
X235097971Y-89190431D01*
X235119743Y-89214259D01*
X235163285Y-89238086D01*
X235337457Y-89238086D01*
X234814943Y-89190431D02*
X234858485Y-89166603D01*
X234880257Y-89142776D01*
X234902028Y-89095120D01*
X234902028Y-89071293D01*
X234880257Y-89023638D01*
X234858485Y-88999810D01*
X234814943Y-88975982D01*
X234727857Y-88975982D01*
X234684314Y-88999810D01*
X234662543Y-89023638D01*
X234640771Y-89071293D01*
X234640771Y-89095120D01*
X234662543Y-89142776D01*
X234684314Y-89166603D01*
X234727857Y-89190431D01*
X234814943Y-89190431D01*
X234858485Y-89214259D01*
X234880257Y-89238086D01*
X234902028Y-89285741D01*
X234902028Y-89381052D01*
X234880257Y-89428707D01*
X234858485Y-89452535D01*
X234814943Y-89476362D01*
X234727857Y-89476362D01*
X234684314Y-89452535D01*
X234662543Y-89428707D01*
X234640771Y-89381052D01*
X234640771Y-89285741D01*
X234662543Y-89238086D01*
X234684314Y-89214259D01*
X234727857Y-89190431D01*
X233326200Y-89476362D02*
X233478600Y-89238086D01*
X233587457Y-89476362D02*
X233587457Y-88975982D01*
X233413285Y-88975982D01*
X233369743Y-88999810D01*
X233347971Y-89023638D01*
X233326200Y-89071293D01*
X233326200Y-89142776D01*
X233347971Y-89190431D01*
X233369743Y-89214259D01*
X233413285Y-89238086D01*
X233587457Y-89238086D01*
X233108485Y-89476362D02*
X233021400Y-89476362D01*
X232977857Y-89452535D01*
X232956085Y-89428707D01*
X232912543Y-89357224D01*
X232890771Y-89261914D01*
X232890771Y-89071293D01*
X232912543Y-89023638D01*
X232934314Y-88999810D01*
X232977857Y-88975982D01*
X233064943Y-88975982D01*
X233108485Y-88999810D01*
X233130257Y-89023638D01*
X233152028Y-89071293D01*
X233152028Y-89190431D01*
X233130257Y-89238086D01*
X233108485Y-89261914D01*
X233064943Y-89285741D01*
X232977857Y-89285741D01*
X232934314Y-89261914D01*
X232912543Y-89238086D01*
X232890771Y-89190431D01*
X228293915Y-89476362D02*
X228446315Y-89238086D01*
X228555172Y-89476362D02*
X228555172Y-88975982D01*
X228381000Y-88975982D01*
X228337458Y-88999810D01*
X228315686Y-89023638D01*
X228293915Y-89071293D01*
X228293915Y-89142776D01*
X228315686Y-89190431D01*
X228337458Y-89214259D01*
X228381000Y-89238086D01*
X228555172Y-89238086D01*
X227858486Y-89476362D02*
X228119743Y-89476362D01*
X227989115Y-89476362D02*
X227989115Y-88975982D01*
X228032658Y-89047465D01*
X228076200Y-89095120D01*
X228119743Y-89118948D01*
X227575457Y-88975982D02*
X227531914Y-88975982D01*
X227488371Y-88999810D01*
X227466600Y-89023638D01*
X227444829Y-89071293D01*
X227423057Y-89166603D01*
X227423057Y-89285741D01*
X227444829Y-89381052D01*
X227466600Y-89428707D01*
X227488371Y-89452535D01*
X227531914Y-89476362D01*
X227575457Y-89476362D01*
X227619000Y-89452535D01*
X227640771Y-89428707D01*
X227662543Y-89381052D01*
X227684314Y-89285741D01*
X227684314Y-89166603D01*
X227662543Y-89071293D01*
X227640771Y-89023638D01*
X227619000Y-88999810D01*
X227575457Y-88975982D01*
X230043915Y-89476362D02*
X230196315Y-89238086D01*
X230305172Y-89476362D02*
X230305172Y-88975982D01*
X230131000Y-88975982D01*
X230087458Y-88999810D01*
X230065686Y-89023638D01*
X230043915Y-89071293D01*
X230043915Y-89142776D01*
X230065686Y-89190431D01*
X230087458Y-89214259D01*
X230131000Y-89238086D01*
X230305172Y-89238086D01*
X229608486Y-89476362D02*
X229869743Y-89476362D01*
X229739115Y-89476362D02*
X229739115Y-88975982D01*
X229782658Y-89047465D01*
X229826200Y-89095120D01*
X229869743Y-89118948D01*
X229173057Y-89476362D02*
X229434314Y-89476362D01*
X229303686Y-89476362D02*
X229303686Y-88975982D01*
X229347229Y-89047465D01*
X229390771Y-89095120D01*
X229434314Y-89118948D01*
X231793915Y-89476362D02*
X231946315Y-89238086D01*
X232055172Y-89476362D02*
X232055172Y-88975982D01*
X231881000Y-88975982D01*
X231837458Y-88999810D01*
X231815686Y-89023638D01*
X231793915Y-89071293D01*
X231793915Y-89142776D01*
X231815686Y-89190431D01*
X231837458Y-89214259D01*
X231881000Y-89238086D01*
X232055172Y-89238086D01*
X231358486Y-89476362D02*
X231619743Y-89476362D01*
X231489115Y-89476362D02*
X231489115Y-88975982D01*
X231532658Y-89047465D01*
X231576200Y-89095120D01*
X231619743Y-89118948D01*
X231184314Y-89023638D02*
X231162543Y-88999810D01*
X231119000Y-88975982D01*
X231010143Y-88975982D01*
X230966600Y-88999810D01*
X230944829Y-89023638D01*
X230923057Y-89071293D01*
X230923057Y-89118948D01*
X230944829Y-89190431D01*
X231206086Y-89476362D01*
X230923057Y-89476362D01*
X237043915Y-89476362D02*
X237196315Y-89238086D01*
X237305172Y-89476362D02*
X237305172Y-88975982D01*
X237131000Y-88975982D01*
X237087458Y-88999810D01*
X237065686Y-89023638D01*
X237043915Y-89071293D01*
X237043915Y-89142776D01*
X237065686Y-89190431D01*
X237087458Y-89214259D01*
X237131000Y-89238086D01*
X237305172Y-89238086D01*
X236608486Y-89476362D02*
X236869743Y-89476362D01*
X236739115Y-89476362D02*
X236739115Y-88975982D01*
X236782658Y-89047465D01*
X236826200Y-89095120D01*
X236869743Y-89118948D01*
X236456086Y-88975982D02*
X236173057Y-88975982D01*
X236325457Y-89166603D01*
X236260143Y-89166603D01*
X236216600Y-89190431D01*
X236194829Y-89214259D01*
X236173057Y-89261914D01*
X236173057Y-89381052D01*
X236194829Y-89428707D01*
X236216600Y-89452535D01*
X236260143Y-89476362D01*
X236390771Y-89476362D01*
X236434314Y-89452535D01*
X236456086Y-89428707D01*
X228226362Y-116956085D02*
X227988086Y-116803685D01*
X228226362Y-116694828D02*
X227725982Y-116694828D01*
X227725982Y-116869000D01*
X227749810Y-116912542D01*
X227773638Y-116934314D01*
X227821293Y-116956085D01*
X227892776Y-116956085D01*
X227940431Y-116934314D01*
X227964259Y-116912542D01*
X227988086Y-116869000D01*
X227988086Y-116694828D01*
X228226362Y-117391514D02*
X228226362Y-117130257D01*
X228226362Y-117260885D02*
X227725982Y-117260885D01*
X227797465Y-117217342D01*
X227845120Y-117173800D01*
X227868948Y-117130257D01*
X227725982Y-117543914D02*
X227725982Y-117848714D01*
X228226362Y-117652771D01*
X229543915Y-119726362D02*
X229696315Y-119488086D01*
X229805172Y-119726362D02*
X229805172Y-119225982D01*
X229631000Y-119225982D01*
X229587458Y-119249810D01*
X229565686Y-119273638D01*
X229543915Y-119321293D01*
X229543915Y-119392776D01*
X229565686Y-119440431D01*
X229587458Y-119464259D01*
X229631000Y-119488086D01*
X229805172Y-119488086D01*
X229108486Y-119726362D02*
X229369743Y-119726362D01*
X229239115Y-119726362D02*
X229239115Y-119225982D01*
X229282658Y-119297465D01*
X229326200Y-119345120D01*
X229369743Y-119368948D01*
X228890771Y-119726362D02*
X228803686Y-119726362D01*
X228760143Y-119702535D01*
X228738371Y-119678707D01*
X228694829Y-119607224D01*
X228673057Y-119511914D01*
X228673057Y-119321293D01*
X228694829Y-119273638D01*
X228716600Y-119249810D01*
X228760143Y-119225982D01*
X228847229Y-119225982D01*
X228890771Y-119249810D01*
X228912543Y-119273638D01*
X228934314Y-119321293D01*
X228934314Y-119440431D01*
X228912543Y-119488086D01*
X228890771Y-119511914D01*
X228847229Y-119535741D01*
X228760143Y-119535741D01*
X228716600Y-119511914D01*
X228694829Y-119488086D01*
X228673057Y-119440431D01*
X223769915Y-119841362D02*
X223922315Y-119603086D01*
X224031172Y-119841362D02*
X224031172Y-119340982D01*
X223857000Y-119340982D01*
X223813458Y-119364810D01*
X223791686Y-119388638D01*
X223769915Y-119436293D01*
X223769915Y-119507776D01*
X223791686Y-119555431D01*
X223813458Y-119579259D01*
X223857000Y-119603086D01*
X224031172Y-119603086D01*
X223595743Y-119388638D02*
X223573972Y-119364810D01*
X223530429Y-119340982D01*
X223421572Y-119340982D01*
X223378029Y-119364810D01*
X223356258Y-119388638D01*
X223334486Y-119436293D01*
X223334486Y-119483948D01*
X223356258Y-119555431D01*
X223617515Y-119841362D01*
X223334486Y-119841362D01*
X222899057Y-119841362D02*
X223160314Y-119841362D01*
X223029686Y-119841362D02*
X223029686Y-119340982D01*
X223073229Y-119412465D01*
X223116771Y-119460120D01*
X223160314Y-119483948D01*
X206976362Y-108956085D02*
X206738086Y-108803685D01*
X206976362Y-108694828D02*
X206475982Y-108694828D01*
X206475982Y-108869000D01*
X206499810Y-108912542D01*
X206523638Y-108934314D01*
X206571293Y-108956085D01*
X206642776Y-108956085D01*
X206690431Y-108934314D01*
X206714259Y-108912542D01*
X206738086Y-108869000D01*
X206738086Y-108694828D01*
X206523638Y-109130257D02*
X206499810Y-109152028D01*
X206475982Y-109195571D01*
X206475982Y-109304428D01*
X206499810Y-109347971D01*
X206523638Y-109369742D01*
X206571293Y-109391514D01*
X206618948Y-109391514D01*
X206690431Y-109369742D01*
X206976362Y-109108485D01*
X206976362Y-109391514D01*
X206475982Y-109543914D02*
X206475982Y-109826943D01*
X206666603Y-109674543D01*
X206666603Y-109739857D01*
X206690431Y-109783400D01*
X206714259Y-109805171D01*
X206761914Y-109826943D01*
X206881052Y-109826943D01*
X206928707Y-109805171D01*
X206952535Y-109783400D01*
X206976362Y-109739857D01*
X206976362Y-109609229D01*
X206952535Y-109565686D01*
X206928707Y-109543914D01*
X213226362Y-108956085D02*
X212988086Y-108803685D01*
X213226362Y-108694828D02*
X212725982Y-108694828D01*
X212725982Y-108869000D01*
X212749810Y-108912542D01*
X212773638Y-108934314D01*
X212821293Y-108956085D01*
X212892776Y-108956085D01*
X212940431Y-108934314D01*
X212964259Y-108912542D01*
X212988086Y-108869000D01*
X212988086Y-108694828D01*
X212773638Y-109130257D02*
X212749810Y-109152028D01*
X212725982Y-109195571D01*
X212725982Y-109304428D01*
X212749810Y-109347971D01*
X212773638Y-109369742D01*
X212821293Y-109391514D01*
X212868948Y-109391514D01*
X212940431Y-109369742D01*
X213226362Y-109108485D01*
X213226362Y-109391514D01*
X212892776Y-109783400D02*
X213226362Y-109783400D01*
X212702155Y-109674543D02*
X213059569Y-109565686D01*
X213059569Y-109848714D01*
X211043915Y-118226362D02*
X211196315Y-117988086D01*
X211305172Y-118226362D02*
X211305172Y-117725982D01*
X211131000Y-117725982D01*
X211087458Y-117749810D01*
X211065686Y-117773638D01*
X211043915Y-117821293D01*
X211043915Y-117892776D01*
X211065686Y-117940431D01*
X211087458Y-117964259D01*
X211131000Y-117988086D01*
X211305172Y-117988086D01*
X210869743Y-117773638D02*
X210847972Y-117749810D01*
X210804429Y-117725982D01*
X210695572Y-117725982D01*
X210652029Y-117749810D01*
X210630258Y-117773638D01*
X210608486Y-117821293D01*
X210608486Y-117868948D01*
X210630258Y-117940431D01*
X210891515Y-118226362D01*
X210608486Y-118226362D01*
X210194829Y-117725982D02*
X210412543Y-117725982D01*
X210434314Y-117964259D01*
X210412543Y-117940431D01*
X210369000Y-117916603D01*
X210260143Y-117916603D01*
X210216600Y-117940431D01*
X210194829Y-117964259D01*
X210173057Y-118011914D01*
X210173057Y-118131052D01*
X210194829Y-118178707D01*
X210216600Y-118202535D01*
X210260143Y-118226362D01*
X210369000Y-118226362D01*
X210412543Y-118202535D01*
X210434314Y-118178707D01*
X206476362Y-102706085D02*
X206238086Y-102553685D01*
X206476362Y-102444828D02*
X205975982Y-102444828D01*
X205975982Y-102619000D01*
X205999810Y-102662542D01*
X206023638Y-102684314D01*
X206071293Y-102706085D01*
X206142776Y-102706085D01*
X206190431Y-102684314D01*
X206214259Y-102662542D01*
X206238086Y-102619000D01*
X206238086Y-102444828D01*
X206023638Y-102880257D02*
X205999810Y-102902028D01*
X205975982Y-102945571D01*
X205975982Y-103054428D01*
X205999810Y-103097971D01*
X206023638Y-103119742D01*
X206071293Y-103141514D01*
X206118948Y-103141514D01*
X206190431Y-103119742D01*
X206476362Y-102858485D01*
X206476362Y-103141514D01*
X205975982Y-103533400D02*
X205975982Y-103446314D01*
X205999810Y-103402771D01*
X206023638Y-103381000D01*
X206095120Y-103337457D01*
X206190431Y-103315686D01*
X206381052Y-103315686D01*
X206428707Y-103337457D01*
X206452535Y-103359229D01*
X206476362Y-103402771D01*
X206476362Y-103489857D01*
X206452535Y-103533400D01*
X206428707Y-103555171D01*
X206381052Y-103576943D01*
X206261914Y-103576943D01*
X206214259Y-103555171D01*
X206190431Y-103533400D01*
X206166603Y-103489857D01*
X206166603Y-103402771D01*
X206190431Y-103359229D01*
X206214259Y-103337457D01*
X206261914Y-103315686D01*
X206476362Y-116706085D02*
X206238086Y-116553685D01*
X206476362Y-116444828D02*
X205975982Y-116444828D01*
X205975982Y-116619000D01*
X205999810Y-116662542D01*
X206023638Y-116684314D01*
X206071293Y-116706085D01*
X206142776Y-116706085D01*
X206190431Y-116684314D01*
X206214259Y-116662542D01*
X206238086Y-116619000D01*
X206238086Y-116444828D01*
X206023638Y-116880257D02*
X205999810Y-116902028D01*
X205975982Y-116945571D01*
X205975982Y-117054428D01*
X205999810Y-117097971D01*
X206023638Y-117119742D01*
X206071293Y-117141514D01*
X206118948Y-117141514D01*
X206190431Y-117119742D01*
X206476362Y-116858485D01*
X206476362Y-117141514D01*
X206190431Y-117402771D02*
X206166603Y-117359229D01*
X206142776Y-117337457D01*
X206095120Y-117315686D01*
X206071293Y-117315686D01*
X206023638Y-117337457D01*
X205999810Y-117359229D01*
X205975982Y-117402771D01*
X205975982Y-117489857D01*
X205999810Y-117533400D01*
X206023638Y-117555171D01*
X206071293Y-117576943D01*
X206095120Y-117576943D01*
X206142776Y-117555171D01*
X206166603Y-117533400D01*
X206190431Y-117489857D01*
X206190431Y-117402771D01*
X206214259Y-117359229D01*
X206238086Y-117337457D01*
X206285741Y-117315686D01*
X206381052Y-117315686D01*
X206428707Y-117337457D01*
X206452535Y-117359229D01*
X206476362Y-117402771D01*
X206476362Y-117489857D01*
X206452535Y-117533400D01*
X206428707Y-117555171D01*
X206381052Y-117576943D01*
X206285741Y-117576943D01*
X206238086Y-117555171D01*
X206214259Y-117533400D01*
X206190431Y-117489857D01*
X191476362Y-117456085D02*
X191238086Y-117303685D01*
X191476362Y-117194828D02*
X190975982Y-117194828D01*
X190975982Y-117369000D01*
X190999810Y-117412542D01*
X191023638Y-117434314D01*
X191071293Y-117456085D01*
X191142776Y-117456085D01*
X191190431Y-117434314D01*
X191214259Y-117412542D01*
X191238086Y-117369000D01*
X191238086Y-117194828D01*
X191023638Y-117630257D02*
X190999810Y-117652028D01*
X190975982Y-117695571D01*
X190975982Y-117804428D01*
X190999810Y-117847971D01*
X191023638Y-117869742D01*
X191071293Y-117891514D01*
X191118948Y-117891514D01*
X191190431Y-117869742D01*
X191476362Y-117608485D01*
X191476362Y-117891514D01*
X191476362Y-118109229D02*
X191476362Y-118196314D01*
X191452535Y-118239857D01*
X191428707Y-118261629D01*
X191357224Y-118305171D01*
X191261914Y-118326943D01*
X191071293Y-118326943D01*
X191023638Y-118305171D01*
X190999810Y-118283400D01*
X190975982Y-118239857D01*
X190975982Y-118152771D01*
X190999810Y-118109229D01*
X191023638Y-118087457D01*
X191071293Y-118065686D01*
X191190431Y-118065686D01*
X191238086Y-118087457D01*
X191261914Y-118109229D01*
X191285741Y-118152771D01*
X191285741Y-118239857D01*
X191261914Y-118283400D01*
X191238086Y-118305171D01*
X191190431Y-118326943D01*
X191476362Y-115206085D02*
X191238086Y-115053685D01*
X191476362Y-114944828D02*
X190975982Y-114944828D01*
X190975982Y-115119000D01*
X190999810Y-115162542D01*
X191023638Y-115184314D01*
X191071293Y-115206085D01*
X191142776Y-115206085D01*
X191190431Y-115184314D01*
X191214259Y-115162542D01*
X191238086Y-115119000D01*
X191238086Y-114944828D01*
X190975982Y-115358485D02*
X190975982Y-115641514D01*
X191166603Y-115489114D01*
X191166603Y-115554428D01*
X191190431Y-115597971D01*
X191214259Y-115619742D01*
X191261914Y-115641514D01*
X191381052Y-115641514D01*
X191428707Y-115619742D01*
X191452535Y-115597971D01*
X191476362Y-115554428D01*
X191476362Y-115423800D01*
X191452535Y-115380257D01*
X191428707Y-115358485D01*
X190975982Y-115924543D02*
X190975982Y-115968086D01*
X190999810Y-116011629D01*
X191023638Y-116033400D01*
X191071293Y-116055171D01*
X191166603Y-116076943D01*
X191285741Y-116076943D01*
X191381052Y-116055171D01*
X191428707Y-116033400D01*
X191452535Y-116011629D01*
X191476362Y-115968086D01*
X191476362Y-115924543D01*
X191452535Y-115881000D01*
X191428707Y-115859229D01*
X191381052Y-115837457D01*
X191285741Y-115815686D01*
X191166603Y-115815686D01*
X191071293Y-115837457D01*
X191023638Y-115859229D01*
X190999810Y-115881000D01*
X190975982Y-115924543D01*
X204567915Y-119861362D02*
X204720315Y-119623086D01*
X204829172Y-119861362D02*
X204829172Y-119360982D01*
X204655000Y-119360982D01*
X204611458Y-119384810D01*
X204589686Y-119408638D01*
X204567915Y-119456293D01*
X204567915Y-119527776D01*
X204589686Y-119575431D01*
X204611458Y-119599259D01*
X204655000Y-119623086D01*
X204829172Y-119623086D01*
X204415515Y-119360982D02*
X204132486Y-119360982D01*
X204284886Y-119551603D01*
X204219572Y-119551603D01*
X204176029Y-119575431D01*
X204154258Y-119599259D01*
X204132486Y-119646914D01*
X204132486Y-119766052D01*
X204154258Y-119813707D01*
X204176029Y-119837535D01*
X204219572Y-119861362D01*
X204350200Y-119861362D01*
X204393743Y-119837535D01*
X204415515Y-119813707D01*
X203958314Y-119408638D02*
X203936543Y-119384810D01*
X203893000Y-119360982D01*
X203784143Y-119360982D01*
X203740600Y-119384810D01*
X203718829Y-119408638D01*
X203697057Y-119456293D01*
X203697057Y-119503948D01*
X203718829Y-119575431D01*
X203980086Y-119861362D01*
X203697057Y-119861362D01*
X211091362Y-136980085D02*
X210853086Y-136827685D01*
X211091362Y-136718828D02*
X210590982Y-136718828D01*
X210590982Y-136893000D01*
X210614810Y-136936542D01*
X210638638Y-136958314D01*
X210686293Y-136980085D01*
X210757776Y-136980085D01*
X210805431Y-136958314D01*
X210829259Y-136936542D01*
X210853086Y-136893000D01*
X210853086Y-136718828D01*
X210590982Y-137132485D02*
X210590982Y-137415514D01*
X210781603Y-137263114D01*
X210781603Y-137328428D01*
X210805431Y-137371971D01*
X210829259Y-137393742D01*
X210876914Y-137415514D01*
X210996052Y-137415514D01*
X211043707Y-137393742D01*
X211067535Y-137371971D01*
X211091362Y-137328428D01*
X211091362Y-137197800D01*
X211067535Y-137154257D01*
X211043707Y-137132485D01*
X210590982Y-137567914D02*
X210590982Y-137850943D01*
X210781603Y-137698543D01*
X210781603Y-137763857D01*
X210805431Y-137807400D01*
X210829259Y-137829171D01*
X210876914Y-137850943D01*
X210996052Y-137850943D01*
X211043707Y-137829171D01*
X211067535Y-137807400D01*
X211091362Y-137763857D01*
X211091362Y-137633229D01*
X211067535Y-137589686D01*
X211043707Y-137567914D01*
X206476362Y-104706085D02*
X206238086Y-104553685D01*
X206476362Y-104444828D02*
X205975982Y-104444828D01*
X205975982Y-104619000D01*
X205999810Y-104662542D01*
X206023638Y-104684314D01*
X206071293Y-104706085D01*
X206142776Y-104706085D01*
X206190431Y-104684314D01*
X206214259Y-104662542D01*
X206238086Y-104619000D01*
X206238086Y-104444828D01*
X205975982Y-104858485D02*
X205975982Y-105141514D01*
X206166603Y-104989114D01*
X206166603Y-105054428D01*
X206190431Y-105097971D01*
X206214259Y-105119742D01*
X206261914Y-105141514D01*
X206381052Y-105141514D01*
X206428707Y-105119742D01*
X206452535Y-105097971D01*
X206476362Y-105054428D01*
X206476362Y-104923800D01*
X206452535Y-104880257D01*
X206428707Y-104858485D01*
X206142776Y-105533400D02*
X206476362Y-105533400D01*
X205952155Y-105424543D02*
X206309569Y-105315686D01*
X206309569Y-105598714D01*
X191591362Y-108980085D02*
X191353086Y-108827685D01*
X191591362Y-108718828D02*
X191090982Y-108718828D01*
X191090982Y-108893000D01*
X191114810Y-108936542D01*
X191138638Y-108958314D01*
X191186293Y-108980085D01*
X191257776Y-108980085D01*
X191305431Y-108958314D01*
X191329259Y-108936542D01*
X191353086Y-108893000D01*
X191353086Y-108718828D01*
X191090982Y-109132485D02*
X191090982Y-109415514D01*
X191281603Y-109263114D01*
X191281603Y-109328428D01*
X191305431Y-109371971D01*
X191329259Y-109393742D01*
X191376914Y-109415514D01*
X191496052Y-109415514D01*
X191543707Y-109393742D01*
X191567535Y-109371971D01*
X191591362Y-109328428D01*
X191591362Y-109197800D01*
X191567535Y-109154257D01*
X191543707Y-109132485D01*
X191090982Y-109829171D02*
X191090982Y-109611457D01*
X191329259Y-109589686D01*
X191305431Y-109611457D01*
X191281603Y-109655000D01*
X191281603Y-109763857D01*
X191305431Y-109807400D01*
X191329259Y-109829171D01*
X191376914Y-109850943D01*
X191496052Y-109850943D01*
X191543707Y-109829171D01*
X191567535Y-109807400D01*
X191591362Y-109763857D01*
X191591362Y-109655000D01*
X191567535Y-109611457D01*
X191543707Y-109589686D01*
X191476362Y-106956085D02*
X191238086Y-106803685D01*
X191476362Y-106694828D02*
X190975982Y-106694828D01*
X190975982Y-106869000D01*
X190999810Y-106912542D01*
X191023638Y-106934314D01*
X191071293Y-106956085D01*
X191142776Y-106956085D01*
X191190431Y-106934314D01*
X191214259Y-106912542D01*
X191238086Y-106869000D01*
X191238086Y-106694828D01*
X190975982Y-107108485D02*
X190975982Y-107391514D01*
X191166603Y-107239114D01*
X191166603Y-107304428D01*
X191190431Y-107347971D01*
X191214259Y-107369742D01*
X191261914Y-107391514D01*
X191381052Y-107391514D01*
X191428707Y-107369742D01*
X191452535Y-107347971D01*
X191476362Y-107304428D01*
X191476362Y-107173800D01*
X191452535Y-107130257D01*
X191428707Y-107108485D01*
X190975982Y-107783400D02*
X190975982Y-107696314D01*
X190999810Y-107652771D01*
X191023638Y-107631000D01*
X191095120Y-107587457D01*
X191190431Y-107565686D01*
X191381052Y-107565686D01*
X191428707Y-107587457D01*
X191452535Y-107609229D01*
X191476362Y-107652771D01*
X191476362Y-107739857D01*
X191452535Y-107783400D01*
X191428707Y-107805171D01*
X191381052Y-107826943D01*
X191261914Y-107826943D01*
X191214259Y-107805171D01*
X191190431Y-107783400D01*
X191166603Y-107739857D01*
X191166603Y-107652771D01*
X191190431Y-107609229D01*
X191214259Y-107587457D01*
X191261914Y-107565686D01*
X206476362Y-92456085D02*
X206238086Y-92303685D01*
X206476362Y-92194828D02*
X205975982Y-92194828D01*
X205975982Y-92369000D01*
X205999810Y-92412542D01*
X206023638Y-92434314D01*
X206071293Y-92456085D01*
X206142776Y-92456085D01*
X206190431Y-92434314D01*
X206214259Y-92412542D01*
X206238086Y-92369000D01*
X206238086Y-92194828D01*
X206142776Y-92847971D02*
X206476362Y-92847971D01*
X205952155Y-92739114D02*
X206309569Y-92630257D01*
X206309569Y-92913285D01*
X206023638Y-93065686D02*
X205999810Y-93087457D01*
X205975982Y-93131000D01*
X205975982Y-93239857D01*
X205999810Y-93283400D01*
X206023638Y-93305171D01*
X206071293Y-93326943D01*
X206118948Y-93326943D01*
X206190431Y-93305171D01*
X206476362Y-93043914D01*
X206476362Y-93326943D01*
X191591362Y-90980085D02*
X191353086Y-90827685D01*
X191591362Y-90718828D02*
X191090982Y-90718828D01*
X191090982Y-90893000D01*
X191114810Y-90936542D01*
X191138638Y-90958314D01*
X191186293Y-90980085D01*
X191257776Y-90980085D01*
X191305431Y-90958314D01*
X191329259Y-90936542D01*
X191353086Y-90893000D01*
X191353086Y-90718828D01*
X191257776Y-91371971D02*
X191591362Y-91371971D01*
X191067155Y-91263114D02*
X191424569Y-91154257D01*
X191424569Y-91437285D01*
X191090982Y-91567914D02*
X191090982Y-91850943D01*
X191281603Y-91698543D01*
X191281603Y-91763857D01*
X191305431Y-91807400D01*
X191329259Y-91829171D01*
X191376914Y-91850943D01*
X191496052Y-91850943D01*
X191543707Y-91829171D01*
X191567535Y-91807400D01*
X191591362Y-91763857D01*
X191591362Y-91633229D01*
X191567535Y-91589686D01*
X191543707Y-91567914D01*
X191476362Y-88956085D02*
X191238086Y-88803685D01*
X191476362Y-88694828D02*
X190975982Y-88694828D01*
X190975982Y-88869000D01*
X190999810Y-88912542D01*
X191023638Y-88934314D01*
X191071293Y-88956085D01*
X191142776Y-88956085D01*
X191190431Y-88934314D01*
X191214259Y-88912542D01*
X191238086Y-88869000D01*
X191238086Y-88694828D01*
X191142776Y-89347971D02*
X191476362Y-89347971D01*
X190952155Y-89239114D02*
X191309569Y-89130257D01*
X191309569Y-89413285D01*
X190975982Y-89783400D02*
X190975982Y-89696314D01*
X190999810Y-89652771D01*
X191023638Y-89631000D01*
X191095120Y-89587457D01*
X191190431Y-89565686D01*
X191381052Y-89565686D01*
X191428707Y-89587457D01*
X191452535Y-89609229D01*
X191476362Y-89652771D01*
X191476362Y-89739857D01*
X191452535Y-89783400D01*
X191428707Y-89805171D01*
X191381052Y-89826943D01*
X191261914Y-89826943D01*
X191214259Y-89805171D01*
X191190431Y-89783400D01*
X191166603Y-89739857D01*
X191166603Y-89652771D01*
X191190431Y-89609229D01*
X191214259Y-89587457D01*
X191261914Y-89565686D01*
X216067915Y-88361362D02*
X216220315Y-88123086D01*
X216329172Y-88361362D02*
X216329172Y-87860982D01*
X216155000Y-87860982D01*
X216111458Y-87884810D01*
X216089686Y-87908638D01*
X216067915Y-87956293D01*
X216067915Y-88027776D01*
X216089686Y-88075431D01*
X216111458Y-88099259D01*
X216155000Y-88123086D01*
X216329172Y-88123086D01*
X215676029Y-88027776D02*
X215676029Y-88361362D01*
X215784886Y-87837155D02*
X215893743Y-88194569D01*
X215610715Y-88194569D01*
X215371229Y-88075431D02*
X215414771Y-88051603D01*
X215436543Y-88027776D01*
X215458314Y-87980120D01*
X215458314Y-87956293D01*
X215436543Y-87908638D01*
X215414771Y-87884810D01*
X215371229Y-87860982D01*
X215284143Y-87860982D01*
X215240600Y-87884810D01*
X215218829Y-87908638D01*
X215197057Y-87956293D01*
X215197057Y-87980120D01*
X215218829Y-88027776D01*
X215240600Y-88051603D01*
X215284143Y-88075431D01*
X215371229Y-88075431D01*
X215414771Y-88099259D01*
X215436543Y-88123086D01*
X215458314Y-88170741D01*
X215458314Y-88266052D01*
X215436543Y-88313707D01*
X215414771Y-88337535D01*
X215371229Y-88361362D01*
X215284143Y-88361362D01*
X215240600Y-88337535D01*
X215218829Y-88313707D01*
X215197057Y-88266052D01*
X215197057Y-88170741D01*
X215218829Y-88123086D01*
X215240600Y-88099259D01*
X215284143Y-88075431D01*
X222567915Y-88261362D02*
X222720315Y-88023086D01*
X222829172Y-88261362D02*
X222829172Y-87760982D01*
X222655000Y-87760982D01*
X222611458Y-87784810D01*
X222589686Y-87808638D01*
X222567915Y-87856293D01*
X222567915Y-87927776D01*
X222589686Y-87975431D01*
X222611458Y-87999259D01*
X222655000Y-88023086D01*
X222829172Y-88023086D01*
X222176029Y-87927776D02*
X222176029Y-88261362D01*
X222284886Y-87737155D02*
X222393743Y-88094569D01*
X222110715Y-88094569D01*
X221914771Y-88261362D02*
X221827686Y-88261362D01*
X221784143Y-88237535D01*
X221762371Y-88213707D01*
X221718829Y-88142224D01*
X221697057Y-88046914D01*
X221697057Y-87856293D01*
X221718829Y-87808638D01*
X221740600Y-87784810D01*
X221784143Y-87760982D01*
X221871229Y-87760982D01*
X221914771Y-87784810D01*
X221936543Y-87808638D01*
X221958314Y-87856293D01*
X221958314Y-87975431D01*
X221936543Y-88023086D01*
X221914771Y-88046914D01*
X221871229Y-88070741D01*
X221784143Y-88070741D01*
X221740600Y-88046914D01*
X221718829Y-88023086D01*
X221697057Y-87975431D01*
X216067915Y-103611362D02*
X216220315Y-103373086D01*
X216329172Y-103611362D02*
X216329172Y-103110982D01*
X216155000Y-103110982D01*
X216111458Y-103134810D01*
X216089686Y-103158638D01*
X216067915Y-103206293D01*
X216067915Y-103277776D01*
X216089686Y-103325431D01*
X216111458Y-103349259D01*
X216155000Y-103373086D01*
X216329172Y-103373086D01*
X215654258Y-103110982D02*
X215871972Y-103110982D01*
X215893743Y-103349259D01*
X215871972Y-103325431D01*
X215828429Y-103301603D01*
X215719572Y-103301603D01*
X215676029Y-103325431D01*
X215654258Y-103349259D01*
X215632486Y-103396914D01*
X215632486Y-103516052D01*
X215654258Y-103563707D01*
X215676029Y-103587535D01*
X215719572Y-103611362D01*
X215828429Y-103611362D01*
X215871972Y-103587535D01*
X215893743Y-103563707D01*
X215349457Y-103110982D02*
X215305914Y-103110982D01*
X215262371Y-103134810D01*
X215240600Y-103158638D01*
X215218829Y-103206293D01*
X215197057Y-103301603D01*
X215197057Y-103420741D01*
X215218829Y-103516052D01*
X215240600Y-103563707D01*
X215262371Y-103587535D01*
X215305914Y-103611362D01*
X215349457Y-103611362D01*
X215393000Y-103587535D01*
X215414771Y-103563707D01*
X215436543Y-103516052D01*
X215458314Y-103420741D01*
X215458314Y-103301603D01*
X215436543Y-103206293D01*
X215414771Y-103158638D01*
X215393000Y-103134810D01*
X215349457Y-103110982D01*
X222567915Y-103611362D02*
X222720315Y-103373086D01*
X222829172Y-103611362D02*
X222829172Y-103110982D01*
X222655000Y-103110982D01*
X222611458Y-103134810D01*
X222589686Y-103158638D01*
X222567915Y-103206293D01*
X222567915Y-103277776D01*
X222589686Y-103325431D01*
X222611458Y-103349259D01*
X222655000Y-103373086D01*
X222829172Y-103373086D01*
X222154258Y-103110982D02*
X222371972Y-103110982D01*
X222393743Y-103349259D01*
X222371972Y-103325431D01*
X222328429Y-103301603D01*
X222219572Y-103301603D01*
X222176029Y-103325431D01*
X222154258Y-103349259D01*
X222132486Y-103396914D01*
X222132486Y-103516052D01*
X222154258Y-103563707D01*
X222176029Y-103587535D01*
X222219572Y-103611362D01*
X222328429Y-103611362D01*
X222371972Y-103587535D01*
X222393743Y-103563707D01*
X221697057Y-103611362D02*
X221958314Y-103611362D01*
X221827686Y-103611362D02*
X221827686Y-103110982D01*
X221871229Y-103182465D01*
X221914771Y-103230120D01*
X221958314Y-103253948D01*
X239976362Y-122238371D02*
X239738086Y-122085971D01*
X239976362Y-121977114D02*
X239475982Y-121977114D01*
X239475982Y-122151286D01*
X239499810Y-122194828D01*
X239523638Y-122216600D01*
X239571293Y-122238371D01*
X239642776Y-122238371D01*
X239690431Y-122216600D01*
X239714259Y-122194828D01*
X239738086Y-122151286D01*
X239738086Y-121977114D01*
X239642776Y-122630257D02*
X239976362Y-122630257D01*
X239452155Y-122521400D02*
X239809569Y-122412543D01*
X239809569Y-122695571D01*
X239475982Y-122956829D02*
X239475982Y-123000372D01*
X239499810Y-123043915D01*
X239523638Y-123065686D01*
X239571293Y-123087457D01*
X239666603Y-123109229D01*
X239785741Y-123109229D01*
X239881052Y-123087457D01*
X239928707Y-123065686D01*
X239952535Y-123043915D01*
X239976362Y-123000372D01*
X239976362Y-122956829D01*
X239952535Y-122913286D01*
X239928707Y-122891515D01*
X239881052Y-122869743D01*
X239785741Y-122847972D01*
X239666603Y-122847972D01*
X239571293Y-122869743D01*
X239523638Y-122891515D01*
X239499810Y-122913286D01*
X239475982Y-122956829D01*
X239976362Y-123544658D02*
X239976362Y-123283401D01*
X239976362Y-123414029D02*
X239475982Y-123414029D01*
X239547465Y-123370486D01*
X239595120Y-123326944D01*
X239618948Y-123283401D01*
X239976362Y-120238371D02*
X239738086Y-120085971D01*
X239976362Y-119977114D02*
X239475982Y-119977114D01*
X239475982Y-120151286D01*
X239499810Y-120194828D01*
X239523638Y-120216600D01*
X239571293Y-120238371D01*
X239642776Y-120238371D01*
X239690431Y-120216600D01*
X239714259Y-120194828D01*
X239738086Y-120151286D01*
X239738086Y-119977114D01*
X239642776Y-120630257D02*
X239976362Y-120630257D01*
X239452155Y-120521400D02*
X239809569Y-120412543D01*
X239809569Y-120695571D01*
X239475982Y-120956829D02*
X239475982Y-121000372D01*
X239499810Y-121043915D01*
X239523638Y-121065686D01*
X239571293Y-121087457D01*
X239666603Y-121109229D01*
X239785741Y-121109229D01*
X239881052Y-121087457D01*
X239928707Y-121065686D01*
X239952535Y-121043915D01*
X239976362Y-121000372D01*
X239976362Y-120956829D01*
X239952535Y-120913286D01*
X239928707Y-120891515D01*
X239881052Y-120869743D01*
X239785741Y-120847972D01*
X239666603Y-120847972D01*
X239571293Y-120869743D01*
X239523638Y-120891515D01*
X239499810Y-120913286D01*
X239475982Y-120956829D01*
X239523638Y-121283401D02*
X239499810Y-121305172D01*
X239475982Y-121348715D01*
X239475982Y-121457572D01*
X239499810Y-121501115D01*
X239523638Y-121522886D01*
X239571293Y-121544658D01*
X239618948Y-121544658D01*
X239690431Y-121522886D01*
X239976362Y-121261629D01*
X239976362Y-121544658D01*
D17*
X205689857Y-139672143D02*
X205726143Y-139708429D01*
X205835000Y-139744714D01*
X205907571Y-139744714D01*
X206016428Y-139708429D01*
X206089000Y-139635857D01*
X206125285Y-139563286D01*
X206161571Y-139418143D01*
X206161571Y-139309286D01*
X206125285Y-139164143D01*
X206089000Y-139091571D01*
X206016428Y-139019000D01*
X205907571Y-138982714D01*
X205835000Y-138982714D01*
X205726143Y-139019000D01*
X205689857Y-139055286D01*
X205036714Y-139236714D02*
X205036714Y-139744714D01*
X205218143Y-138946429D02*
X205399571Y-139490714D01*
X204927857Y-139490714D01*
X204710143Y-138982714D02*
X204238429Y-138982714D01*
X204492429Y-139273000D01*
X204383571Y-139273000D01*
X204311000Y-139309286D01*
X204274714Y-139345571D01*
X204238429Y-139418143D01*
X204238429Y-139599571D01*
X204274714Y-139672143D01*
X204311000Y-139708429D01*
X204383571Y-139744714D01*
X204601286Y-139744714D01*
X204673857Y-139708429D01*
X204710143Y-139672143D01*
X208289857Y-139672143D02*
X208326143Y-139708429D01*
X208435000Y-139744714D01*
X208507571Y-139744714D01*
X208616428Y-139708429D01*
X208689000Y-139635857D01*
X208725285Y-139563286D01*
X208761571Y-139418143D01*
X208761571Y-139309286D01*
X208725285Y-139164143D01*
X208689000Y-139091571D01*
X208616428Y-139019000D01*
X208507571Y-138982714D01*
X208435000Y-138982714D01*
X208326143Y-139019000D01*
X208289857Y-139055286D01*
X207636714Y-139236714D02*
X207636714Y-139744714D01*
X207818143Y-138946429D02*
X207999571Y-139490714D01*
X207527857Y-139490714D01*
X206911000Y-139236714D02*
X206911000Y-139744714D01*
X207092429Y-138946429D02*
X207273857Y-139490714D01*
X206802143Y-139490714D01*
X210889857Y-139672143D02*
X210926143Y-139708429D01*
X211035000Y-139744714D01*
X211107571Y-139744714D01*
X211216428Y-139708429D01*
X211289000Y-139635857D01*
X211325285Y-139563286D01*
X211361571Y-139418143D01*
X211361571Y-139309286D01*
X211325285Y-139164143D01*
X211289000Y-139091571D01*
X211216428Y-139019000D01*
X211107571Y-138982714D01*
X211035000Y-138982714D01*
X210926143Y-139019000D01*
X210889857Y-139055286D01*
X210236714Y-139236714D02*
X210236714Y-139744714D01*
X210418143Y-138946429D02*
X210599571Y-139490714D01*
X210127857Y-139490714D01*
X209801286Y-139744714D02*
X209656143Y-139744714D01*
X209583571Y-139708429D01*
X209547286Y-139672143D01*
X209474714Y-139563286D01*
X209438429Y-139418143D01*
X209438429Y-139127857D01*
X209474714Y-139055286D01*
X209511000Y-139019000D01*
X209583571Y-138982714D01*
X209728714Y-138982714D01*
X209801286Y-139019000D01*
X209837571Y-139055286D01*
X209873857Y-139127857D01*
X209873857Y-139309286D01*
X209837571Y-139381857D01*
X209801286Y-139418143D01*
X209728714Y-139454429D01*
X209583571Y-139454429D01*
X209511000Y-139418143D01*
X209474714Y-139381857D01*
X209438429Y-139309286D01*
X192522143Y-93647286D02*
X192558429Y-93611000D01*
X192594714Y-93502143D01*
X192594714Y-93429572D01*
X192558429Y-93320715D01*
X192485857Y-93248143D01*
X192413286Y-93211858D01*
X192268143Y-93175572D01*
X192159286Y-93175572D01*
X192014143Y-93211858D01*
X191941571Y-93248143D01*
X191869000Y-93320715D01*
X191832714Y-93429572D01*
X191832714Y-93502143D01*
X191869000Y-93611000D01*
X191905286Y-93647286D01*
X192594714Y-94373000D02*
X192594714Y-93937572D01*
X192594714Y-94155286D02*
X191832714Y-94155286D01*
X191941571Y-94082715D01*
X192014143Y-94010143D01*
X192050429Y-93937572D01*
X191832714Y-94844714D02*
X191832714Y-94917286D01*
X191869000Y-94989857D01*
X191905286Y-95026143D01*
X191977857Y-95062429D01*
X192123000Y-95098714D01*
X192304429Y-95098714D01*
X192449571Y-95062429D01*
X192522143Y-95026143D01*
X192558429Y-94989857D01*
X192594714Y-94917286D01*
X192594714Y-94844714D01*
X192558429Y-94772143D01*
X192522143Y-94735857D01*
X192449571Y-94699572D01*
X192304429Y-94663286D01*
X192123000Y-94663286D01*
X191977857Y-94699572D01*
X191905286Y-94735857D01*
X191869000Y-94772143D01*
X191832714Y-94844714D01*
X191832714Y-95352714D02*
X191832714Y-95860714D01*
X192594714Y-95534143D01*
X198052714Y-90072143D02*
X198089000Y-90108429D01*
X198197857Y-90144714D01*
X198270428Y-90144714D01*
X198379285Y-90108429D01*
X198451857Y-90035857D01*
X198488142Y-89963286D01*
X198524428Y-89818143D01*
X198524428Y-89709286D01*
X198488142Y-89564143D01*
X198451857Y-89491571D01*
X198379285Y-89419000D01*
X198270428Y-89382714D01*
X198197857Y-89382714D01*
X198089000Y-89419000D01*
X198052714Y-89455286D01*
X197327000Y-90144714D02*
X197762428Y-90144714D01*
X197544714Y-90144714D02*
X197544714Y-89382714D01*
X197617285Y-89491571D01*
X197689857Y-89564143D01*
X197762428Y-89600429D01*
X196855286Y-89382714D02*
X196782714Y-89382714D01*
X196710143Y-89419000D01*
X196673857Y-89455286D01*
X196637571Y-89527857D01*
X196601286Y-89673000D01*
X196601286Y-89854429D01*
X196637571Y-89999571D01*
X196673857Y-90072143D01*
X196710143Y-90108429D01*
X196782714Y-90144714D01*
X196855286Y-90144714D01*
X196927857Y-90108429D01*
X196964143Y-90072143D01*
X197000428Y-89999571D01*
X197036714Y-89854429D01*
X197036714Y-89673000D01*
X197000428Y-89527857D01*
X196964143Y-89455286D01*
X196927857Y-89419000D01*
X196855286Y-89382714D01*
X195948143Y-89382714D02*
X196093286Y-89382714D01*
X196165857Y-89419000D01*
X196202143Y-89455286D01*
X196274714Y-89564143D01*
X196311000Y-89709286D01*
X196311000Y-89999571D01*
X196274714Y-90072143D01*
X196238429Y-90108429D01*
X196165857Y-90144714D01*
X196020714Y-90144714D01*
X195948143Y-90108429D01*
X195911857Y-90072143D01*
X195875572Y-89999571D01*
X195875572Y-89818143D01*
X195911857Y-89745571D01*
X195948143Y-89709286D01*
X196020714Y-89673000D01*
X196165857Y-89673000D01*
X196238429Y-89709286D01*
X196274714Y-89745571D01*
X196311000Y-89818143D01*
X193272143Y-96147286D02*
X193308429Y-96111000D01*
X193344714Y-96002143D01*
X193344714Y-95929572D01*
X193308429Y-95820715D01*
X193235857Y-95748143D01*
X193163286Y-95711858D01*
X193018143Y-95675572D01*
X192909286Y-95675572D01*
X192764143Y-95711858D01*
X192691571Y-95748143D01*
X192619000Y-95820715D01*
X192582714Y-95929572D01*
X192582714Y-96002143D01*
X192619000Y-96111000D01*
X192655286Y-96147286D01*
X193344714Y-96873000D02*
X193344714Y-96437572D01*
X193344714Y-96655286D02*
X192582714Y-96655286D01*
X192691571Y-96582715D01*
X192764143Y-96510143D01*
X192800429Y-96437572D01*
X192582714Y-97344714D02*
X192582714Y-97417286D01*
X192619000Y-97489857D01*
X192655286Y-97526143D01*
X192727857Y-97562429D01*
X192873000Y-97598714D01*
X193054429Y-97598714D01*
X193199571Y-97562429D01*
X193272143Y-97526143D01*
X193308429Y-97489857D01*
X193344714Y-97417286D01*
X193344714Y-97344714D01*
X193308429Y-97272143D01*
X193272143Y-97235857D01*
X193199571Y-97199572D01*
X193054429Y-97163286D01*
X192873000Y-97163286D01*
X192727857Y-97199572D01*
X192655286Y-97235857D01*
X192619000Y-97272143D01*
X192582714Y-97344714D01*
X192582714Y-98288143D02*
X192582714Y-97925286D01*
X192945571Y-97889000D01*
X192909286Y-97925286D01*
X192873000Y-97997857D01*
X192873000Y-98179286D01*
X192909286Y-98251857D01*
X192945571Y-98288143D01*
X193018143Y-98324428D01*
X193199571Y-98324428D01*
X193272143Y-98288143D01*
X193308429Y-98251857D01*
X193344714Y-98179286D01*
X193344714Y-97997857D01*
X193308429Y-97925286D01*
X193272143Y-97889000D01*
X193272143Y-98897286D02*
X193308429Y-98861000D01*
X193344714Y-98752143D01*
X193344714Y-98679572D01*
X193308429Y-98570715D01*
X193235857Y-98498143D01*
X193163286Y-98461858D01*
X193018143Y-98425572D01*
X192909286Y-98425572D01*
X192764143Y-98461858D01*
X192691571Y-98498143D01*
X192619000Y-98570715D01*
X192582714Y-98679572D01*
X192582714Y-98752143D01*
X192619000Y-98861000D01*
X192655286Y-98897286D01*
X193344714Y-99623000D02*
X193344714Y-99187572D01*
X193344714Y-99405286D02*
X192582714Y-99405286D01*
X192691571Y-99332715D01*
X192764143Y-99260143D01*
X192800429Y-99187572D01*
X192582714Y-100094714D02*
X192582714Y-100167286D01*
X192619000Y-100239857D01*
X192655286Y-100276143D01*
X192727857Y-100312429D01*
X192873000Y-100348714D01*
X193054429Y-100348714D01*
X193199571Y-100312429D01*
X193272143Y-100276143D01*
X193308429Y-100239857D01*
X193344714Y-100167286D01*
X193344714Y-100094714D01*
X193308429Y-100022143D01*
X193272143Y-99985857D01*
X193199571Y-99949572D01*
X193054429Y-99913286D01*
X192873000Y-99913286D01*
X192727857Y-99949572D01*
X192655286Y-99985857D01*
X192619000Y-100022143D01*
X192582714Y-100094714D01*
X192836714Y-101001857D02*
X193344714Y-101001857D01*
X192546429Y-100820428D02*
X193090714Y-100639000D01*
X193090714Y-101110714D01*
X192022143Y-104147286D02*
X192058429Y-104111000D01*
X192094714Y-104002143D01*
X192094714Y-103929572D01*
X192058429Y-103820715D01*
X191985857Y-103748143D01*
X191913286Y-103711858D01*
X191768143Y-103675572D01*
X191659286Y-103675572D01*
X191514143Y-103711858D01*
X191441571Y-103748143D01*
X191369000Y-103820715D01*
X191332714Y-103929572D01*
X191332714Y-104002143D01*
X191369000Y-104111000D01*
X191405286Y-104147286D01*
X192094714Y-104873000D02*
X192094714Y-104437572D01*
X192094714Y-104655286D02*
X191332714Y-104655286D01*
X191441571Y-104582715D01*
X191514143Y-104510143D01*
X191550429Y-104437572D01*
X191332714Y-105344714D02*
X191332714Y-105417286D01*
X191369000Y-105489857D01*
X191405286Y-105526143D01*
X191477857Y-105562429D01*
X191623000Y-105598714D01*
X191804429Y-105598714D01*
X191949571Y-105562429D01*
X192022143Y-105526143D01*
X192058429Y-105489857D01*
X192094714Y-105417286D01*
X192094714Y-105344714D01*
X192058429Y-105272143D01*
X192022143Y-105235857D01*
X191949571Y-105199572D01*
X191804429Y-105163286D01*
X191623000Y-105163286D01*
X191477857Y-105199572D01*
X191405286Y-105235857D01*
X191369000Y-105272143D01*
X191332714Y-105344714D01*
X191332714Y-105852714D02*
X191332714Y-106324428D01*
X191623000Y-106070428D01*
X191623000Y-106179286D01*
X191659286Y-106251857D01*
X191695571Y-106288143D01*
X191768143Y-106324428D01*
X191949571Y-106324428D01*
X192022143Y-106288143D01*
X192058429Y-106251857D01*
X192094714Y-106179286D01*
X192094714Y-105961571D01*
X192058429Y-105889000D01*
X192022143Y-105852714D01*
X193272143Y-101647286D02*
X193308429Y-101611000D01*
X193344714Y-101502143D01*
X193344714Y-101429572D01*
X193308429Y-101320715D01*
X193235857Y-101248143D01*
X193163286Y-101211858D01*
X193018143Y-101175572D01*
X192909286Y-101175572D01*
X192764143Y-101211858D01*
X192691571Y-101248143D01*
X192619000Y-101320715D01*
X192582714Y-101429572D01*
X192582714Y-101502143D01*
X192619000Y-101611000D01*
X192655286Y-101647286D01*
X193344714Y-102373000D02*
X193344714Y-101937572D01*
X193344714Y-102155286D02*
X192582714Y-102155286D01*
X192691571Y-102082715D01*
X192764143Y-102010143D01*
X192800429Y-101937572D01*
X192582714Y-102844714D02*
X192582714Y-102917286D01*
X192619000Y-102989857D01*
X192655286Y-103026143D01*
X192727857Y-103062429D01*
X192873000Y-103098714D01*
X193054429Y-103098714D01*
X193199571Y-103062429D01*
X193272143Y-103026143D01*
X193308429Y-102989857D01*
X193344714Y-102917286D01*
X193344714Y-102844714D01*
X193308429Y-102772143D01*
X193272143Y-102735857D01*
X193199571Y-102699572D01*
X193054429Y-102663286D01*
X192873000Y-102663286D01*
X192727857Y-102699572D01*
X192655286Y-102735857D01*
X192619000Y-102772143D01*
X192582714Y-102844714D01*
X192655286Y-103389000D02*
X192619000Y-103425286D01*
X192582714Y-103497857D01*
X192582714Y-103679286D01*
X192619000Y-103751857D01*
X192655286Y-103788143D01*
X192727857Y-103824428D01*
X192800429Y-103824428D01*
X192909286Y-103788143D01*
X193344714Y-103352714D01*
X193344714Y-103824428D01*
M02*
