G04 #@! TF.FileFunction,Copper,L1,Top,Signal*
%FSLAX46Y46*%
G04 Gerber Fmt 4.6, Leading zero omitted, Abs format (unit mm)*
G04 Created by KiCad (PCBNEW 4.0.6) date 07/13/17 22:09:39*
%MOMM*%
%LPD*%
G01*
G04 APERTURE LIST*
%ADD10C,0.100000*%
%ADD11R,0.635000X1.143000*%
%ADD12R,1.143000X0.635000*%
%ADD13R,1.501140X0.299720*%
%ADD14R,3.599180X7.000240*%
%ADD15C,1.143000*%
%ADD16R,2.300000X0.800000*%
%ADD17R,2.499360X1.950720*%
%ADD18R,1.950720X2.499360*%
%ADD19O,3.048000X1.524000*%
%ADD20R,7.498080X2.997200*%
%ADD21C,1.300480*%
%ADD22R,1.300000X1.300000*%
%ADD23C,1.300000*%
%ADD24R,4.000000X5.000000*%
%ADD25R,5.000000X4.000000*%
%ADD26R,2.438400X5.588000*%
%ADD27R,2.438400X0.889000*%
%ADD28R,1.300480X0.300000*%
%ADD29R,0.300000X1.300480*%
%ADD30R,1.399540X0.599440*%
%ADD31R,1.198880X1.800860*%
%ADD32R,0.701040X1.300480*%
%ADD33R,1.099820X0.850900*%
%ADD34R,1.099820X1.699260*%
%ADD35R,1.300480X0.701040*%
%ADD36R,0.850900X1.099820*%
%ADD37R,1.699260X1.099820*%
%ADD38R,0.800000X0.800000*%
%ADD39R,2.100580X1.699260*%
%ADD40R,3.800000X2.000000*%
%ADD41R,1.500000X2.000000*%
%ADD42R,1.524000X2.032000*%
%ADD43R,1.998980X2.301240*%
%ADD44R,4.100000X2.000000*%
%ADD45C,4.000000*%
%ADD46C,0.600000*%
%ADD47C,0.500000*%
%ADD48C,1.000000*%
%ADD49C,0.250000*%
%ADD50C,0.254000*%
G04 APERTURE END LIST*
D10*
D11*
X50512000Y-127750000D03*
X48988000Y-127750000D03*
D12*
X71750000Y-115262000D03*
X71750000Y-113738000D03*
D13*
X57749500Y-109696220D03*
X57749500Y-110196600D03*
X57749500Y-110696980D03*
X57749500Y-111197360D03*
X57749500Y-111697740D03*
X57749500Y-112195580D03*
X57749500Y-112695960D03*
X57749500Y-113196340D03*
X57749500Y-113696720D03*
X57749500Y-114197100D03*
X57749500Y-114697480D03*
X57749500Y-105197880D03*
X57749500Y-105695720D03*
X57749500Y-106196100D03*
X65750500Y-110696980D03*
X57749500Y-107196860D03*
X57749500Y-107697240D03*
X57749500Y-108197620D03*
X57749500Y-108695460D03*
X57749500Y-109195840D03*
X65750500Y-113196340D03*
X65750500Y-112695960D03*
X65750500Y-112195580D03*
X65750500Y-111697740D03*
X65750500Y-111197360D03*
X57749500Y-106696480D03*
X65750500Y-110196600D03*
X65750500Y-109696220D03*
X65750500Y-109195840D03*
X65750500Y-108695460D03*
X65750500Y-108197620D03*
X65750500Y-107697240D03*
X65750500Y-107196860D03*
X65750500Y-118695440D03*
X65750500Y-118197600D03*
X65750500Y-117697220D03*
X65750500Y-117196840D03*
X65750500Y-116696460D03*
X65750500Y-116196080D03*
X65750500Y-115695700D03*
X65750500Y-115197860D03*
X65750500Y-114697480D03*
X65750500Y-114197100D03*
X65750500Y-113696720D03*
X65750500Y-106696480D03*
X65750500Y-106196100D03*
X65750500Y-105695720D03*
X65750500Y-105197880D03*
X57749500Y-115197860D03*
X57749500Y-115695700D03*
X57749500Y-116196080D03*
X57749500Y-116696460D03*
X57749500Y-117196840D03*
X57749500Y-117697220D03*
X57749500Y-118197600D03*
X57749500Y-118695440D03*
D14*
X61750000Y-112000000D03*
D11*
X51000000Y-118250000D03*
X52524000Y-118250000D03*
D15*
X78650000Y-109950000D03*
X81250000Y-110750000D03*
X78650000Y-111550000D03*
X81250000Y-112350000D03*
X78650000Y-113150000D03*
D16*
X80100000Y-107800000D03*
X80100000Y-115300000D03*
D12*
X48500000Y-134262000D03*
X48500000Y-132738000D03*
D11*
X46262000Y-136750000D03*
X44738000Y-136750000D03*
X79762000Y-86750000D03*
X78238000Y-86750000D03*
D12*
X63000000Y-90012000D03*
X63000000Y-88488000D03*
X71750000Y-90012000D03*
X71750000Y-88488000D03*
X77000000Y-90012000D03*
X77000000Y-88488000D03*
X46500000Y-146512000D03*
X46500000Y-144988000D03*
X48250000Y-146512000D03*
X48250000Y-144988000D03*
X50000000Y-146512000D03*
X50000000Y-144988000D03*
X51750000Y-146512000D03*
X51750000Y-144988000D03*
X53500000Y-146512000D03*
X53500000Y-144988000D03*
D11*
X50512000Y-126000000D03*
X48988000Y-126000000D03*
X67000000Y-139750000D03*
X68524000Y-139750000D03*
X71226000Y-127500000D03*
X72750000Y-127500000D03*
D12*
X70000000Y-112512000D03*
X70000000Y-110988000D03*
X69750000Y-120250000D03*
X69750000Y-118726000D03*
X70000000Y-115262000D03*
X70000000Y-113738000D03*
X73250000Y-118726000D03*
X73250000Y-120250000D03*
X70000000Y-109762000D03*
X70000000Y-108238000D03*
D11*
X70774000Y-105500000D03*
X69250000Y-105500000D03*
D12*
X47500000Y-143512000D03*
X47500000Y-141988000D03*
D17*
X43500000Y-130476000D03*
X43500000Y-133524000D03*
D12*
X71750000Y-112512000D03*
X71750000Y-110988000D03*
D11*
X50976000Y-114500000D03*
X52500000Y-114500000D03*
X50988000Y-109250000D03*
X52512000Y-109250000D03*
X52524000Y-106750000D03*
X51000000Y-106750000D03*
D12*
X49250000Y-141988000D03*
X49250000Y-143512000D03*
D11*
X48988000Y-129500000D03*
X50512000Y-129500000D03*
D18*
X79024000Y-103750000D03*
X75976000Y-103750000D03*
D12*
X54250000Y-104250000D03*
X54250000Y-102726000D03*
X51000000Y-141988000D03*
X51000000Y-143512000D03*
D11*
X54488000Y-100750000D03*
X56012000Y-100750000D03*
X56512000Y-142250000D03*
X54988000Y-142250000D03*
D12*
X52750000Y-143512000D03*
X52750000Y-141988000D03*
D19*
X43500000Y-140210000D03*
X43500000Y-142750000D03*
X43500000Y-145290000D03*
D20*
X76750000Y-98499360D03*
X76750000Y-93500640D03*
D21*
X71250760Y-84500000D03*
X69249240Y-84500000D03*
X67250260Y-84500000D03*
X65248740Y-84500000D03*
X73249740Y-84500000D03*
X75251260Y-84500000D03*
X79250000Y-133249240D03*
X79250000Y-135250760D03*
X79250000Y-137249740D03*
X79250000Y-139251260D03*
X79250000Y-131250260D03*
X79250000Y-129248740D03*
D22*
X79754560Y-145250000D03*
D23*
X75751520Y-145250000D03*
X77753040Y-145250000D03*
X73752540Y-145250000D03*
X71751020Y-145250000D03*
X69749500Y-145250000D03*
X67750520Y-145250000D03*
D24*
X37750000Y-144250000D03*
X28750000Y-144250000D03*
D25*
X27500000Y-88500000D03*
X27500000Y-101250000D03*
X27500000Y-114000000D03*
D11*
X54988000Y-144000000D03*
X56512000Y-144000000D03*
X56512000Y-140500000D03*
X54988000Y-140500000D03*
D12*
X46750000Y-134262000D03*
X46750000Y-132738000D03*
X50250000Y-134262000D03*
X50250000Y-132738000D03*
X43250000Y-136238000D03*
X43250000Y-137762000D03*
D11*
X76012000Y-110500000D03*
X74488000Y-110500000D03*
X50512000Y-131250000D03*
X48988000Y-131250000D03*
D12*
X75250000Y-88488000D03*
X75250000Y-90012000D03*
X70000000Y-88488000D03*
X70000000Y-90012000D03*
X64750000Y-88488000D03*
X64750000Y-90012000D03*
X66500000Y-88488000D03*
X66500000Y-90012000D03*
X68250000Y-88488000D03*
X68250000Y-90012000D03*
X73500000Y-88488000D03*
X73500000Y-90012000D03*
D11*
X78012000Y-117750000D03*
X76488000Y-117750000D03*
X75012000Y-116750000D03*
X73488000Y-116750000D03*
D12*
X71500000Y-120250000D03*
X71500000Y-118726000D03*
D11*
X69738000Y-116750000D03*
X71262000Y-116750000D03*
D12*
X68000000Y-120250000D03*
X68000000Y-118726000D03*
X58250000Y-143012000D03*
X58250000Y-141488000D03*
X48750000Y-86988000D03*
X48750000Y-88512000D03*
D10*
G36*
X52640790Y-140167433D02*
X51832567Y-139359210D01*
X52281580Y-138910197D01*
X53089803Y-139718420D01*
X52640790Y-140167433D01*
X52640790Y-140167433D01*
G37*
G36*
X53718420Y-139089803D02*
X52910197Y-138281580D01*
X53359210Y-137832567D01*
X54167433Y-138640790D01*
X53718420Y-139089803D01*
X53718420Y-139089803D01*
G37*
D11*
X50988000Y-116250000D03*
X52512000Y-116250000D03*
D12*
X48750000Y-100488000D03*
X48750000Y-102012000D03*
D10*
G36*
X51390790Y-138917433D02*
X50582567Y-138109210D01*
X51031580Y-137660197D01*
X51839803Y-138468420D01*
X51390790Y-138917433D01*
X51390790Y-138917433D01*
G37*
G36*
X52468420Y-137839803D02*
X51660197Y-137031580D01*
X52109210Y-136582567D01*
X52917433Y-137390790D01*
X52468420Y-137839803D01*
X52468420Y-137839803D01*
G37*
D11*
X50988000Y-112750000D03*
X52512000Y-112750000D03*
X51000000Y-111000000D03*
X52524000Y-111000000D03*
X33226000Y-118750000D03*
X34750000Y-118750000D03*
D12*
X48750000Y-113976000D03*
X48750000Y-115500000D03*
D10*
G36*
X50140790Y-137667433D02*
X49332567Y-136859210D01*
X49781580Y-136410197D01*
X50589803Y-137218420D01*
X50140790Y-137667433D01*
X50140790Y-137667433D01*
G37*
G36*
X51218420Y-136589803D02*
X50410197Y-135781580D01*
X50859210Y-135332567D01*
X51667433Y-136140790D01*
X51218420Y-136589803D01*
X51218420Y-136589803D01*
G37*
D11*
X44988000Y-108000000D03*
X46512000Y-108000000D03*
X34988000Y-109250000D03*
X36512000Y-109250000D03*
X31488000Y-109250000D03*
X33012000Y-109250000D03*
D12*
X60500000Y-143012000D03*
X60500000Y-141488000D03*
X62500000Y-143012000D03*
X62500000Y-141488000D03*
D11*
X50976000Y-105000000D03*
X52500000Y-105000000D03*
X34988000Y-93250000D03*
X36512000Y-93250000D03*
X31488000Y-93250000D03*
X33012000Y-93250000D03*
D12*
X60750000Y-89988000D03*
X60750000Y-91512000D03*
X48750000Y-89988000D03*
X48750000Y-91512000D03*
D11*
X51238000Y-100750000D03*
X52762000Y-100750000D03*
X59262000Y-100750000D03*
X57738000Y-100750000D03*
D26*
X58488500Y-94952000D03*
X52011500Y-94952000D03*
D27*
X58488500Y-99079500D03*
X52011500Y-99079500D03*
D26*
X58238500Y-85952000D03*
X51761500Y-85952000D03*
D27*
X58238500Y-90079500D03*
X51761500Y-90079500D03*
D11*
X74488000Y-112250000D03*
X76012000Y-112250000D03*
X74488000Y-114000000D03*
X76012000Y-114000000D03*
D12*
X77250000Y-123000000D03*
X77250000Y-124524000D03*
D11*
X76488000Y-121250000D03*
X78012000Y-121250000D03*
D28*
X55249440Y-128499560D03*
X55249440Y-128999940D03*
X55249440Y-129500320D03*
X55249440Y-130000700D03*
X55249440Y-130501080D03*
X55249440Y-127000960D03*
X55249440Y-127498800D03*
X55249440Y-127999180D03*
D29*
X57250960Y-136500560D03*
X57748800Y-136500560D03*
X58249180Y-136500560D03*
X58749560Y-136500560D03*
X59249940Y-136500560D03*
X59750320Y-136500560D03*
X60250700Y-136500560D03*
X60751080Y-136500560D03*
D28*
X66750560Y-134499040D03*
X66750560Y-134001200D03*
X66750560Y-133500820D03*
X66750560Y-133000440D03*
X66750560Y-132500060D03*
X66750560Y-131999680D03*
X66750560Y-131499300D03*
X66750560Y-130998920D03*
D29*
X64749040Y-124999440D03*
X64251200Y-124999440D03*
X63750820Y-124999440D03*
X63250440Y-124999440D03*
X62750060Y-124999440D03*
X62249680Y-124999440D03*
X61749300Y-124999440D03*
X61248920Y-124999440D03*
D28*
X55249440Y-130998920D03*
X55249440Y-131499300D03*
X55249440Y-131999680D03*
D29*
X61248920Y-136500560D03*
X61749300Y-136500560D03*
X62249680Y-136500560D03*
D28*
X66750560Y-130501080D03*
X66750560Y-130000700D03*
X66750560Y-129500320D03*
D29*
X60751080Y-124999440D03*
X60250700Y-124999440D03*
X59750320Y-124999440D03*
D28*
X55249440Y-132500060D03*
X55249440Y-133000440D03*
X55249440Y-133500820D03*
X55249440Y-134001200D03*
X55249440Y-134499040D03*
D29*
X62750060Y-136500560D03*
X63250440Y-136500560D03*
X63750820Y-136500560D03*
X64251200Y-136500560D03*
X64749040Y-136500560D03*
D28*
X66750560Y-128999940D03*
X66750560Y-128499560D03*
X66750560Y-127999180D03*
X66750560Y-127498800D03*
X66750560Y-127000960D03*
D29*
X59249940Y-124999440D03*
X58749560Y-124999440D03*
X58249180Y-124999440D03*
X57748800Y-124999440D03*
X57250960Y-124999440D03*
D30*
X74917000Y-121845000D03*
X69583000Y-121845000D03*
X74917000Y-123115000D03*
X74917000Y-124385000D03*
X74917000Y-125655000D03*
X69583000Y-123115000D03*
X69583000Y-124385000D03*
X69583000Y-125655000D03*
D31*
X45249680Y-123600080D03*
X42750320Y-123600080D03*
X42750320Y-127399920D03*
X45249680Y-127399920D03*
D32*
X36000440Y-88500000D03*
D33*
X34600900Y-89079120D03*
X34600900Y-87920880D03*
X31799280Y-87920880D03*
X31799280Y-89079120D03*
X34600900Y-90229740D03*
X31799280Y-90229740D03*
X34600900Y-86770260D03*
X31799280Y-86770260D03*
D34*
X38250880Y-88500000D03*
X38250880Y-90699640D03*
X38250880Y-86300360D03*
X29251660Y-88500000D03*
X29251660Y-86300360D03*
X29251660Y-90699640D03*
D35*
X44000000Y-90500440D03*
D36*
X43420880Y-89100900D03*
X44579120Y-89100900D03*
X44579120Y-86299280D03*
X43420880Y-86299280D03*
X42270260Y-89100900D03*
X42270260Y-86299280D03*
X45729740Y-89100900D03*
X45729740Y-86299280D03*
D37*
X44000000Y-92750880D03*
X41800360Y-92750880D03*
X46199640Y-92750880D03*
X44000000Y-83751660D03*
X46199640Y-83751660D03*
X41800360Y-83751660D03*
D32*
X36000440Y-101250000D03*
D33*
X34600900Y-101829120D03*
X34600900Y-100670880D03*
X31799280Y-100670880D03*
X31799280Y-101829120D03*
X34600900Y-102979740D03*
X31799280Y-102979740D03*
X34600900Y-99520260D03*
X31799280Y-99520260D03*
D34*
X38250880Y-101250000D03*
X38250880Y-103449640D03*
X38250880Y-99050360D03*
X29251660Y-101250000D03*
X29251660Y-99050360D03*
X29251660Y-103449640D03*
D35*
X44000000Y-103750440D03*
D36*
X43420880Y-102350900D03*
X44579120Y-102350900D03*
X44579120Y-99549280D03*
X43420880Y-99549280D03*
X42270260Y-102350900D03*
X42270260Y-99549280D03*
X45729740Y-102350900D03*
X45729740Y-99549280D03*
D37*
X44000000Y-106000880D03*
X41800360Y-106000880D03*
X46199640Y-106000880D03*
X44000000Y-97001660D03*
X46199640Y-97001660D03*
X41800360Y-97001660D03*
D32*
X36000440Y-114000000D03*
D33*
X34600900Y-114579120D03*
X34600900Y-113420880D03*
X31799280Y-113420880D03*
X31799280Y-114579120D03*
X34600900Y-115729740D03*
X31799280Y-115729740D03*
X34600900Y-112270260D03*
X31799280Y-112270260D03*
D34*
X38250880Y-114000000D03*
X38250880Y-116199640D03*
X38250880Y-111800360D03*
X29251660Y-114000000D03*
X29251660Y-111800360D03*
X29251660Y-116199640D03*
D35*
X44000000Y-116500440D03*
D36*
X43420880Y-115100900D03*
X44579120Y-115100900D03*
X44579120Y-112299280D03*
X43420880Y-112299280D03*
X42270260Y-115100900D03*
X42270260Y-112299280D03*
X45729740Y-115100900D03*
X45729740Y-112299280D03*
D37*
X44000000Y-118750880D03*
X41800360Y-118750880D03*
X46199640Y-118750880D03*
X44000000Y-109751660D03*
X46199640Y-109751660D03*
X41800360Y-109751660D03*
D38*
X62750000Y-146300000D03*
X62750000Y-144700000D03*
X60500000Y-146300000D03*
X60500000Y-144700000D03*
X58250000Y-146300000D03*
X58250000Y-144700000D03*
D39*
X69520260Y-102750000D03*
X72979740Y-102750000D03*
D40*
X67250000Y-93450000D03*
D41*
X67250000Y-99750000D03*
X69550000Y-99750000D03*
X64950000Y-99750000D03*
D42*
X31448000Y-135250000D03*
X34750000Y-135250000D03*
X40151000Y-138000000D03*
X36849000Y-138000000D03*
X34750000Y-138000000D03*
X31448000Y-138000000D03*
X33151000Y-95750000D03*
X29849000Y-95750000D03*
X35599000Y-95750000D03*
X38901000Y-95750000D03*
X40151000Y-132500000D03*
X36849000Y-132500000D03*
X40151000Y-135250000D03*
X36849000Y-135250000D03*
X35599000Y-106750000D03*
X38901000Y-106750000D03*
X33151000Y-106750000D03*
X29849000Y-106750000D03*
D43*
X53509140Y-122000000D03*
X49490860Y-122000000D03*
D44*
X29650000Y-125450000D03*
X38350000Y-125450000D03*
D19*
X80500000Y-122770000D03*
X80500000Y-125310000D03*
X80500000Y-120230000D03*
X80500000Y-117690000D03*
D45*
X27500000Y-135250000D03*
D46*
X48500000Y-117750000D03*
X29750000Y-122750000D03*
X47250000Y-122000000D03*
X70000000Y-111704498D03*
X33250000Y-101250000D03*
X48000000Y-123500000D03*
X47500000Y-126250000D03*
X70500000Y-86500000D03*
X75755215Y-118750000D03*
X77295502Y-121250000D03*
X76000000Y-115501501D03*
X43250000Y-135250000D03*
X58750000Y-128250000D03*
X75770004Y-131500000D03*
X49795502Y-131250000D03*
X63000000Y-92250000D03*
X63407876Y-118407876D03*
X64500000Y-91000000D03*
X61648327Y-118628021D03*
X63670028Y-91615000D03*
X62139641Y-118009383D03*
X53250000Y-126750000D03*
X68458444Y-115288907D03*
X67750000Y-106750000D03*
X67250000Y-102000000D03*
X46750000Y-131250000D03*
X51750000Y-134000000D03*
X72750000Y-91000000D03*
X65364040Y-127000000D03*
X66000000Y-138500000D03*
X55704498Y-144000000D03*
X58119742Y-135000000D03*
X76750000Y-96250000D03*
X60250000Y-102750000D03*
X59250000Y-115250000D03*
X44000000Y-113750000D03*
X50000000Y-114500000D03*
X54500000Y-114000000D03*
X50000000Y-109250000D03*
X50190129Y-102309871D03*
X44000000Y-101000000D03*
X48750000Y-99250000D03*
X48750000Y-103000000D03*
X44000000Y-87750000D03*
X48750000Y-85750000D03*
X62000000Y-133385000D03*
X67250000Y-103750000D03*
X75750000Y-106000000D03*
X78750000Y-90500000D03*
X54470880Y-103562622D03*
X56750000Y-104250000D03*
X40750000Y-107250000D03*
X30000000Y-108500000D03*
X59500000Y-105250000D03*
X35250000Y-132500000D03*
X46750000Y-133545502D03*
X48500000Y-118750000D03*
X54000000Y-119000000D03*
X39250000Y-105000000D03*
X32204498Y-109250000D03*
X33250000Y-114000000D03*
X33942498Y-118750000D03*
X54500000Y-97500000D03*
X55300000Y-112900000D03*
X37250000Y-95750000D03*
X33250000Y-88500000D03*
X32204498Y-93250000D03*
X56000000Y-88250000D03*
X59250000Y-108250000D03*
X62977693Y-132477693D03*
X62949740Y-131635904D03*
X62500000Y-135000000D03*
X62940129Y-133385000D03*
X51704498Y-112750000D03*
X44000000Y-117500000D03*
X49750000Y-111000000D03*
X36000000Y-118750000D03*
X37000000Y-114000000D03*
X45704498Y-107885000D03*
X44000000Y-104750000D03*
X35704498Y-109250000D03*
X37000000Y-101250000D03*
X49575129Y-105000000D03*
X44000000Y-91500000D03*
X35704498Y-93250000D03*
X37000000Y-88500000D03*
X48750000Y-87795502D03*
X57815129Y-133565129D03*
X48750000Y-101295502D03*
X57000000Y-133500000D03*
X48750000Y-114783502D03*
X56940110Y-132440148D03*
X48000000Y-108000000D03*
X59250000Y-111750000D03*
X38250000Y-109250000D03*
X59250000Y-110959997D03*
X53491564Y-105020442D03*
X59250000Y-109500000D03*
X38000000Y-93250000D03*
X55290003Y-97500000D03*
X55750000Y-107811860D03*
X73250000Y-113209997D03*
X74540003Y-127500000D03*
X73250000Y-114000000D03*
X73750000Y-127500000D03*
X68500000Y-114500000D03*
X64039592Y-113250000D03*
X64614639Y-133885361D03*
X69000000Y-107250000D03*
X74500000Y-134000000D03*
X64039592Y-109250000D03*
X74460130Y-133170127D03*
X73691867Y-132885820D03*
X64039592Y-110250000D03*
X64039592Y-111250000D03*
X64032876Y-117782876D03*
X62500000Y-126750000D03*
X64000000Y-105959997D03*
X61269999Y-135055010D03*
X64000000Y-106750000D03*
X64039592Y-112250000D03*
X62635440Y-138500000D03*
X74532155Y-130572614D03*
X68294116Y-108763119D03*
X73250000Y-129886080D03*
X67686604Y-109907919D03*
X64934871Y-128684871D03*
X67000000Y-111082740D03*
X68000000Y-125750000D03*
X61178945Y-121678945D03*
X68000000Y-122000000D03*
X61255040Y-120892617D03*
D47*
X62259999Y-94759999D02*
X64950000Y-97450000D01*
X64950000Y-97450000D02*
X64950000Y-99750000D01*
X61673501Y-90754499D02*
X61745501Y-90754499D01*
X61745501Y-90754499D02*
X62259999Y-91268997D01*
X62259999Y-91268997D02*
X62259999Y-94759999D01*
X64950000Y-99750000D02*
X64950000Y-102779374D01*
X65750500Y-103579874D02*
X65750500Y-105105859D01*
X64950000Y-102779374D02*
X65750500Y-103579874D01*
X61673501Y-90754499D02*
X59897701Y-90754499D01*
X59897701Y-90754499D02*
X58488500Y-92163700D01*
X58488500Y-92163700D02*
X58488500Y-94952000D01*
X63000000Y-88488000D02*
X62746000Y-88488000D01*
X62746000Y-88488000D02*
X61988499Y-89245501D01*
X61988499Y-89245501D02*
X61988499Y-90439501D01*
X61988499Y-90439501D02*
X61673501Y-90754499D01*
D48*
X29750000Y-122750000D02*
X29750000Y-125350000D01*
X29750000Y-125350000D02*
X29650000Y-125450000D01*
X49490860Y-122000000D02*
X47250000Y-122000000D01*
D49*
X70000000Y-110988000D02*
X70000000Y-111704498D01*
D48*
X34600900Y-100670880D02*
X34600900Y-101250000D01*
X34600900Y-101250000D02*
X34600900Y-101829120D01*
D49*
X33250000Y-101250000D02*
X34600900Y-101250000D01*
X49490860Y-117179640D02*
X49179640Y-117179640D01*
X49179640Y-117179640D02*
X48934871Y-116934871D01*
X48000000Y-123500000D02*
X49391480Y-123500000D01*
X49391480Y-123500000D02*
X49490860Y-123400620D01*
X48000000Y-126000000D02*
X47771501Y-126000000D01*
X47771501Y-126000000D02*
X47500000Y-125728499D01*
X48988000Y-126000000D02*
X48000000Y-126000000D01*
X48988000Y-127750000D02*
X48988000Y-128004000D01*
X48988000Y-127750000D02*
X48988000Y-126000000D01*
X50090240Y-124000000D02*
X57649600Y-124000000D01*
X57649600Y-124000000D02*
X57748800Y-124099200D01*
X57748800Y-124099200D02*
X57748800Y-124999440D01*
X49490860Y-122000000D02*
X49490860Y-123400620D01*
X49490860Y-123400620D02*
X50090240Y-124000000D01*
X50988000Y-116250000D02*
X50420500Y-116250000D01*
X50420500Y-116250000D02*
X49490860Y-117179640D01*
X49490860Y-117179640D02*
X49490860Y-120599380D01*
X49490860Y-120599380D02*
X49490860Y-122000000D01*
X60500000Y-146300000D02*
X62750000Y-146300000D01*
X58250000Y-146300000D02*
X60500000Y-146300000D01*
X43199970Y-129000000D02*
X47920500Y-129000000D01*
X47920500Y-129000000D02*
X48420500Y-129500000D01*
X48420500Y-129500000D02*
X48988000Y-129500000D01*
X42750320Y-127399920D02*
X42750320Y-128550350D01*
X42750320Y-128550350D02*
X43199970Y-129000000D01*
X70000000Y-110988000D02*
X71750000Y-110988000D01*
X65750500Y-115197860D02*
X64749930Y-115197860D01*
X64749930Y-115197860D02*
X61750000Y-112197930D01*
X61750000Y-112197930D02*
X61750000Y-112000000D01*
X65750500Y-105197880D02*
X68179852Y-105197880D01*
X69706002Y-104500000D02*
X70000000Y-104793998D01*
X68179852Y-105197880D02*
X68877732Y-104500000D01*
X70206500Y-105500000D02*
X70774000Y-105500000D01*
X68877732Y-104500000D02*
X69706002Y-104500000D01*
X70000000Y-104793998D02*
X70000000Y-105293500D01*
X70000000Y-105293500D02*
X70206500Y-105500000D01*
X70774000Y-105246000D02*
X70774000Y-105500000D01*
X48988000Y-127750000D02*
X48988000Y-129500000D01*
X65750500Y-114197100D02*
X64076490Y-114197100D01*
X64076490Y-114197100D02*
X61879390Y-112000000D01*
X61879390Y-112000000D02*
X61750000Y-112000000D01*
X70000000Y-115262000D02*
X69746000Y-115262000D01*
X69746000Y-115262000D02*
X69102996Y-115905004D01*
X69102996Y-115905004D02*
X68204799Y-115905004D01*
X68204799Y-115905004D02*
X67497655Y-115197860D01*
X67497655Y-115197860D02*
X65750500Y-115197860D01*
X70500000Y-86500000D02*
X70500000Y-87492000D01*
X70500000Y-87492000D02*
X71496000Y-88488000D01*
X71496000Y-88488000D02*
X71750000Y-88488000D01*
X50250000Y-134262000D02*
X48500000Y-134262000D01*
X55249440Y-132500060D02*
X53372208Y-132500060D01*
X53372208Y-132500060D02*
X52501767Y-133370501D01*
X52501767Y-133370501D02*
X50573999Y-133370501D01*
X50573999Y-133370501D02*
X50250000Y-133694500D01*
X50250000Y-133694500D02*
X50250000Y-134262000D01*
X58000000Y-126250000D02*
X57748800Y-125998800D01*
X57748800Y-125998800D02*
X57748800Y-124999440D01*
X58899620Y-126250000D02*
X58000000Y-126250000D01*
X59249940Y-124999440D02*
X59249940Y-125899680D01*
X59249940Y-125899680D02*
X58899620Y-126250000D01*
X73250000Y-118726000D02*
X73250000Y-119293500D01*
X73250000Y-119293500D02*
X73043500Y-119500000D01*
X69932500Y-119500000D02*
X69750000Y-119682500D01*
X73043500Y-119500000D02*
X69932500Y-119500000D01*
X69750000Y-119682500D02*
X69750000Y-120250000D01*
X68000000Y-120250000D02*
X69750000Y-120250000D01*
X75755215Y-118750000D02*
X73274000Y-118750000D01*
X73274000Y-118750000D02*
X73250000Y-118726000D01*
X78012000Y-121250000D02*
X77295502Y-121250000D01*
X73488000Y-116750000D02*
X73488000Y-116496000D01*
X73488000Y-116496000D02*
X74482499Y-115501501D01*
X74482499Y-115501501D02*
X76000000Y-115501501D01*
X57748800Y-136500560D02*
X57748800Y-135498800D01*
X54988000Y-139512000D02*
X54988000Y-140500000D01*
X57748800Y-135498800D02*
X57500000Y-135250000D01*
X56000000Y-139127732D02*
X55372268Y-139127732D01*
X57500000Y-135250000D02*
X57000000Y-135250000D01*
X57000000Y-135250000D02*
X56750000Y-135500000D01*
X56750000Y-135500000D02*
X56750000Y-138377732D01*
X56750000Y-138377732D02*
X56000000Y-139127732D01*
X55372268Y-139127732D02*
X54988000Y-139512000D01*
D48*
X31799280Y-102979740D02*
X34600900Y-102979740D01*
X34600900Y-101829120D02*
X34600900Y-102979740D01*
X34600900Y-99520260D02*
X34600900Y-100670880D01*
X31799280Y-99520260D02*
X34600900Y-99520260D01*
X31799280Y-99520260D02*
X31799280Y-100670880D01*
X31799280Y-101829120D02*
X31799280Y-100670880D01*
X31799280Y-102979740D02*
X31799280Y-101829120D01*
D49*
X57749500Y-110196600D02*
X58446600Y-110196600D01*
X58446600Y-110196600D02*
X58482119Y-110232119D01*
X58482119Y-110232119D02*
X59982119Y-110232119D01*
X59982119Y-110232119D02*
X61750000Y-112000000D01*
X53750700Y-131499300D02*
X52512000Y-132738000D01*
X52512000Y-132738000D02*
X50250000Y-132738000D01*
X55249440Y-131499300D02*
X53750700Y-131499300D01*
X48500000Y-132738000D02*
X50250000Y-132738000D01*
X46750000Y-132738000D02*
X48500000Y-132738000D01*
X43250000Y-135250000D02*
X43250000Y-136238000D01*
X60751080Y-125998920D02*
X58750000Y-128000000D01*
X58750000Y-128000000D02*
X58750000Y-128250000D01*
X60751080Y-124999440D02*
X60751080Y-125998920D01*
X43250000Y-136238000D02*
X44226000Y-136238000D01*
X44226000Y-136238000D02*
X44738000Y-136750000D01*
X50512000Y-131250000D02*
X49795502Y-131250000D01*
X73249740Y-86499740D02*
X73500000Y-86750000D01*
X73500000Y-86750000D02*
X78238000Y-86750000D01*
X73249740Y-84500000D02*
X73249740Y-86499740D01*
X55249440Y-130501080D02*
X53998920Y-130501080D01*
X53998920Y-130501080D02*
X53250000Y-131250000D01*
X53250000Y-131250000D02*
X50512000Y-131250000D01*
X63000000Y-90012000D02*
X64750000Y-90012000D01*
X63000000Y-92250000D02*
X63000000Y-90012000D01*
X63250440Y-124999440D02*
X63250440Y-118565312D01*
X63250440Y-118565312D02*
X63407876Y-118407876D01*
X64500000Y-91000000D02*
X69579500Y-91000000D01*
X69579500Y-91000000D02*
X70000000Y-90579500D01*
X70000000Y-90579500D02*
X70000000Y-90012000D01*
X61870040Y-121857592D02*
X61870040Y-118849734D01*
X61870040Y-118849734D02*
X61648327Y-118628021D01*
X59750320Y-124999440D02*
X59750320Y-123977312D01*
X59750320Y-123977312D02*
X61870040Y-121857592D01*
X71750000Y-90012000D02*
X70000000Y-90012000D01*
X63670028Y-91615000D02*
X74385000Y-91615000D01*
X74385000Y-91615000D02*
X75250000Y-90750000D01*
X74799999Y-91200001D02*
X75250000Y-90750000D01*
X75250000Y-90750000D02*
X75250000Y-90012000D01*
X62310050Y-118500000D02*
X62310050Y-118179792D01*
X62310050Y-118179792D02*
X62139641Y-118009383D01*
X62310050Y-122039850D02*
X62310050Y-118500000D01*
X60250700Y-124999440D02*
X60250700Y-124099200D01*
X60250700Y-124099200D02*
X62310050Y-122039850D01*
X75250000Y-90012000D02*
X77000000Y-90012000D01*
X55249440Y-127000960D02*
X53500960Y-127000960D01*
X53500960Y-127000960D02*
X53250000Y-126750000D01*
X67787278Y-114697480D02*
X68458444Y-115288907D01*
X68379801Y-115290003D02*
X68457348Y-115290003D01*
X68457348Y-115290003D02*
X68458444Y-115288907D01*
D48*
X67250000Y-99750000D02*
X67250000Y-102000000D01*
D49*
X65750500Y-107196860D02*
X67303140Y-107196860D01*
X67303140Y-107196860D02*
X67750000Y-106750000D01*
D47*
X48988000Y-131250000D02*
X46750000Y-131250000D01*
X43500000Y-130476000D02*
X45976000Y-130476000D01*
X45976000Y-130476000D02*
X46750000Y-131250000D01*
D49*
X53749560Y-133000440D02*
X52690010Y-134059990D01*
X52690010Y-134059990D02*
X51809990Y-134059990D01*
X51809990Y-134059990D02*
X51750000Y-134000000D01*
X55249440Y-133000440D02*
X53749560Y-133000440D01*
X73500000Y-90012000D02*
X73500000Y-90250000D01*
X73500000Y-90250000D02*
X72750000Y-91000000D01*
X68250000Y-90012000D02*
X68504000Y-90012000D01*
X69136501Y-89379499D02*
X72613499Y-89379499D01*
X68504000Y-90012000D02*
X69136501Y-89379499D01*
X72613499Y-89379499D02*
X73246000Y-90012000D01*
X73246000Y-90012000D02*
X73500000Y-90012000D01*
X66500000Y-90012000D02*
X68250000Y-90012000D01*
X65750500Y-114697480D02*
X67787278Y-114697480D01*
X57250960Y-124999440D02*
X57250960Y-125899680D01*
X57250960Y-125899680D02*
X56149680Y-127000960D01*
X56149680Y-127000960D02*
X55249440Y-127000960D01*
X66750560Y-127000960D02*
X65365000Y-127000960D01*
X65365000Y-127000960D02*
X65364040Y-127000000D01*
X66750000Y-126500000D02*
X65864040Y-126500000D01*
X65864040Y-126500000D02*
X65364040Y-127000000D01*
X67250000Y-126000000D02*
X66750000Y-126500000D01*
X67250000Y-125589798D02*
X67250000Y-126000000D01*
X69583000Y-124385000D02*
X68454798Y-124385000D01*
X68454798Y-124385000D02*
X67250000Y-125589798D01*
X64749040Y-137749040D02*
X65500000Y-138500000D01*
X65500000Y-138500000D02*
X66000000Y-138500000D01*
X64749040Y-136500560D02*
X64749040Y-137749040D01*
X54988000Y-144000000D02*
X55704498Y-144000000D01*
X58249180Y-136500560D02*
X58249180Y-135129438D01*
X58249180Y-135129438D02*
X58119742Y-135000000D01*
X58250000Y-141488000D02*
X58250000Y-136501380D01*
X58250000Y-136501380D02*
X58249180Y-136500560D01*
X52750000Y-143512000D02*
X54500000Y-143512000D01*
X54500000Y-143512000D02*
X54988000Y-144000000D01*
X47500000Y-143512000D02*
X47500000Y-143988000D01*
X47500000Y-143988000D02*
X46500000Y-144988000D01*
X51000000Y-143512000D02*
X52750000Y-143512000D01*
X49250000Y-143512000D02*
X51000000Y-143512000D01*
X47500000Y-143512000D02*
X49250000Y-143512000D01*
X53500000Y-144988000D02*
X54000000Y-144988000D01*
X54000000Y-144988000D02*
X54988000Y-144000000D01*
X51750000Y-144988000D02*
X53500000Y-144988000D01*
X50000000Y-144988000D02*
X51750000Y-144988000D01*
X48250000Y-144988000D02*
X50000000Y-144988000D01*
X46500000Y-144988000D02*
X48250000Y-144988000D01*
X42750320Y-123600080D02*
X42750320Y-124750510D01*
X43499810Y-125500000D02*
X46226342Y-125500000D01*
X42750320Y-124750510D02*
X43499810Y-125500000D01*
X46226342Y-125500000D02*
X47052853Y-124673489D01*
X47052853Y-124673489D02*
X50006990Y-124673490D01*
X50006990Y-124673490D02*
X50512000Y-125178500D01*
X50512000Y-125178500D02*
X50512000Y-126000000D01*
X51750000Y-126500000D02*
X51250000Y-126000000D01*
X51250000Y-126000000D02*
X50512000Y-126000000D01*
X51750000Y-127255464D02*
X51750000Y-126500000D01*
X53494476Y-128999940D02*
X51750000Y-127255464D01*
X55249440Y-128999940D02*
X53494476Y-128999940D01*
X64251200Y-136500560D02*
X64251200Y-137400800D01*
X64251200Y-137400800D02*
X64250000Y-137402000D01*
X64250000Y-137402000D02*
X64250000Y-138000000D01*
X64250000Y-138000000D02*
X66000000Y-139750000D01*
X66000000Y-139750000D02*
X67000000Y-139750000D01*
X64250000Y-136501760D02*
X64251200Y-136500560D01*
X71226000Y-127500000D02*
X66751760Y-127500000D01*
X66751760Y-127500000D02*
X66750560Y-127498800D01*
X65750500Y-112695960D02*
X68304040Y-112695960D01*
X68304040Y-112695960D02*
X68488000Y-112512000D01*
X68488000Y-112512000D02*
X69178500Y-112512000D01*
X69178500Y-112512000D02*
X70000000Y-112512000D01*
X70000000Y-112512000D02*
X71750000Y-112512000D01*
X69750000Y-118726000D02*
X69496000Y-118726000D01*
X69496000Y-118726000D02*
X68770000Y-118000000D01*
X68770000Y-118000000D02*
X66948670Y-118000000D01*
X66948670Y-118000000D02*
X66751070Y-118197600D01*
X66751070Y-118197600D02*
X65750500Y-118197600D01*
X69750000Y-118726000D02*
X71500000Y-118726000D01*
X65750500Y-107697240D02*
X67930492Y-107697240D01*
X68384999Y-107242733D02*
X68384999Y-106954799D01*
X67930492Y-107697240D02*
X68384999Y-107242733D01*
X68384999Y-106954799D02*
X68704799Y-106634999D01*
X69823501Y-107073501D02*
X70629499Y-107073501D01*
X68704799Y-106634999D02*
X69384999Y-106634999D01*
X69384999Y-106634999D02*
X69823501Y-107073501D01*
X72809990Y-112739805D02*
X72634999Y-112914796D01*
X72634999Y-112914796D02*
X72634999Y-113674501D01*
X72571500Y-113738000D02*
X71750000Y-113738000D01*
X70629499Y-107073501D02*
X72809990Y-109253992D01*
X72809990Y-109253992D02*
X72809990Y-112739805D01*
X72634999Y-113674501D02*
X72571500Y-113738000D01*
X69178500Y-113738000D02*
X69250000Y-113738000D01*
X69250000Y-113738000D02*
X70000000Y-113738000D01*
X65750500Y-113696720D02*
X69208720Y-113696720D01*
X69208720Y-113696720D02*
X69250000Y-113738000D01*
X65750500Y-113696720D02*
X66446720Y-113696720D01*
X69172739Y-113732239D02*
X69178500Y-113738000D01*
X70000000Y-113738000D02*
X71750000Y-113738000D01*
X73250000Y-120250000D02*
X71500000Y-120250000D01*
X68750000Y-111622268D02*
X68750000Y-110190500D01*
X65750500Y-112195580D02*
X68176688Y-112195580D01*
X68176688Y-112195580D02*
X68750000Y-111622268D01*
X70000000Y-109762000D02*
X69178500Y-109762000D01*
X69178500Y-109762000D02*
X68750000Y-110190500D01*
X68309990Y-110008242D02*
X68309990Y-111440010D01*
X68309990Y-111440010D02*
X68052260Y-111697740D01*
X65750500Y-111697740D02*
X68052260Y-111697740D01*
X68909116Y-109409116D02*
X68309990Y-110008242D01*
X68909116Y-108507384D02*
X68909116Y-109409116D01*
X70000000Y-108238000D02*
X69178500Y-108238000D01*
X69178500Y-108238000D02*
X68909116Y-108507384D01*
X68304280Y-105695720D02*
X68500000Y-105500000D01*
X68500000Y-105500000D02*
X69250000Y-105500000D01*
X65750500Y-105695720D02*
X68304280Y-105695720D01*
D47*
X76750000Y-98499360D02*
X76750000Y-96250000D01*
D49*
X57749500Y-115695700D02*
X58804300Y-115695700D01*
X58804300Y-115695700D02*
X59250000Y-115250000D01*
X57749500Y-116196080D02*
X56627042Y-116196080D01*
X56627042Y-116196080D02*
X55573122Y-117250000D01*
X55573122Y-117250000D02*
X51178500Y-117250000D01*
X51178500Y-117250000D02*
X51000000Y-117428500D01*
X51000000Y-117428500D02*
X51000000Y-118250000D01*
X57749500Y-116196080D02*
X57749500Y-115695700D01*
X53509140Y-122000000D02*
X53509140Y-120509140D01*
X53509140Y-120509140D02*
X52500000Y-119500000D01*
X52500000Y-119500000D02*
X51996000Y-119500000D01*
X51996000Y-119500000D02*
X51000000Y-118504000D01*
X51000000Y-118504000D02*
X51000000Y-118250000D01*
X55195390Y-118250000D02*
X52524000Y-118250000D01*
X57749500Y-116696460D02*
X56748930Y-116696460D01*
X56748930Y-116696460D02*
X55195390Y-118250000D01*
D48*
X36988499Y-117488499D02*
X38250880Y-116226118D01*
X38250880Y-116226118D02*
X38250880Y-116199640D01*
X30500000Y-117500000D02*
X32344998Y-117500000D01*
X32344998Y-117500000D02*
X32356499Y-117488499D01*
X32356499Y-117488499D02*
X36988499Y-117488499D01*
X29971770Y-116971770D02*
X30500000Y-117500000D01*
X29971770Y-116919750D02*
X29971770Y-116971770D01*
X29251660Y-111800360D02*
X30540519Y-110511501D01*
X30540519Y-110511501D02*
X36988499Y-110511501D01*
X36988499Y-110511501D02*
X37450520Y-110973522D01*
X37450520Y-110973522D02*
X37450520Y-111000000D01*
X37450520Y-111000000D02*
X38250880Y-111800360D01*
X29251660Y-116199640D02*
X29971770Y-116919750D01*
X37550360Y-111800360D02*
X38250880Y-111800360D01*
D49*
X50976000Y-114500000D02*
X50000000Y-114500000D01*
X57749500Y-113696720D02*
X56363278Y-113696720D01*
X49476000Y-113976000D02*
X48750000Y-113976000D01*
X50000000Y-114500000D02*
X49476000Y-113976000D01*
X56059998Y-114000000D02*
X54500000Y-114000000D01*
X56363278Y-113696720D02*
X56059998Y-114000000D01*
X52500000Y-114500000D02*
X52500000Y-114754000D01*
X53246000Y-115500000D02*
X55877732Y-115500000D01*
X52500000Y-114754000D02*
X53246000Y-115500000D01*
X55877732Y-115500000D02*
X56680252Y-114697480D01*
X56680252Y-114697480D02*
X57749500Y-114697480D01*
X50000000Y-109250000D02*
X50988000Y-109250000D01*
X50000000Y-101590270D02*
X50000000Y-102119742D01*
X50000000Y-102119742D02*
X50190129Y-102309871D01*
X48750000Y-100488000D02*
X48750000Y-99250000D01*
X49000000Y-99250000D02*
X48750000Y-99250000D01*
X50000000Y-100250000D02*
X49000000Y-99250000D01*
X50000000Y-101590270D02*
X50000000Y-100250000D01*
D48*
X38250880Y-99000880D02*
X37250000Y-98000000D01*
X37250000Y-98000000D02*
X30302020Y-98000000D01*
X38250880Y-99050360D02*
X38250880Y-99000880D01*
X29251660Y-99050360D02*
X30302020Y-98000000D01*
X38250880Y-103449640D02*
X38250880Y-103499120D01*
X38250880Y-103499120D02*
X37250000Y-104500000D01*
X37250000Y-104500000D02*
X30302020Y-104500000D01*
X30302020Y-104500000D02*
X29251660Y-103449640D01*
D49*
X53250000Y-108250000D02*
X51734000Y-108250000D01*
X51734000Y-108250000D02*
X50988000Y-108996000D01*
X50988000Y-108996000D02*
X50988000Y-109250000D01*
X54440010Y-109440010D02*
X53250000Y-108250000D01*
X54697360Y-111197360D02*
X54440010Y-110940010D01*
X54440010Y-110940010D02*
X54440010Y-109440010D01*
X57749500Y-111197360D02*
X54697360Y-111197360D01*
X57749500Y-112195580D02*
X54195580Y-112195580D01*
X54195580Y-112195580D02*
X54000000Y-112000000D01*
X54000000Y-112000000D02*
X54000000Y-109750000D01*
X54000000Y-109750000D02*
X53500000Y-109250000D01*
X53500000Y-109250000D02*
X52512000Y-109250000D01*
X52524000Y-106750000D02*
X52524000Y-106496000D01*
X52524000Y-106496000D02*
X51608501Y-105580501D01*
X51608501Y-105580501D02*
X51608501Y-104176499D01*
X51608501Y-104176499D02*
X50432002Y-103000000D01*
X50432002Y-103000000D02*
X48750000Y-103000000D01*
X48750000Y-86988000D02*
X48750000Y-85750000D01*
D48*
X37250000Y-91750000D02*
X30302020Y-91750000D01*
X30302020Y-91750000D02*
X29251660Y-90699640D01*
X38250880Y-90749120D02*
X37250000Y-91750000D01*
X38250880Y-90699640D02*
X38250880Y-90749120D01*
X38250880Y-86300360D02*
X38250880Y-86250880D01*
X38250880Y-86250880D02*
X37250000Y-85250000D01*
X37250000Y-85250000D02*
X30250000Y-85250000D01*
X30250000Y-85250000D02*
X29251660Y-86248340D01*
X29251660Y-86248340D02*
X29251660Y-86300360D01*
D49*
X52524000Y-106750000D02*
X53091500Y-106750000D01*
X53091500Y-106750000D02*
X55036960Y-108695460D01*
X55036960Y-108695460D02*
X56748930Y-108695460D01*
X56748930Y-108695460D02*
X57749500Y-108695460D01*
X57749500Y-109696220D02*
X55318488Y-109696220D01*
X53372268Y-107750000D02*
X51746000Y-107750000D01*
X51000000Y-107004000D02*
X51000000Y-106750000D01*
X55318488Y-109696220D02*
X53372268Y-107750000D01*
X51746000Y-107750000D02*
X51000000Y-107004000D01*
X55249440Y-130000700D02*
X56149680Y-130000700D01*
X56149680Y-130000700D02*
X59533980Y-133385000D01*
X59533980Y-133385000D02*
X62000000Y-133385000D01*
X53250700Y-130000700D02*
X52750000Y-129500000D01*
X52750000Y-129500000D02*
X50512000Y-129500000D01*
X55249440Y-130000700D02*
X53250700Y-130000700D01*
D47*
X79024000Y-103750000D02*
X79024000Y-103475680D01*
X79024000Y-103475680D02*
X76948690Y-101400370D01*
X71070550Y-101400370D02*
X69720920Y-102750000D01*
X76948690Y-101400370D02*
X71070550Y-101400370D01*
X69720920Y-102750000D02*
X69520260Y-102750000D01*
X69520260Y-102750000D02*
X68250000Y-102750000D01*
X68250000Y-102750000D02*
X67250000Y-103750000D01*
D49*
X74488000Y-110500000D02*
X74488000Y-107262000D01*
X74488000Y-107262000D02*
X75750000Y-106000000D01*
D48*
X79024000Y-104726000D02*
X77750000Y-106000000D01*
X77750000Y-106000000D02*
X75750000Y-106000000D01*
X79024000Y-103750000D02*
X79024000Y-104726000D01*
X69550000Y-99750000D02*
X69550000Y-102720260D01*
X69550000Y-102720260D02*
X69520260Y-102750000D01*
X76750000Y-93500640D02*
X76750000Y-92500000D01*
X76750000Y-92500000D02*
X78750000Y-90500000D01*
X69550000Y-99750000D02*
X69550000Y-97750000D01*
X69550000Y-97750000D02*
X73799360Y-93500640D01*
X73799360Y-93500640D02*
X76750000Y-93500640D01*
D49*
X80500000Y-117690000D02*
X78072000Y-117690000D01*
X78072000Y-117690000D02*
X78012000Y-117750000D01*
X54283502Y-103750000D02*
X54283502Y-104216498D01*
X54283502Y-104216498D02*
X54250000Y-104250000D01*
X54470880Y-103562622D02*
X54283502Y-103750000D01*
X60022701Y-92806799D02*
X60022701Y-101445301D01*
X60022701Y-101445301D02*
X57218002Y-104250000D01*
X57218002Y-104250000D02*
X56750000Y-104250000D01*
X60750000Y-91512000D02*
X60750000Y-92079500D01*
X60750000Y-92079500D02*
X60022701Y-92806799D01*
X55196860Y-107196860D02*
X54250000Y-106250000D01*
X54250000Y-106250000D02*
X54250000Y-104250000D01*
X57749500Y-107196860D02*
X55196860Y-107196860D01*
X51781998Y-102750000D02*
X51805998Y-102726000D01*
X51805998Y-102726000D02*
X54250000Y-102726000D01*
X50477299Y-93806799D02*
X50477299Y-101445301D01*
X50477299Y-101445301D02*
X51781998Y-102750000D01*
X48750000Y-91512000D02*
X48750000Y-92079500D01*
X48750000Y-92079500D02*
X50477299Y-93806799D01*
X55946480Y-106696480D02*
X55136501Y-105886501D01*
X55136501Y-105886501D02*
X55136501Y-103358501D01*
X55136501Y-103358501D02*
X54504000Y-102726000D01*
X54504000Y-102726000D02*
X54250000Y-102726000D01*
X57749500Y-106696480D02*
X55946480Y-106696480D01*
X52762000Y-100750000D02*
X54488000Y-100750000D01*
X57749500Y-106196100D02*
X56748930Y-106196100D01*
X56748930Y-106196100D02*
X55576511Y-105023681D01*
X55576511Y-102092511D02*
X54488000Y-101004000D01*
X54488000Y-101004000D02*
X54488000Y-100750000D01*
X55576511Y-105023681D02*
X55576511Y-102092511D01*
X57738000Y-100750000D02*
X56012000Y-100750000D01*
X57749500Y-105695720D02*
X56879649Y-105695720D01*
X56879649Y-105695720D02*
X56016521Y-104832592D01*
X56016521Y-104832592D02*
X56016521Y-101576021D01*
X56016521Y-101576021D02*
X56012000Y-101571500D01*
X56012000Y-101571500D02*
X56012000Y-100750000D01*
X50512000Y-127750000D02*
X49944500Y-127750000D01*
X49944500Y-127750000D02*
X49620501Y-127426001D01*
X49620501Y-127426001D02*
X49620501Y-125176499D01*
X49557501Y-125113499D02*
X47235111Y-125113499D01*
X49620501Y-125176499D02*
X49557501Y-125113499D01*
X47235111Y-125113499D02*
X45249680Y-127098930D01*
X45249680Y-127098930D02*
X45249680Y-127399920D01*
X55249440Y-129500320D02*
X53372588Y-129500320D01*
X53372588Y-129500320D02*
X51622268Y-127750000D01*
X51622268Y-127750000D02*
X51079500Y-127750000D01*
X51079500Y-127750000D02*
X50512000Y-127750000D01*
X56512000Y-139238000D02*
X57250960Y-138499040D01*
X57250960Y-138499040D02*
X57250960Y-136500560D01*
X56512000Y-140500000D02*
X56512000Y-139238000D01*
X56512000Y-142250000D02*
X56512000Y-140500000D01*
X56512000Y-144000000D02*
X56512000Y-142250000D01*
D47*
X38901000Y-95750000D02*
X40548700Y-95750000D01*
X40548700Y-95750000D02*
X41800360Y-97001660D01*
X41800360Y-106000880D02*
X39650120Y-106000880D01*
X39650120Y-106000880D02*
X38901000Y-106750000D01*
D49*
X29849000Y-106750000D02*
X29849000Y-108349000D01*
X29849000Y-108349000D02*
X30000000Y-108500000D01*
X38000000Y-95910202D02*
X38740798Y-95910202D01*
X38740798Y-95910202D02*
X38901000Y-95750000D01*
X29849000Y-95750000D02*
X30861000Y-95750000D01*
X30861000Y-95750000D02*
X32192001Y-97081001D01*
X32192001Y-97081001D02*
X36829201Y-97081001D01*
X36829201Y-97081001D02*
X38000000Y-95910202D01*
X59500000Y-105250000D02*
X59447880Y-105197880D01*
X59447880Y-105197880D02*
X57749500Y-105197880D01*
D48*
X36849000Y-138000000D02*
X36849000Y-143349000D01*
X36849000Y-143349000D02*
X37750000Y-144250000D01*
D49*
X35250000Y-132500000D02*
X36849000Y-132500000D01*
X46750000Y-134262000D02*
X46750000Y-133545502D01*
X48500000Y-118750000D02*
X47300150Y-118750000D01*
X47300150Y-118750000D02*
X47299270Y-118750880D01*
X55202658Y-118865000D02*
X54135000Y-118865000D01*
X54135000Y-118865000D02*
X54000000Y-119000000D01*
X57749500Y-117697220D02*
X56370438Y-117697220D01*
X56370438Y-117697220D02*
X55202658Y-118865000D01*
X47299270Y-118750880D02*
X46199640Y-118750880D01*
X57749500Y-117196840D02*
X57749500Y-117697220D01*
X35599000Y-106750000D02*
X36611000Y-106750000D01*
X36611000Y-106750000D02*
X38361000Y-105000000D01*
X38361000Y-105000000D02*
X39250000Y-105000000D01*
X35599000Y-106750000D02*
X33151000Y-106750000D01*
X33151000Y-106750000D02*
X32139000Y-106750000D01*
X31488000Y-107401000D02*
X31488000Y-108428500D01*
X32139000Y-106750000D02*
X31488000Y-107401000D01*
X31488000Y-108428500D02*
X31488000Y-109250000D01*
X31488000Y-109250000D02*
X32204498Y-109250000D01*
D48*
X34600900Y-113420880D02*
X34600900Y-114000000D01*
X34600900Y-114000000D02*
X34600900Y-114579120D01*
D49*
X33250000Y-114000000D02*
X34600900Y-114000000D01*
X33226000Y-118750000D02*
X33942498Y-118750000D01*
D48*
X34600900Y-115729740D02*
X31799280Y-115729740D01*
X34600900Y-114579120D02*
X34600900Y-115729740D01*
X34600900Y-112270260D02*
X34600900Y-113420880D01*
X31799280Y-112270260D02*
X34600900Y-112270260D01*
X31799280Y-113420880D02*
X31799280Y-112270260D01*
X31799280Y-114579120D02*
X31799280Y-113420880D01*
X31799280Y-115729740D02*
X31799280Y-114579120D01*
D49*
X55500000Y-112944990D02*
X55344990Y-112944990D01*
X55749030Y-112695960D02*
X55500000Y-112944990D01*
X57749500Y-112695960D02*
X55749030Y-112695960D01*
X53452000Y-94952000D02*
X52011500Y-94952000D01*
X54500000Y-96000000D02*
X53452000Y-94952000D01*
X54500000Y-97500000D02*
X54500000Y-96000000D01*
X55344990Y-112944990D02*
X55300000Y-112900000D01*
X35599000Y-95750000D02*
X37250000Y-95750000D01*
X33151000Y-95750000D02*
X35599000Y-95750000D01*
X31488000Y-93250000D02*
X31488000Y-95099000D01*
X31488000Y-95099000D02*
X32139000Y-95750000D01*
X32139000Y-95750000D02*
X33151000Y-95750000D01*
D48*
X34600900Y-87920880D02*
X34600900Y-88500000D01*
X34600900Y-88500000D02*
X34600900Y-89079120D01*
D49*
X33250000Y-88500000D02*
X34600900Y-88500000D01*
X31488000Y-93250000D02*
X32204498Y-93250000D01*
D48*
X34600900Y-86770260D02*
X34600900Y-87920880D01*
X31799280Y-86770260D02*
X34600900Y-86770260D01*
X31799280Y-87920880D02*
X31799280Y-86770260D01*
X31799280Y-89079120D02*
X31799280Y-87920880D01*
X31799280Y-89079120D02*
X31799280Y-90229740D01*
X34600900Y-89079120D02*
X34600900Y-90229740D01*
X31799280Y-90229740D02*
X34600900Y-90229740D01*
D49*
X56000000Y-86500000D02*
X56548000Y-85952000D01*
X56548000Y-85952000D02*
X58238500Y-85952000D01*
X56000000Y-88250000D02*
X56000000Y-86500000D01*
X57749500Y-107697240D02*
X58697240Y-107697240D01*
X58697240Y-107697240D02*
X59250000Y-108250000D01*
X43250000Y-137762000D02*
X43250000Y-139960000D01*
X43250000Y-139960000D02*
X43500000Y-140210000D01*
X71250760Y-84500000D02*
X71250760Y-86750760D01*
X71250760Y-86750760D02*
X72250000Y-87750000D01*
X72250000Y-87750000D02*
X73329500Y-87750000D01*
X73329500Y-87750000D02*
X73500000Y-87920500D01*
X73500000Y-87920500D02*
X73500000Y-88488000D01*
X73500000Y-88488000D02*
X75250000Y-88488000D01*
X68250000Y-88488000D02*
X68250000Y-87920500D01*
X68250000Y-87920500D02*
X69249240Y-86921260D01*
X69249240Y-86921260D02*
X69249240Y-84500000D01*
X68250000Y-88488000D02*
X70000000Y-88488000D01*
X66500000Y-88488000D02*
X66500000Y-87920500D01*
X66500000Y-87920500D02*
X67250260Y-87170240D01*
X67250260Y-87170240D02*
X67250260Y-84500000D01*
X64750000Y-88488000D02*
X66500000Y-88488000D01*
X62977693Y-132477693D02*
X64250000Y-131205386D01*
X64250000Y-131205386D02*
X64250000Y-128500000D01*
X64250000Y-128500000D02*
X64750820Y-127999180D01*
X64750820Y-127999180D02*
X65850320Y-127999180D01*
X65850320Y-127999180D02*
X66750560Y-127999180D01*
X66749740Y-128000000D02*
X66750560Y-127999180D01*
X62949740Y-131635904D02*
X63809990Y-130775654D01*
X63809990Y-130775654D02*
X63809991Y-128317741D01*
X63809991Y-128317741D02*
X64749040Y-127378692D01*
X64749040Y-127378692D02*
X64749040Y-124999440D01*
X59249940Y-136500560D02*
X59249940Y-137522688D01*
X59249940Y-137522688D02*
X59750000Y-138022748D01*
X59750000Y-138022748D02*
X59750000Y-138755464D01*
X65334999Y-145584999D02*
X66250000Y-146500000D01*
X59750000Y-138755464D02*
X59173489Y-139331975D01*
X59173489Y-139331975D02*
X59173490Y-144740492D01*
X59173490Y-144740492D02*
X60017997Y-145584999D01*
X60017997Y-145584999D02*
X65334999Y-145584999D01*
X66250000Y-146500000D02*
X72502540Y-146500000D01*
X72502540Y-146500000D02*
X73752540Y-145250000D01*
X64492248Y-141119980D02*
X63750820Y-140378552D01*
X63750820Y-140378552D02*
X63750820Y-136500560D01*
X71751020Y-143251020D02*
X69619980Y-141119980D01*
X69619980Y-141119980D02*
X64492248Y-141119980D01*
X71751020Y-145250000D02*
X71751020Y-143251020D01*
X66750560Y-132500060D02*
X64749940Y-132500060D01*
X64749940Y-132500060D02*
X63250000Y-134000000D01*
X63250000Y-134000000D02*
X63750820Y-134500820D01*
X63750820Y-134500820D02*
X63750820Y-136500560D01*
X59250000Y-134000000D02*
X63250000Y-134000000D01*
X58749560Y-134500440D02*
X59250000Y-134000000D01*
X58749560Y-136500560D02*
X58749560Y-134500440D01*
X60559990Y-134440010D02*
X62000000Y-134440010D01*
X62000000Y-134440010D02*
X62940010Y-134440010D01*
X62500000Y-135000000D02*
X62000000Y-134500000D01*
X62000000Y-134500000D02*
X62000000Y-134440010D01*
X66750560Y-131999680D02*
X64325449Y-131999680D01*
X64325449Y-131999680D02*
X62940129Y-133385000D01*
X67559990Y-141559990D02*
X64559264Y-141559989D01*
X64559264Y-141559989D02*
X64559264Y-141559990D01*
X63250440Y-136500560D02*
X63250440Y-140500440D01*
X63250440Y-140500440D02*
X64309989Y-141559989D01*
X64309989Y-141559989D02*
X64559264Y-141559989D01*
X69749500Y-145250000D02*
X69099501Y-144600001D01*
X69099501Y-144600001D02*
X69099501Y-143099501D01*
X69099501Y-143099501D02*
X67559990Y-141559990D01*
X60250700Y-136500560D02*
X60250700Y-134749300D01*
X60250700Y-134749300D02*
X60559990Y-134440010D01*
X62940010Y-134440010D02*
X63250440Y-134750440D01*
X63250440Y-134750440D02*
X63250440Y-136500560D01*
X59750320Y-136500560D02*
X59750320Y-137400800D01*
X59750320Y-137400800D02*
X60250000Y-137900480D01*
X60250000Y-137900480D02*
X60250000Y-138877732D01*
X60250000Y-138877732D02*
X59613499Y-139514233D01*
X59613499Y-139514233D02*
X59613499Y-142057501D01*
X59613499Y-142057501D02*
X59676499Y-142120501D01*
X59676499Y-142120501D02*
X67120501Y-142120501D01*
X67750520Y-143250520D02*
X67750520Y-145250000D01*
X67120501Y-142120501D02*
X67750520Y-142750520D01*
X67750520Y-142750520D02*
X67750520Y-143250520D01*
X77250000Y-123000000D02*
X78071500Y-123000000D01*
X78071500Y-123000000D02*
X78660990Y-122410510D01*
X78660990Y-122410510D02*
X78660990Y-121307010D01*
X78660990Y-121307010D02*
X79738000Y-120230000D01*
X79738000Y-120230000D02*
X80500000Y-120230000D01*
X74917000Y-123115000D02*
X77135000Y-123115000D01*
X77135000Y-123115000D02*
X77250000Y-123000000D01*
X77250000Y-124524000D02*
X75056000Y-124524000D01*
X75056000Y-124524000D02*
X74917000Y-124385000D01*
X80500000Y-122770000D02*
X79258000Y-122770000D01*
X79258000Y-122770000D02*
X77504000Y-124524000D01*
X77504000Y-124524000D02*
X77250000Y-124524000D01*
X80020000Y-123250000D02*
X80500000Y-122770000D01*
X51704498Y-112750000D02*
X50988000Y-112750000D01*
X44000000Y-116500440D02*
X44000000Y-117500000D01*
X49750000Y-111000000D02*
X51000000Y-111000000D01*
X36000000Y-118750000D02*
X34750000Y-118750000D01*
X36000440Y-114000000D02*
X37000000Y-114000000D01*
X45704498Y-107885000D02*
X45103000Y-107885000D01*
X45103000Y-107885000D02*
X44988000Y-108000000D01*
X44000000Y-103750440D02*
X44000000Y-104750000D01*
X35704498Y-109250000D02*
X34988000Y-109250000D01*
X36000440Y-101250000D02*
X37000000Y-101250000D01*
X34988000Y-109250000D02*
X33012000Y-109250000D01*
X49575129Y-105000000D02*
X50976000Y-105000000D01*
X44000000Y-90500440D02*
X44000000Y-91500000D01*
X35704498Y-93250000D02*
X34988000Y-93250000D01*
X36000440Y-88500000D02*
X37000000Y-88500000D01*
X33012000Y-93250000D02*
X34988000Y-93250000D01*
X77550000Y-109950000D02*
X77000000Y-110500000D01*
X77000000Y-110500000D02*
X76012000Y-110500000D01*
X78650000Y-109950000D02*
X77550000Y-109950000D01*
X69639008Y-118093499D02*
X73922501Y-118093499D01*
X75012000Y-117004000D02*
X75012000Y-116750000D01*
X73922501Y-118093499D02*
X75012000Y-117004000D01*
X65750500Y-117697220D02*
X66629182Y-117697220D01*
X66629182Y-117697220D02*
X66766412Y-117559990D01*
X66766412Y-117559990D02*
X69105499Y-117559990D01*
X69105499Y-117559990D02*
X69639008Y-118093499D01*
X75758000Y-117750000D02*
X76488000Y-117750000D01*
X75012000Y-117004000D02*
X75758000Y-117750000D01*
X65750500Y-115695700D02*
X66945700Y-115695700D01*
X68800520Y-117119980D02*
X69170500Y-116750000D01*
X66945700Y-115695700D02*
X67500000Y-116250000D01*
X67500000Y-116250000D02*
X67500000Y-116750000D01*
X67500000Y-116750000D02*
X67869980Y-117119980D01*
X67869980Y-117119980D02*
X68800520Y-117119980D01*
X69170500Y-116750000D02*
X69738000Y-116750000D01*
X65750500Y-118695440D02*
X67969440Y-118695440D01*
X67969440Y-118695440D02*
X68000000Y-118726000D01*
X58250000Y-144700000D02*
X58250000Y-143012000D01*
X48750000Y-87795502D02*
X48750000Y-88512000D01*
X55249440Y-134499040D02*
X56881218Y-134499040D01*
X56881218Y-134499040D02*
X57815129Y-133565129D01*
X54750000Y-136500000D02*
X54750000Y-137250000D01*
X54750000Y-137250000D02*
X53538815Y-138461185D01*
X54190010Y-135940010D02*
X54750000Y-136500000D01*
X54472668Y-134500000D02*
X54190010Y-134782658D01*
X54190010Y-134782658D02*
X54190010Y-135940010D01*
X54500960Y-134499040D02*
X54500000Y-134500000D01*
X54500000Y-134500000D02*
X54472668Y-134500000D01*
X55249440Y-134499040D02*
X54500960Y-134499040D01*
X56769161Y-115230839D02*
X55750000Y-116250000D01*
X55750000Y-116250000D02*
X52512000Y-116250000D01*
X57749500Y-115197860D02*
X57052140Y-115197860D01*
X57052140Y-115197860D02*
X57019161Y-115230839D01*
X57019161Y-115230839D02*
X56769161Y-115230839D01*
X48750000Y-101295502D02*
X48750000Y-102012000D01*
X55249440Y-134001200D02*
X56498800Y-134001200D01*
X56498800Y-134001200D02*
X57000000Y-133500000D01*
X53750000Y-134600400D02*
X53750000Y-135750000D01*
X53750000Y-135750000D02*
X52288815Y-137211185D01*
X55249440Y-134001200D02*
X54349200Y-134001200D01*
X54349200Y-134001200D02*
X53750000Y-134600400D01*
X53500000Y-113000000D02*
X53250000Y-112750000D01*
X53250000Y-112750000D02*
X52512000Y-112750000D01*
X53500000Y-114000000D02*
X53500000Y-113000000D01*
X54250000Y-114750000D02*
X53500000Y-114000000D01*
X56005464Y-114750000D02*
X54250000Y-114750000D01*
X57749500Y-114197100D02*
X56558364Y-114197100D01*
X56558364Y-114197100D02*
X56005464Y-114750000D01*
X52524000Y-111000000D02*
X53250000Y-111000000D01*
X53250000Y-111000000D02*
X53500000Y-111250000D01*
X53500000Y-111250000D02*
X53500000Y-112250000D01*
X54970192Y-113559990D02*
X55877740Y-113559990D01*
X53500000Y-112250000D02*
X54634999Y-113384999D01*
X54634999Y-113384999D02*
X54795201Y-113384999D01*
X54795201Y-113384999D02*
X54970192Y-113559990D01*
X55877740Y-113559990D02*
X56241390Y-113196340D01*
X56241390Y-113196340D02*
X57749500Y-113196340D01*
X48750000Y-114783502D02*
X48750000Y-115500000D01*
X55249440Y-133500820D02*
X56116302Y-133500820D01*
X56116302Y-133500820D02*
X56940110Y-132677012D01*
X56940110Y-132677012D02*
X56940110Y-132440148D01*
X53228132Y-134500000D02*
X52500000Y-134500000D01*
X52500000Y-134500000D02*
X51038815Y-135961185D01*
X55249440Y-133500820D02*
X54227312Y-133500820D01*
X54227312Y-133500820D02*
X53228132Y-134500000D01*
X48000000Y-108000000D02*
X46512000Y-108000000D01*
X57749500Y-111697740D02*
X59197740Y-111697740D01*
X59197740Y-111697740D02*
X59250000Y-111750000D01*
X38250000Y-109250000D02*
X36512000Y-109250000D01*
X57749500Y-110696980D02*
X58986983Y-110696980D01*
X58986983Y-110696980D02*
X59250000Y-110959997D01*
X60500000Y-144700000D02*
X60500000Y-143012000D01*
X60500000Y-141488000D02*
X60500000Y-139250000D01*
X60500000Y-139250000D02*
X60751080Y-138998920D01*
X60751080Y-138998920D02*
X60751080Y-136500560D01*
X62750000Y-144700000D02*
X62750000Y-143262000D01*
X62750000Y-143262000D02*
X62500000Y-143012000D01*
X62500000Y-141488000D02*
X62500000Y-139250000D01*
X62500000Y-139250000D02*
X61248920Y-137998920D01*
X61248920Y-137998920D02*
X61248920Y-136500560D01*
X53491564Y-105020442D02*
X52520442Y-105020442D01*
X52520442Y-105020442D02*
X52500000Y-105000000D01*
X57749500Y-109195840D02*
X58945840Y-109195840D01*
X58945840Y-109195840D02*
X59250000Y-109500000D01*
X38000000Y-93250000D02*
X36512000Y-93250000D01*
X57749500Y-108197620D02*
X56135760Y-108197620D01*
X56135760Y-108197620D02*
X55750000Y-107811860D01*
X58238500Y-90079500D02*
X60658500Y-90079500D01*
X60658500Y-90079500D02*
X60750000Y-89988000D01*
X48750000Y-89988000D02*
X51670000Y-89988000D01*
X51670000Y-89988000D02*
X51761500Y-90079500D01*
X51238000Y-100750000D02*
X51238000Y-99853000D01*
X51238000Y-99853000D02*
X52011500Y-99079500D01*
X59262000Y-100750000D02*
X59262000Y-99853000D01*
X59262000Y-99853000D02*
X58488500Y-99079500D01*
X73250000Y-112500000D02*
X73500000Y-112250000D01*
X73500000Y-112250000D02*
X74488000Y-112250000D01*
X73250000Y-113209997D02*
X73250000Y-112500000D01*
X66750560Y-128999940D02*
X73328330Y-128999940D01*
X73328330Y-128999940D02*
X74540003Y-127788267D01*
X74540003Y-127788267D02*
X74540003Y-127500000D01*
X79733521Y-111516479D02*
X80483521Y-111516479D01*
X80483521Y-111516479D02*
X80678501Y-111321499D01*
X79733521Y-111516479D02*
X79536501Y-111713499D01*
X79536501Y-111713499D02*
X79536501Y-113575521D01*
X79536501Y-113575521D02*
X78225521Y-114886501D01*
X78225521Y-114886501D02*
X75442499Y-114886501D01*
X75442499Y-114886501D02*
X75379499Y-114823501D01*
X75379499Y-114823501D02*
X75379499Y-113136501D01*
X75379499Y-113136501D02*
X76012000Y-112504000D01*
X76012000Y-112504000D02*
X76012000Y-112250000D01*
X81250000Y-110750000D02*
X80678501Y-111321499D01*
X73250000Y-114000000D02*
X74488000Y-114000000D01*
X66750560Y-128499560D02*
X73206442Y-128499560D01*
X73750000Y-127956002D02*
X73750000Y-127500000D01*
X73206442Y-128499560D02*
X73750000Y-127956002D01*
X77250000Y-113500000D02*
X76750000Y-114000000D01*
X76750000Y-114000000D02*
X76012000Y-114000000D01*
X77250000Y-112000000D02*
X77250000Y-113500000D01*
X77700000Y-111550000D02*
X77250000Y-112000000D01*
X78650000Y-111550000D02*
X77700000Y-111550000D01*
X74917000Y-121845000D02*
X75893000Y-121845000D01*
X75893000Y-121845000D02*
X76488000Y-121250000D01*
X64039592Y-113250000D02*
X64093252Y-113196340D01*
X64093252Y-113196340D02*
X65750500Y-113196340D01*
X66750560Y-134499040D02*
X65228318Y-134499040D01*
X65228318Y-134499040D02*
X64614639Y-133885361D01*
X69000000Y-107250000D02*
X68052380Y-108197620D01*
X68052380Y-108197620D02*
X65750500Y-108197620D01*
X66750560Y-134001200D02*
X74498800Y-134001200D01*
X74498800Y-134001200D02*
X74500000Y-134000000D01*
X65750500Y-109195840D02*
X64093752Y-109195840D01*
X64093752Y-109195840D02*
X64039592Y-109250000D01*
X66750560Y-133500820D02*
X74129437Y-133500820D01*
X74129437Y-133500820D02*
X74460130Y-133170127D01*
X73691867Y-132885820D02*
X73267603Y-132885820D01*
X73267603Y-132885820D02*
X73152983Y-133000440D01*
X73152983Y-133000440D02*
X67650800Y-133000440D01*
X67650800Y-133000440D02*
X66750560Y-133000440D01*
X65750500Y-110196600D02*
X64092992Y-110196600D01*
X64092992Y-110196600D02*
X64039592Y-110250000D01*
X64039592Y-111250000D02*
X64092232Y-111197360D01*
X64092232Y-111197360D02*
X65750500Y-111197360D01*
X63750000Y-118975954D02*
X64032876Y-118693078D01*
X64032876Y-118693078D02*
X64032876Y-117782876D01*
X63750000Y-124098380D02*
X63750000Y-118975954D01*
X63750820Y-124999440D02*
X63750820Y-124099200D01*
X63750820Y-124099200D02*
X63750000Y-124098380D01*
X65750500Y-116196080D02*
X64749930Y-116196080D01*
X64749930Y-116196080D02*
X62750060Y-118195950D01*
X62750060Y-118195950D02*
X62750060Y-124099200D01*
X62750060Y-124099200D02*
X62750060Y-124999440D01*
X65750500Y-106196100D02*
X64356302Y-106196100D01*
X64356302Y-106196100D02*
X64120199Y-105959997D01*
X64120199Y-105959997D02*
X64000000Y-105959997D01*
X61749300Y-136500560D02*
X61749300Y-135534311D01*
X61749300Y-135534311D02*
X61269999Y-135055010D01*
X64000000Y-106750000D02*
X64053520Y-106696480D01*
X64053520Y-106696480D02*
X65750500Y-106696480D01*
X62249680Y-136500560D02*
X62249680Y-138114240D01*
X62249680Y-138114240D02*
X62635440Y-138500000D01*
X74532155Y-130572614D02*
X74107891Y-130572614D01*
X74107891Y-130572614D02*
X74036357Y-130501080D01*
X74036357Y-130501080D02*
X67650800Y-130501080D01*
X67650800Y-130501080D02*
X66750560Y-130501080D01*
X66751640Y-130500000D02*
X66750560Y-130501080D01*
X65750500Y-108695460D02*
X68226457Y-108695460D01*
X68226457Y-108695460D02*
X68294116Y-108763119D01*
X73250000Y-129886080D02*
X72825736Y-129886080D01*
X67650800Y-130000700D02*
X66750560Y-130000700D01*
X72825736Y-129886080D02*
X72711116Y-130000700D01*
X72711116Y-130000700D02*
X67650800Y-130000700D01*
X65750500Y-109696220D02*
X67474905Y-109696220D01*
X67474905Y-109696220D02*
X67686604Y-109907919D01*
X64934871Y-128684871D02*
X65750320Y-129500320D01*
X65750320Y-129500320D02*
X66750560Y-129500320D01*
X65750500Y-110696980D02*
X66614240Y-110696980D01*
X66614240Y-110696980D02*
X67000000Y-111082740D01*
X68000000Y-125750000D02*
X69488000Y-125750000D01*
X69488000Y-125750000D02*
X69583000Y-125655000D01*
X58749560Y-124999440D02*
X58749560Y-124099200D01*
X58749560Y-124099200D02*
X61169815Y-121678945D01*
X61169815Y-121678945D02*
X61178945Y-121678945D01*
X68000000Y-122000000D02*
X69428000Y-122000000D01*
X69428000Y-122000000D02*
X69583000Y-121845000D01*
X60363246Y-121863246D02*
X60363246Y-121584442D01*
X60363246Y-121584442D02*
X61055071Y-120892617D01*
X61055071Y-120892617D02*
X61255040Y-120892617D01*
X58309551Y-123916941D02*
X60363246Y-121863246D01*
X58249180Y-124999440D02*
X58249180Y-123977312D01*
X58249180Y-123977312D02*
X58309551Y-123916941D01*
D50*
G36*
X79161094Y-124060660D02*
X79695703Y-124167000D01*
X81304297Y-124167000D01*
X81540000Y-124120116D01*
X81540000Y-146790000D01*
X73287342Y-146790000D01*
X73542524Y-146534818D01*
X74007021Y-146535223D01*
X74479483Y-146340005D01*
X74841275Y-145978845D01*
X75037317Y-145506724D01*
X75037318Y-145504481D01*
X76467817Y-145504481D01*
X76663035Y-145976943D01*
X77024195Y-146338735D01*
X77496316Y-146534777D01*
X78007521Y-146535223D01*
X78479983Y-146340005D01*
X78573220Y-146246931D01*
X78640470Y-146351441D01*
X78852670Y-146496431D01*
X79104560Y-146547440D01*
X80404560Y-146547440D01*
X80639877Y-146503162D01*
X80856001Y-146364090D01*
X81000991Y-146151890D01*
X81052000Y-145900000D01*
X81052000Y-144600000D01*
X81007722Y-144364683D01*
X80868650Y-144148559D01*
X80656450Y-144003569D01*
X80404560Y-143952560D01*
X79104560Y-143952560D01*
X78869243Y-143996838D01*
X78653119Y-144135910D01*
X78573255Y-144252795D01*
X78481885Y-144161265D01*
X78009764Y-143965223D01*
X77498559Y-143964777D01*
X77026097Y-144159995D01*
X76664305Y-144521155D01*
X76468263Y-144993276D01*
X76467817Y-145504481D01*
X75037318Y-145504481D01*
X75037763Y-144995519D01*
X74842545Y-144523057D01*
X74481385Y-144161265D01*
X74009264Y-143965223D01*
X73498059Y-143964777D01*
X73025597Y-144159995D01*
X72751619Y-144433494D01*
X72511020Y-144192475D01*
X72511020Y-143251020D01*
X72453168Y-142960181D01*
X72288421Y-142713619D01*
X70157381Y-140582579D01*
X69910819Y-140417832D01*
X69619980Y-140359980D01*
X67957148Y-140359980D01*
X67964940Y-140321500D01*
X67964940Y-139178500D01*
X67920662Y-138943183D01*
X67781590Y-138727059D01*
X67569390Y-138582069D01*
X67317500Y-138531060D01*
X66934974Y-138531060D01*
X66935162Y-138314833D01*
X66793117Y-137971057D01*
X66530327Y-137707808D01*
X66186799Y-137565162D01*
X65814833Y-137564838D01*
X65690863Y-137616061D01*
X65509040Y-137434238D01*
X65509040Y-137335684D01*
X65546480Y-137150800D01*
X65546480Y-135850320D01*
X65502202Y-135615003D01*
X65431603Y-135505288D01*
X77964538Y-135505288D01*
X78159792Y-135977839D01*
X78431886Y-136250408D01*
X78161062Y-136520760D01*
X77964984Y-136992968D01*
X77964538Y-137504268D01*
X78159792Y-137976819D01*
X78433156Y-138250660D01*
X78161062Y-138522280D01*
X77964984Y-138994488D01*
X77964538Y-139505788D01*
X78159792Y-139978339D01*
X78521020Y-140340198D01*
X78993228Y-140536276D01*
X79504528Y-140536722D01*
X79977079Y-140341468D01*
X80338938Y-139980240D01*
X80535016Y-139508032D01*
X80535462Y-138996732D01*
X80340208Y-138524181D01*
X80066844Y-138250340D01*
X80338938Y-137978720D01*
X80535016Y-137506512D01*
X80535462Y-136995212D01*
X80340208Y-136522661D01*
X80068114Y-136250092D01*
X80338938Y-135979740D01*
X80535016Y-135507532D01*
X80535462Y-134996232D01*
X80340208Y-134523681D01*
X79978980Y-134161822D01*
X79506772Y-133965744D01*
X78995472Y-133965298D01*
X78522921Y-134160552D01*
X78161062Y-134521780D01*
X77964984Y-134993988D01*
X77964538Y-135505288D01*
X65431603Y-135505288D01*
X65363130Y-135398879D01*
X65150930Y-135253889D01*
X64899040Y-135202880D01*
X64599040Y-135202880D01*
X64510820Y-135219480D01*
X64510820Y-134856344D01*
X64690917Y-135036441D01*
X64937479Y-135201188D01*
X65228318Y-135259040D01*
X65915436Y-135259040D01*
X66100320Y-135296480D01*
X67400800Y-135296480D01*
X67636117Y-135252202D01*
X67852241Y-135113130D01*
X67997231Y-134900930D01*
X68025527Y-134761200D01*
X73938735Y-134761200D01*
X73969673Y-134792192D01*
X74313201Y-134934838D01*
X74685167Y-134935162D01*
X75028943Y-134793117D01*
X75292192Y-134530327D01*
X75434838Y-134186799D01*
X75435162Y-133814833D01*
X75320279Y-133536795D01*
X75394968Y-133356926D01*
X75395292Y-132984960D01*
X75253247Y-132641184D01*
X74990457Y-132377935D01*
X74646929Y-132235289D01*
X74363361Y-132235042D01*
X74222194Y-132093628D01*
X73878666Y-131950982D01*
X73506700Y-131950658D01*
X73162924Y-132092703D01*
X73095445Y-132160065D01*
X72976764Y-132183672D01*
X72891804Y-132240440D01*
X68029861Y-132240440D01*
X68048240Y-132149680D01*
X68048240Y-131849680D01*
X68028696Y-131745812D01*
X68048240Y-131649300D01*
X68048240Y-131349300D01*
X68031640Y-131261080D01*
X73796574Y-131261080D01*
X73817051Y-131274762D01*
X73935451Y-131298313D01*
X74001828Y-131364806D01*
X74345356Y-131507452D01*
X74717322Y-131507776D01*
X74835039Y-131459136D01*
X74834842Y-131685167D01*
X74976887Y-132028943D01*
X75239677Y-132292192D01*
X75583205Y-132434838D01*
X75955171Y-132435162D01*
X76298947Y-132293117D01*
X76562196Y-132030327D01*
X76704842Y-131686799D01*
X76705166Y-131314833D01*
X76563121Y-130971057D01*
X76300331Y-130707808D01*
X75956803Y-130565162D01*
X75584837Y-130564838D01*
X75467120Y-130613478D01*
X75467317Y-130387447D01*
X75325272Y-130043671D01*
X75062482Y-129780422D01*
X74718954Y-129637776D01*
X74346988Y-129637452D01*
X74185159Y-129704318D01*
X74185162Y-129700913D01*
X74103498Y-129503268D01*
X77964538Y-129503268D01*
X78159792Y-129975819D01*
X78433156Y-130249660D01*
X78161062Y-130521280D01*
X77964984Y-130993488D01*
X77964538Y-131504788D01*
X78159792Y-131977339D01*
X78521020Y-132339198D01*
X78993228Y-132535276D01*
X79504528Y-132535722D01*
X79977079Y-132340468D01*
X80338938Y-131979240D01*
X80535016Y-131507032D01*
X80535462Y-130995732D01*
X80340208Y-130523181D01*
X80066844Y-130249340D01*
X80338938Y-129977720D01*
X80535016Y-129505512D01*
X80535462Y-128994212D01*
X80340208Y-128521661D01*
X79978980Y-128159802D01*
X79506772Y-127963724D01*
X78995472Y-127963278D01*
X78522921Y-128158532D01*
X78161062Y-128519760D01*
X77964984Y-128991968D01*
X77964538Y-129503268D01*
X74103498Y-129503268D01*
X74043941Y-129359131D01*
X75077404Y-128325668D01*
X75159664Y-128202557D01*
X75332195Y-128030327D01*
X75474841Y-127686799D01*
X75475165Y-127314833D01*
X75333120Y-126971057D01*
X75070330Y-126707808D01*
X74815903Y-126602160D01*
X75616770Y-126602160D01*
X75852087Y-126557882D01*
X76068211Y-126418810D01*
X76213201Y-126206610D01*
X76264210Y-125954720D01*
X76264210Y-125355280D01*
X76258097Y-125322791D01*
X76426610Y-125437931D01*
X76678500Y-125488940D01*
X77821500Y-125488940D01*
X78056817Y-125444662D01*
X78272941Y-125305590D01*
X78417931Y-125093390D01*
X78468940Y-124841500D01*
X78468940Y-124633862D01*
X79089788Y-124013014D01*
X79161094Y-124060660D01*
X79161094Y-124060660D01*
G37*
X79161094Y-124060660D02*
X79695703Y-124167000D01*
X81304297Y-124167000D01*
X81540000Y-124120116D01*
X81540000Y-146790000D01*
X73287342Y-146790000D01*
X73542524Y-146534818D01*
X74007021Y-146535223D01*
X74479483Y-146340005D01*
X74841275Y-145978845D01*
X75037317Y-145506724D01*
X75037318Y-145504481D01*
X76467817Y-145504481D01*
X76663035Y-145976943D01*
X77024195Y-146338735D01*
X77496316Y-146534777D01*
X78007521Y-146535223D01*
X78479983Y-146340005D01*
X78573220Y-146246931D01*
X78640470Y-146351441D01*
X78852670Y-146496431D01*
X79104560Y-146547440D01*
X80404560Y-146547440D01*
X80639877Y-146503162D01*
X80856001Y-146364090D01*
X81000991Y-146151890D01*
X81052000Y-145900000D01*
X81052000Y-144600000D01*
X81007722Y-144364683D01*
X80868650Y-144148559D01*
X80656450Y-144003569D01*
X80404560Y-143952560D01*
X79104560Y-143952560D01*
X78869243Y-143996838D01*
X78653119Y-144135910D01*
X78573255Y-144252795D01*
X78481885Y-144161265D01*
X78009764Y-143965223D01*
X77498559Y-143964777D01*
X77026097Y-144159995D01*
X76664305Y-144521155D01*
X76468263Y-144993276D01*
X76467817Y-145504481D01*
X75037318Y-145504481D01*
X75037763Y-144995519D01*
X74842545Y-144523057D01*
X74481385Y-144161265D01*
X74009264Y-143965223D01*
X73498059Y-143964777D01*
X73025597Y-144159995D01*
X72751619Y-144433494D01*
X72511020Y-144192475D01*
X72511020Y-143251020D01*
X72453168Y-142960181D01*
X72288421Y-142713619D01*
X70157381Y-140582579D01*
X69910819Y-140417832D01*
X69619980Y-140359980D01*
X67957148Y-140359980D01*
X67964940Y-140321500D01*
X67964940Y-139178500D01*
X67920662Y-138943183D01*
X67781590Y-138727059D01*
X67569390Y-138582069D01*
X67317500Y-138531060D01*
X66934974Y-138531060D01*
X66935162Y-138314833D01*
X66793117Y-137971057D01*
X66530327Y-137707808D01*
X66186799Y-137565162D01*
X65814833Y-137564838D01*
X65690863Y-137616061D01*
X65509040Y-137434238D01*
X65509040Y-137335684D01*
X65546480Y-137150800D01*
X65546480Y-135850320D01*
X65502202Y-135615003D01*
X65431603Y-135505288D01*
X77964538Y-135505288D01*
X78159792Y-135977839D01*
X78431886Y-136250408D01*
X78161062Y-136520760D01*
X77964984Y-136992968D01*
X77964538Y-137504268D01*
X78159792Y-137976819D01*
X78433156Y-138250660D01*
X78161062Y-138522280D01*
X77964984Y-138994488D01*
X77964538Y-139505788D01*
X78159792Y-139978339D01*
X78521020Y-140340198D01*
X78993228Y-140536276D01*
X79504528Y-140536722D01*
X79977079Y-140341468D01*
X80338938Y-139980240D01*
X80535016Y-139508032D01*
X80535462Y-138996732D01*
X80340208Y-138524181D01*
X80066844Y-138250340D01*
X80338938Y-137978720D01*
X80535016Y-137506512D01*
X80535462Y-136995212D01*
X80340208Y-136522661D01*
X80068114Y-136250092D01*
X80338938Y-135979740D01*
X80535016Y-135507532D01*
X80535462Y-134996232D01*
X80340208Y-134523681D01*
X79978980Y-134161822D01*
X79506772Y-133965744D01*
X78995472Y-133965298D01*
X78522921Y-134160552D01*
X78161062Y-134521780D01*
X77964984Y-134993988D01*
X77964538Y-135505288D01*
X65431603Y-135505288D01*
X65363130Y-135398879D01*
X65150930Y-135253889D01*
X64899040Y-135202880D01*
X64599040Y-135202880D01*
X64510820Y-135219480D01*
X64510820Y-134856344D01*
X64690917Y-135036441D01*
X64937479Y-135201188D01*
X65228318Y-135259040D01*
X65915436Y-135259040D01*
X66100320Y-135296480D01*
X67400800Y-135296480D01*
X67636117Y-135252202D01*
X67852241Y-135113130D01*
X67997231Y-134900930D01*
X68025527Y-134761200D01*
X73938735Y-134761200D01*
X73969673Y-134792192D01*
X74313201Y-134934838D01*
X74685167Y-134935162D01*
X75028943Y-134793117D01*
X75292192Y-134530327D01*
X75434838Y-134186799D01*
X75435162Y-133814833D01*
X75320279Y-133536795D01*
X75394968Y-133356926D01*
X75395292Y-132984960D01*
X75253247Y-132641184D01*
X74990457Y-132377935D01*
X74646929Y-132235289D01*
X74363361Y-132235042D01*
X74222194Y-132093628D01*
X73878666Y-131950982D01*
X73506700Y-131950658D01*
X73162924Y-132092703D01*
X73095445Y-132160065D01*
X72976764Y-132183672D01*
X72891804Y-132240440D01*
X68029861Y-132240440D01*
X68048240Y-132149680D01*
X68048240Y-131849680D01*
X68028696Y-131745812D01*
X68048240Y-131649300D01*
X68048240Y-131349300D01*
X68031640Y-131261080D01*
X73796574Y-131261080D01*
X73817051Y-131274762D01*
X73935451Y-131298313D01*
X74001828Y-131364806D01*
X74345356Y-131507452D01*
X74717322Y-131507776D01*
X74835039Y-131459136D01*
X74834842Y-131685167D01*
X74976887Y-132028943D01*
X75239677Y-132292192D01*
X75583205Y-132434838D01*
X75955171Y-132435162D01*
X76298947Y-132293117D01*
X76562196Y-132030327D01*
X76704842Y-131686799D01*
X76705166Y-131314833D01*
X76563121Y-130971057D01*
X76300331Y-130707808D01*
X75956803Y-130565162D01*
X75584837Y-130564838D01*
X75467120Y-130613478D01*
X75467317Y-130387447D01*
X75325272Y-130043671D01*
X75062482Y-129780422D01*
X74718954Y-129637776D01*
X74346988Y-129637452D01*
X74185159Y-129704318D01*
X74185162Y-129700913D01*
X74103498Y-129503268D01*
X77964538Y-129503268D01*
X78159792Y-129975819D01*
X78433156Y-130249660D01*
X78161062Y-130521280D01*
X77964984Y-130993488D01*
X77964538Y-131504788D01*
X78159792Y-131977339D01*
X78521020Y-132339198D01*
X78993228Y-132535276D01*
X79504528Y-132535722D01*
X79977079Y-132340468D01*
X80338938Y-131979240D01*
X80535016Y-131507032D01*
X80535462Y-130995732D01*
X80340208Y-130523181D01*
X80066844Y-130249340D01*
X80338938Y-129977720D01*
X80535016Y-129505512D01*
X80535462Y-128994212D01*
X80340208Y-128521661D01*
X79978980Y-128159802D01*
X79506772Y-127963724D01*
X78995472Y-127963278D01*
X78522921Y-128158532D01*
X78161062Y-128519760D01*
X77964984Y-128991968D01*
X77964538Y-129503268D01*
X74103498Y-129503268D01*
X74043941Y-129359131D01*
X75077404Y-128325668D01*
X75159664Y-128202557D01*
X75332195Y-128030327D01*
X75474841Y-127686799D01*
X75475165Y-127314833D01*
X75333120Y-126971057D01*
X75070330Y-126707808D01*
X74815903Y-126602160D01*
X75616770Y-126602160D01*
X75852087Y-126557882D01*
X76068211Y-126418810D01*
X76213201Y-126206610D01*
X76264210Y-125954720D01*
X76264210Y-125355280D01*
X76258097Y-125322791D01*
X76426610Y-125437931D01*
X76678500Y-125488940D01*
X77821500Y-125488940D01*
X78056817Y-125444662D01*
X78272941Y-125305590D01*
X78417931Y-125093390D01*
X78468940Y-124841500D01*
X78468940Y-124633862D01*
X79089788Y-124013014D01*
X79161094Y-124060660D01*
G36*
X41602880Y-131451360D02*
X41647158Y-131686677D01*
X41786230Y-131902801D01*
X41998430Y-132047791D01*
X42250320Y-132098800D01*
X44749680Y-132098800D01*
X44984997Y-132054522D01*
X45201121Y-131915450D01*
X45346111Y-131703250D01*
X45397120Y-131451360D01*
X45397120Y-131361000D01*
X45609420Y-131361000D01*
X45907255Y-131658835D01*
X45956883Y-131778943D01*
X45986984Y-131809096D01*
X45943183Y-131817338D01*
X45727059Y-131956410D01*
X45582069Y-132168610D01*
X45531060Y-132420500D01*
X45531060Y-133055500D01*
X45575338Y-133290817D01*
X45711753Y-133502811D01*
X45582069Y-133692610D01*
X45531060Y-133944500D01*
X45531060Y-134579500D01*
X45575338Y-134814817D01*
X45714410Y-135030941D01*
X45926610Y-135175931D01*
X46178500Y-135226940D01*
X47321500Y-135226940D01*
X47556817Y-135182662D01*
X47772941Y-135043590D01*
X47917931Y-134831390D01*
X47968940Y-134579500D01*
X47968940Y-133944500D01*
X47924662Y-133709183D01*
X47919468Y-133701111D01*
X47928500Y-133702940D01*
X49071500Y-133702940D01*
X49306817Y-133658662D01*
X49373583Y-133615699D01*
X49426610Y-133651931D01*
X49678500Y-133702940D01*
X50821500Y-133702940D01*
X50864290Y-133694889D01*
X50815162Y-133813201D01*
X50814838Y-134185167D01*
X50956883Y-134528943D01*
X51176377Y-134748821D01*
X51158650Y-134766548D01*
X51119316Y-134739673D01*
X50868154Y-134685189D01*
X50615583Y-134732713D01*
X50401401Y-134874758D01*
X49952388Y-135323771D01*
X49817303Y-135521474D01*
X49762819Y-135772636D01*
X49810343Y-136025207D01*
X49952388Y-136239389D01*
X50760611Y-137047612D01*
X50958314Y-137182697D01*
X51046537Y-137201835D01*
X51060343Y-137275207D01*
X51202388Y-137489389D01*
X52010611Y-138297612D01*
X52208314Y-138432697D01*
X52296537Y-138451835D01*
X52310343Y-138525207D01*
X52452388Y-138739389D01*
X53260611Y-139547612D01*
X53458314Y-139682697D01*
X53709476Y-139737181D01*
X53962047Y-139689657D01*
X54176229Y-139547612D01*
X54625242Y-139098599D01*
X54760327Y-138900896D01*
X54814811Y-138649734D01*
X54767287Y-138397163D01*
X54731540Y-138343262D01*
X55287401Y-137787401D01*
X55452148Y-137540840D01*
X55510000Y-137250000D01*
X55510000Y-136500000D01*
X55458161Y-136239389D01*
X55452148Y-136209160D01*
X55287401Y-135962599D01*
X54950010Y-135625208D01*
X54950010Y-135296480D01*
X55899680Y-135296480D01*
X56098656Y-135259040D01*
X56847178Y-135259040D01*
X56649519Y-135386230D01*
X56504529Y-135598430D01*
X56453520Y-135850320D01*
X56453520Y-137150800D01*
X56490960Y-137349776D01*
X56490960Y-138184238D01*
X55974599Y-138700599D01*
X55809852Y-138947161D01*
X55752000Y-139238000D01*
X55752000Y-139458657D01*
X55743059Y-139464410D01*
X55598069Y-139676610D01*
X55547060Y-139928500D01*
X55547060Y-141071500D01*
X55591338Y-141306817D01*
X55634301Y-141373583D01*
X55598069Y-141426610D01*
X55547060Y-141678500D01*
X55547060Y-142821500D01*
X55548718Y-142830313D01*
X55305500Y-142781060D01*
X54670500Y-142781060D01*
X54657958Y-142783420D01*
X54500000Y-142752000D01*
X53791343Y-142752000D01*
X53785590Y-142743059D01*
X53573390Y-142598069D01*
X53321500Y-142547060D01*
X52178500Y-142547060D01*
X51943183Y-142591338D01*
X51876417Y-142634301D01*
X51823390Y-142598069D01*
X51571500Y-142547060D01*
X50428500Y-142547060D01*
X50193183Y-142591338D01*
X50126417Y-142634301D01*
X50073390Y-142598069D01*
X49821500Y-142547060D01*
X48678500Y-142547060D01*
X48443183Y-142591338D01*
X48376417Y-142634301D01*
X48323390Y-142598069D01*
X48071500Y-142547060D01*
X46928500Y-142547060D01*
X46693183Y-142591338D01*
X46477059Y-142730410D01*
X46332069Y-142942610D01*
X46281060Y-143194500D01*
X46281060Y-143829500D01*
X46317481Y-144023060D01*
X45928500Y-144023060D01*
X45693183Y-144067338D01*
X45477059Y-144206410D01*
X45332069Y-144418610D01*
X45281060Y-144670500D01*
X45281060Y-145305500D01*
X45325338Y-145540817D01*
X45464410Y-145756941D01*
X45676610Y-145901931D01*
X45928500Y-145952940D01*
X47071500Y-145952940D01*
X47306817Y-145908662D01*
X47373583Y-145865699D01*
X47426610Y-145901931D01*
X47678500Y-145952940D01*
X48821500Y-145952940D01*
X49056817Y-145908662D01*
X49123583Y-145865699D01*
X49176610Y-145901931D01*
X49428500Y-145952940D01*
X50571500Y-145952940D01*
X50806817Y-145908662D01*
X50873583Y-145865699D01*
X50926610Y-145901931D01*
X51178500Y-145952940D01*
X52321500Y-145952940D01*
X52556817Y-145908662D01*
X52623583Y-145865699D01*
X52676610Y-145901931D01*
X52928500Y-145952940D01*
X54071500Y-145952940D01*
X54306817Y-145908662D01*
X54522941Y-145769590D01*
X54667931Y-145557390D01*
X54709199Y-145353603D01*
X54843862Y-145218940D01*
X55305500Y-145218940D01*
X55540817Y-145174662D01*
X55752811Y-145038247D01*
X55942610Y-145167931D01*
X56194500Y-145218940D01*
X56829500Y-145218940D01*
X57064817Y-145174662D01*
X57202560Y-145086027D01*
X57202560Y-145100000D01*
X57246838Y-145335317D01*
X57385910Y-145551441D01*
X57598110Y-145696431D01*
X57850000Y-145747440D01*
X58650000Y-145747440D01*
X58885317Y-145703162D01*
X58992432Y-145634236D01*
X59480596Y-146122400D01*
X59727157Y-146287147D01*
X60017997Y-146344999D01*
X65020197Y-146344999D01*
X65465198Y-146790000D01*
X41377000Y-146790000D01*
X41377000Y-143143627D01*
X41405043Y-143284609D01*
X41707875Y-143737828D01*
X42161094Y-144040660D01*
X42695703Y-144147000D01*
X44304297Y-144147000D01*
X44838906Y-144040660D01*
X45292125Y-143737828D01*
X45594957Y-143284609D01*
X45701297Y-142750000D01*
X45594957Y-142215391D01*
X45292125Y-141762172D01*
X44869826Y-141480000D01*
X45292125Y-141197828D01*
X45594957Y-140744609D01*
X45701297Y-140210000D01*
X45594957Y-139675391D01*
X45292125Y-139222172D01*
X44838906Y-138919340D01*
X44304297Y-138813000D01*
X44010000Y-138813000D01*
X44010000Y-138691471D01*
X44056817Y-138682662D01*
X44272941Y-138543590D01*
X44417931Y-138331390D01*
X44468940Y-138079500D01*
X44468940Y-137968940D01*
X45055500Y-137968940D01*
X45290817Y-137924662D01*
X45506941Y-137785590D01*
X45651931Y-137573390D01*
X45702940Y-137321500D01*
X45702940Y-136178500D01*
X45658662Y-135943183D01*
X45519590Y-135727059D01*
X45307390Y-135582069D01*
X45055500Y-135531060D01*
X44492748Y-135531060D01*
X44300935Y-135492906D01*
X44285590Y-135469059D01*
X44184870Y-135400240D01*
X44185162Y-135064833D01*
X44043117Y-134721057D01*
X43780327Y-134457808D01*
X43436799Y-134315162D01*
X43064833Y-134314838D01*
X42721057Y-134456883D01*
X42457808Y-134719673D01*
X42315162Y-135063201D01*
X42314869Y-135399906D01*
X42227059Y-135456410D01*
X42082069Y-135668610D01*
X42031060Y-135920500D01*
X42031060Y-136555500D01*
X42075338Y-136790817D01*
X42211753Y-137002811D01*
X42082069Y-137192610D01*
X42031060Y-137444500D01*
X42031060Y-138079500D01*
X42075338Y-138314817D01*
X42214410Y-138530941D01*
X42426610Y-138675931D01*
X42490000Y-138688768D01*
X42490000Y-138853917D01*
X42161094Y-138919340D01*
X41707875Y-139222172D01*
X41405043Y-139675391D01*
X41298703Y-140210000D01*
X41405043Y-140744609D01*
X41707875Y-141197828D01*
X42130174Y-141480000D01*
X41707875Y-141762172D01*
X41405043Y-142215391D01*
X41377000Y-142356373D01*
X41377000Y-142000000D01*
X41366994Y-141950590D01*
X41348293Y-141919579D01*
X39127000Y-139204665D01*
X39127000Y-131319716D01*
X41602880Y-129744156D01*
X41602880Y-131451360D01*
X41602880Y-131451360D01*
G37*
X41602880Y-131451360D02*
X41647158Y-131686677D01*
X41786230Y-131902801D01*
X41998430Y-132047791D01*
X42250320Y-132098800D01*
X44749680Y-132098800D01*
X44984997Y-132054522D01*
X45201121Y-131915450D01*
X45346111Y-131703250D01*
X45397120Y-131451360D01*
X45397120Y-131361000D01*
X45609420Y-131361000D01*
X45907255Y-131658835D01*
X45956883Y-131778943D01*
X45986984Y-131809096D01*
X45943183Y-131817338D01*
X45727059Y-131956410D01*
X45582069Y-132168610D01*
X45531060Y-132420500D01*
X45531060Y-133055500D01*
X45575338Y-133290817D01*
X45711753Y-133502811D01*
X45582069Y-133692610D01*
X45531060Y-133944500D01*
X45531060Y-134579500D01*
X45575338Y-134814817D01*
X45714410Y-135030941D01*
X45926610Y-135175931D01*
X46178500Y-135226940D01*
X47321500Y-135226940D01*
X47556817Y-135182662D01*
X47772941Y-135043590D01*
X47917931Y-134831390D01*
X47968940Y-134579500D01*
X47968940Y-133944500D01*
X47924662Y-133709183D01*
X47919468Y-133701111D01*
X47928500Y-133702940D01*
X49071500Y-133702940D01*
X49306817Y-133658662D01*
X49373583Y-133615699D01*
X49426610Y-133651931D01*
X49678500Y-133702940D01*
X50821500Y-133702940D01*
X50864290Y-133694889D01*
X50815162Y-133813201D01*
X50814838Y-134185167D01*
X50956883Y-134528943D01*
X51176377Y-134748821D01*
X51158650Y-134766548D01*
X51119316Y-134739673D01*
X50868154Y-134685189D01*
X50615583Y-134732713D01*
X50401401Y-134874758D01*
X49952388Y-135323771D01*
X49817303Y-135521474D01*
X49762819Y-135772636D01*
X49810343Y-136025207D01*
X49952388Y-136239389D01*
X50760611Y-137047612D01*
X50958314Y-137182697D01*
X51046537Y-137201835D01*
X51060343Y-137275207D01*
X51202388Y-137489389D01*
X52010611Y-138297612D01*
X52208314Y-138432697D01*
X52296537Y-138451835D01*
X52310343Y-138525207D01*
X52452388Y-138739389D01*
X53260611Y-139547612D01*
X53458314Y-139682697D01*
X53709476Y-139737181D01*
X53962047Y-139689657D01*
X54176229Y-139547612D01*
X54625242Y-139098599D01*
X54760327Y-138900896D01*
X54814811Y-138649734D01*
X54767287Y-138397163D01*
X54731540Y-138343262D01*
X55287401Y-137787401D01*
X55452148Y-137540840D01*
X55510000Y-137250000D01*
X55510000Y-136500000D01*
X55458161Y-136239389D01*
X55452148Y-136209160D01*
X55287401Y-135962599D01*
X54950010Y-135625208D01*
X54950010Y-135296480D01*
X55899680Y-135296480D01*
X56098656Y-135259040D01*
X56847178Y-135259040D01*
X56649519Y-135386230D01*
X56504529Y-135598430D01*
X56453520Y-135850320D01*
X56453520Y-137150800D01*
X56490960Y-137349776D01*
X56490960Y-138184238D01*
X55974599Y-138700599D01*
X55809852Y-138947161D01*
X55752000Y-139238000D01*
X55752000Y-139458657D01*
X55743059Y-139464410D01*
X55598069Y-139676610D01*
X55547060Y-139928500D01*
X55547060Y-141071500D01*
X55591338Y-141306817D01*
X55634301Y-141373583D01*
X55598069Y-141426610D01*
X55547060Y-141678500D01*
X55547060Y-142821500D01*
X55548718Y-142830313D01*
X55305500Y-142781060D01*
X54670500Y-142781060D01*
X54657958Y-142783420D01*
X54500000Y-142752000D01*
X53791343Y-142752000D01*
X53785590Y-142743059D01*
X53573390Y-142598069D01*
X53321500Y-142547060D01*
X52178500Y-142547060D01*
X51943183Y-142591338D01*
X51876417Y-142634301D01*
X51823390Y-142598069D01*
X51571500Y-142547060D01*
X50428500Y-142547060D01*
X50193183Y-142591338D01*
X50126417Y-142634301D01*
X50073390Y-142598069D01*
X49821500Y-142547060D01*
X48678500Y-142547060D01*
X48443183Y-142591338D01*
X48376417Y-142634301D01*
X48323390Y-142598069D01*
X48071500Y-142547060D01*
X46928500Y-142547060D01*
X46693183Y-142591338D01*
X46477059Y-142730410D01*
X46332069Y-142942610D01*
X46281060Y-143194500D01*
X46281060Y-143829500D01*
X46317481Y-144023060D01*
X45928500Y-144023060D01*
X45693183Y-144067338D01*
X45477059Y-144206410D01*
X45332069Y-144418610D01*
X45281060Y-144670500D01*
X45281060Y-145305500D01*
X45325338Y-145540817D01*
X45464410Y-145756941D01*
X45676610Y-145901931D01*
X45928500Y-145952940D01*
X47071500Y-145952940D01*
X47306817Y-145908662D01*
X47373583Y-145865699D01*
X47426610Y-145901931D01*
X47678500Y-145952940D01*
X48821500Y-145952940D01*
X49056817Y-145908662D01*
X49123583Y-145865699D01*
X49176610Y-145901931D01*
X49428500Y-145952940D01*
X50571500Y-145952940D01*
X50806817Y-145908662D01*
X50873583Y-145865699D01*
X50926610Y-145901931D01*
X51178500Y-145952940D01*
X52321500Y-145952940D01*
X52556817Y-145908662D01*
X52623583Y-145865699D01*
X52676610Y-145901931D01*
X52928500Y-145952940D01*
X54071500Y-145952940D01*
X54306817Y-145908662D01*
X54522941Y-145769590D01*
X54667931Y-145557390D01*
X54709199Y-145353603D01*
X54843862Y-145218940D01*
X55305500Y-145218940D01*
X55540817Y-145174662D01*
X55752811Y-145038247D01*
X55942610Y-145167931D01*
X56194500Y-145218940D01*
X56829500Y-145218940D01*
X57064817Y-145174662D01*
X57202560Y-145086027D01*
X57202560Y-145100000D01*
X57246838Y-145335317D01*
X57385910Y-145551441D01*
X57598110Y-145696431D01*
X57850000Y-145747440D01*
X58650000Y-145747440D01*
X58885317Y-145703162D01*
X58992432Y-145634236D01*
X59480596Y-146122400D01*
X59727157Y-146287147D01*
X60017997Y-146344999D01*
X65020197Y-146344999D01*
X65465198Y-146790000D01*
X41377000Y-146790000D01*
X41377000Y-143143627D01*
X41405043Y-143284609D01*
X41707875Y-143737828D01*
X42161094Y-144040660D01*
X42695703Y-144147000D01*
X44304297Y-144147000D01*
X44838906Y-144040660D01*
X45292125Y-143737828D01*
X45594957Y-143284609D01*
X45701297Y-142750000D01*
X45594957Y-142215391D01*
X45292125Y-141762172D01*
X44869826Y-141480000D01*
X45292125Y-141197828D01*
X45594957Y-140744609D01*
X45701297Y-140210000D01*
X45594957Y-139675391D01*
X45292125Y-139222172D01*
X44838906Y-138919340D01*
X44304297Y-138813000D01*
X44010000Y-138813000D01*
X44010000Y-138691471D01*
X44056817Y-138682662D01*
X44272941Y-138543590D01*
X44417931Y-138331390D01*
X44468940Y-138079500D01*
X44468940Y-137968940D01*
X45055500Y-137968940D01*
X45290817Y-137924662D01*
X45506941Y-137785590D01*
X45651931Y-137573390D01*
X45702940Y-137321500D01*
X45702940Y-136178500D01*
X45658662Y-135943183D01*
X45519590Y-135727059D01*
X45307390Y-135582069D01*
X45055500Y-135531060D01*
X44492748Y-135531060D01*
X44300935Y-135492906D01*
X44285590Y-135469059D01*
X44184870Y-135400240D01*
X44185162Y-135064833D01*
X44043117Y-134721057D01*
X43780327Y-134457808D01*
X43436799Y-134315162D01*
X43064833Y-134314838D01*
X42721057Y-134456883D01*
X42457808Y-134719673D01*
X42315162Y-135063201D01*
X42314869Y-135399906D01*
X42227059Y-135456410D01*
X42082069Y-135668610D01*
X42031060Y-135920500D01*
X42031060Y-136555500D01*
X42075338Y-136790817D01*
X42211753Y-137002811D01*
X42082069Y-137192610D01*
X42031060Y-137444500D01*
X42031060Y-138079500D01*
X42075338Y-138314817D01*
X42214410Y-138530941D01*
X42426610Y-138675931D01*
X42490000Y-138688768D01*
X42490000Y-138853917D01*
X42161094Y-138919340D01*
X41707875Y-139222172D01*
X41405043Y-139675391D01*
X41298703Y-140210000D01*
X41405043Y-140744609D01*
X41707875Y-141197828D01*
X42130174Y-141480000D01*
X41707875Y-141762172D01*
X41405043Y-142215391D01*
X41377000Y-142356373D01*
X41377000Y-142000000D01*
X41366994Y-141950590D01*
X41348293Y-141919579D01*
X39127000Y-139204665D01*
X39127000Y-131319716D01*
X41602880Y-129744156D01*
X41602880Y-131451360D01*
G36*
X48860501Y-127426001D02*
X48918353Y-127716840D01*
X49083100Y-127963402D01*
X49407099Y-128287401D01*
X49559848Y-128389465D01*
X49591338Y-128556817D01*
X49634301Y-128623583D01*
X49598069Y-128676610D01*
X49547060Y-128928500D01*
X49547060Y-130071500D01*
X49548718Y-130080313D01*
X49305500Y-130031060D01*
X48670500Y-130031060D01*
X48435183Y-130075338D01*
X48219059Y-130214410D01*
X48116165Y-130365000D01*
X47116579Y-130365000D01*
X46601790Y-129850210D01*
X46545523Y-129812614D01*
X46314675Y-129658367D01*
X46211158Y-129637776D01*
X45976000Y-129590999D01*
X45975995Y-129591000D01*
X45397120Y-129591000D01*
X45397120Y-129500640D01*
X45352842Y-129265323D01*
X45213770Y-129049199D01*
X45065353Y-128947790D01*
X45849120Y-128947790D01*
X46084437Y-128903512D01*
X46300561Y-128764440D01*
X46445551Y-128552240D01*
X46496560Y-128300350D01*
X46496560Y-126926852D01*
X47549913Y-125873499D01*
X48860501Y-125873499D01*
X48860501Y-127426001D01*
X48860501Y-127426001D01*
G37*
X48860501Y-127426001D02*
X48918353Y-127716840D01*
X49083100Y-127963402D01*
X49407099Y-128287401D01*
X49559848Y-128389465D01*
X49591338Y-128556817D01*
X49634301Y-128623583D01*
X49598069Y-128676610D01*
X49547060Y-128928500D01*
X49547060Y-130071500D01*
X49548718Y-130080313D01*
X49305500Y-130031060D01*
X48670500Y-130031060D01*
X48435183Y-130075338D01*
X48219059Y-130214410D01*
X48116165Y-130365000D01*
X47116579Y-130365000D01*
X46601790Y-129850210D01*
X46545523Y-129812614D01*
X46314675Y-129658367D01*
X46211158Y-129637776D01*
X45976000Y-129590999D01*
X45975995Y-129591000D01*
X45397120Y-129591000D01*
X45397120Y-129500640D01*
X45352842Y-129265323D01*
X45213770Y-129049199D01*
X45065353Y-128947790D01*
X45849120Y-128947790D01*
X46084437Y-128903512D01*
X46300561Y-128764440D01*
X46445551Y-128552240D01*
X46496560Y-128300350D01*
X46496560Y-126926852D01*
X47549913Y-125873499D01*
X48860501Y-125873499D01*
X48860501Y-127426001D01*
G36*
X42962409Y-126037401D02*
X43208971Y-126202148D01*
X43499810Y-126260000D01*
X44051298Y-126260000D01*
X44002800Y-126499490D01*
X44002800Y-128300350D01*
X44047078Y-128535667D01*
X44186150Y-128751791D01*
X44334567Y-128853200D01*
X42250320Y-128853200D01*
X42015003Y-128897478D01*
X41877000Y-128986281D01*
X41877000Y-126549655D01*
X42643878Y-125718870D01*
X42962409Y-126037401D01*
X42962409Y-126037401D01*
G37*
X42962409Y-126037401D02*
X43208971Y-126202148D01*
X43499810Y-126260000D01*
X44051298Y-126260000D01*
X44002800Y-126499490D01*
X44002800Y-128300350D01*
X44047078Y-128535667D01*
X44186150Y-128751791D01*
X44334567Y-128853200D01*
X42250320Y-128853200D01*
X42015003Y-128897478D01*
X41877000Y-128986281D01*
X41877000Y-126549655D01*
X42643878Y-125718870D01*
X42962409Y-126037401D01*
G36*
X64535840Y-119296741D02*
X64748040Y-119441731D01*
X64999930Y-119492740D01*
X66501070Y-119492740D01*
X66699302Y-119455440D01*
X66938992Y-119455440D01*
X66964410Y-119494941D01*
X67176610Y-119639931D01*
X67428500Y-119690940D01*
X68571500Y-119690940D01*
X68806817Y-119646662D01*
X68873583Y-119603699D01*
X68926610Y-119639931D01*
X69178500Y-119690940D01*
X70321500Y-119690940D01*
X70330313Y-119689282D01*
X70281060Y-119932500D01*
X70281060Y-120567500D01*
X70325338Y-120802817D01*
X70402023Y-120921989D01*
X70282770Y-120897840D01*
X68883230Y-120897840D01*
X68647913Y-120942118D01*
X68431789Y-121081190D01*
X68386174Y-121147950D01*
X68186799Y-121065162D01*
X67814833Y-121064838D01*
X67471057Y-121206883D01*
X67207808Y-121469673D01*
X67065162Y-121813201D01*
X67064838Y-122185167D01*
X67206883Y-122528943D01*
X67469673Y-122792192D01*
X67813201Y-122934838D01*
X68185167Y-122935162D01*
X68528943Y-122793117D01*
X68562118Y-122760000D01*
X68724419Y-122760000D01*
X68883230Y-122792160D01*
X70282770Y-122792160D01*
X70518087Y-122747882D01*
X70734211Y-122608810D01*
X70879201Y-122396610D01*
X70930210Y-122144720D01*
X70930210Y-121545280D01*
X70885932Y-121309963D01*
X70809247Y-121190791D01*
X70928500Y-121214940D01*
X72071500Y-121214940D01*
X72306817Y-121170662D01*
X72373583Y-121127699D01*
X72426610Y-121163931D01*
X72678500Y-121214940D01*
X73674402Y-121214940D01*
X73620799Y-121293390D01*
X73569790Y-121545280D01*
X73569790Y-122144720D01*
X73614068Y-122380037D01*
X73678094Y-122479536D01*
X73620799Y-122563390D01*
X73569790Y-122815280D01*
X73569790Y-123414720D01*
X73614068Y-123650037D01*
X73678094Y-123749536D01*
X73620799Y-123833390D01*
X73569790Y-124085280D01*
X73569790Y-124684720D01*
X73614068Y-124920037D01*
X73678094Y-125019536D01*
X73620799Y-125103390D01*
X73569790Y-125355280D01*
X73569790Y-125954720D01*
X73614068Y-126190037D01*
X73753140Y-126406161D01*
X73965340Y-126551151D01*
X74217230Y-126602160D01*
X74264510Y-126602160D01*
X74144910Y-126651578D01*
X73936799Y-126565162D01*
X73564833Y-126564838D01*
X73221057Y-126706883D01*
X72957808Y-126969673D01*
X72815162Y-127313201D01*
X72814838Y-127685167D01*
X72837313Y-127739560D01*
X72190940Y-127739560D01*
X72190940Y-126928500D01*
X72146662Y-126693183D01*
X72007590Y-126477059D01*
X71795390Y-126332069D01*
X71543500Y-126281060D01*
X70908500Y-126281060D01*
X70816504Y-126298370D01*
X70879201Y-126206610D01*
X70930210Y-125954720D01*
X70930210Y-125355280D01*
X70885932Y-125119963D01*
X70821906Y-125020464D01*
X70879201Y-124936610D01*
X70930210Y-124684720D01*
X70930210Y-124085280D01*
X70885932Y-123849963D01*
X70746860Y-123633839D01*
X70534660Y-123488849D01*
X70282770Y-123437840D01*
X68883230Y-123437840D01*
X68647913Y-123482118D01*
X68431789Y-123621190D01*
X68425157Y-123630896D01*
X68163959Y-123682852D01*
X67917397Y-123847599D01*
X66712599Y-125052397D01*
X66547852Y-125298959D01*
X66490000Y-125589798D01*
X66490000Y-125685198D01*
X66435198Y-125740000D01*
X65864040Y-125740000D01*
X65573201Y-125797852D01*
X65509040Y-125840723D01*
X65509040Y-125834564D01*
X65546480Y-125649680D01*
X65546480Y-124349200D01*
X65502202Y-124113883D01*
X65363130Y-123897759D01*
X65150930Y-123752769D01*
X64899040Y-123701760D01*
X64599040Y-123701760D01*
X64510000Y-123718514D01*
X64510000Y-119290756D01*
X64523379Y-119277377D01*
X64535840Y-119296741D01*
X64535840Y-119296741D01*
G37*
X64535840Y-119296741D02*
X64748040Y-119441731D01*
X64999930Y-119492740D01*
X66501070Y-119492740D01*
X66699302Y-119455440D01*
X66938992Y-119455440D01*
X66964410Y-119494941D01*
X67176610Y-119639931D01*
X67428500Y-119690940D01*
X68571500Y-119690940D01*
X68806817Y-119646662D01*
X68873583Y-119603699D01*
X68926610Y-119639931D01*
X69178500Y-119690940D01*
X70321500Y-119690940D01*
X70330313Y-119689282D01*
X70281060Y-119932500D01*
X70281060Y-120567500D01*
X70325338Y-120802817D01*
X70402023Y-120921989D01*
X70282770Y-120897840D01*
X68883230Y-120897840D01*
X68647913Y-120942118D01*
X68431789Y-121081190D01*
X68386174Y-121147950D01*
X68186799Y-121065162D01*
X67814833Y-121064838D01*
X67471057Y-121206883D01*
X67207808Y-121469673D01*
X67065162Y-121813201D01*
X67064838Y-122185167D01*
X67206883Y-122528943D01*
X67469673Y-122792192D01*
X67813201Y-122934838D01*
X68185167Y-122935162D01*
X68528943Y-122793117D01*
X68562118Y-122760000D01*
X68724419Y-122760000D01*
X68883230Y-122792160D01*
X70282770Y-122792160D01*
X70518087Y-122747882D01*
X70734211Y-122608810D01*
X70879201Y-122396610D01*
X70930210Y-122144720D01*
X70930210Y-121545280D01*
X70885932Y-121309963D01*
X70809247Y-121190791D01*
X70928500Y-121214940D01*
X72071500Y-121214940D01*
X72306817Y-121170662D01*
X72373583Y-121127699D01*
X72426610Y-121163931D01*
X72678500Y-121214940D01*
X73674402Y-121214940D01*
X73620799Y-121293390D01*
X73569790Y-121545280D01*
X73569790Y-122144720D01*
X73614068Y-122380037D01*
X73678094Y-122479536D01*
X73620799Y-122563390D01*
X73569790Y-122815280D01*
X73569790Y-123414720D01*
X73614068Y-123650037D01*
X73678094Y-123749536D01*
X73620799Y-123833390D01*
X73569790Y-124085280D01*
X73569790Y-124684720D01*
X73614068Y-124920037D01*
X73678094Y-125019536D01*
X73620799Y-125103390D01*
X73569790Y-125355280D01*
X73569790Y-125954720D01*
X73614068Y-126190037D01*
X73753140Y-126406161D01*
X73965340Y-126551151D01*
X74217230Y-126602160D01*
X74264510Y-126602160D01*
X74144910Y-126651578D01*
X73936799Y-126565162D01*
X73564833Y-126564838D01*
X73221057Y-126706883D01*
X72957808Y-126969673D01*
X72815162Y-127313201D01*
X72814838Y-127685167D01*
X72837313Y-127739560D01*
X72190940Y-127739560D01*
X72190940Y-126928500D01*
X72146662Y-126693183D01*
X72007590Y-126477059D01*
X71795390Y-126332069D01*
X71543500Y-126281060D01*
X70908500Y-126281060D01*
X70816504Y-126298370D01*
X70879201Y-126206610D01*
X70930210Y-125954720D01*
X70930210Y-125355280D01*
X70885932Y-125119963D01*
X70821906Y-125020464D01*
X70879201Y-124936610D01*
X70930210Y-124684720D01*
X70930210Y-124085280D01*
X70885932Y-123849963D01*
X70746860Y-123633839D01*
X70534660Y-123488849D01*
X70282770Y-123437840D01*
X68883230Y-123437840D01*
X68647913Y-123482118D01*
X68431789Y-123621190D01*
X68425157Y-123630896D01*
X68163959Y-123682852D01*
X67917397Y-123847599D01*
X66712599Y-125052397D01*
X66547852Y-125298959D01*
X66490000Y-125589798D01*
X66490000Y-125685198D01*
X66435198Y-125740000D01*
X65864040Y-125740000D01*
X65573201Y-125797852D01*
X65509040Y-125840723D01*
X65509040Y-125834564D01*
X65546480Y-125649680D01*
X65546480Y-124349200D01*
X65502202Y-124113883D01*
X65363130Y-123897759D01*
X65150930Y-123752769D01*
X64899040Y-123701760D01*
X64599040Y-123701760D01*
X64510000Y-123718514D01*
X64510000Y-119290756D01*
X64523379Y-119277377D01*
X64535840Y-119296741D01*
G36*
X61964410Y-90780941D02*
X62176610Y-90925931D01*
X62240000Y-90938768D01*
X62240000Y-91687537D01*
X62207808Y-91719673D01*
X62065162Y-92063201D01*
X62064838Y-92435167D01*
X62206883Y-92778943D01*
X62469673Y-93042192D01*
X62813201Y-93184838D01*
X63185167Y-93185162D01*
X63528943Y-93043117D01*
X63792192Y-92780327D01*
X63894511Y-92533917D01*
X64198971Y-92408117D01*
X64232146Y-92375000D01*
X64717748Y-92375000D01*
X64702560Y-92450000D01*
X64702560Y-94450000D01*
X64746838Y-94685317D01*
X64885910Y-94901441D01*
X65098110Y-95046431D01*
X65350000Y-95097440D01*
X69150000Y-95097440D01*
X69385317Y-95053162D01*
X69601441Y-94914090D01*
X69746431Y-94701890D01*
X69797440Y-94450000D01*
X69797440Y-92450000D01*
X69783328Y-92375000D01*
X72353520Y-92375000D01*
X72353520Y-93341347D01*
X68747434Y-96947434D01*
X68501397Y-97315654D01*
X68415000Y-97750000D01*
X68415000Y-98243156D01*
X68398523Y-98253759D01*
X68251890Y-98153569D01*
X68000000Y-98102560D01*
X66500000Y-98102560D01*
X66264683Y-98146838D01*
X66048559Y-98285910D01*
X65903569Y-98498110D01*
X65852560Y-98750000D01*
X65852560Y-100750000D01*
X65896838Y-100985317D01*
X66035910Y-101201441D01*
X66115000Y-101255481D01*
X66115000Y-102000000D01*
X66201397Y-102434346D01*
X66447434Y-102802566D01*
X66703947Y-102973963D01*
X66457808Y-103219673D01*
X66315162Y-103563201D01*
X66314838Y-103935167D01*
X66456883Y-104278943D01*
X66719673Y-104542192D01*
X67063201Y-104684838D01*
X67435167Y-104685162D01*
X67778943Y-104543117D01*
X68042192Y-104280327D01*
X68092566Y-104159014D01*
X68121505Y-104130074D01*
X68218080Y-104196061D01*
X68469970Y-104247070D01*
X70570550Y-104247070D01*
X70805867Y-104202792D01*
X71021991Y-104063720D01*
X71166981Y-103851520D01*
X71217990Y-103599630D01*
X71217990Y-102504509D01*
X71437129Y-102285370D01*
X76582110Y-102285370D01*
X77401200Y-103104459D01*
X77401200Y-104743668D01*
X77279868Y-104865000D01*
X75750000Y-104865000D01*
X75315654Y-104951397D01*
X74947434Y-105197434D01*
X74701397Y-105565654D01*
X74615000Y-106000000D01*
X74624988Y-106050210D01*
X73950599Y-106724599D01*
X73785852Y-106971161D01*
X73728000Y-107262000D01*
X73728000Y-109458657D01*
X73719059Y-109464410D01*
X73574069Y-109676610D01*
X73569990Y-109696753D01*
X73569990Y-109253992D01*
X73512138Y-108963153D01*
X73347391Y-108716591D01*
X71166900Y-106536100D01*
X70920338Y-106371353D01*
X70629499Y-106313501D01*
X70165934Y-106313501D01*
X70214940Y-106071500D01*
X70214940Y-104928500D01*
X70170662Y-104693183D01*
X70031590Y-104477059D01*
X69819390Y-104332069D01*
X69567500Y-104281060D01*
X68932500Y-104281060D01*
X68697183Y-104325338D01*
X68481059Y-104464410D01*
X68336069Y-104676610D01*
X68315813Y-104776637D01*
X68209161Y-104797852D01*
X68002826Y-104935720D01*
X66685263Y-104935720D01*
X66501070Y-104898420D01*
X64999930Y-104898420D01*
X64764613Y-104942698D01*
X64548489Y-105081770D01*
X64498682Y-105154665D01*
X64186799Y-105025159D01*
X63814833Y-105024835D01*
X63471057Y-105166880D01*
X63207808Y-105429670D01*
X63065162Y-105773198D01*
X63064838Y-106145164D01*
X63151578Y-106355090D01*
X63065162Y-106563201D01*
X63064838Y-106935167D01*
X63206883Y-107278943D01*
X63469673Y-107542192D01*
X63813201Y-107684838D01*
X64185167Y-107685162D01*
X64352490Y-107616026D01*
X64352490Y-107847100D01*
X64372061Y-107951113D01*
X64352490Y-108047760D01*
X64352490Y-108347480D01*
X64356581Y-108369222D01*
X64226391Y-108315162D01*
X63854425Y-108314838D01*
X63510649Y-108456883D01*
X63247400Y-108719673D01*
X63104754Y-109063201D01*
X63104430Y-109435167D01*
X63234661Y-109750351D01*
X63104754Y-110063201D01*
X63104430Y-110435167D01*
X63234661Y-110750351D01*
X63104754Y-111063201D01*
X63104430Y-111435167D01*
X63234661Y-111750351D01*
X63104754Y-112063201D01*
X63104430Y-112435167D01*
X63234661Y-112750351D01*
X63104754Y-113063201D01*
X63104430Y-113435167D01*
X63246475Y-113778943D01*
X63509265Y-114042192D01*
X63852793Y-114184838D01*
X64224759Y-114185162D01*
X64413132Y-114107328D01*
X64470895Y-114197093D01*
X64403499Y-114295730D01*
X64352490Y-114547620D01*
X64352490Y-114847340D01*
X64396768Y-115082657D01*
X64470053Y-115196545D01*
X64403499Y-115293950D01*
X64352490Y-115545840D01*
X64352490Y-115565160D01*
X64212529Y-115658679D01*
X62658697Y-117212511D01*
X62326440Y-117074545D01*
X61954474Y-117074221D01*
X61610698Y-117216266D01*
X61347449Y-117479056D01*
X61216319Y-117794852D01*
X61119384Y-117834904D01*
X60856135Y-118097694D01*
X60713489Y-118441222D01*
X60713165Y-118813188D01*
X60855210Y-119156964D01*
X61110040Y-119412239D01*
X61110040Y-119957490D01*
X61069873Y-119957455D01*
X60726097Y-120099500D01*
X60462848Y-120362290D01*
X60428942Y-120443944D01*
X59825845Y-121047041D01*
X59661098Y-121293603D01*
X59612185Y-121539505D01*
X57711779Y-123439911D01*
X57547032Y-123686473D01*
X57538453Y-123729603D01*
X57400960Y-123701760D01*
X57100960Y-123701760D01*
X56865643Y-123746038D01*
X56649519Y-123885110D01*
X56504529Y-124097310D01*
X56453520Y-124349200D01*
X56453520Y-125622318D01*
X55872318Y-126203520D01*
X54599200Y-126203520D01*
X54400224Y-126240960D01*
X54051341Y-126240960D01*
X54043117Y-126221057D01*
X53780327Y-125957808D01*
X53436799Y-125815162D01*
X53064833Y-125814838D01*
X52721057Y-125956883D01*
X52457808Y-126219673D01*
X52455395Y-126225484D01*
X52452148Y-126209161D01*
X52287401Y-125962599D01*
X51787401Y-125462599D01*
X51540839Y-125297852D01*
X51448916Y-125279567D01*
X51432662Y-125193183D01*
X51293590Y-124977059D01*
X51222232Y-124928302D01*
X51214148Y-124887661D01*
X51049401Y-124641099D01*
X50544391Y-124136089D01*
X50297829Y-123971342D01*
X50006990Y-123913490D01*
X47052853Y-123913489D01*
X46762014Y-123971341D01*
X46515452Y-124136088D01*
X46496560Y-124154980D01*
X46496560Y-122699650D01*
X46452282Y-122464333D01*
X46313210Y-122248209D01*
X46101010Y-122103219D01*
X46054272Y-122093754D01*
X48199013Y-119949013D01*
X48334971Y-119747051D01*
X48347563Y-119684868D01*
X48685167Y-119685162D01*
X49028943Y-119543117D01*
X49292192Y-119280327D01*
X49434838Y-118936799D01*
X49435162Y-118564833D01*
X49293117Y-118221057D01*
X49030327Y-117957808D01*
X48686799Y-117815162D01*
X48385000Y-117814899D01*
X48385000Y-116464940D01*
X49321500Y-116464940D01*
X49556817Y-116420662D01*
X49772941Y-116281590D01*
X49917931Y-116069390D01*
X49968940Y-115817500D01*
X49968940Y-115434974D01*
X50137899Y-115435121D01*
X50194410Y-115522941D01*
X50406610Y-115667931D01*
X50658500Y-115718940D01*
X51293500Y-115718940D01*
X51528817Y-115674662D01*
X51550687Y-115660589D01*
X51547060Y-115678500D01*
X51547060Y-116490000D01*
X51178500Y-116490000D01*
X50887661Y-116547852D01*
X50641099Y-116712599D01*
X50462599Y-116891099D01*
X50297852Y-117137661D01*
X50290149Y-117176387D01*
X50231059Y-117214410D01*
X50086069Y-117426610D01*
X50035060Y-117678500D01*
X50035060Y-118821500D01*
X50079338Y-119056817D01*
X50218410Y-119272941D01*
X50430610Y-119417931D01*
X50682500Y-119468940D01*
X50890138Y-119468940D01*
X51458599Y-120037401D01*
X51705161Y-120202148D01*
X51996000Y-120260000D01*
X52185198Y-120260000D01*
X52211712Y-120286514D01*
X52058209Y-120385290D01*
X51913219Y-120597490D01*
X51862210Y-120849380D01*
X51862210Y-123150620D01*
X51906488Y-123385937D01*
X52045560Y-123602061D01*
X52257760Y-123747051D01*
X52509650Y-123798060D01*
X54508630Y-123798060D01*
X54743947Y-123753782D01*
X54960071Y-123614710D01*
X55105061Y-123402510D01*
X55156070Y-123150620D01*
X55156070Y-120849380D01*
X55111792Y-120614063D01*
X54972720Y-120397939D01*
X54760520Y-120252949D01*
X54508630Y-120201940D01*
X54200357Y-120201940D01*
X54046541Y-119971739D01*
X54009811Y-119935009D01*
X54185167Y-119935162D01*
X54528943Y-119793117D01*
X54697354Y-119625000D01*
X55202658Y-119625000D01*
X55493497Y-119567148D01*
X55740059Y-119402401D01*
X56351490Y-118790970D01*
X56351490Y-118845300D01*
X56395768Y-119080617D01*
X56534840Y-119296741D01*
X56747040Y-119441731D01*
X56998930Y-119492740D01*
X58500070Y-119492740D01*
X58735387Y-119448462D01*
X58951511Y-119309390D01*
X59096501Y-119097190D01*
X59147510Y-118845300D01*
X59147510Y-118545580D01*
X59128186Y-118442883D01*
X59147510Y-118347460D01*
X59147510Y-118047740D01*
X59127939Y-117943727D01*
X59147510Y-117847080D01*
X59147510Y-117547360D01*
X59127939Y-117443347D01*
X59147510Y-117346700D01*
X59147510Y-117046980D01*
X59127939Y-116942967D01*
X59147510Y-116846320D01*
X59147510Y-116546600D01*
X59127939Y-116442587D01*
X59143549Y-116365502D01*
X59341701Y-116233101D01*
X59389680Y-116185122D01*
X59435167Y-116185162D01*
X59778943Y-116043117D01*
X60042192Y-115780327D01*
X60184838Y-115436799D01*
X60185162Y-115064833D01*
X60043117Y-114721057D01*
X59780327Y-114457808D01*
X59436799Y-114315162D01*
X59147510Y-114314910D01*
X59147510Y-114047240D01*
X59127939Y-113943227D01*
X59147510Y-113846580D01*
X59147510Y-113546860D01*
X59127939Y-113442847D01*
X59147510Y-113346200D01*
X59147510Y-113046480D01*
X59127939Y-112942467D01*
X59147510Y-112845820D01*
X59147510Y-112684911D01*
X59435167Y-112685162D01*
X59778943Y-112543117D01*
X60042192Y-112280327D01*
X60184838Y-111936799D01*
X60185162Y-111564833D01*
X60098422Y-111354907D01*
X60184838Y-111146796D01*
X60185162Y-110774830D01*
X60043117Y-110431054D01*
X59842292Y-110229878D01*
X60042192Y-110030327D01*
X60184838Y-109686799D01*
X60185162Y-109314833D01*
X60043117Y-108971057D01*
X59947290Y-108875063D01*
X60042192Y-108780327D01*
X60184838Y-108436799D01*
X60185162Y-108064833D01*
X60043117Y-107721057D01*
X59780327Y-107457808D01*
X59436799Y-107315162D01*
X59389923Y-107315121D01*
X59234641Y-107159839D01*
X59147510Y-107101620D01*
X59147510Y-107047000D01*
X59127939Y-106942987D01*
X59147510Y-106846340D01*
X59147510Y-106546620D01*
X59127939Y-106442607D01*
X59147510Y-106345960D01*
X59147510Y-106116037D01*
X59313201Y-106184838D01*
X59685167Y-106185162D01*
X60028943Y-106043117D01*
X60292192Y-105780327D01*
X60434838Y-105436799D01*
X60435162Y-105064833D01*
X60293117Y-104721057D01*
X60030327Y-104457808D01*
X59686799Y-104315162D01*
X59314833Y-104314838D01*
X59017048Y-104437880D01*
X58684263Y-104437880D01*
X58500070Y-104400580D01*
X58142224Y-104400580D01*
X59400447Y-103142357D01*
X59456883Y-103278943D01*
X59719673Y-103542192D01*
X60063201Y-103684838D01*
X60435167Y-103685162D01*
X60778943Y-103543117D01*
X61042192Y-103280327D01*
X61184838Y-102936799D01*
X61185162Y-102564833D01*
X61043117Y-102221057D01*
X60780327Y-101957808D01*
X60620954Y-101891630D01*
X60724849Y-101736141D01*
X60782701Y-101445301D01*
X60782701Y-93121601D01*
X61287401Y-92616901D01*
X61389465Y-92464152D01*
X61556817Y-92432662D01*
X61772941Y-92293590D01*
X61917931Y-92081390D01*
X61968940Y-91829500D01*
X61968940Y-91194500D01*
X61924662Y-90959183D01*
X61788247Y-90747189D01*
X61867785Y-90630781D01*
X61964410Y-90780941D01*
X61964410Y-90780941D01*
G37*
X61964410Y-90780941D02*
X62176610Y-90925931D01*
X62240000Y-90938768D01*
X62240000Y-91687537D01*
X62207808Y-91719673D01*
X62065162Y-92063201D01*
X62064838Y-92435167D01*
X62206883Y-92778943D01*
X62469673Y-93042192D01*
X62813201Y-93184838D01*
X63185167Y-93185162D01*
X63528943Y-93043117D01*
X63792192Y-92780327D01*
X63894511Y-92533917D01*
X64198971Y-92408117D01*
X64232146Y-92375000D01*
X64717748Y-92375000D01*
X64702560Y-92450000D01*
X64702560Y-94450000D01*
X64746838Y-94685317D01*
X64885910Y-94901441D01*
X65098110Y-95046431D01*
X65350000Y-95097440D01*
X69150000Y-95097440D01*
X69385317Y-95053162D01*
X69601441Y-94914090D01*
X69746431Y-94701890D01*
X69797440Y-94450000D01*
X69797440Y-92450000D01*
X69783328Y-92375000D01*
X72353520Y-92375000D01*
X72353520Y-93341347D01*
X68747434Y-96947434D01*
X68501397Y-97315654D01*
X68415000Y-97750000D01*
X68415000Y-98243156D01*
X68398523Y-98253759D01*
X68251890Y-98153569D01*
X68000000Y-98102560D01*
X66500000Y-98102560D01*
X66264683Y-98146838D01*
X66048559Y-98285910D01*
X65903569Y-98498110D01*
X65852560Y-98750000D01*
X65852560Y-100750000D01*
X65896838Y-100985317D01*
X66035910Y-101201441D01*
X66115000Y-101255481D01*
X66115000Y-102000000D01*
X66201397Y-102434346D01*
X66447434Y-102802566D01*
X66703947Y-102973963D01*
X66457808Y-103219673D01*
X66315162Y-103563201D01*
X66314838Y-103935167D01*
X66456883Y-104278943D01*
X66719673Y-104542192D01*
X67063201Y-104684838D01*
X67435167Y-104685162D01*
X67778943Y-104543117D01*
X68042192Y-104280327D01*
X68092566Y-104159014D01*
X68121505Y-104130074D01*
X68218080Y-104196061D01*
X68469970Y-104247070D01*
X70570550Y-104247070D01*
X70805867Y-104202792D01*
X71021991Y-104063720D01*
X71166981Y-103851520D01*
X71217990Y-103599630D01*
X71217990Y-102504509D01*
X71437129Y-102285370D01*
X76582110Y-102285370D01*
X77401200Y-103104459D01*
X77401200Y-104743668D01*
X77279868Y-104865000D01*
X75750000Y-104865000D01*
X75315654Y-104951397D01*
X74947434Y-105197434D01*
X74701397Y-105565654D01*
X74615000Y-106000000D01*
X74624988Y-106050210D01*
X73950599Y-106724599D01*
X73785852Y-106971161D01*
X73728000Y-107262000D01*
X73728000Y-109458657D01*
X73719059Y-109464410D01*
X73574069Y-109676610D01*
X73569990Y-109696753D01*
X73569990Y-109253992D01*
X73512138Y-108963153D01*
X73347391Y-108716591D01*
X71166900Y-106536100D01*
X70920338Y-106371353D01*
X70629499Y-106313501D01*
X70165934Y-106313501D01*
X70214940Y-106071500D01*
X70214940Y-104928500D01*
X70170662Y-104693183D01*
X70031590Y-104477059D01*
X69819390Y-104332069D01*
X69567500Y-104281060D01*
X68932500Y-104281060D01*
X68697183Y-104325338D01*
X68481059Y-104464410D01*
X68336069Y-104676610D01*
X68315813Y-104776637D01*
X68209161Y-104797852D01*
X68002826Y-104935720D01*
X66685263Y-104935720D01*
X66501070Y-104898420D01*
X64999930Y-104898420D01*
X64764613Y-104942698D01*
X64548489Y-105081770D01*
X64498682Y-105154665D01*
X64186799Y-105025159D01*
X63814833Y-105024835D01*
X63471057Y-105166880D01*
X63207808Y-105429670D01*
X63065162Y-105773198D01*
X63064838Y-106145164D01*
X63151578Y-106355090D01*
X63065162Y-106563201D01*
X63064838Y-106935167D01*
X63206883Y-107278943D01*
X63469673Y-107542192D01*
X63813201Y-107684838D01*
X64185167Y-107685162D01*
X64352490Y-107616026D01*
X64352490Y-107847100D01*
X64372061Y-107951113D01*
X64352490Y-108047760D01*
X64352490Y-108347480D01*
X64356581Y-108369222D01*
X64226391Y-108315162D01*
X63854425Y-108314838D01*
X63510649Y-108456883D01*
X63247400Y-108719673D01*
X63104754Y-109063201D01*
X63104430Y-109435167D01*
X63234661Y-109750351D01*
X63104754Y-110063201D01*
X63104430Y-110435167D01*
X63234661Y-110750351D01*
X63104754Y-111063201D01*
X63104430Y-111435167D01*
X63234661Y-111750351D01*
X63104754Y-112063201D01*
X63104430Y-112435167D01*
X63234661Y-112750351D01*
X63104754Y-113063201D01*
X63104430Y-113435167D01*
X63246475Y-113778943D01*
X63509265Y-114042192D01*
X63852793Y-114184838D01*
X64224759Y-114185162D01*
X64413132Y-114107328D01*
X64470895Y-114197093D01*
X64403499Y-114295730D01*
X64352490Y-114547620D01*
X64352490Y-114847340D01*
X64396768Y-115082657D01*
X64470053Y-115196545D01*
X64403499Y-115293950D01*
X64352490Y-115545840D01*
X64352490Y-115565160D01*
X64212529Y-115658679D01*
X62658697Y-117212511D01*
X62326440Y-117074545D01*
X61954474Y-117074221D01*
X61610698Y-117216266D01*
X61347449Y-117479056D01*
X61216319Y-117794852D01*
X61119384Y-117834904D01*
X60856135Y-118097694D01*
X60713489Y-118441222D01*
X60713165Y-118813188D01*
X60855210Y-119156964D01*
X61110040Y-119412239D01*
X61110040Y-119957490D01*
X61069873Y-119957455D01*
X60726097Y-120099500D01*
X60462848Y-120362290D01*
X60428942Y-120443944D01*
X59825845Y-121047041D01*
X59661098Y-121293603D01*
X59612185Y-121539505D01*
X57711779Y-123439911D01*
X57547032Y-123686473D01*
X57538453Y-123729603D01*
X57400960Y-123701760D01*
X57100960Y-123701760D01*
X56865643Y-123746038D01*
X56649519Y-123885110D01*
X56504529Y-124097310D01*
X56453520Y-124349200D01*
X56453520Y-125622318D01*
X55872318Y-126203520D01*
X54599200Y-126203520D01*
X54400224Y-126240960D01*
X54051341Y-126240960D01*
X54043117Y-126221057D01*
X53780327Y-125957808D01*
X53436799Y-125815162D01*
X53064833Y-125814838D01*
X52721057Y-125956883D01*
X52457808Y-126219673D01*
X52455395Y-126225484D01*
X52452148Y-126209161D01*
X52287401Y-125962599D01*
X51787401Y-125462599D01*
X51540839Y-125297852D01*
X51448916Y-125279567D01*
X51432662Y-125193183D01*
X51293590Y-124977059D01*
X51222232Y-124928302D01*
X51214148Y-124887661D01*
X51049401Y-124641099D01*
X50544391Y-124136089D01*
X50297829Y-123971342D01*
X50006990Y-123913490D01*
X47052853Y-123913489D01*
X46762014Y-123971341D01*
X46515452Y-124136088D01*
X46496560Y-124154980D01*
X46496560Y-122699650D01*
X46452282Y-122464333D01*
X46313210Y-122248209D01*
X46101010Y-122103219D01*
X46054272Y-122093754D01*
X48199013Y-119949013D01*
X48334971Y-119747051D01*
X48347563Y-119684868D01*
X48685167Y-119685162D01*
X49028943Y-119543117D01*
X49292192Y-119280327D01*
X49434838Y-118936799D01*
X49435162Y-118564833D01*
X49293117Y-118221057D01*
X49030327Y-117957808D01*
X48686799Y-117815162D01*
X48385000Y-117814899D01*
X48385000Y-116464940D01*
X49321500Y-116464940D01*
X49556817Y-116420662D01*
X49772941Y-116281590D01*
X49917931Y-116069390D01*
X49968940Y-115817500D01*
X49968940Y-115434974D01*
X50137899Y-115435121D01*
X50194410Y-115522941D01*
X50406610Y-115667931D01*
X50658500Y-115718940D01*
X51293500Y-115718940D01*
X51528817Y-115674662D01*
X51550687Y-115660589D01*
X51547060Y-115678500D01*
X51547060Y-116490000D01*
X51178500Y-116490000D01*
X50887661Y-116547852D01*
X50641099Y-116712599D01*
X50462599Y-116891099D01*
X50297852Y-117137661D01*
X50290149Y-117176387D01*
X50231059Y-117214410D01*
X50086069Y-117426610D01*
X50035060Y-117678500D01*
X50035060Y-118821500D01*
X50079338Y-119056817D01*
X50218410Y-119272941D01*
X50430610Y-119417931D01*
X50682500Y-119468940D01*
X50890138Y-119468940D01*
X51458599Y-120037401D01*
X51705161Y-120202148D01*
X51996000Y-120260000D01*
X52185198Y-120260000D01*
X52211712Y-120286514D01*
X52058209Y-120385290D01*
X51913219Y-120597490D01*
X51862210Y-120849380D01*
X51862210Y-123150620D01*
X51906488Y-123385937D01*
X52045560Y-123602061D01*
X52257760Y-123747051D01*
X52509650Y-123798060D01*
X54508630Y-123798060D01*
X54743947Y-123753782D01*
X54960071Y-123614710D01*
X55105061Y-123402510D01*
X55156070Y-123150620D01*
X55156070Y-120849380D01*
X55111792Y-120614063D01*
X54972720Y-120397939D01*
X54760520Y-120252949D01*
X54508630Y-120201940D01*
X54200357Y-120201940D01*
X54046541Y-119971739D01*
X54009811Y-119935009D01*
X54185167Y-119935162D01*
X54528943Y-119793117D01*
X54697354Y-119625000D01*
X55202658Y-119625000D01*
X55493497Y-119567148D01*
X55740059Y-119402401D01*
X56351490Y-118790970D01*
X56351490Y-118845300D01*
X56395768Y-119080617D01*
X56534840Y-119296741D01*
X56747040Y-119441731D01*
X56998930Y-119492740D01*
X58500070Y-119492740D01*
X58735387Y-119448462D01*
X58951511Y-119309390D01*
X59096501Y-119097190D01*
X59147510Y-118845300D01*
X59147510Y-118545580D01*
X59128186Y-118442883D01*
X59147510Y-118347460D01*
X59147510Y-118047740D01*
X59127939Y-117943727D01*
X59147510Y-117847080D01*
X59147510Y-117547360D01*
X59127939Y-117443347D01*
X59147510Y-117346700D01*
X59147510Y-117046980D01*
X59127939Y-116942967D01*
X59147510Y-116846320D01*
X59147510Y-116546600D01*
X59127939Y-116442587D01*
X59143549Y-116365502D01*
X59341701Y-116233101D01*
X59389680Y-116185122D01*
X59435167Y-116185162D01*
X59778943Y-116043117D01*
X60042192Y-115780327D01*
X60184838Y-115436799D01*
X60185162Y-115064833D01*
X60043117Y-114721057D01*
X59780327Y-114457808D01*
X59436799Y-114315162D01*
X59147510Y-114314910D01*
X59147510Y-114047240D01*
X59127939Y-113943227D01*
X59147510Y-113846580D01*
X59147510Y-113546860D01*
X59127939Y-113442847D01*
X59147510Y-113346200D01*
X59147510Y-113046480D01*
X59127939Y-112942467D01*
X59147510Y-112845820D01*
X59147510Y-112684911D01*
X59435167Y-112685162D01*
X59778943Y-112543117D01*
X60042192Y-112280327D01*
X60184838Y-111936799D01*
X60185162Y-111564833D01*
X60098422Y-111354907D01*
X60184838Y-111146796D01*
X60185162Y-110774830D01*
X60043117Y-110431054D01*
X59842292Y-110229878D01*
X60042192Y-110030327D01*
X60184838Y-109686799D01*
X60185162Y-109314833D01*
X60043117Y-108971057D01*
X59947290Y-108875063D01*
X60042192Y-108780327D01*
X60184838Y-108436799D01*
X60185162Y-108064833D01*
X60043117Y-107721057D01*
X59780327Y-107457808D01*
X59436799Y-107315162D01*
X59389923Y-107315121D01*
X59234641Y-107159839D01*
X59147510Y-107101620D01*
X59147510Y-107047000D01*
X59127939Y-106942987D01*
X59147510Y-106846340D01*
X59147510Y-106546620D01*
X59127939Y-106442607D01*
X59147510Y-106345960D01*
X59147510Y-106116037D01*
X59313201Y-106184838D01*
X59685167Y-106185162D01*
X60028943Y-106043117D01*
X60292192Y-105780327D01*
X60434838Y-105436799D01*
X60435162Y-105064833D01*
X60293117Y-104721057D01*
X60030327Y-104457808D01*
X59686799Y-104315162D01*
X59314833Y-104314838D01*
X59017048Y-104437880D01*
X58684263Y-104437880D01*
X58500070Y-104400580D01*
X58142224Y-104400580D01*
X59400447Y-103142357D01*
X59456883Y-103278943D01*
X59719673Y-103542192D01*
X60063201Y-103684838D01*
X60435167Y-103685162D01*
X60778943Y-103543117D01*
X61042192Y-103280327D01*
X61184838Y-102936799D01*
X61185162Y-102564833D01*
X61043117Y-102221057D01*
X60780327Y-101957808D01*
X60620954Y-101891630D01*
X60724849Y-101736141D01*
X60782701Y-101445301D01*
X60782701Y-93121601D01*
X61287401Y-92616901D01*
X61389465Y-92464152D01*
X61556817Y-92432662D01*
X61772941Y-92293590D01*
X61917931Y-92081390D01*
X61968940Y-91829500D01*
X61968940Y-91194500D01*
X61924662Y-90959183D01*
X61788247Y-90747189D01*
X61867785Y-90630781D01*
X61964410Y-90780941D01*
G36*
X70926610Y-114651931D02*
X71178500Y-114702940D01*
X72321500Y-114702940D01*
X72556817Y-114658662D01*
X72574815Y-114647081D01*
X72719673Y-114792192D01*
X73063201Y-114934838D01*
X73435167Y-114935162D01*
X73604819Y-114865064D01*
X73706410Y-115022941D01*
X73918610Y-115167931D01*
X74170500Y-115218940D01*
X74747242Y-115218940D01*
X74842098Y-115360902D01*
X74905098Y-115423902D01*
X75065471Y-115531060D01*
X74694500Y-115531060D01*
X74459183Y-115575338D01*
X74243059Y-115714410D01*
X74098069Y-115926610D01*
X74047060Y-116178500D01*
X74047060Y-116894138D01*
X73607699Y-117333499D01*
X70700510Y-117333499D01*
X70702940Y-117321500D01*
X70702940Y-116178500D01*
X70658662Y-115943183D01*
X70519590Y-115727059D01*
X70307390Y-115582069D01*
X70055500Y-115531060D01*
X69420500Y-115531060D01*
X69366042Y-115541307D01*
X69393282Y-115475706D01*
X69393606Y-115103740D01*
X69327820Y-114944526D01*
X69428164Y-114702872D01*
X69428500Y-114702940D01*
X70571500Y-114702940D01*
X70806817Y-114658662D01*
X70873583Y-114615699D01*
X70926610Y-114651931D01*
X70926610Y-114651931D01*
G37*
X70926610Y-114651931D02*
X71178500Y-114702940D01*
X72321500Y-114702940D01*
X72556817Y-114658662D01*
X72574815Y-114647081D01*
X72719673Y-114792192D01*
X73063201Y-114934838D01*
X73435167Y-114935162D01*
X73604819Y-114865064D01*
X73706410Y-115022941D01*
X73918610Y-115167931D01*
X74170500Y-115218940D01*
X74747242Y-115218940D01*
X74842098Y-115360902D01*
X74905098Y-115423902D01*
X75065471Y-115531060D01*
X74694500Y-115531060D01*
X74459183Y-115575338D01*
X74243059Y-115714410D01*
X74098069Y-115926610D01*
X74047060Y-116178500D01*
X74047060Y-116894138D01*
X73607699Y-117333499D01*
X70700510Y-117333499D01*
X70702940Y-117321500D01*
X70702940Y-116178500D01*
X70658662Y-115943183D01*
X70519590Y-115727059D01*
X70307390Y-115582069D01*
X70055500Y-115531060D01*
X69420500Y-115531060D01*
X69366042Y-115541307D01*
X69393282Y-115475706D01*
X69393606Y-115103740D01*
X69327820Y-114944526D01*
X69428164Y-114702872D01*
X69428500Y-114702940D01*
X70571500Y-114702940D01*
X70806817Y-114658662D01*
X70873583Y-114615699D01*
X70926610Y-114651931D01*
G36*
X78408959Y-112756290D02*
X78776501Y-112756611D01*
X78776501Y-113260719D01*
X77910719Y-114126501D01*
X77698301Y-114126501D01*
X77787401Y-114037401D01*
X77952148Y-113790839D01*
X78010000Y-113500000D01*
X78010000Y-112590628D01*
X78408959Y-112756290D01*
X78408959Y-112756290D01*
G37*
X78408959Y-112756290D02*
X78776501Y-112756611D01*
X78776501Y-113260719D01*
X77910719Y-114126501D01*
X77698301Y-114126501D01*
X77787401Y-114037401D01*
X77952148Y-113790839D01*
X78010000Y-113500000D01*
X78010000Y-112590628D01*
X78408959Y-112756290D01*
G36*
X72049990Y-109568794D02*
X72049990Y-111547060D01*
X71178500Y-111547060D01*
X70943183Y-111591338D01*
X70876417Y-111634301D01*
X70823390Y-111598069D01*
X70571500Y-111547060D01*
X69510000Y-111547060D01*
X69510000Y-110726940D01*
X70571500Y-110726940D01*
X70806817Y-110682662D01*
X71022941Y-110543590D01*
X71167931Y-110331390D01*
X71218940Y-110079500D01*
X71218940Y-109444500D01*
X71174662Y-109209183D01*
X71038247Y-108997189D01*
X71167931Y-108807390D01*
X71188250Y-108707054D01*
X72049990Y-109568794D01*
X72049990Y-109568794D01*
G37*
X72049990Y-109568794D02*
X72049990Y-111547060D01*
X71178500Y-111547060D01*
X70943183Y-111591338D01*
X70876417Y-111634301D01*
X70823390Y-111598069D01*
X70571500Y-111547060D01*
X69510000Y-111547060D01*
X69510000Y-110726940D01*
X70571500Y-110726940D01*
X70806817Y-110682662D01*
X71022941Y-110543590D01*
X71167931Y-110331390D01*
X71218940Y-110079500D01*
X71218940Y-109444500D01*
X71174662Y-109209183D01*
X71038247Y-108997189D01*
X71167931Y-108807390D01*
X71188250Y-108707054D01*
X72049990Y-109568794D01*
G36*
X81540000Y-106829608D02*
X81501890Y-106803569D01*
X81250000Y-106752560D01*
X78950000Y-106752560D01*
X78714683Y-106796838D01*
X78498559Y-106935910D01*
X78353569Y-107148110D01*
X78302560Y-107400000D01*
X78302560Y-108200000D01*
X78346838Y-108435317D01*
X78485910Y-108651441D01*
X78620605Y-108743474D01*
X78411065Y-108743291D01*
X77967465Y-108926582D01*
X77703587Y-109190000D01*
X77550000Y-109190000D01*
X77307414Y-109238254D01*
X77259160Y-109247852D01*
X77012599Y-109412599D01*
X76854101Y-109571097D01*
X76793590Y-109477059D01*
X76581390Y-109332069D01*
X76329500Y-109281060D01*
X75694500Y-109281060D01*
X75459183Y-109325338D01*
X75248000Y-109461231D01*
X75248000Y-107576802D01*
X75699790Y-107125012D01*
X75750000Y-107135000D01*
X77750000Y-107135000D01*
X78184346Y-107048603D01*
X78552566Y-106802566D01*
X79708012Y-105647120D01*
X79999360Y-105647120D01*
X80234677Y-105602842D01*
X80450801Y-105463770D01*
X80595791Y-105251570D01*
X80646800Y-104999680D01*
X80646800Y-102500320D01*
X80602522Y-102265003D01*
X80463450Y-102048879D01*
X80251250Y-101903889D01*
X79999360Y-101852880D01*
X78652779Y-101852880D01*
X77574480Y-100774580D01*
X77537693Y-100750000D01*
X77381147Y-100645400D01*
X80499040Y-100645400D01*
X80734357Y-100601122D01*
X80950481Y-100462050D01*
X81095471Y-100249850D01*
X81146480Y-99997960D01*
X81146480Y-97000760D01*
X81102202Y-96765443D01*
X80963130Y-96549319D01*
X80750930Y-96404329D01*
X80499040Y-96353320D01*
X77684911Y-96353320D01*
X77685162Y-96064833D01*
X77543117Y-95721057D01*
X77468870Y-95646680D01*
X80499040Y-95646680D01*
X80734357Y-95602402D01*
X80950481Y-95463330D01*
X81095471Y-95251130D01*
X81146480Y-94999240D01*
X81146480Y-92002040D01*
X81102202Y-91766723D01*
X80963130Y-91550599D01*
X80750930Y-91405609D01*
X80499040Y-91354600D01*
X79500532Y-91354600D01*
X79552566Y-91302566D01*
X79798603Y-90934345D01*
X79885000Y-90500000D01*
X79798603Y-90065655D01*
X79552566Y-89697434D01*
X79184345Y-89451397D01*
X78750000Y-89365000D01*
X78315655Y-89451397D01*
X78189107Y-89535953D01*
X78174662Y-89459183D01*
X78035590Y-89243059D01*
X77823390Y-89098069D01*
X77571500Y-89047060D01*
X76428500Y-89047060D01*
X76419687Y-89048718D01*
X76468940Y-88805500D01*
X76468940Y-88170500D01*
X76424662Y-87935183D01*
X76285590Y-87719059D01*
X76073390Y-87574069D01*
X75821500Y-87523060D01*
X74678500Y-87523060D01*
X74443183Y-87567338D01*
X74376417Y-87610301D01*
X74323390Y-87574069D01*
X74140218Y-87536976D01*
X74122194Y-87510000D01*
X77308529Y-87510000D01*
X77317338Y-87556817D01*
X77456410Y-87772941D01*
X77668610Y-87917931D01*
X77920500Y-87968940D01*
X78555500Y-87968940D01*
X78790817Y-87924662D01*
X79006941Y-87785590D01*
X79151931Y-87573390D01*
X79202940Y-87321500D01*
X79202940Y-86178500D01*
X79158662Y-85943183D01*
X79019590Y-85727059D01*
X78807390Y-85582069D01*
X78555500Y-85531060D01*
X77920500Y-85531060D01*
X77685183Y-85575338D01*
X77469059Y-85714410D01*
X77324069Y-85926610D01*
X77311232Y-85990000D01*
X74009740Y-85990000D01*
X74009740Y-85557344D01*
X74250660Y-85316844D01*
X74522280Y-85588938D01*
X74994488Y-85785016D01*
X75505788Y-85785462D01*
X75978339Y-85590208D01*
X76340198Y-85228980D01*
X76536276Y-84756772D01*
X76536722Y-84245472D01*
X76341468Y-83772921D01*
X75980240Y-83411062D01*
X75508032Y-83214984D01*
X74996732Y-83214538D01*
X74524181Y-83409792D01*
X74250340Y-83683156D01*
X73978720Y-83411062D01*
X73506512Y-83214984D01*
X72995212Y-83214538D01*
X72522661Y-83409792D01*
X72250092Y-83681886D01*
X71979740Y-83411062D01*
X71507532Y-83214984D01*
X70996232Y-83214538D01*
X70523681Y-83409792D01*
X70249840Y-83683156D01*
X69978220Y-83411062D01*
X69506012Y-83214984D01*
X68994712Y-83214538D01*
X68522161Y-83409792D01*
X68249592Y-83681886D01*
X67979240Y-83411062D01*
X67507032Y-83214984D01*
X66995732Y-83214538D01*
X66523181Y-83409792D01*
X66161322Y-83771020D01*
X65965244Y-84243228D01*
X65964798Y-84754528D01*
X66160052Y-85227079D01*
X66490260Y-85557864D01*
X66490260Y-86855438D01*
X65962599Y-87383099D01*
X65860535Y-87535848D01*
X65693183Y-87567338D01*
X65626417Y-87610301D01*
X65573390Y-87574069D01*
X65321500Y-87523060D01*
X64178500Y-87523060D01*
X63943183Y-87567338D01*
X63727059Y-87706410D01*
X63582069Y-87918610D01*
X63531060Y-88170500D01*
X63531060Y-88805500D01*
X63575338Y-89040817D01*
X63580532Y-89048889D01*
X63571500Y-89047060D01*
X62428500Y-89047060D01*
X62193183Y-89091338D01*
X61977059Y-89230410D01*
X61882215Y-89369219D01*
X61785590Y-89219059D01*
X61573390Y-89074069D01*
X61321500Y-89023060D01*
X60178500Y-89023060D01*
X60016047Y-89053628D01*
X60054131Y-88997890D01*
X60105140Y-88746000D01*
X60105140Y-83210000D01*
X81540000Y-83210000D01*
X81540000Y-106829608D01*
X81540000Y-106829608D01*
G37*
X81540000Y-106829608D02*
X81501890Y-106803569D01*
X81250000Y-106752560D01*
X78950000Y-106752560D01*
X78714683Y-106796838D01*
X78498559Y-106935910D01*
X78353569Y-107148110D01*
X78302560Y-107400000D01*
X78302560Y-108200000D01*
X78346838Y-108435317D01*
X78485910Y-108651441D01*
X78620605Y-108743474D01*
X78411065Y-108743291D01*
X77967465Y-108926582D01*
X77703587Y-109190000D01*
X77550000Y-109190000D01*
X77307414Y-109238254D01*
X77259160Y-109247852D01*
X77012599Y-109412599D01*
X76854101Y-109571097D01*
X76793590Y-109477059D01*
X76581390Y-109332069D01*
X76329500Y-109281060D01*
X75694500Y-109281060D01*
X75459183Y-109325338D01*
X75248000Y-109461231D01*
X75248000Y-107576802D01*
X75699790Y-107125012D01*
X75750000Y-107135000D01*
X77750000Y-107135000D01*
X78184346Y-107048603D01*
X78552566Y-106802566D01*
X79708012Y-105647120D01*
X79999360Y-105647120D01*
X80234677Y-105602842D01*
X80450801Y-105463770D01*
X80595791Y-105251570D01*
X80646800Y-104999680D01*
X80646800Y-102500320D01*
X80602522Y-102265003D01*
X80463450Y-102048879D01*
X80251250Y-101903889D01*
X79999360Y-101852880D01*
X78652779Y-101852880D01*
X77574480Y-100774580D01*
X77537693Y-100750000D01*
X77381147Y-100645400D01*
X80499040Y-100645400D01*
X80734357Y-100601122D01*
X80950481Y-100462050D01*
X81095471Y-100249850D01*
X81146480Y-99997960D01*
X81146480Y-97000760D01*
X81102202Y-96765443D01*
X80963130Y-96549319D01*
X80750930Y-96404329D01*
X80499040Y-96353320D01*
X77684911Y-96353320D01*
X77685162Y-96064833D01*
X77543117Y-95721057D01*
X77468870Y-95646680D01*
X80499040Y-95646680D01*
X80734357Y-95602402D01*
X80950481Y-95463330D01*
X81095471Y-95251130D01*
X81146480Y-94999240D01*
X81146480Y-92002040D01*
X81102202Y-91766723D01*
X80963130Y-91550599D01*
X80750930Y-91405609D01*
X80499040Y-91354600D01*
X79500532Y-91354600D01*
X79552566Y-91302566D01*
X79798603Y-90934345D01*
X79885000Y-90500000D01*
X79798603Y-90065655D01*
X79552566Y-89697434D01*
X79184345Y-89451397D01*
X78750000Y-89365000D01*
X78315655Y-89451397D01*
X78189107Y-89535953D01*
X78174662Y-89459183D01*
X78035590Y-89243059D01*
X77823390Y-89098069D01*
X77571500Y-89047060D01*
X76428500Y-89047060D01*
X76419687Y-89048718D01*
X76468940Y-88805500D01*
X76468940Y-88170500D01*
X76424662Y-87935183D01*
X76285590Y-87719059D01*
X76073390Y-87574069D01*
X75821500Y-87523060D01*
X74678500Y-87523060D01*
X74443183Y-87567338D01*
X74376417Y-87610301D01*
X74323390Y-87574069D01*
X74140218Y-87536976D01*
X74122194Y-87510000D01*
X77308529Y-87510000D01*
X77317338Y-87556817D01*
X77456410Y-87772941D01*
X77668610Y-87917931D01*
X77920500Y-87968940D01*
X78555500Y-87968940D01*
X78790817Y-87924662D01*
X79006941Y-87785590D01*
X79151931Y-87573390D01*
X79202940Y-87321500D01*
X79202940Y-86178500D01*
X79158662Y-85943183D01*
X79019590Y-85727059D01*
X78807390Y-85582069D01*
X78555500Y-85531060D01*
X77920500Y-85531060D01*
X77685183Y-85575338D01*
X77469059Y-85714410D01*
X77324069Y-85926610D01*
X77311232Y-85990000D01*
X74009740Y-85990000D01*
X74009740Y-85557344D01*
X74250660Y-85316844D01*
X74522280Y-85588938D01*
X74994488Y-85785016D01*
X75505788Y-85785462D01*
X75978339Y-85590208D01*
X76340198Y-85228980D01*
X76536276Y-84756772D01*
X76536722Y-84245472D01*
X76341468Y-83772921D01*
X75980240Y-83411062D01*
X75508032Y-83214984D01*
X74996732Y-83214538D01*
X74524181Y-83409792D01*
X74250340Y-83683156D01*
X73978720Y-83411062D01*
X73506512Y-83214984D01*
X72995212Y-83214538D01*
X72522661Y-83409792D01*
X72250092Y-83681886D01*
X71979740Y-83411062D01*
X71507532Y-83214984D01*
X70996232Y-83214538D01*
X70523681Y-83409792D01*
X70249840Y-83683156D01*
X69978220Y-83411062D01*
X69506012Y-83214984D01*
X68994712Y-83214538D01*
X68522161Y-83409792D01*
X68249592Y-83681886D01*
X67979240Y-83411062D01*
X67507032Y-83214984D01*
X66995732Y-83214538D01*
X66523181Y-83409792D01*
X66161322Y-83771020D01*
X65965244Y-84243228D01*
X65964798Y-84754528D01*
X66160052Y-85227079D01*
X66490260Y-85557864D01*
X66490260Y-86855438D01*
X65962599Y-87383099D01*
X65860535Y-87535848D01*
X65693183Y-87567338D01*
X65626417Y-87610301D01*
X65573390Y-87574069D01*
X65321500Y-87523060D01*
X64178500Y-87523060D01*
X63943183Y-87567338D01*
X63727059Y-87706410D01*
X63582069Y-87918610D01*
X63531060Y-88170500D01*
X63531060Y-88805500D01*
X63575338Y-89040817D01*
X63580532Y-89048889D01*
X63571500Y-89047060D01*
X62428500Y-89047060D01*
X62193183Y-89091338D01*
X61977059Y-89230410D01*
X61882215Y-89369219D01*
X61785590Y-89219059D01*
X61573390Y-89074069D01*
X61321500Y-89023060D01*
X60178500Y-89023060D01*
X60016047Y-89053628D01*
X60054131Y-88997890D01*
X60105140Y-88746000D01*
X60105140Y-83210000D01*
X81540000Y-83210000D01*
X81540000Y-106829608D01*
G36*
X56371860Y-85227037D02*
X56257161Y-85249852D01*
X56010599Y-85414599D01*
X55462599Y-85962599D01*
X55297852Y-86209161D01*
X55240000Y-86500000D01*
X55240000Y-87687537D01*
X55207808Y-87719673D01*
X55065162Y-88063201D01*
X55064838Y-88435167D01*
X55206883Y-88778943D01*
X55469673Y-89042192D01*
X55813201Y-89184838D01*
X56185167Y-89185162D01*
X56471246Y-89066957D01*
X56552553Y-89193311D01*
X56422869Y-89383110D01*
X56371860Y-89635000D01*
X56371860Y-90524000D01*
X56416138Y-90759317D01*
X56555210Y-90975441D01*
X56767410Y-91120431D01*
X57019300Y-91171440D01*
X59457700Y-91171440D01*
X59538821Y-91156176D01*
X59531060Y-91194500D01*
X59531060Y-91829500D01*
X59575338Y-92064817D01*
X59620186Y-92134512D01*
X59485300Y-92269398D01*
X59320553Y-92515960D01*
X59262701Y-92806799D01*
X59262701Y-97987560D01*
X57269300Y-97987560D01*
X57033983Y-98031838D01*
X56817859Y-98170910D01*
X56672869Y-98383110D01*
X56621860Y-98635000D01*
X56621860Y-99524000D01*
X56640369Y-99622368D01*
X56581390Y-99582069D01*
X56329500Y-99531060D01*
X55694500Y-99531060D01*
X55459183Y-99575338D01*
X55247189Y-99711753D01*
X55057390Y-99582069D01*
X54805500Y-99531060D01*
X54170500Y-99531060D01*
X53935183Y-99575338D01*
X53857639Y-99625236D01*
X53878140Y-99524000D01*
X53878140Y-98635000D01*
X53833862Y-98399683D01*
X53697447Y-98187689D01*
X53765673Y-98087836D01*
X53969673Y-98292192D01*
X54313201Y-98434838D01*
X54685167Y-98435162D01*
X54895093Y-98348422D01*
X55103204Y-98434838D01*
X55475170Y-98435162D01*
X55818946Y-98293117D01*
X56082195Y-98030327D01*
X56224841Y-97686799D01*
X56225165Y-97314833D01*
X56083120Y-96971057D01*
X55820330Y-96707808D01*
X55476802Y-96565162D01*
X55260000Y-96564973D01*
X55260000Y-96000000D01*
X55202148Y-95709161D01*
X55037401Y-95462599D01*
X53989401Y-94414599D01*
X53878140Y-94340257D01*
X53878140Y-92158000D01*
X53833862Y-91922683D01*
X53694790Y-91706559D01*
X53482590Y-91561569D01*
X53230700Y-91510560D01*
X50792300Y-91510560D01*
X50556983Y-91554838D01*
X50340859Y-91693910D01*
X50195869Y-91906110D01*
X50144860Y-92158000D01*
X50144860Y-92399558D01*
X49880895Y-92135593D01*
X49917931Y-92081390D01*
X49968940Y-91829500D01*
X49968940Y-91194500D01*
X49924662Y-90959183D01*
X49788769Y-90748000D01*
X49937009Y-90748000D01*
X49939138Y-90759317D01*
X50078210Y-90975441D01*
X50290410Y-91120431D01*
X50542300Y-91171440D01*
X52980700Y-91171440D01*
X53216017Y-91127162D01*
X53432141Y-90988090D01*
X53577131Y-90775890D01*
X53628140Y-90524000D01*
X53628140Y-89635000D01*
X53583862Y-89399683D01*
X53444790Y-89183559D01*
X53232590Y-89038569D01*
X52980700Y-88987560D01*
X50542300Y-88987560D01*
X50306983Y-89031838D01*
X50090859Y-89170910D01*
X50051851Y-89228000D01*
X49817757Y-89228000D01*
X49917931Y-89081390D01*
X49968940Y-88829500D01*
X49968940Y-88194500D01*
X49924662Y-87959183D01*
X49788247Y-87747189D01*
X49917931Y-87557390D01*
X49968940Y-87305500D01*
X49968940Y-86670500D01*
X49924662Y-86435183D01*
X49785590Y-86219059D01*
X49615804Y-86103050D01*
X49684838Y-85936799D01*
X49685162Y-85564833D01*
X49543117Y-85221057D01*
X49280327Y-84957808D01*
X48936799Y-84815162D01*
X48564833Y-84814838D01*
X48385000Y-84889143D01*
X48385000Y-83210000D01*
X56371860Y-83210000D01*
X56371860Y-85227037D01*
X56371860Y-85227037D01*
G37*
X56371860Y-85227037D02*
X56257161Y-85249852D01*
X56010599Y-85414599D01*
X55462599Y-85962599D01*
X55297852Y-86209161D01*
X55240000Y-86500000D01*
X55240000Y-87687537D01*
X55207808Y-87719673D01*
X55065162Y-88063201D01*
X55064838Y-88435167D01*
X55206883Y-88778943D01*
X55469673Y-89042192D01*
X55813201Y-89184838D01*
X56185167Y-89185162D01*
X56471246Y-89066957D01*
X56552553Y-89193311D01*
X56422869Y-89383110D01*
X56371860Y-89635000D01*
X56371860Y-90524000D01*
X56416138Y-90759317D01*
X56555210Y-90975441D01*
X56767410Y-91120431D01*
X57019300Y-91171440D01*
X59457700Y-91171440D01*
X59538821Y-91156176D01*
X59531060Y-91194500D01*
X59531060Y-91829500D01*
X59575338Y-92064817D01*
X59620186Y-92134512D01*
X59485300Y-92269398D01*
X59320553Y-92515960D01*
X59262701Y-92806799D01*
X59262701Y-97987560D01*
X57269300Y-97987560D01*
X57033983Y-98031838D01*
X56817859Y-98170910D01*
X56672869Y-98383110D01*
X56621860Y-98635000D01*
X56621860Y-99524000D01*
X56640369Y-99622368D01*
X56581390Y-99582069D01*
X56329500Y-99531060D01*
X55694500Y-99531060D01*
X55459183Y-99575338D01*
X55247189Y-99711753D01*
X55057390Y-99582069D01*
X54805500Y-99531060D01*
X54170500Y-99531060D01*
X53935183Y-99575338D01*
X53857639Y-99625236D01*
X53878140Y-99524000D01*
X53878140Y-98635000D01*
X53833862Y-98399683D01*
X53697447Y-98187689D01*
X53765673Y-98087836D01*
X53969673Y-98292192D01*
X54313201Y-98434838D01*
X54685167Y-98435162D01*
X54895093Y-98348422D01*
X55103204Y-98434838D01*
X55475170Y-98435162D01*
X55818946Y-98293117D01*
X56082195Y-98030327D01*
X56224841Y-97686799D01*
X56225165Y-97314833D01*
X56083120Y-96971057D01*
X55820330Y-96707808D01*
X55476802Y-96565162D01*
X55260000Y-96564973D01*
X55260000Y-96000000D01*
X55202148Y-95709161D01*
X55037401Y-95462599D01*
X53989401Y-94414599D01*
X53878140Y-94340257D01*
X53878140Y-92158000D01*
X53833862Y-91922683D01*
X53694790Y-91706559D01*
X53482590Y-91561569D01*
X53230700Y-91510560D01*
X50792300Y-91510560D01*
X50556983Y-91554838D01*
X50340859Y-91693910D01*
X50195869Y-91906110D01*
X50144860Y-92158000D01*
X50144860Y-92399558D01*
X49880895Y-92135593D01*
X49917931Y-92081390D01*
X49968940Y-91829500D01*
X49968940Y-91194500D01*
X49924662Y-90959183D01*
X49788769Y-90748000D01*
X49937009Y-90748000D01*
X49939138Y-90759317D01*
X50078210Y-90975441D01*
X50290410Y-91120431D01*
X50542300Y-91171440D01*
X52980700Y-91171440D01*
X53216017Y-91127162D01*
X53432141Y-90988090D01*
X53577131Y-90775890D01*
X53628140Y-90524000D01*
X53628140Y-89635000D01*
X53583862Y-89399683D01*
X53444790Y-89183559D01*
X53232590Y-89038569D01*
X52980700Y-88987560D01*
X50542300Y-88987560D01*
X50306983Y-89031838D01*
X50090859Y-89170910D01*
X50051851Y-89228000D01*
X49817757Y-89228000D01*
X49917931Y-89081390D01*
X49968940Y-88829500D01*
X49968940Y-88194500D01*
X49924662Y-87959183D01*
X49788247Y-87747189D01*
X49917931Y-87557390D01*
X49968940Y-87305500D01*
X49968940Y-86670500D01*
X49924662Y-86435183D01*
X49785590Y-86219059D01*
X49615804Y-86103050D01*
X49684838Y-85936799D01*
X49685162Y-85564833D01*
X49543117Y-85221057D01*
X49280327Y-84957808D01*
X48936799Y-84815162D01*
X48564833Y-84814838D01*
X48385000Y-84889143D01*
X48385000Y-83210000D01*
X56371860Y-83210000D01*
X56371860Y-85227037D01*
G36*
X70490760Y-85557864D02*
X70490760Y-86750760D01*
X70548612Y-87041599D01*
X70713359Y-87288161D01*
X71712599Y-88287401D01*
X71959161Y-88452148D01*
X72250000Y-88510000D01*
X72281060Y-88510000D01*
X72281060Y-88619499D01*
X71218940Y-88619499D01*
X71218940Y-88170500D01*
X71174662Y-87935183D01*
X71035590Y-87719059D01*
X70823390Y-87574069D01*
X70571500Y-87523060D01*
X69722242Y-87523060D01*
X69786641Y-87458661D01*
X69951388Y-87212099D01*
X70009240Y-86921260D01*
X70009240Y-85557344D01*
X70250160Y-85316844D01*
X70490760Y-85557864D01*
X70490760Y-85557864D01*
G37*
X70490760Y-85557864D02*
X70490760Y-86750760D01*
X70548612Y-87041599D01*
X70713359Y-87288161D01*
X71712599Y-88287401D01*
X71959161Y-88452148D01*
X72250000Y-88510000D01*
X72281060Y-88510000D01*
X72281060Y-88619499D01*
X71218940Y-88619499D01*
X71218940Y-88170500D01*
X71174662Y-87935183D01*
X71035590Y-87719059D01*
X70823390Y-87574069D01*
X70571500Y-87523060D01*
X69722242Y-87523060D01*
X69786641Y-87458661D01*
X69951388Y-87212099D01*
X70009240Y-86921260D01*
X70009240Y-85557344D01*
X70250160Y-85316844D01*
X70490760Y-85557864D01*
G36*
X41503440Y-124500510D02*
X41547718Y-124735827D01*
X41686790Y-124951951D01*
X41898990Y-125096941D01*
X42114474Y-125140578D01*
X42212919Y-125287911D01*
X42962409Y-126037401D01*
X43208971Y-126202148D01*
X43499810Y-126260000D01*
X44051298Y-126260000D01*
X44002800Y-126499490D01*
X44002800Y-128300350D01*
X44047078Y-128535667D01*
X44186150Y-128751791D01*
X44334567Y-128853200D01*
X42250320Y-128853200D01*
X42015003Y-128897478D01*
X41798879Y-129036550D01*
X41653889Y-129248750D01*
X41602880Y-129500640D01*
X41602880Y-131451360D01*
X41647158Y-131686677D01*
X41786230Y-131902801D01*
X41998430Y-132047791D01*
X42250320Y-132098800D01*
X44749680Y-132098800D01*
X44984997Y-132054522D01*
X45201121Y-131915450D01*
X45346111Y-131703250D01*
X45397120Y-131451360D01*
X45397120Y-131361000D01*
X45609420Y-131361000D01*
X45907255Y-131658835D01*
X45956883Y-131778943D01*
X45986984Y-131809096D01*
X45943183Y-131817338D01*
X45727059Y-131956410D01*
X45582069Y-132168610D01*
X45531060Y-132420500D01*
X45531060Y-133055500D01*
X45575338Y-133290817D01*
X45711753Y-133502811D01*
X45582069Y-133692610D01*
X45531060Y-133944500D01*
X45531060Y-134579500D01*
X45575338Y-134814817D01*
X45714410Y-135030941D01*
X45926610Y-135175931D01*
X46178500Y-135226940D01*
X46257572Y-135226940D01*
X46333200Y-142940955D01*
X46332069Y-142942610D01*
X46281060Y-143194500D01*
X46281060Y-143829500D01*
X46317481Y-144023060D01*
X45928500Y-144023060D01*
X45693183Y-144067338D01*
X45477059Y-144206410D01*
X45332069Y-144418610D01*
X45281060Y-144670500D01*
X45281060Y-145305500D01*
X45325338Y-145540817D01*
X45464410Y-145756941D01*
X45676610Y-145901931D01*
X45928500Y-145952940D01*
X46362729Y-145952940D01*
X46370935Y-146790000D01*
X40389340Y-146790000D01*
X40397440Y-146750000D01*
X40397440Y-141750000D01*
X40353162Y-141514683D01*
X40286487Y-141411068D01*
X40285725Y-141409084D01*
X39522672Y-140210000D01*
X41298703Y-140210000D01*
X41405043Y-140744609D01*
X41707875Y-141197828D01*
X42130174Y-141480000D01*
X41707875Y-141762172D01*
X41405043Y-142215391D01*
X41298703Y-142750000D01*
X41405043Y-143284609D01*
X41707875Y-143737828D01*
X42161094Y-144040660D01*
X42695703Y-144147000D01*
X44304297Y-144147000D01*
X44838906Y-144040660D01*
X45292125Y-143737828D01*
X45594957Y-143284609D01*
X45701297Y-142750000D01*
X45594957Y-142215391D01*
X45292125Y-141762172D01*
X44869826Y-141480000D01*
X45292125Y-141197828D01*
X45594957Y-140744609D01*
X45701297Y-140210000D01*
X45594957Y-139675391D01*
X45292125Y-139222172D01*
X44838906Y-138919340D01*
X44304297Y-138813000D01*
X44010000Y-138813000D01*
X44010000Y-138691471D01*
X44056817Y-138682662D01*
X44272941Y-138543590D01*
X44417931Y-138331390D01*
X44468940Y-138079500D01*
X44468940Y-137968940D01*
X45055500Y-137968940D01*
X45290817Y-137924662D01*
X45506941Y-137785590D01*
X45651931Y-137573390D01*
X45702940Y-137321500D01*
X45702940Y-136178500D01*
X45658662Y-135943183D01*
X45519590Y-135727059D01*
X45307390Y-135582069D01*
X45055500Y-135531060D01*
X44492748Y-135531060D01*
X44300935Y-135492906D01*
X44285590Y-135469059D01*
X44184870Y-135400240D01*
X44185162Y-135064833D01*
X44043117Y-134721057D01*
X43780327Y-134457808D01*
X43436799Y-134315162D01*
X43064833Y-134314838D01*
X42721057Y-134456883D01*
X42457808Y-134719673D01*
X42315162Y-135063201D01*
X42314869Y-135399906D01*
X42227059Y-135456410D01*
X42082069Y-135668610D01*
X42031060Y-135920500D01*
X42031060Y-136555500D01*
X42075338Y-136790817D01*
X42211753Y-137002811D01*
X42082069Y-137192610D01*
X42031060Y-137444500D01*
X42031060Y-138079500D01*
X42075338Y-138314817D01*
X42214410Y-138530941D01*
X42426610Y-138675931D01*
X42490000Y-138688768D01*
X42490000Y-138853917D01*
X42161094Y-138919340D01*
X41707875Y-139222172D01*
X41405043Y-139675391D01*
X41298703Y-140210000D01*
X39522672Y-140210000D01*
X38635000Y-138815088D01*
X38635000Y-131747005D01*
X41218093Y-128929085D01*
X41334971Y-128747051D01*
X41385000Y-128500000D01*
X41385000Y-123013026D01*
X41503440Y-122894586D01*
X41503440Y-124500510D01*
X41503440Y-124500510D01*
G37*
X41503440Y-124500510D02*
X41547718Y-124735827D01*
X41686790Y-124951951D01*
X41898990Y-125096941D01*
X42114474Y-125140578D01*
X42212919Y-125287911D01*
X42962409Y-126037401D01*
X43208971Y-126202148D01*
X43499810Y-126260000D01*
X44051298Y-126260000D01*
X44002800Y-126499490D01*
X44002800Y-128300350D01*
X44047078Y-128535667D01*
X44186150Y-128751791D01*
X44334567Y-128853200D01*
X42250320Y-128853200D01*
X42015003Y-128897478D01*
X41798879Y-129036550D01*
X41653889Y-129248750D01*
X41602880Y-129500640D01*
X41602880Y-131451360D01*
X41647158Y-131686677D01*
X41786230Y-131902801D01*
X41998430Y-132047791D01*
X42250320Y-132098800D01*
X44749680Y-132098800D01*
X44984997Y-132054522D01*
X45201121Y-131915450D01*
X45346111Y-131703250D01*
X45397120Y-131451360D01*
X45397120Y-131361000D01*
X45609420Y-131361000D01*
X45907255Y-131658835D01*
X45956883Y-131778943D01*
X45986984Y-131809096D01*
X45943183Y-131817338D01*
X45727059Y-131956410D01*
X45582069Y-132168610D01*
X45531060Y-132420500D01*
X45531060Y-133055500D01*
X45575338Y-133290817D01*
X45711753Y-133502811D01*
X45582069Y-133692610D01*
X45531060Y-133944500D01*
X45531060Y-134579500D01*
X45575338Y-134814817D01*
X45714410Y-135030941D01*
X45926610Y-135175931D01*
X46178500Y-135226940D01*
X46257572Y-135226940D01*
X46333200Y-142940955D01*
X46332069Y-142942610D01*
X46281060Y-143194500D01*
X46281060Y-143829500D01*
X46317481Y-144023060D01*
X45928500Y-144023060D01*
X45693183Y-144067338D01*
X45477059Y-144206410D01*
X45332069Y-144418610D01*
X45281060Y-144670500D01*
X45281060Y-145305500D01*
X45325338Y-145540817D01*
X45464410Y-145756941D01*
X45676610Y-145901931D01*
X45928500Y-145952940D01*
X46362729Y-145952940D01*
X46370935Y-146790000D01*
X40389340Y-146790000D01*
X40397440Y-146750000D01*
X40397440Y-141750000D01*
X40353162Y-141514683D01*
X40286487Y-141411068D01*
X40285725Y-141409084D01*
X39522672Y-140210000D01*
X41298703Y-140210000D01*
X41405043Y-140744609D01*
X41707875Y-141197828D01*
X42130174Y-141480000D01*
X41707875Y-141762172D01*
X41405043Y-142215391D01*
X41298703Y-142750000D01*
X41405043Y-143284609D01*
X41707875Y-143737828D01*
X42161094Y-144040660D01*
X42695703Y-144147000D01*
X44304297Y-144147000D01*
X44838906Y-144040660D01*
X45292125Y-143737828D01*
X45594957Y-143284609D01*
X45701297Y-142750000D01*
X45594957Y-142215391D01*
X45292125Y-141762172D01*
X44869826Y-141480000D01*
X45292125Y-141197828D01*
X45594957Y-140744609D01*
X45701297Y-140210000D01*
X45594957Y-139675391D01*
X45292125Y-139222172D01*
X44838906Y-138919340D01*
X44304297Y-138813000D01*
X44010000Y-138813000D01*
X44010000Y-138691471D01*
X44056817Y-138682662D01*
X44272941Y-138543590D01*
X44417931Y-138331390D01*
X44468940Y-138079500D01*
X44468940Y-137968940D01*
X45055500Y-137968940D01*
X45290817Y-137924662D01*
X45506941Y-137785590D01*
X45651931Y-137573390D01*
X45702940Y-137321500D01*
X45702940Y-136178500D01*
X45658662Y-135943183D01*
X45519590Y-135727059D01*
X45307390Y-135582069D01*
X45055500Y-135531060D01*
X44492748Y-135531060D01*
X44300935Y-135492906D01*
X44285590Y-135469059D01*
X44184870Y-135400240D01*
X44185162Y-135064833D01*
X44043117Y-134721057D01*
X43780327Y-134457808D01*
X43436799Y-134315162D01*
X43064833Y-134314838D01*
X42721057Y-134456883D01*
X42457808Y-134719673D01*
X42315162Y-135063201D01*
X42314869Y-135399906D01*
X42227059Y-135456410D01*
X42082069Y-135668610D01*
X42031060Y-135920500D01*
X42031060Y-136555500D01*
X42075338Y-136790817D01*
X42211753Y-137002811D01*
X42082069Y-137192610D01*
X42031060Y-137444500D01*
X42031060Y-138079500D01*
X42075338Y-138314817D01*
X42214410Y-138530941D01*
X42426610Y-138675931D01*
X42490000Y-138688768D01*
X42490000Y-138853917D01*
X42161094Y-138919340D01*
X41707875Y-139222172D01*
X41405043Y-139675391D01*
X41298703Y-140210000D01*
X39522672Y-140210000D01*
X38635000Y-138815088D01*
X38635000Y-131747005D01*
X41218093Y-128929085D01*
X41334971Y-128747051D01*
X41385000Y-128500000D01*
X41385000Y-123013026D01*
X41503440Y-122894586D01*
X41503440Y-124500510D01*
G36*
X33076109Y-124027198D02*
X32915029Y-124252949D01*
X32865000Y-124500000D01*
X32865000Y-139000000D01*
X32890816Y-139179219D01*
X33008537Y-139402106D01*
X35102560Y-141961468D01*
X35102560Y-146750000D01*
X35110087Y-146790000D01*
X26877000Y-146790000D01*
X26877000Y-137844444D01*
X26973567Y-137884542D01*
X28021834Y-137885457D01*
X28990658Y-137485147D01*
X29732542Y-136744557D01*
X30134542Y-135776433D01*
X30135457Y-134728166D01*
X29735147Y-133759342D01*
X28994557Y-133017458D01*
X28026433Y-132615458D01*
X26978166Y-132614543D01*
X26877000Y-132656344D01*
X26877000Y-124044549D01*
X28811039Y-121627000D01*
X35753253Y-121627000D01*
X33076109Y-124027198D01*
X33076109Y-124027198D01*
G37*
X33076109Y-124027198D02*
X32915029Y-124252949D01*
X32865000Y-124500000D01*
X32865000Y-139000000D01*
X32890816Y-139179219D01*
X33008537Y-139402106D01*
X35102560Y-141961468D01*
X35102560Y-146750000D01*
X35110087Y-146790000D01*
X26877000Y-146790000D01*
X26877000Y-137844444D01*
X26973567Y-137884542D01*
X28021834Y-137885457D01*
X28990658Y-137485147D01*
X29732542Y-136744557D01*
X30134542Y-135776433D01*
X30135457Y-134728166D01*
X29735147Y-133759342D01*
X28994557Y-133017458D01*
X28026433Y-132615458D01*
X26978166Y-132614543D01*
X26877000Y-132656344D01*
X26877000Y-124044549D01*
X28811039Y-121627000D01*
X35753253Y-121627000D01*
X33076109Y-124027198D01*
G36*
X39485761Y-146623000D02*
X35877000Y-146623000D01*
X35877000Y-142112049D01*
X39485761Y-146623000D01*
X39485761Y-146623000D01*
G37*
X39485761Y-146623000D02*
X35877000Y-146623000D01*
X35877000Y-142112049D01*
X39485761Y-146623000D01*
G36*
X47623000Y-86358705D02*
X47582069Y-86418610D01*
X47531060Y-86670500D01*
X47531060Y-87305500D01*
X47575338Y-87540817D01*
X47623000Y-87614886D01*
X47623000Y-87882705D01*
X47582069Y-87942610D01*
X47531060Y-88194500D01*
X47531060Y-88829500D01*
X47575338Y-89064817D01*
X47623000Y-89138886D01*
X47623000Y-89358706D01*
X47582069Y-89418610D01*
X47531060Y-89670500D01*
X47531060Y-90305500D01*
X47575338Y-90540817D01*
X47623000Y-90614886D01*
X47623000Y-90882705D01*
X47582069Y-90942610D01*
X47531060Y-91194500D01*
X47531060Y-91829500D01*
X47575338Y-92064817D01*
X47623000Y-92138886D01*
X47623000Y-99858705D01*
X47582069Y-99918610D01*
X47531060Y-100170500D01*
X47531060Y-100805500D01*
X47575338Y-101040817D01*
X47623000Y-101114886D01*
X47623000Y-101382705D01*
X47582069Y-101442610D01*
X47531060Y-101694500D01*
X47531060Y-102329500D01*
X47575338Y-102564817D01*
X47623000Y-102638886D01*
X47623000Y-107144102D01*
X47471057Y-107206883D01*
X47440904Y-107236984D01*
X47432662Y-107193183D01*
X47293590Y-106977059D01*
X47081390Y-106832069D01*
X46829500Y-106781060D01*
X46194500Y-106781060D01*
X45959183Y-106825338D01*
X45765371Y-106950052D01*
X45730019Y-106950022D01*
X45557390Y-106832069D01*
X45305500Y-106781060D01*
X44670500Y-106781060D01*
X44435183Y-106825338D01*
X44219059Y-106964410D01*
X44074069Y-107176610D01*
X44023060Y-107428500D01*
X44023060Y-108571500D01*
X44067338Y-108806817D01*
X44206410Y-109022941D01*
X44418610Y-109167931D01*
X44670500Y-109218940D01*
X45305500Y-109218940D01*
X45540817Y-109174662D01*
X45752811Y-109038247D01*
X45942610Y-109167931D01*
X46194500Y-109218940D01*
X46829500Y-109218940D01*
X47064817Y-109174662D01*
X47280941Y-109035590D01*
X47425931Y-108823390D01*
X47438560Y-108761025D01*
X47469673Y-108792192D01*
X47623000Y-108855859D01*
X47623000Y-113346705D01*
X47582069Y-113406610D01*
X47531060Y-113658500D01*
X47531060Y-114293500D01*
X47575338Y-114528817D01*
X47623000Y-114602886D01*
X47623000Y-114870705D01*
X47582069Y-114930610D01*
X47531060Y-115182500D01*
X47531060Y-115817500D01*
X47575338Y-116052817D01*
X47623000Y-116126886D01*
X47623000Y-117423912D01*
X47565162Y-117563201D01*
X47564838Y-117935167D01*
X47623000Y-118075930D01*
X47623000Y-119447394D01*
X45197394Y-121873000D01*
X41500000Y-121873000D01*
X41450590Y-121883006D01*
X41410197Y-121910197D01*
X40660197Y-122660197D01*
X40632334Y-122702211D01*
X40623000Y-122750000D01*
X40623000Y-128450599D01*
X37906381Y-131414183D01*
X37880370Y-131457367D01*
X37873000Y-131500000D01*
X37873000Y-139000000D01*
X37892855Y-139068183D01*
X39518648Y-141623000D01*
X35810183Y-141623000D01*
X33627000Y-138954665D01*
X33627000Y-124556706D01*
X40834778Y-118094560D01*
X40864888Y-118054127D01*
X40877000Y-118000000D01*
X40877000Y-116385000D01*
X42702320Y-116385000D01*
X42702320Y-116850960D01*
X42746598Y-117086277D01*
X42885670Y-117302401D01*
X43065065Y-117424976D01*
X43064838Y-117685167D01*
X43206883Y-118028943D01*
X43469673Y-118292192D01*
X43813201Y-118434838D01*
X44185167Y-118435162D01*
X44528943Y-118293117D01*
X44792192Y-118030327D01*
X44934838Y-117686799D01*
X44935068Y-117422262D01*
X45101681Y-117315050D01*
X45246671Y-117102850D01*
X45297680Y-116850960D01*
X45297680Y-116385000D01*
X46250000Y-116385000D01*
X46480795Y-116341573D01*
X46692767Y-116205173D01*
X46834971Y-115997051D01*
X46885000Y-115750000D01*
X46885000Y-111500000D01*
X46841573Y-111269205D01*
X46705173Y-111057233D01*
X46497051Y-110915029D01*
X46250000Y-110865000D01*
X40877000Y-110865000D01*
X40877000Y-103635000D01*
X42702320Y-103635000D01*
X42702320Y-104100960D01*
X42746598Y-104336277D01*
X42885670Y-104552401D01*
X43065065Y-104674976D01*
X43064838Y-104935167D01*
X43206883Y-105278943D01*
X43469673Y-105542192D01*
X43813201Y-105684838D01*
X44185167Y-105685162D01*
X44528943Y-105543117D01*
X44792192Y-105280327D01*
X44934838Y-104936799D01*
X44935068Y-104672262D01*
X45101681Y-104565050D01*
X45246671Y-104352850D01*
X45297680Y-104100960D01*
X45297680Y-103635000D01*
X46250000Y-103635000D01*
X46480795Y-103591573D01*
X46692767Y-103455173D01*
X46834971Y-103247051D01*
X46885000Y-103000000D01*
X46885000Y-99000000D01*
X46841573Y-98769205D01*
X46705173Y-98557233D01*
X46497051Y-98415029D01*
X46250000Y-98365000D01*
X46219732Y-98365000D01*
X46155190Y-98351930D01*
X45304290Y-98351930D01*
X45234829Y-98365000D01*
X45069112Y-98365000D01*
X45004570Y-98351930D01*
X44153670Y-98351930D01*
X44084209Y-98365000D01*
X43910872Y-98365000D01*
X43846330Y-98351930D01*
X42995430Y-98351930D01*
X42925969Y-98365000D01*
X42760252Y-98365000D01*
X42695710Y-98351930D01*
X41844810Y-98351930D01*
X41775349Y-98365000D01*
X40877000Y-98365000D01*
X40877000Y-90385000D01*
X42702320Y-90385000D01*
X42702320Y-90850960D01*
X42746598Y-91086277D01*
X42885670Y-91302401D01*
X43065065Y-91424976D01*
X43064838Y-91685167D01*
X43206883Y-92028943D01*
X43469673Y-92292192D01*
X43813201Y-92434838D01*
X44185167Y-92435162D01*
X44528943Y-92293117D01*
X44792192Y-92030327D01*
X44934838Y-91686799D01*
X44935068Y-91422262D01*
X45101681Y-91315050D01*
X45246671Y-91102850D01*
X45297680Y-90850960D01*
X45297680Y-90385000D01*
X46250000Y-90385000D01*
X46480795Y-90341573D01*
X46692767Y-90205173D01*
X46834971Y-89997051D01*
X46885000Y-89750000D01*
X46885000Y-85750000D01*
X46841573Y-85519205D01*
X46705173Y-85307233D01*
X46497051Y-85165029D01*
X46250000Y-85115000D01*
X46219732Y-85115000D01*
X46155190Y-85101930D01*
X45304290Y-85101930D01*
X45234829Y-85115000D01*
X45069112Y-85115000D01*
X45004570Y-85101930D01*
X44153670Y-85101930D01*
X44084209Y-85115000D01*
X43910872Y-85115000D01*
X43846330Y-85101930D01*
X42995430Y-85101930D01*
X42925969Y-85115000D01*
X42760252Y-85115000D01*
X42695710Y-85101930D01*
X41844810Y-85101930D01*
X41775349Y-85115000D01*
X40877000Y-85115000D01*
X40877000Y-83210000D01*
X47623000Y-83210000D01*
X47623000Y-86358705D01*
X47623000Y-86358705D01*
G37*
X47623000Y-86358705D02*
X47582069Y-86418610D01*
X47531060Y-86670500D01*
X47531060Y-87305500D01*
X47575338Y-87540817D01*
X47623000Y-87614886D01*
X47623000Y-87882705D01*
X47582069Y-87942610D01*
X47531060Y-88194500D01*
X47531060Y-88829500D01*
X47575338Y-89064817D01*
X47623000Y-89138886D01*
X47623000Y-89358706D01*
X47582069Y-89418610D01*
X47531060Y-89670500D01*
X47531060Y-90305500D01*
X47575338Y-90540817D01*
X47623000Y-90614886D01*
X47623000Y-90882705D01*
X47582069Y-90942610D01*
X47531060Y-91194500D01*
X47531060Y-91829500D01*
X47575338Y-92064817D01*
X47623000Y-92138886D01*
X47623000Y-99858705D01*
X47582069Y-99918610D01*
X47531060Y-100170500D01*
X47531060Y-100805500D01*
X47575338Y-101040817D01*
X47623000Y-101114886D01*
X47623000Y-101382705D01*
X47582069Y-101442610D01*
X47531060Y-101694500D01*
X47531060Y-102329500D01*
X47575338Y-102564817D01*
X47623000Y-102638886D01*
X47623000Y-107144102D01*
X47471057Y-107206883D01*
X47440904Y-107236984D01*
X47432662Y-107193183D01*
X47293590Y-106977059D01*
X47081390Y-106832069D01*
X46829500Y-106781060D01*
X46194500Y-106781060D01*
X45959183Y-106825338D01*
X45765371Y-106950052D01*
X45730019Y-106950022D01*
X45557390Y-106832069D01*
X45305500Y-106781060D01*
X44670500Y-106781060D01*
X44435183Y-106825338D01*
X44219059Y-106964410D01*
X44074069Y-107176610D01*
X44023060Y-107428500D01*
X44023060Y-108571500D01*
X44067338Y-108806817D01*
X44206410Y-109022941D01*
X44418610Y-109167931D01*
X44670500Y-109218940D01*
X45305500Y-109218940D01*
X45540817Y-109174662D01*
X45752811Y-109038247D01*
X45942610Y-109167931D01*
X46194500Y-109218940D01*
X46829500Y-109218940D01*
X47064817Y-109174662D01*
X47280941Y-109035590D01*
X47425931Y-108823390D01*
X47438560Y-108761025D01*
X47469673Y-108792192D01*
X47623000Y-108855859D01*
X47623000Y-113346705D01*
X47582069Y-113406610D01*
X47531060Y-113658500D01*
X47531060Y-114293500D01*
X47575338Y-114528817D01*
X47623000Y-114602886D01*
X47623000Y-114870705D01*
X47582069Y-114930610D01*
X47531060Y-115182500D01*
X47531060Y-115817500D01*
X47575338Y-116052817D01*
X47623000Y-116126886D01*
X47623000Y-117423912D01*
X47565162Y-117563201D01*
X47564838Y-117935167D01*
X47623000Y-118075930D01*
X47623000Y-119447394D01*
X45197394Y-121873000D01*
X41500000Y-121873000D01*
X41450590Y-121883006D01*
X41410197Y-121910197D01*
X40660197Y-122660197D01*
X40632334Y-122702211D01*
X40623000Y-122750000D01*
X40623000Y-128450599D01*
X37906381Y-131414183D01*
X37880370Y-131457367D01*
X37873000Y-131500000D01*
X37873000Y-139000000D01*
X37892855Y-139068183D01*
X39518648Y-141623000D01*
X35810183Y-141623000D01*
X33627000Y-138954665D01*
X33627000Y-124556706D01*
X40834778Y-118094560D01*
X40864888Y-118054127D01*
X40877000Y-118000000D01*
X40877000Y-116385000D01*
X42702320Y-116385000D01*
X42702320Y-116850960D01*
X42746598Y-117086277D01*
X42885670Y-117302401D01*
X43065065Y-117424976D01*
X43064838Y-117685167D01*
X43206883Y-118028943D01*
X43469673Y-118292192D01*
X43813201Y-118434838D01*
X44185167Y-118435162D01*
X44528943Y-118293117D01*
X44792192Y-118030327D01*
X44934838Y-117686799D01*
X44935068Y-117422262D01*
X45101681Y-117315050D01*
X45246671Y-117102850D01*
X45297680Y-116850960D01*
X45297680Y-116385000D01*
X46250000Y-116385000D01*
X46480795Y-116341573D01*
X46692767Y-116205173D01*
X46834971Y-115997051D01*
X46885000Y-115750000D01*
X46885000Y-111500000D01*
X46841573Y-111269205D01*
X46705173Y-111057233D01*
X46497051Y-110915029D01*
X46250000Y-110865000D01*
X40877000Y-110865000D01*
X40877000Y-103635000D01*
X42702320Y-103635000D01*
X42702320Y-104100960D01*
X42746598Y-104336277D01*
X42885670Y-104552401D01*
X43065065Y-104674976D01*
X43064838Y-104935167D01*
X43206883Y-105278943D01*
X43469673Y-105542192D01*
X43813201Y-105684838D01*
X44185167Y-105685162D01*
X44528943Y-105543117D01*
X44792192Y-105280327D01*
X44934838Y-104936799D01*
X44935068Y-104672262D01*
X45101681Y-104565050D01*
X45246671Y-104352850D01*
X45297680Y-104100960D01*
X45297680Y-103635000D01*
X46250000Y-103635000D01*
X46480795Y-103591573D01*
X46692767Y-103455173D01*
X46834971Y-103247051D01*
X46885000Y-103000000D01*
X46885000Y-99000000D01*
X46841573Y-98769205D01*
X46705173Y-98557233D01*
X46497051Y-98415029D01*
X46250000Y-98365000D01*
X46219732Y-98365000D01*
X46155190Y-98351930D01*
X45304290Y-98351930D01*
X45234829Y-98365000D01*
X45069112Y-98365000D01*
X45004570Y-98351930D01*
X44153670Y-98351930D01*
X44084209Y-98365000D01*
X43910872Y-98365000D01*
X43846330Y-98351930D01*
X42995430Y-98351930D01*
X42925969Y-98365000D01*
X42760252Y-98365000D01*
X42695710Y-98351930D01*
X41844810Y-98351930D01*
X41775349Y-98365000D01*
X40877000Y-98365000D01*
X40877000Y-90385000D01*
X42702320Y-90385000D01*
X42702320Y-90850960D01*
X42746598Y-91086277D01*
X42885670Y-91302401D01*
X43065065Y-91424976D01*
X43064838Y-91685167D01*
X43206883Y-92028943D01*
X43469673Y-92292192D01*
X43813201Y-92434838D01*
X44185167Y-92435162D01*
X44528943Y-92293117D01*
X44792192Y-92030327D01*
X44934838Y-91686799D01*
X44935068Y-91422262D01*
X45101681Y-91315050D01*
X45246671Y-91102850D01*
X45297680Y-90850960D01*
X45297680Y-90385000D01*
X46250000Y-90385000D01*
X46480795Y-90341573D01*
X46692767Y-90205173D01*
X46834971Y-89997051D01*
X46885000Y-89750000D01*
X46885000Y-85750000D01*
X46841573Y-85519205D01*
X46705173Y-85307233D01*
X46497051Y-85165029D01*
X46250000Y-85115000D01*
X46219732Y-85115000D01*
X46155190Y-85101930D01*
X45304290Y-85101930D01*
X45234829Y-85115000D01*
X45069112Y-85115000D01*
X45004570Y-85101930D01*
X44153670Y-85101930D01*
X44084209Y-85115000D01*
X43910872Y-85115000D01*
X43846330Y-85101930D01*
X42995430Y-85101930D01*
X42925969Y-85115000D01*
X42760252Y-85115000D01*
X42695710Y-85101930D01*
X41844810Y-85101930D01*
X41775349Y-85115000D01*
X40877000Y-85115000D01*
X40877000Y-83210000D01*
X47623000Y-83210000D01*
X47623000Y-86358705D01*
G36*
X40465110Y-111622114D02*
X40500000Y-111627000D01*
X46123000Y-111627000D01*
X46123000Y-115623000D01*
X45003863Y-115623000D01*
X44902130Y-115553489D01*
X44650240Y-115502480D01*
X43349760Y-115502480D01*
X43114443Y-115546758D01*
X42995960Y-115623000D01*
X40500000Y-115623000D01*
X40450590Y-115633006D01*
X40426183Y-115646656D01*
X38709301Y-116873000D01*
X28877000Y-116873000D01*
X28877000Y-116000000D01*
X28866994Y-115950590D01*
X28838553Y-115908965D01*
X28796159Y-115881685D01*
X28750000Y-115873000D01*
X25127000Y-115873000D01*
X25127000Y-112127000D01*
X28750000Y-112127000D01*
X28799410Y-112116994D01*
X28841035Y-112088553D01*
X28868315Y-112046159D01*
X28877000Y-112000000D01*
X28877000Y-111844810D01*
X30601930Y-111844810D01*
X30601930Y-112695710D01*
X30631163Y-112851072D01*
X30601930Y-112995430D01*
X30601930Y-113846330D01*
X30631907Y-114005641D01*
X30601930Y-114153670D01*
X30601930Y-115004570D01*
X30631163Y-115159932D01*
X30601930Y-115304290D01*
X30601930Y-116155190D01*
X30646208Y-116390507D01*
X30785280Y-116606631D01*
X30997480Y-116751621D01*
X31249370Y-116802630D01*
X31487033Y-116802630D01*
X31799280Y-116864740D01*
X34600900Y-116864740D01*
X34913147Y-116802630D01*
X35150810Y-116802630D01*
X35386127Y-116758352D01*
X35602251Y-116619280D01*
X35747241Y-116407080D01*
X35798250Y-116155190D01*
X35798250Y-115304290D01*
X35797006Y-115297680D01*
X36350960Y-115297680D01*
X36586277Y-115253402D01*
X36802401Y-115114330D01*
X36924976Y-114934935D01*
X37185167Y-114935162D01*
X37528943Y-114793117D01*
X37792192Y-114530327D01*
X37934838Y-114186799D01*
X37935162Y-113814833D01*
X37793117Y-113471057D01*
X37530327Y-113207808D01*
X37186799Y-113065162D01*
X36922262Y-113064932D01*
X36815050Y-112898319D01*
X36602850Y-112753329D01*
X36350960Y-112702320D01*
X35796911Y-112702320D01*
X35798250Y-112695710D01*
X35798250Y-111844810D01*
X35753972Y-111609493D01*
X35614900Y-111393369D01*
X35402700Y-111248379D01*
X35150810Y-111197370D01*
X34913147Y-111197370D01*
X34600900Y-111135260D01*
X31799280Y-111135260D01*
X31487033Y-111197370D01*
X31249370Y-111197370D01*
X31014053Y-111241648D01*
X30797929Y-111380720D01*
X30652939Y-111592920D01*
X30601930Y-111844810D01*
X28877000Y-111844810D01*
X28877000Y-111127000D01*
X38732211Y-111127000D01*
X40465110Y-111622114D01*
X40465110Y-111622114D01*
G37*
X40465110Y-111622114D02*
X40500000Y-111627000D01*
X46123000Y-111627000D01*
X46123000Y-115623000D01*
X45003863Y-115623000D01*
X44902130Y-115553489D01*
X44650240Y-115502480D01*
X43349760Y-115502480D01*
X43114443Y-115546758D01*
X42995960Y-115623000D01*
X40500000Y-115623000D01*
X40450590Y-115633006D01*
X40426183Y-115646656D01*
X38709301Y-116873000D01*
X28877000Y-116873000D01*
X28877000Y-116000000D01*
X28866994Y-115950590D01*
X28838553Y-115908965D01*
X28796159Y-115881685D01*
X28750000Y-115873000D01*
X25127000Y-115873000D01*
X25127000Y-112127000D01*
X28750000Y-112127000D01*
X28799410Y-112116994D01*
X28841035Y-112088553D01*
X28868315Y-112046159D01*
X28877000Y-112000000D01*
X28877000Y-111844810D01*
X30601930Y-111844810D01*
X30601930Y-112695710D01*
X30631163Y-112851072D01*
X30601930Y-112995430D01*
X30601930Y-113846330D01*
X30631907Y-114005641D01*
X30601930Y-114153670D01*
X30601930Y-115004570D01*
X30631163Y-115159932D01*
X30601930Y-115304290D01*
X30601930Y-116155190D01*
X30646208Y-116390507D01*
X30785280Y-116606631D01*
X30997480Y-116751621D01*
X31249370Y-116802630D01*
X31487033Y-116802630D01*
X31799280Y-116864740D01*
X34600900Y-116864740D01*
X34913147Y-116802630D01*
X35150810Y-116802630D01*
X35386127Y-116758352D01*
X35602251Y-116619280D01*
X35747241Y-116407080D01*
X35798250Y-116155190D01*
X35798250Y-115304290D01*
X35797006Y-115297680D01*
X36350960Y-115297680D01*
X36586277Y-115253402D01*
X36802401Y-115114330D01*
X36924976Y-114934935D01*
X37185167Y-114935162D01*
X37528943Y-114793117D01*
X37792192Y-114530327D01*
X37934838Y-114186799D01*
X37935162Y-113814833D01*
X37793117Y-113471057D01*
X37530327Y-113207808D01*
X37186799Y-113065162D01*
X36922262Y-113064932D01*
X36815050Y-112898319D01*
X36602850Y-112753329D01*
X36350960Y-112702320D01*
X35796911Y-112702320D01*
X35798250Y-112695710D01*
X35798250Y-111844810D01*
X35753972Y-111609493D01*
X35614900Y-111393369D01*
X35402700Y-111248379D01*
X35150810Y-111197370D01*
X34913147Y-111197370D01*
X34600900Y-111135260D01*
X31799280Y-111135260D01*
X31487033Y-111197370D01*
X31249370Y-111197370D01*
X31014053Y-111241648D01*
X30797929Y-111380720D01*
X30652939Y-111592920D01*
X30601930Y-111844810D01*
X28877000Y-111844810D01*
X28877000Y-111127000D01*
X38732211Y-111127000D01*
X40465110Y-111622114D01*
G36*
X40449972Y-99116731D02*
X40500000Y-99127000D01*
X46123000Y-99127000D01*
X46123000Y-102873000D01*
X45003863Y-102873000D01*
X44902130Y-102803489D01*
X44650240Y-102752480D01*
X43349760Y-102752480D01*
X43114443Y-102796758D01*
X42995960Y-102873000D01*
X40500000Y-102873000D01*
X40450590Y-102883006D01*
X40426183Y-102896656D01*
X38709301Y-104123000D01*
X28877000Y-104123000D01*
X28877000Y-103250000D01*
X28866994Y-103200590D01*
X28838553Y-103158965D01*
X28796159Y-103131685D01*
X28750000Y-103123000D01*
X25127000Y-103123000D01*
X25127000Y-99377000D01*
X28750000Y-99377000D01*
X28799410Y-99366994D01*
X28841035Y-99338553D01*
X28868315Y-99296159D01*
X28877000Y-99250000D01*
X28877000Y-99094810D01*
X30601930Y-99094810D01*
X30601930Y-99945710D01*
X30631163Y-100101072D01*
X30601930Y-100245430D01*
X30601930Y-101096330D01*
X30631907Y-101255641D01*
X30601930Y-101403670D01*
X30601930Y-102254570D01*
X30631163Y-102409932D01*
X30601930Y-102554290D01*
X30601930Y-103405190D01*
X30646208Y-103640507D01*
X30785280Y-103856631D01*
X30997480Y-104001621D01*
X31249370Y-104052630D01*
X31487033Y-104052630D01*
X31799280Y-104114740D01*
X34600900Y-104114740D01*
X34913147Y-104052630D01*
X35150810Y-104052630D01*
X35386127Y-104008352D01*
X35602251Y-103869280D01*
X35747241Y-103657080D01*
X35798250Y-103405190D01*
X35798250Y-102554290D01*
X35797006Y-102547680D01*
X36350960Y-102547680D01*
X36586277Y-102503402D01*
X36802401Y-102364330D01*
X36924976Y-102184935D01*
X37185167Y-102185162D01*
X37528943Y-102043117D01*
X37792192Y-101780327D01*
X37934838Y-101436799D01*
X37935162Y-101064833D01*
X37793117Y-100721057D01*
X37530327Y-100457808D01*
X37186799Y-100315162D01*
X36922262Y-100314932D01*
X36815050Y-100148319D01*
X36602850Y-100003329D01*
X36350960Y-99952320D01*
X35796911Y-99952320D01*
X35798250Y-99945710D01*
X35798250Y-99094810D01*
X35753972Y-98859493D01*
X35614900Y-98643369D01*
X35402700Y-98498379D01*
X35150810Y-98447370D01*
X34913147Y-98447370D01*
X34600900Y-98385260D01*
X31799280Y-98385260D01*
X31487033Y-98447370D01*
X31249370Y-98447370D01*
X31014053Y-98491648D01*
X30797929Y-98630720D01*
X30652939Y-98842920D01*
X30601930Y-99094810D01*
X28877000Y-99094810D01*
X28877000Y-98377000D01*
X38723933Y-98377000D01*
X40449972Y-99116731D01*
X40449972Y-99116731D01*
G37*
X40449972Y-99116731D02*
X40500000Y-99127000D01*
X46123000Y-99127000D01*
X46123000Y-102873000D01*
X45003863Y-102873000D01*
X44902130Y-102803489D01*
X44650240Y-102752480D01*
X43349760Y-102752480D01*
X43114443Y-102796758D01*
X42995960Y-102873000D01*
X40500000Y-102873000D01*
X40450590Y-102883006D01*
X40426183Y-102896656D01*
X38709301Y-104123000D01*
X28877000Y-104123000D01*
X28877000Y-103250000D01*
X28866994Y-103200590D01*
X28838553Y-103158965D01*
X28796159Y-103131685D01*
X28750000Y-103123000D01*
X25127000Y-103123000D01*
X25127000Y-99377000D01*
X28750000Y-99377000D01*
X28799410Y-99366994D01*
X28841035Y-99338553D01*
X28868315Y-99296159D01*
X28877000Y-99250000D01*
X28877000Y-99094810D01*
X30601930Y-99094810D01*
X30601930Y-99945710D01*
X30631163Y-100101072D01*
X30601930Y-100245430D01*
X30601930Y-101096330D01*
X30631907Y-101255641D01*
X30601930Y-101403670D01*
X30601930Y-102254570D01*
X30631163Y-102409932D01*
X30601930Y-102554290D01*
X30601930Y-103405190D01*
X30646208Y-103640507D01*
X30785280Y-103856631D01*
X30997480Y-104001621D01*
X31249370Y-104052630D01*
X31487033Y-104052630D01*
X31799280Y-104114740D01*
X34600900Y-104114740D01*
X34913147Y-104052630D01*
X35150810Y-104052630D01*
X35386127Y-104008352D01*
X35602251Y-103869280D01*
X35747241Y-103657080D01*
X35798250Y-103405190D01*
X35798250Y-102554290D01*
X35797006Y-102547680D01*
X36350960Y-102547680D01*
X36586277Y-102503402D01*
X36802401Y-102364330D01*
X36924976Y-102184935D01*
X37185167Y-102185162D01*
X37528943Y-102043117D01*
X37792192Y-101780327D01*
X37934838Y-101436799D01*
X37935162Y-101064833D01*
X37793117Y-100721057D01*
X37530327Y-100457808D01*
X37186799Y-100315162D01*
X36922262Y-100314932D01*
X36815050Y-100148319D01*
X36602850Y-100003329D01*
X36350960Y-99952320D01*
X35796911Y-99952320D01*
X35798250Y-99945710D01*
X35798250Y-99094810D01*
X35753972Y-98859493D01*
X35614900Y-98643369D01*
X35402700Y-98498379D01*
X35150810Y-98447370D01*
X34913147Y-98447370D01*
X34600900Y-98385260D01*
X31799280Y-98385260D01*
X31487033Y-98447370D01*
X31249370Y-98447370D01*
X31014053Y-98491648D01*
X30797929Y-98630720D01*
X30652939Y-98842920D01*
X30601930Y-99094810D01*
X28877000Y-99094810D01*
X28877000Y-98377000D01*
X38723933Y-98377000D01*
X40449972Y-99116731D01*
G36*
X40482039Y-85875724D02*
X40500000Y-85877000D01*
X46123000Y-85877000D01*
X46123000Y-89623000D01*
X45003863Y-89623000D01*
X44902130Y-89553489D01*
X44650240Y-89502480D01*
X43349760Y-89502480D01*
X43114443Y-89546758D01*
X42995960Y-89623000D01*
X40500000Y-89623000D01*
X40450590Y-89633006D01*
X40410197Y-89660197D01*
X38697394Y-91373000D01*
X28877000Y-91373000D01*
X28877000Y-90500000D01*
X28866994Y-90450590D01*
X28838553Y-90408965D01*
X28796159Y-90381685D01*
X28750000Y-90373000D01*
X25127000Y-90373000D01*
X25127000Y-86627000D01*
X28750000Y-86627000D01*
X28799410Y-86616994D01*
X28841035Y-86588553D01*
X28868315Y-86546159D01*
X28877000Y-86500000D01*
X28877000Y-86344810D01*
X30601930Y-86344810D01*
X30601930Y-87195710D01*
X30631163Y-87351072D01*
X30601930Y-87495430D01*
X30601930Y-88346330D01*
X30631907Y-88505641D01*
X30601930Y-88653670D01*
X30601930Y-89504570D01*
X30631163Y-89659932D01*
X30601930Y-89804290D01*
X30601930Y-90655190D01*
X30646208Y-90890507D01*
X30785280Y-91106631D01*
X30997480Y-91251621D01*
X31249370Y-91302630D01*
X31487033Y-91302630D01*
X31799280Y-91364740D01*
X34600900Y-91364740D01*
X34913147Y-91302630D01*
X35150810Y-91302630D01*
X35386127Y-91258352D01*
X35602251Y-91119280D01*
X35747241Y-90907080D01*
X35798250Y-90655190D01*
X35798250Y-89804290D01*
X35797006Y-89797680D01*
X36350960Y-89797680D01*
X36586277Y-89753402D01*
X36802401Y-89614330D01*
X36924976Y-89434935D01*
X37185167Y-89435162D01*
X37528943Y-89293117D01*
X37792192Y-89030327D01*
X37934838Y-88686799D01*
X37935162Y-88314833D01*
X37793117Y-87971057D01*
X37530327Y-87707808D01*
X37186799Y-87565162D01*
X36922262Y-87564932D01*
X36815050Y-87398319D01*
X36602850Y-87253329D01*
X36350960Y-87202320D01*
X35796911Y-87202320D01*
X35798250Y-87195710D01*
X35798250Y-86344810D01*
X35753972Y-86109493D01*
X35614900Y-85893369D01*
X35402700Y-85748379D01*
X35150810Y-85697370D01*
X34913147Y-85697370D01*
X34600900Y-85635260D01*
X31799280Y-85635260D01*
X31487033Y-85697370D01*
X31249370Y-85697370D01*
X31014053Y-85741648D01*
X30797929Y-85880720D01*
X30652939Y-86092920D01*
X30601930Y-86344810D01*
X28877000Y-86344810D01*
X28877000Y-85627000D01*
X38740971Y-85627000D01*
X40482039Y-85875724D01*
X40482039Y-85875724D01*
G37*
X40482039Y-85875724D02*
X40500000Y-85877000D01*
X46123000Y-85877000D01*
X46123000Y-89623000D01*
X45003863Y-89623000D01*
X44902130Y-89553489D01*
X44650240Y-89502480D01*
X43349760Y-89502480D01*
X43114443Y-89546758D01*
X42995960Y-89623000D01*
X40500000Y-89623000D01*
X40450590Y-89633006D01*
X40410197Y-89660197D01*
X38697394Y-91373000D01*
X28877000Y-91373000D01*
X28877000Y-90500000D01*
X28866994Y-90450590D01*
X28838553Y-90408965D01*
X28796159Y-90381685D01*
X28750000Y-90373000D01*
X25127000Y-90373000D01*
X25127000Y-86627000D01*
X28750000Y-86627000D01*
X28799410Y-86616994D01*
X28841035Y-86588553D01*
X28868315Y-86546159D01*
X28877000Y-86500000D01*
X28877000Y-86344810D01*
X30601930Y-86344810D01*
X30601930Y-87195710D01*
X30631163Y-87351072D01*
X30601930Y-87495430D01*
X30601930Y-88346330D01*
X30631907Y-88505641D01*
X30601930Y-88653670D01*
X30601930Y-89504570D01*
X30631163Y-89659932D01*
X30601930Y-89804290D01*
X30601930Y-90655190D01*
X30646208Y-90890507D01*
X30785280Y-91106631D01*
X30997480Y-91251621D01*
X31249370Y-91302630D01*
X31487033Y-91302630D01*
X31799280Y-91364740D01*
X34600900Y-91364740D01*
X34913147Y-91302630D01*
X35150810Y-91302630D01*
X35386127Y-91258352D01*
X35602251Y-91119280D01*
X35747241Y-90907080D01*
X35798250Y-90655190D01*
X35798250Y-89804290D01*
X35797006Y-89797680D01*
X36350960Y-89797680D01*
X36586277Y-89753402D01*
X36802401Y-89614330D01*
X36924976Y-89434935D01*
X37185167Y-89435162D01*
X37528943Y-89293117D01*
X37792192Y-89030327D01*
X37934838Y-88686799D01*
X37935162Y-88314833D01*
X37793117Y-87971057D01*
X37530327Y-87707808D01*
X37186799Y-87565162D01*
X36922262Y-87564932D01*
X36815050Y-87398319D01*
X36602850Y-87253329D01*
X36350960Y-87202320D01*
X35796911Y-87202320D01*
X35798250Y-87195710D01*
X35798250Y-86344810D01*
X35753972Y-86109493D01*
X35614900Y-85893369D01*
X35402700Y-85748379D01*
X35150810Y-85697370D01*
X34913147Y-85697370D01*
X34600900Y-85635260D01*
X31799280Y-85635260D01*
X31487033Y-85697370D01*
X31249370Y-85697370D01*
X31014053Y-85741648D01*
X30797929Y-85880720D01*
X30652939Y-86092920D01*
X30601930Y-86344810D01*
X28877000Y-86344810D01*
X28877000Y-85627000D01*
X38740971Y-85627000D01*
X40482039Y-85875724D01*
G36*
X41188461Y-110865000D02*
X40588936Y-110865000D01*
X39233210Y-110477650D01*
X39052680Y-110354299D01*
X38800790Y-110303290D01*
X38358942Y-110303290D01*
X38306404Y-110250752D01*
X38262478Y-110185012D01*
X38435167Y-110185162D01*
X38778943Y-110043117D01*
X39042192Y-109780327D01*
X39184838Y-109436799D01*
X39185162Y-109064833D01*
X39043117Y-108721057D01*
X38780327Y-108457808D01*
X38436799Y-108315162D01*
X38064833Y-108314838D01*
X37721057Y-108456883D01*
X37687882Y-108490000D01*
X37627000Y-108490000D01*
X37627000Y-106808802D01*
X38675802Y-105760000D01*
X38687537Y-105760000D01*
X38719673Y-105792192D01*
X39063201Y-105934838D01*
X39435167Y-105935162D01*
X39778943Y-105793117D01*
X40042192Y-105530327D01*
X40184838Y-105186799D01*
X40185162Y-104814833D01*
X40043117Y-104471057D01*
X39830791Y-104258360D01*
X40703495Y-103635000D01*
X41236342Y-103635000D01*
X41188461Y-110865000D01*
X41188461Y-110865000D01*
G37*
X41188461Y-110865000D02*
X40588936Y-110865000D01*
X39233210Y-110477650D01*
X39052680Y-110354299D01*
X38800790Y-110303290D01*
X38358942Y-110303290D01*
X38306404Y-110250752D01*
X38262478Y-110185012D01*
X38435167Y-110185162D01*
X38778943Y-110043117D01*
X39042192Y-109780327D01*
X39184838Y-109436799D01*
X39185162Y-109064833D01*
X39043117Y-108721057D01*
X38780327Y-108457808D01*
X38436799Y-108315162D01*
X38064833Y-108314838D01*
X37721057Y-108456883D01*
X37687882Y-108490000D01*
X37627000Y-108490000D01*
X37627000Y-106808802D01*
X38675802Y-105760000D01*
X38687537Y-105760000D01*
X38719673Y-105792192D01*
X39063201Y-105934838D01*
X39435167Y-105935162D01*
X39778943Y-105793117D01*
X40042192Y-105530327D01*
X40184838Y-105186799D01*
X40185162Y-104814833D01*
X40043117Y-104471057D01*
X39830791Y-104258360D01*
X40703495Y-103635000D01*
X41236342Y-103635000D01*
X41188461Y-110865000D01*
G36*
X41271242Y-98365000D02*
X40630339Y-98365000D01*
X39291993Y-97791423D01*
X39264880Y-97749289D01*
X39052680Y-97604299D01*
X38800790Y-97553290D01*
X38408422Y-97553290D01*
X38052566Y-97197434D01*
X37684346Y-96951397D01*
X37627000Y-96939990D01*
X37627000Y-96605898D01*
X37778943Y-96543117D01*
X38042192Y-96280327D01*
X38184838Y-95936799D01*
X38185162Y-95564833D01*
X38043117Y-95221057D01*
X37780327Y-94957808D01*
X37627000Y-94894141D01*
X37627000Y-94107520D01*
X37813201Y-94184838D01*
X38185167Y-94185162D01*
X38528943Y-94043117D01*
X38792192Y-93780327D01*
X38934838Y-93436799D01*
X38935162Y-93064833D01*
X38793117Y-92721057D01*
X38530327Y-92457808D01*
X38259699Y-92345433D01*
X38408422Y-92196710D01*
X38800790Y-92196710D01*
X39036107Y-92152432D01*
X39252231Y-92013360D01*
X39397221Y-91801160D01*
X39410007Y-91738019D01*
X40763026Y-90385000D01*
X41324090Y-90385000D01*
X41271242Y-98365000D01*
X41271242Y-98365000D01*
G37*
X41271242Y-98365000D02*
X40630339Y-98365000D01*
X39291993Y-97791423D01*
X39264880Y-97749289D01*
X39052680Y-97604299D01*
X38800790Y-97553290D01*
X38408422Y-97553290D01*
X38052566Y-97197434D01*
X37684346Y-96951397D01*
X37627000Y-96939990D01*
X37627000Y-96605898D01*
X37778943Y-96543117D01*
X38042192Y-96280327D01*
X38184838Y-95936799D01*
X38185162Y-95564833D01*
X38043117Y-95221057D01*
X37780327Y-94957808D01*
X37627000Y-94894141D01*
X37627000Y-94107520D01*
X37813201Y-94184838D01*
X38185167Y-94185162D01*
X38528943Y-94043117D01*
X38792192Y-93780327D01*
X38934838Y-93436799D01*
X38935162Y-93064833D01*
X38793117Y-92721057D01*
X38530327Y-92457808D01*
X38259699Y-92345433D01*
X38408422Y-92196710D01*
X38800790Y-92196710D01*
X39036107Y-92152432D01*
X39252231Y-92013360D01*
X39397221Y-91801160D01*
X39410007Y-91738019D01*
X40763026Y-90385000D01*
X41324090Y-90385000D01*
X41271242Y-98365000D01*
G36*
X38719673Y-105792192D02*
X39063201Y-105934838D01*
X39435167Y-105935162D01*
X39778943Y-105793117D01*
X39806392Y-105765716D01*
X40350295Y-110796817D01*
X39247205Y-110481649D01*
X39232391Y-110477090D01*
X39052680Y-110354299D01*
X38800790Y-110303290D01*
X38667540Y-110303290D01*
X38283195Y-110185030D01*
X38435167Y-110185162D01*
X38778943Y-110043117D01*
X39042192Y-109780327D01*
X39184838Y-109436799D01*
X39185162Y-109064833D01*
X39043117Y-108721057D01*
X38780327Y-108457808D01*
X38436799Y-108315162D01*
X38064833Y-108314838D01*
X37721057Y-108456883D01*
X37687882Y-108490000D01*
X37441471Y-108490000D01*
X37432662Y-108443183D01*
X37293590Y-108227059D01*
X37081390Y-108082069D01*
X36933976Y-108052217D01*
X36957431Y-108017890D01*
X37008440Y-107766000D01*
X37008440Y-107380920D01*
X37148401Y-107287401D01*
X38675802Y-105760000D01*
X38687537Y-105760000D01*
X38719673Y-105792192D01*
X38719673Y-105792192D01*
G37*
X38719673Y-105792192D02*
X39063201Y-105934838D01*
X39435167Y-105935162D01*
X39778943Y-105793117D01*
X39806392Y-105765716D01*
X40350295Y-110796817D01*
X39247205Y-110481649D01*
X39232391Y-110477090D01*
X39052680Y-110354299D01*
X38800790Y-110303290D01*
X38667540Y-110303290D01*
X38283195Y-110185030D01*
X38435167Y-110185162D01*
X38778943Y-110043117D01*
X39042192Y-109780327D01*
X39184838Y-109436799D01*
X39185162Y-109064833D01*
X39043117Y-108721057D01*
X38780327Y-108457808D01*
X38436799Y-108315162D01*
X38064833Y-108314838D01*
X37721057Y-108456883D01*
X37687882Y-108490000D01*
X37441471Y-108490000D01*
X37432662Y-108443183D01*
X37293590Y-108227059D01*
X37081390Y-108082069D01*
X36933976Y-108052217D01*
X36957431Y-108017890D01*
X37008440Y-107766000D01*
X37008440Y-107380920D01*
X37148401Y-107287401D01*
X38675802Y-105760000D01*
X38687537Y-105760000D01*
X38719673Y-105792192D01*
G36*
X29499454Y-105302566D02*
X29867674Y-105548603D01*
X30302020Y-105635000D01*
X31761608Y-105635000D01*
X31741560Y-105734000D01*
X31741560Y-106119080D01*
X31601599Y-106212599D01*
X30950599Y-106863599D01*
X30785852Y-107110161D01*
X30728000Y-107401000D01*
X30728000Y-108208657D01*
X30719059Y-108214410D01*
X30574069Y-108426610D01*
X30523060Y-108678500D01*
X30523060Y-109379974D01*
X30106173Y-109462898D01*
X29737953Y-109708935D01*
X29573888Y-109873000D01*
X28877000Y-109873000D01*
X28877000Y-104946710D01*
X29143598Y-104946710D01*
X29499454Y-105302566D01*
X29499454Y-105302566D01*
G37*
X29499454Y-105302566D02*
X29867674Y-105548603D01*
X30302020Y-105635000D01*
X31761608Y-105635000D01*
X31741560Y-105734000D01*
X31741560Y-106119080D01*
X31601599Y-106212599D01*
X30950599Y-106863599D01*
X30785852Y-107110161D01*
X30728000Y-107401000D01*
X30728000Y-108208657D01*
X30719059Y-108214410D01*
X30574069Y-108426610D01*
X30523060Y-108678500D01*
X30523060Y-109379974D01*
X30106173Y-109462898D01*
X29737953Y-109708935D01*
X29573888Y-109873000D01*
X28877000Y-109873000D01*
X28877000Y-104946710D01*
X29143598Y-104946710D01*
X29499454Y-105302566D01*
G36*
X37469673Y-94042192D02*
X37813201Y-94184838D01*
X38185167Y-94185162D01*
X38528943Y-94043117D01*
X38538096Y-94033980D01*
X38921198Y-97577673D01*
X38800790Y-97553290D01*
X38408422Y-97553290D01*
X38052566Y-97197434D01*
X37684346Y-96951397D01*
X37250000Y-96865000D01*
X36988392Y-96865000D01*
X37008440Y-96766000D01*
X37008440Y-96662099D01*
X37063201Y-96684838D01*
X37435167Y-96685162D01*
X37778943Y-96543117D01*
X38042192Y-96280327D01*
X38184838Y-95936799D01*
X38185162Y-95564833D01*
X38043117Y-95221057D01*
X37780327Y-94957808D01*
X37436799Y-94815162D01*
X37064833Y-94814838D01*
X37008440Y-94838139D01*
X37008440Y-94734000D01*
X36964162Y-94498683D01*
X36932546Y-94449551D01*
X37064817Y-94424662D01*
X37280941Y-94285590D01*
X37425931Y-94073390D01*
X37438560Y-94011025D01*
X37469673Y-94042192D01*
X37469673Y-94042192D01*
G37*
X37469673Y-94042192D02*
X37813201Y-94184838D01*
X38185167Y-94185162D01*
X38528943Y-94043117D01*
X38538096Y-94033980D01*
X38921198Y-97577673D01*
X38800790Y-97553290D01*
X38408422Y-97553290D01*
X38052566Y-97197434D01*
X37684346Y-96951397D01*
X37250000Y-96865000D01*
X36988392Y-96865000D01*
X37008440Y-96766000D01*
X37008440Y-96662099D01*
X37063201Y-96684838D01*
X37435167Y-96685162D01*
X37778943Y-96543117D01*
X38042192Y-96280327D01*
X38184838Y-95936799D01*
X38185162Y-95564833D01*
X38043117Y-95221057D01*
X37780327Y-94957808D01*
X37436799Y-94815162D01*
X37064833Y-94814838D01*
X37008440Y-94838139D01*
X37008440Y-94734000D01*
X36964162Y-94498683D01*
X36932546Y-94449551D01*
X37064817Y-94424662D01*
X37280941Y-94285590D01*
X37425931Y-94073390D01*
X37438560Y-94011025D01*
X37469673Y-94042192D01*
G36*
X29867674Y-92798603D02*
X30302020Y-92885000D01*
X30523060Y-92885000D01*
X30523060Y-93821500D01*
X30567338Y-94056817D01*
X30706410Y-94272941D01*
X30728000Y-94287693D01*
X30728000Y-95099000D01*
X30785852Y-95389839D01*
X30950599Y-95636401D01*
X31601599Y-96287401D01*
X31741560Y-96380920D01*
X31741560Y-96766000D01*
X31760188Y-96865000D01*
X30302020Y-96865000D01*
X29867674Y-96951397D01*
X29499454Y-97197434D01*
X29143598Y-97553290D01*
X28877000Y-97553290D01*
X28877000Y-92627000D01*
X29610852Y-92627000D01*
X29867674Y-92798603D01*
X29867674Y-92798603D01*
G37*
X29867674Y-92798603D02*
X30302020Y-92885000D01*
X30523060Y-92885000D01*
X30523060Y-93821500D01*
X30567338Y-94056817D01*
X30706410Y-94272941D01*
X30728000Y-94287693D01*
X30728000Y-95099000D01*
X30785852Y-95389839D01*
X30950599Y-95636401D01*
X31601599Y-96287401D01*
X31741560Y-96380920D01*
X31741560Y-96766000D01*
X31760188Y-96865000D01*
X30302020Y-96865000D01*
X29867674Y-96951397D01*
X29499454Y-97197434D01*
X29143598Y-97553290D01*
X28877000Y-97553290D01*
X28877000Y-92627000D01*
X29610852Y-92627000D01*
X29867674Y-92798603D01*
G36*
X29123000Y-116873000D02*
X28802606Y-116873000D01*
X28339803Y-116410197D01*
X28297789Y-116382334D01*
X28250000Y-116373000D01*
X24960000Y-116373000D01*
X24960000Y-111627000D01*
X28250000Y-111627000D01*
X28299410Y-111616994D01*
X28339803Y-111589803D01*
X28802606Y-111127000D01*
X29123000Y-111127000D01*
X29123000Y-116873000D01*
X29123000Y-116873000D01*
G37*
X29123000Y-116873000D02*
X28802606Y-116873000D01*
X28339803Y-116410197D01*
X28297789Y-116382334D01*
X28250000Y-116373000D01*
X24960000Y-116373000D01*
X24960000Y-111627000D01*
X28250000Y-111627000D01*
X28299410Y-111616994D01*
X28339803Y-111589803D01*
X28802606Y-111127000D01*
X29123000Y-111127000D01*
X29123000Y-116873000D01*
G36*
X29123000Y-104123000D02*
X28802606Y-104123000D01*
X28339803Y-103660197D01*
X28297789Y-103632334D01*
X28250000Y-103623000D01*
X24960000Y-103623000D01*
X24960000Y-98877000D01*
X28250000Y-98877000D01*
X28299410Y-98866994D01*
X28339803Y-98839803D01*
X28802606Y-98377000D01*
X29123000Y-98377000D01*
X29123000Y-104123000D01*
X29123000Y-104123000D01*
G37*
X29123000Y-104123000D02*
X28802606Y-104123000D01*
X28339803Y-103660197D01*
X28297789Y-103632334D01*
X28250000Y-103623000D01*
X24960000Y-103623000D01*
X24960000Y-98877000D01*
X28250000Y-98877000D01*
X28299410Y-98866994D01*
X28339803Y-98839803D01*
X28802606Y-98377000D01*
X29123000Y-98377000D01*
X29123000Y-104123000D01*
G36*
X28873000Y-91373000D02*
X28802606Y-91373000D01*
X28339803Y-90910197D01*
X28297789Y-90882334D01*
X28250000Y-90873000D01*
X24960000Y-90873000D01*
X24960000Y-86127000D01*
X28250000Y-86127000D01*
X28299410Y-86116994D01*
X28339803Y-86089803D01*
X28802606Y-85627000D01*
X28873000Y-85627000D01*
X28873000Y-91373000D01*
X28873000Y-91373000D01*
G37*
X28873000Y-91373000D02*
X28802606Y-91373000D01*
X28339803Y-90910197D01*
X28297789Y-90882334D01*
X28250000Y-90873000D01*
X24960000Y-90873000D01*
X24960000Y-86127000D01*
X28250000Y-86127000D01*
X28299410Y-86116994D01*
X28339803Y-86089803D01*
X28802606Y-85627000D01*
X28873000Y-85627000D01*
X28873000Y-91373000D01*
M02*
