M48
METRIC,TZ
T1C0.400
T2C0.600
T3C0.701
T4C0.800
T5C0.889
T6C1.016
T7C3.100
%
G90
G05
T1
X29750Y-122750
X30000Y-108500
X32204Y-93250
X32204Y-109250
X33250Y-88500
X33250Y-101250
X33250Y-114000
X33942Y-118750
X35250Y-132500
X35704Y-93250
X35704Y-109250
X36000Y-118750
X37000Y-88500
X37000Y-101250
X37000Y-114000
X37250Y-95750
X38000Y-93250
X38250Y-109250
X39250Y-105000
X40750Y-107250
X43250Y-135250
X44000Y-87750
X44000Y-91500
X44000Y-101000
X44000Y-104750
X44000Y-113750
X44000Y-117500
X45704Y-107885
X46750Y-131250
X46750Y-133546
X47250Y-122000
X47500Y-126250
X48000Y-108000
X48000Y-123500
X48500Y-117750
X48500Y-118750
X48750Y-85750
X48750Y-87796
X48750Y-99250
X48750Y-101296
X48750Y-103000
X48750Y-114784
X49575Y-105000
X49750Y-111000
X49796Y-131250
X50000Y-109250
X50000Y-114500
X50190Y-102310
X51704Y-112750
X51750Y-134000
X53250Y-126750
X53492Y-105020
X54000Y-119000
X54471Y-103563
X54500Y-97500
X54500Y-114000
X55290Y-97500
X55300Y-112900
X55704Y-144000
X55750Y-107812
X56000Y-88250
X56750Y-104250
X56940Y-132440
X57000Y-133500
X57815Y-133565
X58120Y-135000
X58750Y-128250
X59250Y-108250
X59250Y-109500
X59250Y-110960
X59250Y-111750
X59250Y-115250
X59500Y-105250
X60250Y-102750
X61179Y-121679
X61255Y-120893
X61270Y-135055
X61648Y-118628
X62000Y-133385
X62140Y-118009
X62500Y-126750
X62500Y-135000
X62635Y-138500
X62940Y-133385
X62950Y-131636
X62978Y-132478
X63000Y-92250
X63408Y-118408
X63670Y-91615
X64000Y-105960
X64000Y-106750
X64033Y-117783
X64040Y-109250
X64040Y-110250
X64040Y-111250
X64040Y-112250
X64040Y-113250
X64500Y-91000
X64615Y-133885
X64935Y-128685
X65364Y-127000
X66000Y-138500
X67000Y-111083
X67250Y-102000
X67250Y-103750
X67687Y-109908
X67750Y-106750
X68000Y-122000
X68000Y-125750
X68294Y-108763
X68458Y-115289
X68500Y-114500
X69000Y-107250
X70000Y-111704
X70500Y-86500
X72750Y-91000
X73250Y-113210
X73250Y-114000
X73250Y-129886
X73692Y-132886
X73750Y-127500
X74460Y-133170
X74500Y-134000
X74532Y-130573
X74540Y-127500
X75750Y-106000
X75755Y-118750
X75770Y-131500
X76000Y-115502
X76750Y-96250
X77296Y-121250
X78750Y-90500
T3
X65249Y-84500
X67250Y-84500
X69249Y-84500
X71251Y-84500
X73250Y-84500
X75251Y-84500
X79250Y-129249
X79250Y-131250
X79250Y-133249
X79250Y-135251
X79250Y-137250
X79250Y-139251
T4
X67751Y-145250
X69750Y-145250
X71751Y-145250
X73753Y-145250
X75752Y-145250
X77753Y-145250
X79755Y-145250
T5
X78650Y-109950
X78650Y-111550
X78650Y-113150
X81250Y-110750
X81250Y-112350
T6
X43500Y-140210
X43500Y-142750
X43500Y-145290
X80500Y-117690
X80500Y-120230
X80500Y-122770
X80500Y-125310
T7
X27500Y-135250
T2
X80850Y-107800G85X79350Y-107800
G05
X80850Y-115300G85X79350Y-115300
G05
T0
M30
