G04 #@! TF.FileFunction,Soldermask,Top*
%FSLAX46Y46*%
G04 Gerber Fmt 4.6, Leading zero omitted, Abs format (unit mm)*
G04 Created by KiCad (PCBNEW 4.0.6) date 07/13/17 22:09:39*
%MOMM*%
%LPD*%
G01*
G04 APERTURE LIST*
%ADD10C,0.100000*%
%ADD11R,0.635000X1.143000*%
%ADD12R,1.143000X0.635000*%
%ADD13R,1.501140X0.299720*%
%ADD14R,3.599180X7.000240*%
%ADD15C,1.143000*%
%ADD16R,2.300000X0.800000*%
%ADD17R,2.499360X1.950720*%
%ADD18R,1.950720X2.499360*%
%ADD19O,3.048000X1.524000*%
%ADD20R,7.498080X2.997200*%
%ADD21C,1.300480*%
%ADD22R,1.300000X1.300000*%
%ADD23C,1.300000*%
%ADD24R,4.000000X5.000000*%
%ADD25R,5.000000X4.000000*%
%ADD26R,2.438400X5.588000*%
%ADD27R,2.438400X0.889000*%
%ADD28R,1.300480X0.300000*%
%ADD29R,0.300000X1.300480*%
%ADD30R,1.399540X0.599440*%
%ADD31R,1.198880X1.800860*%
%ADD32R,0.701040X1.300480*%
%ADD33R,1.099820X0.850900*%
%ADD34R,1.099820X1.699260*%
%ADD35R,1.300480X0.701040*%
%ADD36R,0.850900X1.099820*%
%ADD37R,1.699260X1.099820*%
%ADD38R,0.800000X0.800000*%
%ADD39R,2.100580X1.699260*%
%ADD40R,3.800000X2.000000*%
%ADD41R,1.500000X2.000000*%
%ADD42R,1.524000X2.032000*%
%ADD43R,1.998980X2.301240*%
%ADD44R,4.100000X2.000000*%
%ADD45C,4.000000*%
G04 APERTURE END LIST*
D10*
D11*
X50512000Y-127750000D03*
X48988000Y-127750000D03*
D12*
X71750000Y-115262000D03*
X71750000Y-113738000D03*
D13*
X57749500Y-109696220D03*
X57749500Y-110196600D03*
X57749500Y-110696980D03*
X57749500Y-111197360D03*
X57749500Y-111697740D03*
X57749500Y-112195580D03*
X57749500Y-112695960D03*
X57749500Y-113196340D03*
X57749500Y-113696720D03*
X57749500Y-114197100D03*
X57749500Y-114697480D03*
X57749500Y-105197880D03*
X57749500Y-105695720D03*
X57749500Y-106196100D03*
X65750500Y-110696980D03*
X57749500Y-107196860D03*
X57749500Y-107697240D03*
X57749500Y-108197620D03*
X57749500Y-108695460D03*
X57749500Y-109195840D03*
X65750500Y-113196340D03*
X65750500Y-112695960D03*
X65750500Y-112195580D03*
X65750500Y-111697740D03*
X65750500Y-111197360D03*
X57749500Y-106696480D03*
X65750500Y-110196600D03*
X65750500Y-109696220D03*
X65750500Y-109195840D03*
X65750500Y-108695460D03*
X65750500Y-108197620D03*
X65750500Y-107697240D03*
X65750500Y-107196860D03*
X65750500Y-118695440D03*
X65750500Y-118197600D03*
X65750500Y-117697220D03*
X65750500Y-117196840D03*
X65750500Y-116696460D03*
X65750500Y-116196080D03*
X65750500Y-115695700D03*
X65750500Y-115197860D03*
X65750500Y-114697480D03*
X65750500Y-114197100D03*
X65750500Y-113696720D03*
X65750500Y-106696480D03*
X65750500Y-106196100D03*
X65750500Y-105695720D03*
X65750500Y-105197880D03*
X57749500Y-115197860D03*
X57749500Y-115695700D03*
X57749500Y-116196080D03*
X57749500Y-116696460D03*
X57749500Y-117196840D03*
X57749500Y-117697220D03*
X57749500Y-118197600D03*
X57749500Y-118695440D03*
D14*
X61750000Y-112000000D03*
D11*
X51000000Y-118250000D03*
X52524000Y-118250000D03*
D15*
X78650000Y-109950000D03*
X81250000Y-110750000D03*
X78650000Y-111550000D03*
X81250000Y-112350000D03*
X78650000Y-113150000D03*
D16*
X80100000Y-107800000D03*
X80100000Y-115300000D03*
D12*
X48500000Y-134262000D03*
X48500000Y-132738000D03*
D11*
X46262000Y-136750000D03*
X44738000Y-136750000D03*
X79762000Y-86750000D03*
X78238000Y-86750000D03*
D12*
X63000000Y-90012000D03*
X63000000Y-88488000D03*
X71750000Y-90012000D03*
X71750000Y-88488000D03*
X77000000Y-90012000D03*
X77000000Y-88488000D03*
X46500000Y-146512000D03*
X46500000Y-144988000D03*
X48250000Y-146512000D03*
X48250000Y-144988000D03*
X50000000Y-146512000D03*
X50000000Y-144988000D03*
X51750000Y-146512000D03*
X51750000Y-144988000D03*
X53500000Y-146512000D03*
X53500000Y-144988000D03*
D11*
X50512000Y-126000000D03*
X48988000Y-126000000D03*
X67000000Y-139750000D03*
X68524000Y-139750000D03*
X71226000Y-127500000D03*
X72750000Y-127500000D03*
D12*
X70000000Y-112512000D03*
X70000000Y-110988000D03*
X69750000Y-120250000D03*
X69750000Y-118726000D03*
X70000000Y-115262000D03*
X70000000Y-113738000D03*
X73250000Y-118726000D03*
X73250000Y-120250000D03*
X70000000Y-109762000D03*
X70000000Y-108238000D03*
D11*
X70774000Y-105500000D03*
X69250000Y-105500000D03*
D12*
X47500000Y-143512000D03*
X47500000Y-141988000D03*
D17*
X43500000Y-130476000D03*
X43500000Y-133524000D03*
D12*
X71750000Y-112512000D03*
X71750000Y-110988000D03*
D11*
X50976000Y-114500000D03*
X52500000Y-114500000D03*
X50988000Y-109250000D03*
X52512000Y-109250000D03*
X52524000Y-106750000D03*
X51000000Y-106750000D03*
D12*
X49250000Y-141988000D03*
X49250000Y-143512000D03*
D11*
X48988000Y-129500000D03*
X50512000Y-129500000D03*
D18*
X79024000Y-103750000D03*
X75976000Y-103750000D03*
D12*
X54250000Y-104250000D03*
X54250000Y-102726000D03*
X51000000Y-141988000D03*
X51000000Y-143512000D03*
D11*
X54488000Y-100750000D03*
X56012000Y-100750000D03*
X56512000Y-142250000D03*
X54988000Y-142250000D03*
D12*
X52750000Y-143512000D03*
X52750000Y-141988000D03*
D19*
X43500000Y-140210000D03*
X43500000Y-142750000D03*
X43500000Y-145290000D03*
D20*
X76750000Y-98499360D03*
X76750000Y-93500640D03*
D21*
X71250760Y-84500000D03*
X69249240Y-84500000D03*
X67250260Y-84500000D03*
X65248740Y-84500000D03*
X73249740Y-84500000D03*
X75251260Y-84500000D03*
X79250000Y-133249240D03*
X79250000Y-135250760D03*
X79250000Y-137249740D03*
X79250000Y-139251260D03*
X79250000Y-131250260D03*
X79250000Y-129248740D03*
D22*
X79754560Y-145250000D03*
D23*
X75751520Y-145250000D03*
X77753040Y-145250000D03*
X73752540Y-145250000D03*
X71751020Y-145250000D03*
X69749500Y-145250000D03*
X67750520Y-145250000D03*
D24*
X37750000Y-144250000D03*
X28750000Y-144250000D03*
D25*
X27500000Y-88500000D03*
X27500000Y-101250000D03*
X27500000Y-114000000D03*
D11*
X54988000Y-144000000D03*
X56512000Y-144000000D03*
X56512000Y-140500000D03*
X54988000Y-140500000D03*
D12*
X46750000Y-134262000D03*
X46750000Y-132738000D03*
X50250000Y-134262000D03*
X50250000Y-132738000D03*
X43250000Y-136238000D03*
X43250000Y-137762000D03*
D11*
X76012000Y-110500000D03*
X74488000Y-110500000D03*
X50512000Y-131250000D03*
X48988000Y-131250000D03*
D12*
X75250000Y-88488000D03*
X75250000Y-90012000D03*
X70000000Y-88488000D03*
X70000000Y-90012000D03*
X64750000Y-88488000D03*
X64750000Y-90012000D03*
X66500000Y-88488000D03*
X66500000Y-90012000D03*
X68250000Y-88488000D03*
X68250000Y-90012000D03*
X73500000Y-88488000D03*
X73500000Y-90012000D03*
D11*
X78012000Y-117750000D03*
X76488000Y-117750000D03*
X75012000Y-116750000D03*
X73488000Y-116750000D03*
D12*
X71500000Y-120250000D03*
X71500000Y-118726000D03*
D11*
X69738000Y-116750000D03*
X71262000Y-116750000D03*
D12*
X68000000Y-120250000D03*
X68000000Y-118726000D03*
X58250000Y-143012000D03*
X58250000Y-141488000D03*
X48750000Y-86988000D03*
X48750000Y-88512000D03*
D10*
G36*
X52640790Y-140167433D02*
X51832567Y-139359210D01*
X52281580Y-138910197D01*
X53089803Y-139718420D01*
X52640790Y-140167433D01*
X52640790Y-140167433D01*
G37*
G36*
X53718420Y-139089803D02*
X52910197Y-138281580D01*
X53359210Y-137832567D01*
X54167433Y-138640790D01*
X53718420Y-139089803D01*
X53718420Y-139089803D01*
G37*
D11*
X50988000Y-116250000D03*
X52512000Y-116250000D03*
D12*
X48750000Y-100488000D03*
X48750000Y-102012000D03*
D10*
G36*
X51390790Y-138917433D02*
X50582567Y-138109210D01*
X51031580Y-137660197D01*
X51839803Y-138468420D01*
X51390790Y-138917433D01*
X51390790Y-138917433D01*
G37*
G36*
X52468420Y-137839803D02*
X51660197Y-137031580D01*
X52109210Y-136582567D01*
X52917433Y-137390790D01*
X52468420Y-137839803D01*
X52468420Y-137839803D01*
G37*
D11*
X50988000Y-112750000D03*
X52512000Y-112750000D03*
X51000000Y-111000000D03*
X52524000Y-111000000D03*
X33226000Y-118750000D03*
X34750000Y-118750000D03*
D12*
X48750000Y-113976000D03*
X48750000Y-115500000D03*
D10*
G36*
X50140790Y-137667433D02*
X49332567Y-136859210D01*
X49781580Y-136410197D01*
X50589803Y-137218420D01*
X50140790Y-137667433D01*
X50140790Y-137667433D01*
G37*
G36*
X51218420Y-136589803D02*
X50410197Y-135781580D01*
X50859210Y-135332567D01*
X51667433Y-136140790D01*
X51218420Y-136589803D01*
X51218420Y-136589803D01*
G37*
D11*
X44988000Y-108000000D03*
X46512000Y-108000000D03*
X34988000Y-109250000D03*
X36512000Y-109250000D03*
X31488000Y-109250000D03*
X33012000Y-109250000D03*
D12*
X60500000Y-143012000D03*
X60500000Y-141488000D03*
X62500000Y-143012000D03*
X62500000Y-141488000D03*
D11*
X50976000Y-105000000D03*
X52500000Y-105000000D03*
X34988000Y-93250000D03*
X36512000Y-93250000D03*
X31488000Y-93250000D03*
X33012000Y-93250000D03*
D12*
X60750000Y-89988000D03*
X60750000Y-91512000D03*
X48750000Y-89988000D03*
X48750000Y-91512000D03*
D11*
X51238000Y-100750000D03*
X52762000Y-100750000D03*
X59262000Y-100750000D03*
X57738000Y-100750000D03*
D26*
X58488500Y-94952000D03*
X52011500Y-94952000D03*
D27*
X58488500Y-99079500D03*
X52011500Y-99079500D03*
D26*
X58238500Y-85952000D03*
X51761500Y-85952000D03*
D27*
X58238500Y-90079500D03*
X51761500Y-90079500D03*
D11*
X74488000Y-112250000D03*
X76012000Y-112250000D03*
X74488000Y-114000000D03*
X76012000Y-114000000D03*
D12*
X77250000Y-123000000D03*
X77250000Y-124524000D03*
D11*
X76488000Y-121250000D03*
X78012000Y-121250000D03*
D28*
X55249440Y-128499560D03*
X55249440Y-128999940D03*
X55249440Y-129500320D03*
X55249440Y-130000700D03*
X55249440Y-130501080D03*
X55249440Y-127000960D03*
X55249440Y-127498800D03*
X55249440Y-127999180D03*
D29*
X57250960Y-136500560D03*
X57748800Y-136500560D03*
X58249180Y-136500560D03*
X58749560Y-136500560D03*
X59249940Y-136500560D03*
X59750320Y-136500560D03*
X60250700Y-136500560D03*
X60751080Y-136500560D03*
D28*
X66750560Y-134499040D03*
X66750560Y-134001200D03*
X66750560Y-133500820D03*
X66750560Y-133000440D03*
X66750560Y-132500060D03*
X66750560Y-131999680D03*
X66750560Y-131499300D03*
X66750560Y-130998920D03*
D29*
X64749040Y-124999440D03*
X64251200Y-124999440D03*
X63750820Y-124999440D03*
X63250440Y-124999440D03*
X62750060Y-124999440D03*
X62249680Y-124999440D03*
X61749300Y-124999440D03*
X61248920Y-124999440D03*
D28*
X55249440Y-130998920D03*
X55249440Y-131499300D03*
X55249440Y-131999680D03*
D29*
X61248920Y-136500560D03*
X61749300Y-136500560D03*
X62249680Y-136500560D03*
D28*
X66750560Y-130501080D03*
X66750560Y-130000700D03*
X66750560Y-129500320D03*
D29*
X60751080Y-124999440D03*
X60250700Y-124999440D03*
X59750320Y-124999440D03*
D28*
X55249440Y-132500060D03*
X55249440Y-133000440D03*
X55249440Y-133500820D03*
X55249440Y-134001200D03*
X55249440Y-134499040D03*
D29*
X62750060Y-136500560D03*
X63250440Y-136500560D03*
X63750820Y-136500560D03*
X64251200Y-136500560D03*
X64749040Y-136500560D03*
D28*
X66750560Y-128999940D03*
X66750560Y-128499560D03*
X66750560Y-127999180D03*
X66750560Y-127498800D03*
X66750560Y-127000960D03*
D29*
X59249940Y-124999440D03*
X58749560Y-124999440D03*
X58249180Y-124999440D03*
X57748800Y-124999440D03*
X57250960Y-124999440D03*
D30*
X74917000Y-121845000D03*
X69583000Y-121845000D03*
X74917000Y-123115000D03*
X74917000Y-124385000D03*
X74917000Y-125655000D03*
X69583000Y-123115000D03*
X69583000Y-124385000D03*
X69583000Y-125655000D03*
D31*
X45249680Y-123600080D03*
X42750320Y-123600080D03*
X42750320Y-127399920D03*
X45249680Y-127399920D03*
D32*
X36000440Y-88500000D03*
D33*
X34600900Y-89079120D03*
X34600900Y-87920880D03*
X31799280Y-87920880D03*
X31799280Y-89079120D03*
X34600900Y-90229740D03*
X31799280Y-90229740D03*
X34600900Y-86770260D03*
X31799280Y-86770260D03*
D34*
X38250880Y-88500000D03*
X38250880Y-90699640D03*
X38250880Y-86300360D03*
X29251660Y-88500000D03*
X29251660Y-86300360D03*
X29251660Y-90699640D03*
D35*
X44000000Y-90500440D03*
D36*
X43420880Y-89100900D03*
X44579120Y-89100900D03*
X44579120Y-86299280D03*
X43420880Y-86299280D03*
X42270260Y-89100900D03*
X42270260Y-86299280D03*
X45729740Y-89100900D03*
X45729740Y-86299280D03*
D37*
X44000000Y-92750880D03*
X41800360Y-92750880D03*
X46199640Y-92750880D03*
X44000000Y-83751660D03*
X46199640Y-83751660D03*
X41800360Y-83751660D03*
D32*
X36000440Y-101250000D03*
D33*
X34600900Y-101829120D03*
X34600900Y-100670880D03*
X31799280Y-100670880D03*
X31799280Y-101829120D03*
X34600900Y-102979740D03*
X31799280Y-102979740D03*
X34600900Y-99520260D03*
X31799280Y-99520260D03*
D34*
X38250880Y-101250000D03*
X38250880Y-103449640D03*
X38250880Y-99050360D03*
X29251660Y-101250000D03*
X29251660Y-99050360D03*
X29251660Y-103449640D03*
D35*
X44000000Y-103750440D03*
D36*
X43420880Y-102350900D03*
X44579120Y-102350900D03*
X44579120Y-99549280D03*
X43420880Y-99549280D03*
X42270260Y-102350900D03*
X42270260Y-99549280D03*
X45729740Y-102350900D03*
X45729740Y-99549280D03*
D37*
X44000000Y-106000880D03*
X41800360Y-106000880D03*
X46199640Y-106000880D03*
X44000000Y-97001660D03*
X46199640Y-97001660D03*
X41800360Y-97001660D03*
D32*
X36000440Y-114000000D03*
D33*
X34600900Y-114579120D03*
X34600900Y-113420880D03*
X31799280Y-113420880D03*
X31799280Y-114579120D03*
X34600900Y-115729740D03*
X31799280Y-115729740D03*
X34600900Y-112270260D03*
X31799280Y-112270260D03*
D34*
X38250880Y-114000000D03*
X38250880Y-116199640D03*
X38250880Y-111800360D03*
X29251660Y-114000000D03*
X29251660Y-111800360D03*
X29251660Y-116199640D03*
D35*
X44000000Y-116500440D03*
D36*
X43420880Y-115100900D03*
X44579120Y-115100900D03*
X44579120Y-112299280D03*
X43420880Y-112299280D03*
X42270260Y-115100900D03*
X42270260Y-112299280D03*
X45729740Y-115100900D03*
X45729740Y-112299280D03*
D37*
X44000000Y-118750880D03*
X41800360Y-118750880D03*
X46199640Y-118750880D03*
X44000000Y-109751660D03*
X46199640Y-109751660D03*
X41800360Y-109751660D03*
D38*
X62750000Y-146300000D03*
X62750000Y-144700000D03*
X60500000Y-146300000D03*
X60500000Y-144700000D03*
X58250000Y-146300000D03*
X58250000Y-144700000D03*
D39*
X69520260Y-102750000D03*
X72979740Y-102750000D03*
D40*
X67250000Y-93450000D03*
D41*
X67250000Y-99750000D03*
X69550000Y-99750000D03*
X64950000Y-99750000D03*
D42*
X31448000Y-135250000D03*
X34750000Y-135250000D03*
X40151000Y-138000000D03*
X36849000Y-138000000D03*
X34750000Y-138000000D03*
X31448000Y-138000000D03*
X33151000Y-95750000D03*
X29849000Y-95750000D03*
X35599000Y-95750000D03*
X38901000Y-95750000D03*
X40151000Y-132500000D03*
X36849000Y-132500000D03*
X40151000Y-135250000D03*
X36849000Y-135250000D03*
X35599000Y-106750000D03*
X38901000Y-106750000D03*
X33151000Y-106750000D03*
X29849000Y-106750000D03*
D43*
X53509140Y-122000000D03*
X49490860Y-122000000D03*
D44*
X29650000Y-125450000D03*
X38350000Y-125450000D03*
D19*
X80500000Y-122770000D03*
X80500000Y-125310000D03*
X80500000Y-120230000D03*
X80500000Y-117690000D03*
D45*
X27500000Y-135250000D03*
M02*
