G04 #@! TF.FileFunction,Legend,Bot*
%FSLAX46Y46*%
G04 Gerber Fmt 4.6, Leading zero omitted, Abs format (unit mm)*
G04 Created by KiCad (PCBNEW 4.0.6) date 07/13/17 22:09:39*
%MOMM*%
%LPD*%
G01*
G04 APERTURE LIST*
%ADD10C,0.100000*%
%ADD11C,0.250000*%
%ADD12C,0.125000*%
%ADD13C,0.300000*%
%ADD14C,0.112500*%
%ADD15C,0.075000*%
%ADD16C,0.200000*%
G04 APERTURE END LIST*
D10*
D11*
X64654762Y-146202381D02*
X64654762Y-145202381D01*
X64273809Y-145202381D01*
X64178571Y-145250000D01*
X64130952Y-145297619D01*
X64083333Y-145392857D01*
X64083333Y-145535714D01*
X64130952Y-145630952D01*
X64178571Y-145678571D01*
X64273809Y-145726190D01*
X64654762Y-145726190D01*
X63083333Y-146202381D02*
X63416667Y-145726190D01*
X63654762Y-146202381D02*
X63654762Y-145202381D01*
X63273809Y-145202381D01*
X63178571Y-145250000D01*
X63130952Y-145297619D01*
X63083333Y-145392857D01*
X63083333Y-145535714D01*
X63130952Y-145630952D01*
X63178571Y-145678571D01*
X63273809Y-145726190D01*
X63654762Y-145726190D01*
X62464286Y-145202381D02*
X62273809Y-145202381D01*
X62178571Y-145250000D01*
X62083333Y-145345238D01*
X62035714Y-145535714D01*
X62035714Y-145869048D01*
X62083333Y-146059524D01*
X62178571Y-146154762D01*
X62273809Y-146202381D01*
X62464286Y-146202381D01*
X62559524Y-146154762D01*
X62654762Y-146059524D01*
X62702381Y-145869048D01*
X62702381Y-145535714D01*
X62654762Y-145345238D01*
X62559524Y-145250000D01*
X62464286Y-145202381D01*
X61607143Y-146202381D02*
X61607143Y-145202381D01*
X61369048Y-145202381D01*
X61226190Y-145250000D01*
X61130952Y-145345238D01*
X61083333Y-145440476D01*
X61035714Y-145630952D01*
X61035714Y-145773810D01*
X61083333Y-145964286D01*
X61130952Y-146059524D01*
X61226190Y-146154762D01*
X61369048Y-146202381D01*
X61607143Y-146202381D01*
X60607143Y-145202381D02*
X60607143Y-146011905D01*
X60559524Y-146107143D01*
X60511905Y-146154762D01*
X60416667Y-146202381D01*
X60226190Y-146202381D01*
X60130952Y-146154762D01*
X60083333Y-146107143D01*
X60035714Y-146011905D01*
X60035714Y-145202381D01*
X58988095Y-146107143D02*
X59035714Y-146154762D01*
X59178571Y-146202381D01*
X59273809Y-146202381D01*
X59416667Y-146154762D01*
X59511905Y-146059524D01*
X59559524Y-145964286D01*
X59607143Y-145773810D01*
X59607143Y-145630952D01*
X59559524Y-145440476D01*
X59511905Y-145345238D01*
X59416667Y-145250000D01*
X59273809Y-145202381D01*
X59178571Y-145202381D01*
X59035714Y-145250000D01*
X58988095Y-145297619D01*
X58702381Y-145202381D02*
X58130952Y-145202381D01*
X58416667Y-146202381D02*
X58416667Y-145202381D01*
X56845238Y-145202381D02*
X56654761Y-145202381D01*
X56559523Y-145250000D01*
X56464285Y-145345238D01*
X56416666Y-145535714D01*
X56416666Y-145869048D01*
X56464285Y-146059524D01*
X56559523Y-146154762D01*
X56654761Y-146202381D01*
X56845238Y-146202381D01*
X56940476Y-146154762D01*
X57035714Y-146059524D01*
X57083333Y-145869048D01*
X57083333Y-145535714D01*
X57035714Y-145345238D01*
X56940476Y-145250000D01*
X56845238Y-145202381D01*
X55654761Y-145678571D02*
X55988095Y-145678571D01*
X55988095Y-146202381D02*
X55988095Y-145202381D01*
X55511904Y-145202381D01*
X54369047Y-146202381D02*
X54369047Y-145202381D01*
X54369047Y-145678571D02*
X53797618Y-145678571D01*
X53797618Y-146202381D02*
X53797618Y-145202381D01*
X53130952Y-145202381D02*
X52940475Y-145202381D01*
X52845237Y-145250000D01*
X52749999Y-145345238D01*
X52702380Y-145535714D01*
X52702380Y-145869048D01*
X52749999Y-146059524D01*
X52845237Y-146154762D01*
X52940475Y-146202381D01*
X53130952Y-146202381D01*
X53226190Y-146154762D01*
X53321428Y-146059524D01*
X53369047Y-145869048D01*
X53369047Y-145535714D01*
X53321428Y-145345238D01*
X53226190Y-145250000D01*
X53130952Y-145202381D01*
X52273809Y-146202381D02*
X52273809Y-145202381D01*
X51702380Y-146202381D01*
X51702380Y-145202381D01*
X50702380Y-145250000D02*
X50797618Y-145202381D01*
X50940475Y-145202381D01*
X51083333Y-145250000D01*
X51178571Y-145345238D01*
X51226190Y-145440476D01*
X51273809Y-145630952D01*
X51273809Y-145773810D01*
X51226190Y-145964286D01*
X51178571Y-146059524D01*
X51083333Y-146154762D01*
X50940475Y-146202381D01*
X50845237Y-146202381D01*
X50702380Y-146154762D01*
X50654761Y-146107143D01*
X50654761Y-145773810D01*
X50845237Y-145773810D01*
X49464285Y-146202381D02*
X49464285Y-145202381D01*
X48892856Y-146202381D02*
X49321428Y-145630952D01*
X48892856Y-145202381D02*
X49464285Y-145773810D01*
X48273809Y-145202381D02*
X48083332Y-145202381D01*
X47988094Y-145250000D01*
X47892856Y-145345238D01*
X47845237Y-145535714D01*
X47845237Y-145869048D01*
X47892856Y-146059524D01*
X47988094Y-146154762D01*
X48083332Y-146202381D01*
X48273809Y-146202381D01*
X48369047Y-146154762D01*
X48464285Y-146059524D01*
X48511904Y-145869048D01*
X48511904Y-145535714D01*
X48464285Y-145345238D01*
X48369047Y-145250000D01*
X48273809Y-145202381D01*
X47416666Y-146202381D02*
X47416666Y-145202381D01*
X46845237Y-146202381D01*
X46845237Y-145202381D01*
X45845237Y-145250000D02*
X45940475Y-145202381D01*
X46083332Y-145202381D01*
X46226190Y-145250000D01*
X46321428Y-145345238D01*
X46369047Y-145440476D01*
X46416666Y-145630952D01*
X46416666Y-145773810D01*
X46369047Y-145964286D01*
X46321428Y-146059524D01*
X46226190Y-146154762D01*
X46083332Y-146202381D01*
X45988094Y-146202381D01*
X45845237Y-146154762D01*
X45797618Y-146107143D01*
X45797618Y-145773810D01*
X45988094Y-145773810D01*
X64273810Y-142827381D02*
X64273810Y-141827381D01*
X64035715Y-141827381D01*
X63892857Y-141875000D01*
X63797619Y-141970238D01*
X63750000Y-142065476D01*
X63702381Y-142255952D01*
X63702381Y-142398810D01*
X63750000Y-142589286D01*
X63797619Y-142684524D01*
X63892857Y-142779762D01*
X64035715Y-142827381D01*
X64273810Y-142827381D01*
X63273810Y-142303571D02*
X62940476Y-142303571D01*
X62797619Y-142827381D02*
X63273810Y-142827381D01*
X63273810Y-141827381D01*
X62797619Y-141827381D01*
X62416667Y-142779762D02*
X62273810Y-142827381D01*
X62035714Y-142827381D01*
X61940476Y-142779762D01*
X61892857Y-142732143D01*
X61845238Y-142636905D01*
X61845238Y-142541667D01*
X61892857Y-142446429D01*
X61940476Y-142398810D01*
X62035714Y-142351190D01*
X62226191Y-142303571D01*
X62321429Y-142255952D01*
X62369048Y-142208333D01*
X62416667Y-142113095D01*
X62416667Y-142017857D01*
X62369048Y-141922619D01*
X62321429Y-141875000D01*
X62226191Y-141827381D01*
X61988095Y-141827381D01*
X61845238Y-141875000D01*
X61416667Y-142827381D02*
X61416667Y-141827381D01*
X60416667Y-141875000D02*
X60511905Y-141827381D01*
X60654762Y-141827381D01*
X60797620Y-141875000D01*
X60892858Y-141970238D01*
X60940477Y-142065476D01*
X60988096Y-142255952D01*
X60988096Y-142398810D01*
X60940477Y-142589286D01*
X60892858Y-142684524D01*
X60797620Y-142779762D01*
X60654762Y-142827381D01*
X60559524Y-142827381D01*
X60416667Y-142779762D01*
X60369048Y-142732143D01*
X60369048Y-142398810D01*
X60559524Y-142398810D01*
X59940477Y-142827381D02*
X59940477Y-141827381D01*
X59369048Y-142827381D01*
X59369048Y-141827381D01*
X58892858Y-142303571D02*
X58559524Y-142303571D01*
X58416667Y-142827381D02*
X58892858Y-142827381D01*
X58892858Y-141827381D01*
X58416667Y-141827381D01*
X57988096Y-142827381D02*
X57988096Y-141827381D01*
X57750001Y-141827381D01*
X57607143Y-141875000D01*
X57511905Y-141970238D01*
X57464286Y-142065476D01*
X57416667Y-142255952D01*
X57416667Y-142398810D01*
X57464286Y-142589286D01*
X57511905Y-142684524D01*
X57607143Y-142779762D01*
X57750001Y-142827381D01*
X57988096Y-142827381D01*
X55892857Y-142303571D02*
X55750000Y-142351190D01*
X55702381Y-142398810D01*
X55654762Y-142494048D01*
X55654762Y-142636905D01*
X55702381Y-142732143D01*
X55750000Y-142779762D01*
X55845238Y-142827381D01*
X56226191Y-142827381D01*
X56226191Y-141827381D01*
X55892857Y-141827381D01*
X55797619Y-141875000D01*
X55750000Y-141922619D01*
X55702381Y-142017857D01*
X55702381Y-142113095D01*
X55750000Y-142208333D01*
X55797619Y-142255952D01*
X55892857Y-142303571D01*
X56226191Y-142303571D01*
X55035715Y-142351190D02*
X55035715Y-142827381D01*
X55369048Y-141827381D02*
X55035715Y-142351190D01*
X54702381Y-141827381D01*
X53321428Y-141827381D02*
X53321428Y-142541667D01*
X53369048Y-142684524D01*
X53464286Y-142779762D01*
X53607143Y-142827381D01*
X53702381Y-142827381D01*
X52845238Y-141827381D02*
X52845238Y-142636905D01*
X52797619Y-142732143D01*
X52750000Y-142779762D01*
X52654762Y-142827381D01*
X52464285Y-142827381D01*
X52369047Y-142779762D01*
X52321428Y-142732143D01*
X52273809Y-142636905D01*
X52273809Y-141827381D01*
X51321428Y-142827381D02*
X51797619Y-142827381D01*
X51797619Y-141827381D01*
X50988095Y-142827381D02*
X50988095Y-141827381D01*
X50559524Y-142541667D02*
X50083333Y-142541667D01*
X50654762Y-142827381D02*
X50321429Y-141827381D01*
X49988095Y-142827381D01*
X49654762Y-142827381D02*
X49654762Y-141827381D01*
X49083333Y-142827381D01*
X49083333Y-141827381D01*
X47845238Y-142827381D02*
X47845238Y-141827381D01*
X47845238Y-142303571D02*
X47273809Y-142303571D01*
X47273809Y-142827381D02*
X47273809Y-141827381D01*
X46607143Y-141827381D02*
X46416666Y-141827381D01*
X46321428Y-141875000D01*
X46226190Y-141970238D01*
X46178571Y-142160714D01*
X46178571Y-142494048D01*
X46226190Y-142684524D01*
X46321428Y-142779762D01*
X46416666Y-142827381D01*
X46607143Y-142827381D01*
X46702381Y-142779762D01*
X46797619Y-142684524D01*
X46845238Y-142494048D01*
X46845238Y-142160714D01*
X46797619Y-141970238D01*
X46702381Y-141875000D01*
X46607143Y-141827381D01*
X61607143Y-144577381D02*
X61607143Y-143577381D01*
X61273809Y-144291667D01*
X60940476Y-143577381D01*
X60940476Y-144577381D01*
X60511905Y-144291667D02*
X60035714Y-144291667D01*
X60607143Y-144577381D02*
X60273810Y-143577381D01*
X59940476Y-144577381D01*
X59607143Y-144577381D02*
X59607143Y-143577381D01*
X59369048Y-143577381D01*
X59226190Y-143625000D01*
X59130952Y-143720238D01*
X59083333Y-143815476D01*
X59035714Y-144005952D01*
X59035714Y-144148810D01*
X59083333Y-144339286D01*
X59130952Y-144434524D01*
X59226190Y-144529762D01*
X59369048Y-144577381D01*
X59607143Y-144577381D01*
X58607143Y-144053571D02*
X58273809Y-144053571D01*
X58130952Y-144577381D02*
X58607143Y-144577381D01*
X58607143Y-143577381D01*
X58130952Y-143577381D01*
X57035714Y-143577381D02*
X56797619Y-144577381D01*
X56607142Y-143863095D01*
X56416666Y-144577381D01*
X56178571Y-143577381D01*
X55797619Y-144577381D02*
X55797619Y-143577381D01*
X55464286Y-143577381D02*
X54892857Y-143577381D01*
X55178572Y-144577381D02*
X55178572Y-143577381D01*
X54559524Y-144577381D02*
X54559524Y-143577381D01*
X54559524Y-144053571D02*
X53988095Y-144053571D01*
X53988095Y-144577381D02*
X53988095Y-143577381D01*
X52750000Y-144577381D02*
X52750000Y-143577381D01*
X52178571Y-144577381D02*
X52607143Y-144005952D01*
X52178571Y-143577381D02*
X52750000Y-144148810D01*
X51750000Y-144577381D02*
X51750000Y-143577381D01*
X50702381Y-144482143D02*
X50750000Y-144529762D01*
X50892857Y-144577381D01*
X50988095Y-144577381D01*
X51130953Y-144529762D01*
X51226191Y-144434524D01*
X51273810Y-144339286D01*
X51321429Y-144148810D01*
X51321429Y-144005952D01*
X51273810Y-143815476D01*
X51226191Y-143720238D01*
X51130953Y-143625000D01*
X50988095Y-143577381D01*
X50892857Y-143577381D01*
X50750000Y-143625000D01*
X50702381Y-143672619D01*
X50321429Y-144291667D02*
X49845238Y-144291667D01*
X50416667Y-144577381D02*
X50083334Y-143577381D01*
X49750000Y-144577381D01*
X49416667Y-144577381D02*
X49416667Y-143577381D01*
X49178572Y-143577381D01*
X49035714Y-143625000D01*
X48940476Y-143720238D01*
X48892857Y-143815476D01*
X48845238Y-144005952D01*
X48845238Y-144148810D01*
X48892857Y-144339286D01*
X48940476Y-144434524D01*
X49035714Y-144529762D01*
X49178572Y-144577381D01*
X49416667Y-144577381D01*
D12*
X41452381Y-139142859D02*
X41476190Y-139214288D01*
X41476190Y-139333335D01*
X41452381Y-139380954D01*
X41428571Y-139404764D01*
X41380952Y-139428573D01*
X41333333Y-139428573D01*
X41285714Y-139404764D01*
X41261905Y-139380954D01*
X41238095Y-139333335D01*
X41214286Y-139238097D01*
X41190476Y-139190478D01*
X41166667Y-139166669D01*
X41119048Y-139142859D01*
X41071429Y-139142859D01*
X41023810Y-139166669D01*
X41000000Y-139190478D01*
X40976190Y-139238097D01*
X40976190Y-139357145D01*
X41000000Y-139428573D01*
X41476190Y-139642859D02*
X40976190Y-139642859D01*
X41000000Y-140142858D02*
X40976190Y-140095239D01*
X40976190Y-140023811D01*
X41000000Y-139952382D01*
X41047619Y-139904763D01*
X41095238Y-139880954D01*
X41190476Y-139857144D01*
X41261905Y-139857144D01*
X41357143Y-139880954D01*
X41404762Y-139904763D01*
X41452381Y-139952382D01*
X41476190Y-140023811D01*
X41476190Y-140071430D01*
X41452381Y-140142858D01*
X41428571Y-140166668D01*
X41261905Y-140166668D01*
X41261905Y-140071430D01*
X41476190Y-140380954D02*
X40976190Y-140380954D01*
X41476190Y-140666668D01*
X40976190Y-140666668D01*
X41333333Y-140880954D02*
X41333333Y-141119049D01*
X41476190Y-140833335D02*
X40976190Y-141000002D01*
X41476190Y-141166668D01*
X41476190Y-141571430D02*
X41476190Y-141333335D01*
X40976190Y-141333335D01*
X40976190Y-142738096D02*
X40976190Y-142500001D01*
X41214286Y-142476191D01*
X41190476Y-142500001D01*
X41166667Y-142547620D01*
X41166667Y-142666667D01*
X41190476Y-142714286D01*
X41214286Y-142738096D01*
X41261905Y-142761905D01*
X41380952Y-142761905D01*
X41428571Y-142738096D01*
X41452381Y-142714286D01*
X41476190Y-142666667D01*
X41476190Y-142547620D01*
X41452381Y-142500001D01*
X41428571Y-142476191D01*
X40976190Y-142904762D02*
X41476190Y-143071429D01*
X40976190Y-143238095D01*
X41000000Y-144809522D02*
X40976190Y-144761903D01*
X40976190Y-144690475D01*
X41000000Y-144619046D01*
X41047619Y-144571427D01*
X41095238Y-144547618D01*
X41190476Y-144523808D01*
X41261905Y-144523808D01*
X41357143Y-144547618D01*
X41404762Y-144571427D01*
X41452381Y-144619046D01*
X41476190Y-144690475D01*
X41476190Y-144738094D01*
X41452381Y-144809522D01*
X41428571Y-144833332D01*
X41261905Y-144833332D01*
X41261905Y-144738094D01*
X41476190Y-145047618D02*
X40976190Y-145047618D01*
X41476190Y-145333332D01*
X40976190Y-145333332D01*
X41476190Y-145571428D02*
X40976190Y-145571428D01*
X40976190Y-145690475D01*
X41000000Y-145761904D01*
X41047619Y-145809523D01*
X41095238Y-145833332D01*
X41190476Y-145857142D01*
X41261905Y-145857142D01*
X41357143Y-145833332D01*
X41404762Y-145809523D01*
X41452381Y-145761904D01*
X41476190Y-145690475D01*
X41476190Y-145571428D01*
D13*
X29273810Y-89404762D02*
X29273810Y-87404762D01*
X29273810Y-88357143D02*
X28130952Y-88357143D01*
X28130952Y-89404762D02*
X28130952Y-87404762D01*
X27369048Y-87404762D02*
X26130952Y-87404762D01*
X26797619Y-88166667D01*
X26511905Y-88166667D01*
X26321429Y-88261905D01*
X26226191Y-88357143D01*
X26130952Y-88547619D01*
X26130952Y-89023810D01*
X26226191Y-89214286D01*
X26321429Y-89309524D01*
X26511905Y-89404762D01*
X27083333Y-89404762D01*
X27273810Y-89309524D01*
X27369048Y-89214286D01*
X29023810Y-102154762D02*
X29023810Y-100154762D01*
X29023810Y-101107143D02*
X27880952Y-101107143D01*
X27880952Y-102154762D02*
X27880952Y-100154762D01*
X27023810Y-100345238D02*
X26928572Y-100250000D01*
X26738095Y-100154762D01*
X26261905Y-100154762D01*
X26071429Y-100250000D01*
X25976191Y-100345238D01*
X25880952Y-100535714D01*
X25880952Y-100726190D01*
X25976191Y-101011905D01*
X27119048Y-102154762D01*
X25880952Y-102154762D01*
D11*
X29273810Y-114904762D02*
X29273810Y-112904762D01*
X29273810Y-113857143D02*
X28130952Y-113857143D01*
X28130952Y-114904762D02*
X28130952Y-112904762D01*
X26130952Y-114904762D02*
X27273810Y-114904762D01*
X26702381Y-114904762D02*
X26702381Y-112904762D01*
X26892857Y-113190476D01*
X27083333Y-113380952D01*
X27273810Y-113476190D01*
D10*
X65069046Y-83450000D02*
X65030951Y-83469048D01*
X64973808Y-83469048D01*
X64916665Y-83450000D01*
X64878570Y-83411905D01*
X64859522Y-83373810D01*
X64840474Y-83297619D01*
X64840474Y-83240476D01*
X64859522Y-83164286D01*
X64878570Y-83126190D01*
X64916665Y-83088095D01*
X64973808Y-83069048D01*
X65011903Y-83069048D01*
X65069046Y-83088095D01*
X65088094Y-83107143D01*
X65088094Y-83240476D01*
X65011903Y-83240476D01*
X65259522Y-83069048D02*
X65259522Y-83469048D01*
X65488094Y-83069048D01*
X65488094Y-83469048D01*
X65678570Y-83069048D02*
X65678570Y-83469048D01*
X65773808Y-83469048D01*
X65830951Y-83450000D01*
X65869046Y-83411905D01*
X65888094Y-83373810D01*
X65907142Y-83297619D01*
X65907142Y-83240476D01*
X65888094Y-83164286D01*
X65869046Y-83126190D01*
X65830951Y-83088095D01*
X65773808Y-83069048D01*
X65678570Y-83069048D01*
X66383332Y-83069048D02*
X66383332Y-83469048D01*
X66383332Y-83278571D02*
X66611904Y-83278571D01*
X66611904Y-83069048D02*
X66611904Y-83469048D01*
X66783332Y-83183333D02*
X66973809Y-83183333D01*
X66745237Y-83069048D02*
X66878571Y-83469048D01*
X67011904Y-83069048D01*
X67335713Y-83069048D02*
X67145237Y-83069048D01*
X67145237Y-83469048D01*
X67659523Y-83069048D02*
X67469047Y-83069048D01*
X67469047Y-83469048D01*
X67754762Y-83469048D02*
X68002381Y-83469048D01*
X67869048Y-83316667D01*
X67926190Y-83316667D01*
X67964286Y-83297619D01*
X67983333Y-83278571D01*
X68002381Y-83240476D01*
X68002381Y-83145238D01*
X67983333Y-83107143D01*
X67964286Y-83088095D01*
X67926190Y-83069048D01*
X67811905Y-83069048D01*
X67773809Y-83088095D01*
X67754762Y-83107143D01*
X68478571Y-83069048D02*
X68478571Y-83469048D01*
X68478571Y-83278571D02*
X68707143Y-83278571D01*
X68707143Y-83069048D02*
X68707143Y-83469048D01*
X68878571Y-83183333D02*
X69069048Y-83183333D01*
X68840476Y-83069048D02*
X68973810Y-83469048D01*
X69107143Y-83069048D01*
X69430952Y-83069048D02*
X69240476Y-83069048D01*
X69240476Y-83469048D01*
X69754762Y-83069048D02*
X69564286Y-83069048D01*
X69564286Y-83469048D01*
X69869048Y-83430952D02*
X69888096Y-83450000D01*
X69926191Y-83469048D01*
X70021429Y-83469048D01*
X70059525Y-83450000D01*
X70078572Y-83430952D01*
X70097620Y-83392857D01*
X70097620Y-83354762D01*
X70078572Y-83297619D01*
X69850001Y-83069048D01*
X70097620Y-83069048D01*
X70573810Y-83069048D02*
X70573810Y-83469048D01*
X70573810Y-83278571D02*
X70802382Y-83278571D01*
X70802382Y-83069048D02*
X70802382Y-83469048D01*
X70973810Y-83183333D02*
X71164287Y-83183333D01*
X70935715Y-83069048D02*
X71069049Y-83469048D01*
X71202382Y-83069048D01*
X71526191Y-83069048D02*
X71335715Y-83069048D01*
X71335715Y-83469048D01*
X71850001Y-83069048D02*
X71659525Y-83069048D01*
X71659525Y-83469048D01*
X72192859Y-83069048D02*
X71964287Y-83069048D01*
X72078573Y-83069048D02*
X72078573Y-83469048D01*
X72040478Y-83411905D01*
X72002383Y-83373810D01*
X71964287Y-83354762D01*
X72611906Y-83469048D02*
X72840478Y-83469048D01*
X72726192Y-83069048D02*
X72726192Y-83469048D01*
X72973811Y-83278571D02*
X73107144Y-83278571D01*
X73164287Y-83069048D02*
X72973811Y-83069048D01*
X72973811Y-83469048D01*
X73164287Y-83469048D01*
X73335716Y-83069048D02*
X73335716Y-83469048D01*
X73469049Y-83183333D01*
X73602383Y-83469048D01*
X73602383Y-83069048D01*
X73792859Y-83069048D02*
X73792859Y-83469048D01*
X73945240Y-83469048D01*
X73983335Y-83450000D01*
X74002383Y-83430952D01*
X74021431Y-83392857D01*
X74021431Y-83335714D01*
X74002383Y-83297619D01*
X73983335Y-83278571D01*
X73945240Y-83259524D01*
X73792859Y-83259524D01*
X75297621Y-83469048D02*
X75107145Y-83469048D01*
X75088097Y-83278571D01*
X75107145Y-83297619D01*
X75145240Y-83316667D01*
X75240478Y-83316667D01*
X75278574Y-83297619D01*
X75297621Y-83278571D01*
X75316669Y-83240476D01*
X75316669Y-83145238D01*
X75297621Y-83107143D01*
X75278574Y-83088095D01*
X75240478Y-83069048D01*
X75145240Y-83069048D01*
X75107145Y-83088095D01*
X75088097Y-83107143D01*
X75430954Y-83469048D02*
X75564288Y-83069048D01*
X75697621Y-83469048D01*
D14*
X77921429Y-117735714D02*
X77921429Y-117450000D01*
X78207143Y-117421429D01*
X78178571Y-117450000D01*
X78150000Y-117507143D01*
X78150000Y-117650000D01*
X78178571Y-117707143D01*
X78207143Y-117735714D01*
X78264286Y-117764286D01*
X78407143Y-117764286D01*
X78464286Y-117735714D01*
X78492857Y-117707143D01*
X78521429Y-117650000D01*
X78521429Y-117507143D01*
X78492857Y-117450000D01*
X78464286Y-117421429D01*
X77921429Y-117935715D02*
X78521429Y-118135715D01*
X77921429Y-118335715D01*
X78464286Y-119335715D02*
X78492857Y-119307144D01*
X78521429Y-119221430D01*
X78521429Y-119164287D01*
X78492857Y-119078572D01*
X78435714Y-119021430D01*
X78378571Y-118992858D01*
X78264286Y-118964287D01*
X78178571Y-118964287D01*
X78064286Y-118992858D01*
X78007143Y-119021430D01*
X77950000Y-119078572D01*
X77921429Y-119164287D01*
X77921429Y-119221430D01*
X77950000Y-119307144D01*
X77978571Y-119335715D01*
X78350000Y-119564287D02*
X78350000Y-119850001D01*
X78521429Y-119507144D02*
X77921429Y-119707144D01*
X78521429Y-119907144D01*
X78521429Y-120107144D02*
X77921429Y-120107144D01*
X78521429Y-120450001D01*
X77921429Y-120450001D01*
X78521429Y-120735715D02*
X77921429Y-120735715D01*
X78207143Y-120735715D02*
X78207143Y-121078572D01*
X78521429Y-121078572D02*
X77921429Y-121078572D01*
X78464286Y-122164286D02*
X78492857Y-122135715D01*
X78521429Y-122050001D01*
X78521429Y-121992858D01*
X78492857Y-121907143D01*
X78435714Y-121850001D01*
X78378571Y-121821429D01*
X78264286Y-121792858D01*
X78178571Y-121792858D01*
X78064286Y-121821429D01*
X78007143Y-121850001D01*
X77950000Y-121907143D01*
X77921429Y-121992858D01*
X77921429Y-122050001D01*
X77950000Y-122135715D01*
X77978571Y-122164286D01*
X78350000Y-122392858D02*
X78350000Y-122678572D01*
X78521429Y-122335715D02*
X77921429Y-122535715D01*
X78521429Y-122735715D01*
X78521429Y-122935715D02*
X77921429Y-122935715D01*
X78521429Y-123278572D01*
X77921429Y-123278572D01*
X78521429Y-123850000D02*
X78521429Y-123564286D01*
X77921429Y-123564286D01*
X77950000Y-124821429D02*
X77921429Y-124764286D01*
X77921429Y-124678572D01*
X77950000Y-124592857D01*
X78007143Y-124535715D01*
X78064286Y-124507143D01*
X78178571Y-124478572D01*
X78264286Y-124478572D01*
X78378571Y-124507143D01*
X78435714Y-124535715D01*
X78492857Y-124592857D01*
X78521429Y-124678572D01*
X78521429Y-124735715D01*
X78492857Y-124821429D01*
X78464286Y-124850000D01*
X78264286Y-124850000D01*
X78264286Y-124735715D01*
X78521429Y-125107143D02*
X77921429Y-125107143D01*
X78521429Y-125450000D01*
X77921429Y-125450000D01*
X78521429Y-125735714D02*
X77921429Y-125735714D01*
X77921429Y-125878571D01*
X77950000Y-125964286D01*
X78007143Y-126021428D01*
X78064286Y-126050000D01*
X78178571Y-126078571D01*
X78264286Y-126078571D01*
X78378571Y-126050000D01*
X78435714Y-126021428D01*
X78492857Y-125964286D01*
X78521429Y-125878571D01*
X78521429Y-125735714D01*
D10*
X79940472Y-146226190D02*
X80178567Y-146226190D01*
X80202377Y-146464286D01*
X80178567Y-146440476D01*
X80130948Y-146416667D01*
X80011901Y-146416667D01*
X79964282Y-146440476D01*
X79940472Y-146464286D01*
X79916663Y-146511905D01*
X79916663Y-146630952D01*
X79940472Y-146678571D01*
X79964282Y-146702381D01*
X80011901Y-146726190D01*
X80130948Y-146726190D01*
X80178567Y-146702381D01*
X80202377Y-146678571D01*
X79773806Y-146226190D02*
X79607139Y-146726190D01*
X79440473Y-146226190D01*
X78583331Y-146226190D02*
X78416664Y-146726190D01*
X78249998Y-146226190D01*
X77797617Y-146678571D02*
X77821427Y-146702381D01*
X77892855Y-146726190D01*
X77940474Y-146726190D01*
X78011903Y-146702381D01*
X78059522Y-146654762D01*
X78083331Y-146607143D01*
X78107141Y-146511905D01*
X78107141Y-146440476D01*
X78083331Y-146345238D01*
X78059522Y-146297619D01*
X78011903Y-146250000D01*
X77940474Y-146226190D01*
X77892855Y-146226190D01*
X77821427Y-146250000D01*
X77797617Y-146273810D01*
X77297617Y-146678571D02*
X77321427Y-146702381D01*
X77392855Y-146726190D01*
X77440474Y-146726190D01*
X77511903Y-146702381D01*
X77559522Y-146654762D01*
X77583331Y-146607143D01*
X77607141Y-146511905D01*
X77607141Y-146440476D01*
X77583331Y-146345238D01*
X77559522Y-146297619D01*
X77511903Y-146250000D01*
X77440474Y-146226190D01*
X77392855Y-146226190D01*
X77321427Y-146250000D01*
X77297617Y-146273810D01*
X76059523Y-146250000D02*
X76107142Y-146226190D01*
X76178570Y-146226190D01*
X76249999Y-146250000D01*
X76297618Y-146297619D01*
X76321427Y-146345238D01*
X76345237Y-146440476D01*
X76345237Y-146511905D01*
X76321427Y-146607143D01*
X76297618Y-146654762D01*
X76249999Y-146702381D01*
X76178570Y-146726190D01*
X76130951Y-146726190D01*
X76059523Y-146702381D01*
X76035713Y-146678571D01*
X76035713Y-146511905D01*
X76130951Y-146511905D01*
X75821427Y-146726190D02*
X75821427Y-146226190D01*
X75535713Y-146726190D01*
X75535713Y-146226190D01*
X75297617Y-146726190D02*
X75297617Y-146226190D01*
X75178570Y-146226190D01*
X75107141Y-146250000D01*
X75059522Y-146297619D01*
X75035713Y-146345238D01*
X75011903Y-146440476D01*
X75011903Y-146511905D01*
X75035713Y-146607143D01*
X75059522Y-146654762D01*
X75107141Y-146702381D01*
X75178570Y-146726190D01*
X75297617Y-146726190D01*
X74440475Y-146583333D02*
X74202380Y-146583333D01*
X74488094Y-146726190D02*
X74321427Y-146226190D01*
X74154761Y-146726190D01*
X73988094Y-146726190D02*
X73988094Y-146226190D01*
X73869047Y-146226190D01*
X73797618Y-146250000D01*
X73749999Y-146297619D01*
X73726190Y-146345238D01*
X73702380Y-146440476D01*
X73702380Y-146511905D01*
X73726190Y-146607143D01*
X73749999Y-146654762D01*
X73797618Y-146702381D01*
X73869047Y-146726190D01*
X73988094Y-146726190D01*
X73202380Y-146678571D02*
X73226190Y-146702381D01*
X73297618Y-146726190D01*
X73345237Y-146726190D01*
X73416666Y-146702381D01*
X73464285Y-146654762D01*
X73488094Y-146607143D01*
X73511904Y-146511905D01*
X73511904Y-146440476D01*
X73488094Y-146345238D01*
X73464285Y-146297619D01*
X73416666Y-146250000D01*
X73345237Y-146226190D01*
X73297618Y-146226190D01*
X73226190Y-146250000D01*
X73202380Y-146273810D01*
X72297619Y-146226190D02*
X72011905Y-146226190D01*
X72154762Y-146726190D02*
X72154762Y-146226190D01*
X71892857Y-146226190D02*
X71559524Y-146726190D01*
X71559524Y-146226190D02*
X71892857Y-146726190D01*
X69940478Y-146726190D02*
X70107145Y-146488095D01*
X70226192Y-146726190D02*
X70226192Y-146226190D01*
X70035716Y-146226190D01*
X69988097Y-146250000D01*
X69964288Y-146273810D01*
X69940478Y-146321429D01*
X69940478Y-146392857D01*
X69964288Y-146440476D01*
X69988097Y-146464286D01*
X70035716Y-146488095D01*
X70226192Y-146488095D01*
X69773811Y-146226190D02*
X69440478Y-146726190D01*
X69440478Y-146226190D02*
X69773811Y-146726190D01*
X68511908Y-146583333D02*
X68273813Y-146583333D01*
X68559527Y-146726190D02*
X68392860Y-146226190D01*
X68226194Y-146726190D01*
X68059527Y-146726190D02*
X68059527Y-146226190D01*
X67940480Y-146226190D01*
X67869051Y-146250000D01*
X67821432Y-146297619D01*
X67797623Y-146345238D01*
X67773813Y-146440476D01*
X67773813Y-146511905D01*
X67797623Y-146607143D01*
X67821432Y-146654762D01*
X67869051Y-146702381D01*
X67940480Y-146726190D01*
X68059527Y-146726190D01*
X67273813Y-146678571D02*
X67297623Y-146702381D01*
X67369051Y-146726190D01*
X67416670Y-146726190D01*
X67488099Y-146702381D01*
X67535718Y-146654762D01*
X67559527Y-146607143D01*
X67583337Y-146511905D01*
X67583337Y-146440476D01*
X67559527Y-146345238D01*
X67535718Y-146297619D01*
X67488099Y-146250000D01*
X67416670Y-146226190D01*
X67369051Y-146226190D01*
X67297623Y-146250000D01*
X67273813Y-146273810D01*
X67083337Y-146273810D02*
X67059527Y-146250000D01*
X67011908Y-146226190D01*
X66892861Y-146226190D01*
X66845242Y-146250000D01*
X66821432Y-146273810D01*
X66797623Y-146321429D01*
X66797623Y-146369048D01*
X66821432Y-146440476D01*
X67107146Y-146726190D01*
X66797623Y-146726190D01*
D15*
X80253571Y-128539286D02*
X80703571Y-128689286D01*
X80253571Y-128839286D01*
X80660714Y-129246429D02*
X80682143Y-129225000D01*
X80703571Y-129160714D01*
X80703571Y-129117857D01*
X80682143Y-129053572D01*
X80639286Y-129010714D01*
X80596429Y-128989286D01*
X80510714Y-128967857D01*
X80446429Y-128967857D01*
X80360714Y-128989286D01*
X80317857Y-129010714D01*
X80275000Y-129053572D01*
X80253571Y-129117857D01*
X80253571Y-129160714D01*
X80275000Y-129225000D01*
X80296429Y-129246429D01*
X80660714Y-129696429D02*
X80682143Y-129675000D01*
X80703571Y-129610714D01*
X80703571Y-129567857D01*
X80682143Y-129503572D01*
X80639286Y-129460714D01*
X80596429Y-129439286D01*
X80510714Y-129417857D01*
X80446429Y-129417857D01*
X80360714Y-129439286D01*
X80317857Y-129460714D01*
X80275000Y-129503572D01*
X80253571Y-129567857D01*
X80253571Y-129610714D01*
X80275000Y-129675000D01*
X80296429Y-129696429D01*
X80682143Y-130210714D02*
X80703571Y-130275000D01*
X80703571Y-130382143D01*
X80682143Y-130425000D01*
X80660714Y-130446429D01*
X80617857Y-130467857D01*
X80575000Y-130467857D01*
X80532143Y-130446429D01*
X80510714Y-130425000D01*
X80489286Y-130382143D01*
X80467857Y-130296429D01*
X80446429Y-130253571D01*
X80425000Y-130232143D01*
X80382143Y-130210714D01*
X80339286Y-130210714D01*
X80296429Y-130232143D01*
X80275000Y-130253571D01*
X80253571Y-130296429D01*
X80253571Y-130403571D01*
X80275000Y-130467857D01*
X80253571Y-130617857D02*
X80703571Y-130725000D01*
X80382143Y-130810714D01*
X80703571Y-130896428D01*
X80253571Y-131003571D01*
X80660714Y-131432143D02*
X80682143Y-131410714D01*
X80703571Y-131346428D01*
X80703571Y-131303571D01*
X80682143Y-131239286D01*
X80639286Y-131196428D01*
X80596429Y-131175000D01*
X80510714Y-131153571D01*
X80446429Y-131153571D01*
X80360714Y-131175000D01*
X80317857Y-131196428D01*
X80275000Y-131239286D01*
X80253571Y-131303571D01*
X80253571Y-131346428D01*
X80275000Y-131410714D01*
X80296429Y-131432143D01*
X80703571Y-131839286D02*
X80703571Y-131625000D01*
X80253571Y-131625000D01*
X80703571Y-131989286D02*
X80253571Y-131989286D01*
X80703571Y-132246429D02*
X80446429Y-132053572D01*
X80253571Y-132246429D02*
X80510714Y-131989286D01*
X80275000Y-133017857D02*
X80253571Y-132975000D01*
X80253571Y-132910714D01*
X80275000Y-132846429D01*
X80317857Y-132803571D01*
X80360714Y-132782143D01*
X80446429Y-132760714D01*
X80510714Y-132760714D01*
X80596429Y-132782143D01*
X80639286Y-132803571D01*
X80682143Y-132846429D01*
X80703571Y-132910714D01*
X80703571Y-132953571D01*
X80682143Y-133017857D01*
X80660714Y-133039286D01*
X80510714Y-133039286D01*
X80510714Y-132953571D01*
X80703571Y-133232143D02*
X80253571Y-133232143D01*
X80703571Y-133489286D01*
X80253571Y-133489286D01*
X80703571Y-133703572D02*
X80253571Y-133703572D01*
X80253571Y-133810715D01*
X80275000Y-133875000D01*
X80317857Y-133917858D01*
X80360714Y-133939286D01*
X80446429Y-133960715D01*
X80510714Y-133960715D01*
X80596429Y-133939286D01*
X80639286Y-133917858D01*
X80682143Y-133875000D01*
X80703571Y-133810715D01*
X80703571Y-133703572D01*
X80682143Y-134475000D02*
X80703571Y-134539286D01*
X80703571Y-134646429D01*
X80682143Y-134689286D01*
X80660714Y-134710715D01*
X80617857Y-134732143D01*
X80575000Y-134732143D01*
X80532143Y-134710715D01*
X80510714Y-134689286D01*
X80489286Y-134646429D01*
X80467857Y-134560715D01*
X80446429Y-134517857D01*
X80425000Y-134496429D01*
X80382143Y-134475000D01*
X80339286Y-134475000D01*
X80296429Y-134496429D01*
X80275000Y-134517857D01*
X80253571Y-134560715D01*
X80253571Y-134667857D01*
X80275000Y-134732143D01*
X80253571Y-134882143D02*
X80703571Y-134989286D01*
X80382143Y-135075000D01*
X80703571Y-135160714D01*
X80253571Y-135267857D01*
X80703571Y-135439286D02*
X80253571Y-135439286D01*
X80253571Y-135546429D01*
X80275000Y-135610714D01*
X80317857Y-135653572D01*
X80360714Y-135675000D01*
X80446429Y-135696429D01*
X80510714Y-135696429D01*
X80596429Y-135675000D01*
X80639286Y-135653572D01*
X80682143Y-135610714D01*
X80703571Y-135546429D01*
X80703571Y-135439286D01*
X80703571Y-135889286D02*
X80253571Y-135889286D01*
X80253571Y-136189286D02*
X80253571Y-136275000D01*
X80275000Y-136317858D01*
X80317857Y-136360715D01*
X80403571Y-136382143D01*
X80553571Y-136382143D01*
X80639286Y-136360715D01*
X80682143Y-136317858D01*
X80703571Y-136275000D01*
X80703571Y-136189286D01*
X80682143Y-136146429D01*
X80639286Y-136103572D01*
X80553571Y-136082143D01*
X80403571Y-136082143D01*
X80317857Y-136103572D01*
X80275000Y-136146429D01*
X80253571Y-136189286D01*
X80703571Y-136917858D02*
X80253571Y-136917858D01*
X80703571Y-137175001D01*
X80253571Y-137175001D01*
X80703571Y-137646430D02*
X80489286Y-137496430D01*
X80703571Y-137389287D02*
X80253571Y-137389287D01*
X80253571Y-137560715D01*
X80275000Y-137603573D01*
X80296429Y-137625001D01*
X80339286Y-137646430D01*
X80403571Y-137646430D01*
X80446429Y-137625001D01*
X80467857Y-137603573D01*
X80489286Y-137560715D01*
X80489286Y-137389287D01*
X80682143Y-137817858D02*
X80703571Y-137882144D01*
X80703571Y-137989287D01*
X80682143Y-138032144D01*
X80660714Y-138053573D01*
X80617857Y-138075001D01*
X80575000Y-138075001D01*
X80532143Y-138053573D01*
X80510714Y-138032144D01*
X80489286Y-137989287D01*
X80467857Y-137903573D01*
X80446429Y-137860715D01*
X80425000Y-137839287D01*
X80382143Y-137817858D01*
X80339286Y-137817858D01*
X80296429Y-137839287D01*
X80275000Y-137860715D01*
X80253571Y-137903573D01*
X80253571Y-138010715D01*
X80275000Y-138075001D01*
X80253571Y-138203572D02*
X80253571Y-138460715D01*
X80703571Y-138332144D02*
X80253571Y-138332144D01*
D11*
X42107144Y-84202381D02*
X42107144Y-83202381D01*
X41726191Y-83202381D01*
X41630953Y-83250000D01*
X41583334Y-83297619D01*
X41535715Y-83392857D01*
X41535715Y-83535714D01*
X41583334Y-83630952D01*
X41630953Y-83678571D01*
X41726191Y-83726190D01*
X42107144Y-83726190D01*
X40535715Y-84202381D02*
X40869049Y-83726190D01*
X41107144Y-84202381D02*
X41107144Y-83202381D01*
X40726191Y-83202381D01*
X40630953Y-83250000D01*
X40583334Y-83297619D01*
X40535715Y-83392857D01*
X40535715Y-83535714D01*
X40583334Y-83630952D01*
X40630953Y-83678571D01*
X40726191Y-83726190D01*
X41107144Y-83726190D01*
X39916668Y-83202381D02*
X39726191Y-83202381D01*
X39630953Y-83250000D01*
X39535715Y-83345238D01*
X39488096Y-83535714D01*
X39488096Y-83869048D01*
X39535715Y-84059524D01*
X39630953Y-84154762D01*
X39726191Y-84202381D01*
X39916668Y-84202381D01*
X40011906Y-84154762D01*
X40107144Y-84059524D01*
X40154763Y-83869048D01*
X40154763Y-83535714D01*
X40107144Y-83345238D01*
X40011906Y-83250000D01*
X39916668Y-83202381D01*
X39202382Y-83202381D02*
X38630953Y-83202381D01*
X38916668Y-84202381D02*
X38916668Y-83202381D01*
X38107144Y-83202381D02*
X37916667Y-83202381D01*
X37821429Y-83250000D01*
X37726191Y-83345238D01*
X37678572Y-83535714D01*
X37678572Y-83869048D01*
X37726191Y-84059524D01*
X37821429Y-84154762D01*
X37916667Y-84202381D01*
X38107144Y-84202381D01*
X38202382Y-84154762D01*
X38297620Y-84059524D01*
X38345239Y-83869048D01*
X38345239Y-83535714D01*
X38297620Y-83345238D01*
X38202382Y-83250000D01*
X38107144Y-83202381D01*
X37392858Y-83202381D02*
X36821429Y-83202381D01*
X37107144Y-84202381D02*
X37107144Y-83202381D01*
X36297620Y-83726190D02*
X36297620Y-84202381D01*
X36630953Y-83202381D02*
X36297620Y-83726190D01*
X35964286Y-83202381D01*
X35630953Y-84202381D02*
X35630953Y-83202381D01*
X35250000Y-83202381D01*
X35154762Y-83250000D01*
X35107143Y-83297619D01*
X35059524Y-83392857D01*
X35059524Y-83535714D01*
X35107143Y-83630952D01*
X35154762Y-83678571D01*
X35250000Y-83726190D01*
X35630953Y-83726190D01*
X34630953Y-83678571D02*
X34297619Y-83678571D01*
X34154762Y-84202381D02*
X34630953Y-84202381D01*
X34630953Y-83202381D01*
X34154762Y-83202381D01*
X32678571Y-83202381D02*
X32678571Y-83916667D01*
X32726191Y-84059524D01*
X32821429Y-84154762D01*
X32964286Y-84202381D01*
X33059524Y-84202381D01*
X32202381Y-83202381D02*
X32202381Y-84011905D01*
X32154762Y-84107143D01*
X32107143Y-84154762D01*
X32011905Y-84202381D01*
X31821428Y-84202381D01*
X31726190Y-84154762D01*
X31678571Y-84107143D01*
X31630952Y-84011905D01*
X31630952Y-83202381D01*
X30678571Y-84202381D02*
X31154762Y-84202381D01*
X31154762Y-83202381D01*
X30154762Y-83726190D02*
X30154762Y-84202381D01*
X30488095Y-83202381D02*
X30154762Y-83726190D01*
X29821428Y-83202381D01*
X28773809Y-83297619D02*
X28726190Y-83250000D01*
X28630952Y-83202381D01*
X28392856Y-83202381D01*
X28297618Y-83250000D01*
X28249999Y-83297619D01*
X28202380Y-83392857D01*
X28202380Y-83488095D01*
X28249999Y-83630952D01*
X28821428Y-84202381D01*
X28202380Y-84202381D01*
X27583333Y-83202381D02*
X27488094Y-83202381D01*
X27392856Y-83250000D01*
X27345237Y-83297619D01*
X27297618Y-83392857D01*
X27249999Y-83583333D01*
X27249999Y-83821429D01*
X27297618Y-84011905D01*
X27345237Y-84107143D01*
X27392856Y-84154762D01*
X27488094Y-84202381D01*
X27583333Y-84202381D01*
X27678571Y-84154762D01*
X27726190Y-84107143D01*
X27773809Y-84011905D01*
X27821428Y-83821429D01*
X27821428Y-83583333D01*
X27773809Y-83392857D01*
X27726190Y-83297619D01*
X27678571Y-83250000D01*
X27583333Y-83202381D01*
X26297618Y-84202381D02*
X26869047Y-84202381D01*
X26583333Y-84202381D02*
X26583333Y-83202381D01*
X26678571Y-83345238D01*
X26773809Y-83440476D01*
X26869047Y-83488095D01*
X25964285Y-83202381D02*
X25297618Y-83202381D01*
X25726190Y-84202381D01*
D16*
X40264048Y-139968096D02*
X40324524Y-140149524D01*
X40324524Y-140451905D01*
X40264048Y-140572858D01*
X40203571Y-140633334D01*
X40082619Y-140693810D01*
X39961667Y-140693810D01*
X39840714Y-140633334D01*
X39780238Y-140572858D01*
X39719762Y-140451905D01*
X39659286Y-140210001D01*
X39598810Y-140089048D01*
X39538333Y-140028572D01*
X39417381Y-139968096D01*
X39296429Y-139968096D01*
X39175476Y-140028572D01*
X39115000Y-140089048D01*
X39054524Y-140210001D01*
X39054524Y-140512381D01*
X39115000Y-140693810D01*
X39659286Y-141238096D02*
X39659286Y-141661429D01*
X40324524Y-141842858D02*
X40324524Y-141238096D01*
X39054524Y-141238096D01*
X39054524Y-141842858D01*
X40324524Y-143112858D02*
X39719762Y-142689525D01*
X40324524Y-142387144D02*
X39054524Y-142387144D01*
X39054524Y-142870953D01*
X39115000Y-142991906D01*
X39175476Y-143052382D01*
X39296429Y-143112858D01*
X39477857Y-143112858D01*
X39598810Y-143052382D01*
X39659286Y-142991906D01*
X39719762Y-142870953D01*
X39719762Y-142387144D01*
X39054524Y-143475715D02*
X40324524Y-143899049D01*
X39054524Y-144322382D01*
X39054524Y-144987620D02*
X39054524Y-145229524D01*
X39115000Y-145350477D01*
X39235952Y-145471429D01*
X39477857Y-145531905D01*
X39901190Y-145531905D01*
X40143095Y-145471429D01*
X40264048Y-145350477D01*
X40324524Y-145229524D01*
X40324524Y-144987620D01*
X40264048Y-144866667D01*
X40143095Y-144745715D01*
X39901190Y-144685239D01*
X39477857Y-144685239D01*
X39235952Y-144745715D01*
X39115000Y-144866667D01*
X39054524Y-144987620D01*
X76953571Y-118778572D02*
X77014048Y-118718096D01*
X77074524Y-118536667D01*
X77074524Y-118415715D01*
X77014048Y-118234287D01*
X76893095Y-118113334D01*
X76772143Y-118052858D01*
X76530238Y-117992382D01*
X76348810Y-117992382D01*
X76106905Y-118052858D01*
X75985952Y-118113334D01*
X75865000Y-118234287D01*
X75804524Y-118415715D01*
X75804524Y-118536667D01*
X75865000Y-118718096D01*
X75925476Y-118778572D01*
X76711667Y-119262382D02*
X76711667Y-119867144D01*
X77074524Y-119141429D02*
X75804524Y-119564763D01*
X77074524Y-119988096D01*
X77074524Y-120411429D02*
X75804524Y-120411429D01*
X77074524Y-121137143D01*
X75804524Y-121137143D01*
X76409286Y-122165238D02*
X76469762Y-122346667D01*
X76530238Y-122407143D01*
X76651190Y-122467619D01*
X76832619Y-122467619D01*
X76953571Y-122407143D01*
X77014048Y-122346667D01*
X77074524Y-122225714D01*
X77074524Y-121741905D01*
X75804524Y-121741905D01*
X75804524Y-122165238D01*
X75865000Y-122286191D01*
X75925476Y-122346667D01*
X76046429Y-122407143D01*
X76167381Y-122407143D01*
X76288333Y-122346667D01*
X76348810Y-122286191D01*
X76409286Y-122165238D01*
X76409286Y-121741905D01*
X75804524Y-123011905D02*
X76832619Y-123011905D01*
X76953571Y-123072381D01*
X77014048Y-123132857D01*
X77074524Y-123253810D01*
X77074524Y-123495714D01*
X77014048Y-123616667D01*
X76953571Y-123677143D01*
X76832619Y-123737619D01*
X75804524Y-123737619D01*
X77014048Y-124281905D02*
X77074524Y-124463333D01*
X77074524Y-124765714D01*
X77014048Y-124886667D01*
X76953571Y-124947143D01*
X76832619Y-125007619D01*
X76711667Y-125007619D01*
X76590714Y-124947143D01*
X76530238Y-124886667D01*
X76469762Y-124765714D01*
X76409286Y-124523810D01*
X76348810Y-124402857D01*
X76288333Y-124342381D01*
X76167381Y-124281905D01*
X76046429Y-124281905D01*
X75925476Y-124342381D01*
X75865000Y-124402857D01*
X75804524Y-124523810D01*
X75804524Y-124826190D01*
X75865000Y-125007619D01*
M02*
