G04 #@! TF.FileFunction,Copper,L3,Inr,Mixed*
%FSLAX46Y46*%
G04 Gerber Fmt 4.6, Leading zero omitted, Abs format (unit mm)*
G04 Created by KiCad (PCBNEW 4.0.6) date 07/13/17 22:09:39*
%MOMM*%
%LPD*%
G01*
G04 APERTURE LIST*
%ADD10C,0.100000*%
%ADD11C,1.143000*%
%ADD12R,2.300000X0.800000*%
%ADD13O,3.048000X1.524000*%
%ADD14C,1.300480*%
%ADD15R,1.300000X1.300000*%
%ADD16C,1.300000*%
%ADD17C,4.000000*%
%ADD18C,0.600000*%
%ADD19C,0.250000*%
%ADD20C,0.254000*%
G04 APERTURE END LIST*
D10*
D11*
X78650000Y-109950000D03*
X81250000Y-110750000D03*
X78650000Y-111550000D03*
X81250000Y-112350000D03*
X78650000Y-113150000D03*
D12*
X80100000Y-107800000D03*
X80100000Y-115300000D03*
D13*
X43500000Y-140210000D03*
X43500000Y-142750000D03*
X43500000Y-145290000D03*
D14*
X71250760Y-84500000D03*
X69249240Y-84500000D03*
X67250260Y-84500000D03*
X65248740Y-84500000D03*
X73249740Y-84500000D03*
X75251260Y-84500000D03*
X79250000Y-133249240D03*
X79250000Y-135250760D03*
X79250000Y-137249740D03*
X79250000Y-139251260D03*
X79250000Y-131250260D03*
X79250000Y-129248740D03*
D15*
X79754560Y-145250000D03*
D16*
X75751520Y-145250000D03*
X77753040Y-145250000D03*
X73752540Y-145250000D03*
X71751020Y-145250000D03*
X69749500Y-145250000D03*
X67750520Y-145250000D03*
D13*
X80500000Y-122770000D03*
X80500000Y-125310000D03*
X80500000Y-120230000D03*
X80500000Y-117690000D03*
D17*
X27500000Y-135250000D03*
D18*
X48500000Y-117750000D03*
X29750000Y-122750000D03*
X47250000Y-122000000D03*
X70000000Y-111704498D03*
X33250000Y-101250000D03*
X48000000Y-123500000D03*
X47500000Y-126250000D03*
X70500000Y-86500000D03*
X75755215Y-118750000D03*
X77295502Y-121250000D03*
X76000000Y-115501501D03*
X43250000Y-135250000D03*
X58750000Y-128250000D03*
X75770004Y-131500000D03*
X49795502Y-131250000D03*
X63000000Y-92250000D03*
X63407876Y-118407876D03*
X64500000Y-91000000D03*
X61648327Y-118628021D03*
X63670028Y-91615000D03*
X62139641Y-118009383D03*
X53250000Y-126750000D03*
X68458444Y-115288907D03*
X67750000Y-106750000D03*
X67250000Y-102000000D03*
X46750000Y-131250000D03*
X51750000Y-134000000D03*
X72750000Y-91000000D03*
X65364040Y-127000000D03*
X66000000Y-138500000D03*
X55704498Y-144000000D03*
X58119742Y-135000000D03*
X76750000Y-96250000D03*
X60250000Y-102750000D03*
X59250000Y-115250000D03*
X44000000Y-113750000D03*
X50000000Y-114500000D03*
X54500000Y-114000000D03*
X50000000Y-109250000D03*
X50190129Y-102309871D03*
X44000000Y-101000000D03*
X48750000Y-99250000D03*
X48750000Y-103000000D03*
X44000000Y-87750000D03*
X48750000Y-85750000D03*
X62000000Y-133385000D03*
X67250000Y-103750000D03*
X75750000Y-106000000D03*
X78750000Y-90500000D03*
X54470880Y-103562622D03*
X56750000Y-104250000D03*
X40750000Y-107250000D03*
X30000000Y-108500000D03*
X59500000Y-105250000D03*
X35250000Y-132500000D03*
X46750000Y-133545502D03*
X48500000Y-118750000D03*
X54000000Y-119000000D03*
X39250000Y-105000000D03*
X32204498Y-109250000D03*
X33250000Y-114000000D03*
X33942498Y-118750000D03*
X54500000Y-97500000D03*
X55300000Y-112900000D03*
X37250000Y-95750000D03*
X33250000Y-88500000D03*
X32204498Y-93250000D03*
X56000000Y-88250000D03*
X59250000Y-108250000D03*
X62977693Y-132477693D03*
X62949740Y-131635904D03*
X62500000Y-135000000D03*
X62940129Y-133385000D03*
X51704498Y-112750000D03*
X44000000Y-117500000D03*
X49750000Y-111000000D03*
X36000000Y-118750000D03*
X37000000Y-114000000D03*
X45704498Y-107885000D03*
X44000000Y-104750000D03*
X35704498Y-109250000D03*
X37000000Y-101250000D03*
X49575129Y-105000000D03*
X44000000Y-91500000D03*
X35704498Y-93250000D03*
X37000000Y-88500000D03*
X48750000Y-87795502D03*
X57815129Y-133565129D03*
X48750000Y-101295502D03*
X57000000Y-133500000D03*
X48750000Y-114783502D03*
X56940110Y-132440148D03*
X48000000Y-108000000D03*
X59250000Y-111750000D03*
X38250000Y-109250000D03*
X59250000Y-110959997D03*
X53491564Y-105020442D03*
X59250000Y-109500000D03*
X38000000Y-93250000D03*
X55290003Y-97500000D03*
X55750000Y-107811860D03*
X73250000Y-113209997D03*
X74540003Y-127500000D03*
X73250000Y-114000000D03*
X73750000Y-127500000D03*
X68500000Y-114500000D03*
X64039592Y-113250000D03*
X64614639Y-133885361D03*
X69000000Y-107250000D03*
X74500000Y-134000000D03*
X64039592Y-109250000D03*
X74460130Y-133170127D03*
X73691867Y-132885820D03*
X64039592Y-110250000D03*
X64039592Y-111250000D03*
X64032876Y-117782876D03*
X62500000Y-126750000D03*
X64000000Y-105959997D03*
X61269999Y-135055010D03*
X64000000Y-106750000D03*
X64039592Y-112250000D03*
X62635440Y-138500000D03*
X74532155Y-130572614D03*
X68294116Y-108763119D03*
X73250000Y-129886080D03*
X67686604Y-109907919D03*
X64934871Y-128684871D03*
X67000000Y-111082740D03*
X68000000Y-125750000D03*
X61178945Y-121678945D03*
X68000000Y-122000000D03*
X61255040Y-120892617D03*
D19*
X48934871Y-116934871D02*
X48934871Y-117315129D01*
X48934871Y-117315129D02*
X48500000Y-117750000D01*
X47500000Y-102372268D02*
X34372268Y-102372268D01*
X34372268Y-102372268D02*
X33250000Y-101250000D01*
X48750000Y-105090402D02*
X48000000Y-104340402D01*
X48000000Y-104340402D02*
X48000000Y-102872268D01*
X48000000Y-102872268D02*
X47500000Y-102372268D01*
X49704799Y-108634999D02*
X49704799Y-106045201D01*
X49704799Y-106045201D02*
X48750000Y-105090402D01*
X48934871Y-116934871D02*
X48934871Y-116510607D01*
X48934871Y-116510607D02*
X48134999Y-115710735D01*
X48134999Y-115710735D02*
X48134999Y-110204799D01*
X48134999Y-110204799D02*
X49704799Y-108634999D01*
X57000000Y-135250000D02*
X43250000Y-135250000D01*
X58450001Y-133799999D02*
X57000000Y-135250000D01*
X58750000Y-128250000D02*
X58450001Y-128549999D01*
X58450001Y-128549999D02*
X58450001Y-133799999D01*
X75770004Y-131500000D02*
X75770004Y-127197531D01*
X75770004Y-127197531D02*
X75140215Y-126567742D01*
X75140214Y-113567741D02*
X73890215Y-112317742D01*
X75140215Y-126567742D02*
X75140214Y-113567741D01*
X73890215Y-112317742D02*
X73890215Y-87140215D01*
X73890215Y-87140215D02*
X73249740Y-86499740D01*
X73249740Y-86499740D02*
X73249740Y-84500000D01*
X62000000Y-117000000D02*
X62000000Y-93250000D01*
X62000000Y-93250000D02*
X63000000Y-92250000D01*
X63407876Y-118407876D02*
X62000000Y-117000000D01*
X61119981Y-92597549D02*
X62717530Y-91000000D01*
X62717530Y-91000000D02*
X64500000Y-91000000D01*
X61648327Y-118628021D02*
X61119980Y-118099674D01*
X61119980Y-118099674D02*
X61119981Y-92597549D01*
X61559990Y-92779808D02*
X62724798Y-91615000D01*
X62724798Y-91615000D02*
X63670028Y-91615000D01*
X61559990Y-117429732D02*
X61559990Y-92779808D01*
X62139641Y-118009383D02*
X61559990Y-117429732D01*
X60679971Y-113820029D02*
X60679971Y-103179971D01*
X60679971Y-103179971D02*
X60250000Y-102750000D01*
X59250000Y-115250000D02*
X60679971Y-113820029D01*
X50190129Y-102309871D02*
X50190129Y-109059871D01*
X50190129Y-109059871D02*
X50000000Y-109250000D01*
X48750000Y-103000000D02*
X48134999Y-102384999D01*
X48134999Y-102384999D02*
X48134999Y-86365001D01*
X48134999Y-86365001D02*
X48750000Y-85750000D01*
X56750000Y-104250000D02*
X55158258Y-104250000D01*
X55158258Y-104250000D02*
X54470880Y-103562622D01*
X51750000Y-100250000D02*
X54500000Y-97500000D01*
X51750000Y-109350000D02*
X51750000Y-100250000D01*
X55300000Y-112900000D02*
X51750000Y-109350000D01*
X55450205Y-96750000D02*
X55450205Y-88799795D01*
X55450205Y-88799795D02*
X56000000Y-88250000D01*
X55417469Y-98115001D02*
X55585204Y-98115001D01*
X55585204Y-98115001D02*
X55905004Y-97795201D01*
X55905004Y-97795201D02*
X55905004Y-97204799D01*
X55905004Y-97204799D02*
X55450205Y-96750000D01*
X52630020Y-100902450D02*
X55417469Y-98115001D01*
X52630020Y-103757752D02*
X52630020Y-100902450D01*
X52837699Y-103965431D02*
X52630020Y-103757752D01*
X56045201Y-107196859D02*
X55946859Y-107196859D01*
X55946859Y-107196859D02*
X54546575Y-105796575D01*
X54546575Y-105796575D02*
X54546574Y-104542982D01*
X53969023Y-103965431D02*
X52837699Y-103965431D01*
X54546574Y-104542982D02*
X53969023Y-103965431D01*
X59250000Y-108250000D02*
X58196859Y-107196859D01*
X58196859Y-107196859D02*
X56045201Y-107196859D01*
X62940129Y-133385000D02*
X62940129Y-134559871D01*
X62940129Y-134559871D02*
X62500000Y-135000000D01*
X54000000Y-89750000D02*
X52045502Y-87795502D01*
X52045502Y-87795502D02*
X48750000Y-87795502D01*
X54000000Y-97089798D02*
X54000000Y-89750000D01*
X53884999Y-97204799D02*
X54000000Y-97089798D01*
X58009991Y-132946003D02*
X58009991Y-116599789D01*
X58009991Y-116599789D02*
X51309990Y-109899788D01*
X51309990Y-109899788D02*
X51309990Y-99779808D01*
X51309990Y-99779808D02*
X53884999Y-97204799D01*
X57815129Y-133565129D02*
X57815129Y-133140865D01*
X57815129Y-133140865D02*
X58009991Y-132946003D01*
X50869980Y-102119980D02*
X50045502Y-101295502D01*
X50045502Y-101295502D02*
X48750000Y-101295502D01*
X50869980Y-102250000D02*
X50869980Y-102119980D01*
X50869980Y-103869980D02*
X50869980Y-102250000D01*
X50869980Y-104250000D02*
X50869980Y-103869980D01*
X50869980Y-110082046D02*
X50869980Y-104250000D01*
X53750000Y-112962066D02*
X50869980Y-110082046D01*
X53750000Y-114160202D02*
X53750000Y-112962066D01*
X55750000Y-115000000D02*
X55365001Y-114615001D01*
X55365001Y-114615001D02*
X54204799Y-114615001D01*
X54204799Y-114615001D02*
X53750000Y-114160202D01*
X57500000Y-116750000D02*
X55750000Y-115000000D01*
X57569981Y-116819981D02*
X57500000Y-116750000D01*
X57569981Y-128000000D02*
X57569981Y-116819981D01*
X57569981Y-132680019D02*
X57569981Y-128000000D01*
X57375119Y-132874881D02*
X57569981Y-132680019D01*
X57000000Y-133500000D02*
X57375119Y-133124881D01*
X57375119Y-133124881D02*
X57375119Y-132874881D01*
X49704799Y-115115001D02*
X49373300Y-114783502D01*
X49373300Y-114783502D02*
X48750000Y-114783502D01*
X53309991Y-114342461D02*
X51067741Y-114342461D01*
X51067741Y-114342461D02*
X50295201Y-115115001D01*
X50295201Y-115115001D02*
X49704799Y-115115001D01*
X55182743Y-115055011D02*
X54022540Y-115055010D01*
X54022540Y-115055010D02*
X53309991Y-114342461D01*
X57129971Y-117002239D02*
X55182743Y-115055011D01*
X57129971Y-128182258D02*
X57129971Y-117002239D01*
X57129971Y-131826023D02*
X57129971Y-128182258D01*
X56940110Y-132440148D02*
X56940110Y-132015884D01*
X56940110Y-132015884D02*
X57129971Y-131826023D01*
X55250000Y-97660202D02*
X55250000Y-97540003D01*
X55250000Y-97540003D02*
X55290003Y-97500000D01*
X52190010Y-103940010D02*
X52190010Y-100720192D01*
X52190010Y-100720192D02*
X55250000Y-97660202D01*
X53094559Y-104405441D02*
X52655441Y-104405441D01*
X52655441Y-104405441D02*
X52190010Y-103940010D01*
X55750000Y-107811860D02*
X54106565Y-106168425D01*
X54106565Y-106168425D02*
X54106565Y-104725241D01*
X53786765Y-104405441D02*
X53094559Y-104405441D01*
X54106565Y-104725241D02*
X53786765Y-104405441D01*
X74190010Y-127029808D02*
X74190010Y-114029808D01*
X74190010Y-114029808D02*
X73370199Y-113209997D01*
X73370199Y-113209997D02*
X73250000Y-113209997D01*
X74540003Y-127500000D02*
X74540003Y-127379801D01*
X74540003Y-127379801D02*
X74190010Y-127029808D01*
X73750000Y-127500000D02*
X73750000Y-114500000D01*
X73750000Y-114500000D02*
X73250000Y-114000000D01*
X68500000Y-114500000D02*
X65750000Y-114500000D01*
X65750000Y-114500000D02*
X65094603Y-115155397D01*
X65094603Y-115155397D02*
X65094603Y-118253619D01*
X65094603Y-118253619D02*
X63592694Y-119755528D01*
X63592694Y-119755528D02*
X63592694Y-132592694D01*
X63592694Y-132592694D02*
X64614639Y-133614639D01*
X64614639Y-133614639D02*
X64614639Y-133885361D01*
X73450205Y-110200205D02*
X70500000Y-107250000D01*
X70500000Y-107250000D02*
X69000000Y-107250000D01*
X73450205Y-112500000D02*
X73450205Y-110200205D01*
X74700205Y-126750000D02*
X74700205Y-113750000D01*
X74700205Y-113750000D02*
X73450205Y-112500000D01*
X74500000Y-134000000D02*
X75155004Y-133344996D01*
X75155004Y-133344996D02*
X75155004Y-127204799D01*
X75155004Y-127204799D02*
X74700205Y-126750000D01*
X74204799Y-129204799D02*
X74204799Y-129884999D01*
X74204799Y-129884999D02*
X73884999Y-130204799D01*
X74190009Y-129067741D02*
X74190009Y-129190009D01*
X74190009Y-129190009D02*
X74204799Y-129204799D01*
X73272541Y-128555011D02*
X73677279Y-128555011D01*
X73677279Y-128555011D02*
X74190009Y-129067741D01*
X64039592Y-109250000D02*
X67870795Y-109250000D01*
X68589317Y-109378120D02*
X69000000Y-108967437D01*
X67870795Y-109250000D02*
X67998915Y-109378120D01*
X72194990Y-114477460D02*
X72869980Y-115152450D01*
X72869980Y-115152450D02*
X72869980Y-126847550D01*
X72570185Y-110564721D02*
X72570185Y-112357342D01*
X67998915Y-109378120D02*
X68589317Y-109378120D01*
X72694989Y-127022541D02*
X72694990Y-127977460D01*
X69000000Y-108750000D02*
X69444989Y-108305011D01*
X69000000Y-108967437D02*
X69000000Y-108750000D01*
X69444989Y-108305011D02*
X70310475Y-108305011D01*
X72869980Y-126847550D02*
X72694989Y-127022541D01*
X70310475Y-108305011D02*
X72570185Y-110564721D01*
X72194989Y-112732538D02*
X72194990Y-114477460D01*
X72570185Y-112357342D02*
X72194989Y-112732538D01*
X72694990Y-127977460D02*
X73272541Y-128555011D01*
X73884999Y-130204799D02*
X73884999Y-130795201D01*
X73884999Y-130795201D02*
X74460130Y-131370332D01*
X74460130Y-131370332D02*
X74460130Y-133170127D01*
X64039592Y-110250000D02*
X67118483Y-110250000D01*
X68864045Y-110347928D02*
X69711973Y-109500000D01*
X67391403Y-110522920D02*
X67977080Y-110522920D01*
X67118483Y-110250000D02*
X67391403Y-110522920D01*
X67977080Y-110522920D02*
X68152071Y-110347929D01*
X71690165Y-110929237D02*
X71690165Y-111992826D01*
X68152071Y-110347929D02*
X68864045Y-110347928D01*
X69711973Y-109500000D02*
X70260928Y-109500000D01*
X70260928Y-109500000D02*
X71690165Y-110929237D01*
X71690165Y-111992826D02*
X71314970Y-112368021D01*
X71814972Y-128341976D02*
X72634999Y-129162003D01*
X71314970Y-112368021D02*
X71314971Y-114937239D01*
X71314971Y-114937239D02*
X71989960Y-115612228D01*
X71989960Y-115612228D02*
X71989960Y-126483034D01*
X72954799Y-130501081D02*
X72968611Y-130501081D01*
X71989960Y-126483034D02*
X71814971Y-126658023D01*
X71814971Y-126658023D02*
X71814972Y-128341976D01*
X72634999Y-129162003D02*
X72634999Y-130181281D01*
X72634999Y-130181281D02*
X72954799Y-130501081D01*
X72968611Y-130501081D02*
X74020120Y-131552590D01*
X74020120Y-131552590D02*
X74020120Y-132557567D01*
X74020120Y-132557567D02*
X73691867Y-132885820D01*
X62440010Y-112309990D02*
X63500000Y-111250000D01*
X63500000Y-111250000D02*
X64039592Y-111250000D01*
X62440010Y-116817742D02*
X62440010Y-112309990D01*
X63405144Y-117782876D02*
X62440010Y-116817742D01*
X64032876Y-117782876D02*
X63405144Y-117782876D01*
X62712674Y-130340500D02*
X62712674Y-127750000D01*
X62500000Y-126750000D02*
X62500000Y-127174264D01*
X62500000Y-127174264D02*
X62712674Y-127386938D01*
X62712674Y-127386938D02*
X62712674Y-127750000D01*
X60944989Y-132108185D02*
X62712674Y-130340500D01*
X61269999Y-135055010D02*
X61269999Y-134417471D01*
X61269999Y-134417471D02*
X60944989Y-134092461D01*
X60944989Y-134092461D02*
X60944989Y-132108185D01*
X64647877Y-118078077D02*
X64654593Y-118071361D01*
X64654593Y-118071361D02*
X64654593Y-112865001D01*
X64654593Y-112865001D02*
X64039592Y-112250000D01*
X63152684Y-122750000D02*
X63152684Y-119573270D01*
X63152684Y-119573270D02*
X64647877Y-118078077D01*
X63152684Y-123000000D02*
X63152684Y-130847316D01*
X63152684Y-122750000D02*
X63152684Y-123000000D01*
X61384999Y-133910203D02*
X61884999Y-134410203D01*
X63152684Y-130847316D02*
X63000000Y-131000000D01*
X63000000Y-131000000D02*
X62675442Y-131000000D01*
X62935439Y-138200001D02*
X62635440Y-138500000D01*
X62675442Y-131000000D02*
X61384999Y-132290443D01*
X61384999Y-132290443D02*
X61384999Y-133910203D01*
X61884999Y-134410203D02*
X61884999Y-135295201D01*
X61884999Y-135295201D02*
X62935439Y-136345641D01*
X62935439Y-136345641D02*
X62935439Y-138200001D01*
X74644809Y-130105191D02*
X74532155Y-130217845D01*
X74532155Y-130217845D02*
X74532155Y-130572614D01*
X73454799Y-128115001D02*
X74237270Y-128115002D01*
X74237270Y-128115002D02*
X74644809Y-128522541D01*
X74644809Y-128522541D02*
X74644809Y-130105191D01*
X73309990Y-116250000D02*
X73309990Y-127029808D01*
X73309990Y-127029808D02*
X73134999Y-127204799D01*
X73134999Y-127204799D02*
X73134999Y-127795201D01*
X73134999Y-127795201D02*
X73454799Y-128115001D01*
X73309990Y-114682258D02*
X73309990Y-116250000D01*
X72634999Y-114295201D02*
X72954799Y-114615001D01*
X72954799Y-114615001D02*
X73242733Y-114615001D01*
X73242733Y-114615001D02*
X73309990Y-114682258D01*
X73010195Y-110382463D02*
X73010195Y-112539600D01*
X73010195Y-112539600D02*
X72634999Y-112914796D01*
X72634999Y-112914796D02*
X72634999Y-114295201D01*
X70492733Y-107865001D02*
X73010195Y-110382463D01*
X68294116Y-108763119D02*
X69192234Y-107865001D01*
X69192234Y-107865001D02*
X70492733Y-107865001D01*
X73750000Y-129717530D02*
X73581450Y-129886080D01*
X73581450Y-129886080D02*
X73250000Y-129886080D01*
X73500000Y-129000000D02*
X73750000Y-129250000D01*
X73750000Y-129250000D02*
X73750000Y-129717530D01*
X73095262Y-129000000D02*
X73500000Y-129000000D01*
X72429970Y-126665292D02*
X72254980Y-126840282D01*
X72254980Y-126840282D02*
X72254981Y-128159719D01*
X72254981Y-128159719D02*
X73095262Y-129000000D01*
X72429970Y-115429970D02*
X72429970Y-126665292D01*
X72130175Y-112175084D02*
X71754980Y-112550279D01*
X71754980Y-112550279D02*
X71754980Y-114754980D01*
X71754980Y-114754980D02*
X72429970Y-115429970D01*
X72130175Y-110746979D02*
X72130175Y-112175084D01*
X70133196Y-108750000D02*
X72130175Y-110746979D01*
X69622268Y-108750000D02*
X70133196Y-108750000D01*
X69440009Y-108932259D02*
X69622268Y-108750000D01*
X69440009Y-109149696D02*
X69440009Y-108932259D01*
X67686604Y-109907919D02*
X68681786Y-109907919D01*
X68681786Y-109907919D02*
X69440009Y-109149696D01*
X71250000Y-126600726D02*
X67019016Y-126600726D01*
X67019016Y-126600726D02*
X64934871Y-128684871D01*
X71549950Y-126300776D02*
X71250000Y-126600726D01*
X71549950Y-119450050D02*
X71549950Y-126300776D01*
X71549950Y-117000000D02*
X71549950Y-119450050D01*
X71549950Y-115799950D02*
X71549950Y-117000000D01*
X71000000Y-115250000D02*
X71549950Y-115799950D01*
X70874961Y-115124961D02*
X71000000Y-115250000D01*
X70874961Y-112185762D02*
X70874961Y-115124961D01*
X71250000Y-111810723D02*
X70874961Y-112185762D01*
X71250000Y-111111340D02*
X71250000Y-111810723D01*
X70638660Y-110500000D02*
X71250000Y-111111340D01*
X67000000Y-111082740D02*
X68751501Y-111082740D01*
X68751501Y-111082740D02*
X69334241Y-110500000D01*
X69334241Y-110500000D02*
X70638660Y-110500000D01*
D20*
G36*
X81540000Y-106829608D02*
X81501890Y-106803569D01*
X81250000Y-106752560D01*
X78950000Y-106752560D01*
X78714683Y-106796838D01*
X78498559Y-106935910D01*
X78353569Y-107148110D01*
X78302560Y-107400000D01*
X78302560Y-108200000D01*
X78346838Y-108435317D01*
X78485910Y-108651441D01*
X78620605Y-108743474D01*
X78411065Y-108743291D01*
X77967465Y-108926582D01*
X77627775Y-109265680D01*
X77443710Y-109708959D01*
X77443291Y-110188935D01*
X77626582Y-110632535D01*
X77743750Y-110749907D01*
X77627775Y-110865680D01*
X77443710Y-111308959D01*
X77443291Y-111788935D01*
X77626582Y-112232535D01*
X77743750Y-112349907D01*
X77627775Y-112465680D01*
X77443710Y-112908959D01*
X77443291Y-113388935D01*
X77626582Y-113832535D01*
X77965680Y-114172225D01*
X78408959Y-114356290D01*
X78622003Y-114356476D01*
X78498559Y-114435910D01*
X78353569Y-114648110D01*
X78302560Y-114900000D01*
X78302560Y-115700000D01*
X78346838Y-115935317D01*
X78485910Y-116151441D01*
X78698110Y-116296431D01*
X78950000Y-116347440D01*
X81250000Y-116347440D01*
X81485317Y-116303162D01*
X81540000Y-116267974D01*
X81540000Y-118879884D01*
X81304297Y-118833000D01*
X79695703Y-118833000D01*
X79161094Y-118939340D01*
X78707875Y-119242172D01*
X78405043Y-119695391D01*
X78298703Y-120230000D01*
X78405043Y-120764609D01*
X78707875Y-121217828D01*
X79130174Y-121500000D01*
X78707875Y-121782172D01*
X78405043Y-122235391D01*
X78298703Y-122770000D01*
X78405043Y-123304609D01*
X78707875Y-123757828D01*
X79130174Y-124040000D01*
X78707875Y-124322172D01*
X78405043Y-124775391D01*
X78298703Y-125310000D01*
X78405043Y-125844609D01*
X78707875Y-126297828D01*
X79161094Y-126600660D01*
X79695703Y-126707000D01*
X81304297Y-126707000D01*
X81540000Y-126660116D01*
X81540000Y-146790000D01*
X40377000Y-146790000D01*
X40377000Y-145290000D01*
X41298703Y-145290000D01*
X41405043Y-145824609D01*
X41707875Y-146277828D01*
X42161094Y-146580660D01*
X42695703Y-146687000D01*
X44304297Y-146687000D01*
X44838906Y-146580660D01*
X45292125Y-146277828D01*
X45594957Y-145824609D01*
X45658634Y-145504481D01*
X66465297Y-145504481D01*
X66660515Y-145976943D01*
X67021675Y-146338735D01*
X67493796Y-146534777D01*
X68005001Y-146535223D01*
X68477463Y-146340005D01*
X68750169Y-146067776D01*
X69020655Y-146338735D01*
X69492776Y-146534777D01*
X70003981Y-146535223D01*
X70476443Y-146340005D01*
X70750421Y-146066506D01*
X71022175Y-146338735D01*
X71494296Y-146534777D01*
X72005501Y-146535223D01*
X72477963Y-146340005D01*
X72751941Y-146066506D01*
X73023695Y-146338735D01*
X73495816Y-146534777D01*
X74007021Y-146535223D01*
X74479483Y-146340005D01*
X74752189Y-146067776D01*
X75022675Y-146338735D01*
X75494796Y-146534777D01*
X76006001Y-146535223D01*
X76478463Y-146340005D01*
X76752441Y-146066506D01*
X77024195Y-146338735D01*
X77496316Y-146534777D01*
X78007521Y-146535223D01*
X78479983Y-146340005D01*
X78841775Y-145978845D01*
X79037817Y-145506724D01*
X79038263Y-144995519D01*
X78843045Y-144523057D01*
X78481885Y-144161265D01*
X78009764Y-143965223D01*
X77498559Y-143964777D01*
X77026097Y-144159995D01*
X76752119Y-144433494D01*
X76480365Y-144161265D01*
X76008244Y-143965223D01*
X75497039Y-143964777D01*
X75024577Y-144159995D01*
X74751871Y-144432224D01*
X74481385Y-144161265D01*
X74009264Y-143965223D01*
X73498059Y-143964777D01*
X73025597Y-144159995D01*
X72751619Y-144433494D01*
X72479865Y-144161265D01*
X72007744Y-143965223D01*
X71496539Y-143964777D01*
X71024077Y-144159995D01*
X70750099Y-144433494D01*
X70478345Y-144161265D01*
X70006224Y-143965223D01*
X69495019Y-143964777D01*
X69022557Y-144159995D01*
X68749851Y-144432224D01*
X68479365Y-144161265D01*
X68007244Y-143965223D01*
X67496039Y-143964777D01*
X67023577Y-144159995D01*
X66661785Y-144521155D01*
X66465743Y-144993276D01*
X66465297Y-145504481D01*
X45658634Y-145504481D01*
X45701297Y-145290000D01*
X45594957Y-144755391D01*
X45292125Y-144302172D01*
X45117016Y-144185167D01*
X54769336Y-144185167D01*
X54911381Y-144528943D01*
X55174171Y-144792192D01*
X55517699Y-144934838D01*
X55889665Y-144935162D01*
X56233441Y-144793117D01*
X56496690Y-144530327D01*
X56639336Y-144186799D01*
X56639660Y-143814833D01*
X56497615Y-143471057D01*
X56234825Y-143207808D01*
X55891297Y-143065162D01*
X55519331Y-143064838D01*
X55175555Y-143206883D01*
X54912306Y-143469673D01*
X54769660Y-143813201D01*
X54769336Y-144185167D01*
X45117016Y-144185167D01*
X44838906Y-143999340D01*
X44304297Y-143893000D01*
X42695703Y-143893000D01*
X42161094Y-143999340D01*
X41707875Y-144302172D01*
X41405043Y-144755391D01*
X41298703Y-145290000D01*
X40377000Y-145290000D01*
X40377000Y-141500000D01*
X40357145Y-141431817D01*
X39579626Y-140210000D01*
X41298703Y-140210000D01*
X41405043Y-140744609D01*
X41707875Y-141197828D01*
X42161094Y-141500660D01*
X42695703Y-141607000D01*
X44304297Y-141607000D01*
X44838906Y-141500660D01*
X45292125Y-141197828D01*
X45594957Y-140744609D01*
X45701297Y-140210000D01*
X45594957Y-139675391D01*
X45292125Y-139222172D01*
X44838906Y-138919340D01*
X44304297Y-138813000D01*
X42695703Y-138813000D01*
X42161094Y-138919340D01*
X41707875Y-139222172D01*
X41405043Y-139675391D01*
X41298703Y-140210000D01*
X39579626Y-140210000D01*
X38627000Y-138713018D01*
X38627000Y-133730669D01*
X45814838Y-133730669D01*
X45956883Y-134074445D01*
X46219673Y-134337694D01*
X46563201Y-134480340D01*
X46935167Y-134480664D01*
X47278943Y-134338619D01*
X47542192Y-134075829D01*
X47684838Y-133732301D01*
X47685162Y-133360335D01*
X47543117Y-133016559D01*
X47280327Y-132753310D01*
X46936799Y-132610664D01*
X46564833Y-132610340D01*
X46221057Y-132752385D01*
X45957808Y-133015175D01*
X45815162Y-133358703D01*
X45814838Y-133730669D01*
X38627000Y-133730669D01*
X38627000Y-131799401D01*
X38960881Y-131435167D01*
X45814838Y-131435167D01*
X45956883Y-131778943D01*
X46219673Y-132042192D01*
X46563201Y-132184838D01*
X46935167Y-132185162D01*
X47278943Y-132043117D01*
X47542192Y-131780327D01*
X47684838Y-131436799D01*
X47684839Y-131435167D01*
X48860340Y-131435167D01*
X49002385Y-131778943D01*
X49265175Y-132042192D01*
X49608703Y-132184838D01*
X49980669Y-132185162D01*
X50324445Y-132043117D01*
X50587694Y-131780327D01*
X50730340Y-131436799D01*
X50730664Y-131064833D01*
X50588619Y-130721057D01*
X50325829Y-130457808D01*
X49982301Y-130315162D01*
X49610335Y-130314838D01*
X49266559Y-130456883D01*
X49003310Y-130719673D01*
X48860664Y-131063201D01*
X48860340Y-131435167D01*
X47684839Y-131435167D01*
X47685162Y-131064833D01*
X47543117Y-130721057D01*
X47280327Y-130457808D01*
X46936799Y-130315162D01*
X46564833Y-130314838D01*
X46221057Y-130456883D01*
X45957808Y-130719673D01*
X45815162Y-131063201D01*
X45814838Y-131435167D01*
X38960881Y-131435167D01*
X41343619Y-128835817D01*
X41369630Y-128792633D01*
X41377000Y-128750000D01*
X41377000Y-126435167D01*
X46564838Y-126435167D01*
X46706883Y-126778943D01*
X46969673Y-127042192D01*
X47313201Y-127184838D01*
X47685167Y-127185162D01*
X48028943Y-127043117D01*
X48137081Y-126935167D01*
X52314838Y-126935167D01*
X52456883Y-127278943D01*
X52719673Y-127542192D01*
X53063201Y-127684838D01*
X53435167Y-127685162D01*
X53778943Y-127543117D01*
X54042192Y-127280327D01*
X54184838Y-126936799D01*
X54185162Y-126564833D01*
X54043117Y-126221057D01*
X53780327Y-125957808D01*
X53436799Y-125815162D01*
X53064833Y-125814838D01*
X52721057Y-125956883D01*
X52457808Y-126219673D01*
X52315162Y-126563201D01*
X52314838Y-126935167D01*
X48137081Y-126935167D01*
X48292192Y-126780327D01*
X48434838Y-126436799D01*
X48435162Y-126064833D01*
X48293117Y-125721057D01*
X48030327Y-125457808D01*
X47686799Y-125315162D01*
X47314833Y-125314838D01*
X46971057Y-125456883D01*
X46707808Y-125719673D01*
X46565162Y-126063201D01*
X46564838Y-126435167D01*
X41377000Y-126435167D01*
X41377000Y-123052606D01*
X41552606Y-122877000D01*
X45250000Y-122877000D01*
X45299410Y-122866994D01*
X45339803Y-122839803D01*
X46315117Y-121864489D01*
X46314838Y-122185167D01*
X46456883Y-122528943D01*
X46719673Y-122792192D01*
X47063201Y-122934838D01*
X47242547Y-122934994D01*
X47207808Y-122969673D01*
X47065162Y-123313201D01*
X47064838Y-123685167D01*
X47206883Y-124028943D01*
X47469673Y-124292192D01*
X47813201Y-124434838D01*
X48185167Y-124435162D01*
X48528943Y-124293117D01*
X48792192Y-124030327D01*
X48934838Y-123686799D01*
X48935162Y-123314833D01*
X48793117Y-122971057D01*
X48530327Y-122707808D01*
X48186799Y-122565162D01*
X48007453Y-122565006D01*
X48042192Y-122530327D01*
X48184838Y-122186799D01*
X48185162Y-121814833D01*
X48043117Y-121471057D01*
X47780327Y-121207808D01*
X47436799Y-121065162D01*
X47114725Y-121064881D01*
X48494610Y-119684996D01*
X48685167Y-119685162D01*
X49028943Y-119543117D01*
X49292192Y-119280327D01*
X49331706Y-119185167D01*
X53064838Y-119185167D01*
X53206883Y-119528943D01*
X53469673Y-119792192D01*
X53813201Y-119934838D01*
X54185167Y-119935162D01*
X54528943Y-119793117D01*
X54792192Y-119530327D01*
X54934838Y-119186799D01*
X54935162Y-118814833D01*
X54793117Y-118471057D01*
X54530327Y-118207808D01*
X54186799Y-118065162D01*
X53814833Y-118064838D01*
X53471057Y-118206883D01*
X53207808Y-118469673D01*
X53065162Y-118813201D01*
X53064838Y-119185167D01*
X49331706Y-119185167D01*
X49434838Y-118936799D01*
X49435005Y-118744601D01*
X53036167Y-115143439D01*
X53485139Y-115592411D01*
X53731700Y-115757158D01*
X54022539Y-115815010D01*
X54867941Y-115815011D01*
X56369971Y-117317041D01*
X56369971Y-131527479D01*
X56237962Y-131725045D01*
X56214411Y-131843444D01*
X56147918Y-131909821D01*
X56005272Y-132253349D01*
X56004948Y-132625315D01*
X56146993Y-132969091D01*
X56190113Y-133012287D01*
X56065162Y-133313201D01*
X56064838Y-133685167D01*
X56206883Y-134028943D01*
X56469673Y-134292192D01*
X56761732Y-134413466D01*
X56685198Y-134490000D01*
X52558937Y-134490000D01*
X52684838Y-134186799D01*
X52685162Y-133814833D01*
X52543117Y-133471057D01*
X52280327Y-133207808D01*
X51936799Y-133065162D01*
X51564833Y-133064838D01*
X51221057Y-133206883D01*
X50957808Y-133469673D01*
X50815162Y-133813201D01*
X50814838Y-134185167D01*
X50940792Y-134490000D01*
X43812463Y-134490000D01*
X43780327Y-134457808D01*
X43436799Y-134315162D01*
X43064833Y-134314838D01*
X42721057Y-134456883D01*
X42457808Y-134719673D01*
X42315162Y-135063201D01*
X42314838Y-135435167D01*
X42456883Y-135778943D01*
X42719673Y-136042192D01*
X43063201Y-136184838D01*
X43435167Y-136185162D01*
X43778943Y-136043117D01*
X43812118Y-136010000D01*
X57000000Y-136010000D01*
X57290839Y-135952148D01*
X57537401Y-135787401D01*
X57561037Y-135763765D01*
X57589415Y-135792192D01*
X57932943Y-135934838D01*
X58304909Y-135935162D01*
X58648685Y-135793117D01*
X58911934Y-135530327D01*
X59054580Y-135186799D01*
X59054904Y-134814833D01*
X58912859Y-134471057D01*
X58883328Y-134441474D01*
X58987402Y-134337400D01*
X59152149Y-134090838D01*
X59210001Y-133799999D01*
X59210001Y-129071603D01*
X59278943Y-129043117D01*
X59542192Y-128780327D01*
X59684838Y-128436799D01*
X59685162Y-128064833D01*
X59543117Y-127721057D01*
X59280327Y-127457808D01*
X58936799Y-127315162D01*
X58769991Y-127315017D01*
X58769991Y-121864112D01*
X60243783Y-121864112D01*
X60385828Y-122207888D01*
X60648618Y-122471137D01*
X60992146Y-122613783D01*
X61364112Y-122614107D01*
X61707888Y-122472062D01*
X61971137Y-122209272D01*
X62113783Y-121865744D01*
X62114107Y-121493778D01*
X62066082Y-121377548D01*
X62189878Y-121079416D01*
X62190202Y-120707450D01*
X62048157Y-120363674D01*
X61785367Y-120100425D01*
X61441839Y-119957779D01*
X61069873Y-119957455D01*
X60726097Y-120099500D01*
X60462848Y-120362290D01*
X60320202Y-120705818D01*
X60319878Y-121077784D01*
X60367903Y-121194014D01*
X60244107Y-121492146D01*
X60243783Y-121864112D01*
X58769991Y-121864112D01*
X58769991Y-116599789D01*
X58737543Y-116436663D01*
X58712139Y-116308949D01*
X58547392Y-116062388D01*
X56003684Y-113518680D01*
X56092192Y-113430327D01*
X56234838Y-113086799D01*
X56235162Y-112714833D01*
X56093117Y-112371057D01*
X55950957Y-112228649D01*
X58367350Y-109812256D01*
X58456883Y-110028943D01*
X58657708Y-110230119D01*
X58457808Y-110429670D01*
X58315162Y-110773198D01*
X58314838Y-111145164D01*
X58401578Y-111355090D01*
X58315162Y-111563201D01*
X58314838Y-111935167D01*
X58456883Y-112278943D01*
X58719673Y-112542192D01*
X59063201Y-112684838D01*
X59435167Y-112685162D01*
X59778943Y-112543117D01*
X59919971Y-112402335D01*
X59919971Y-113505227D01*
X59110320Y-114314878D01*
X59064833Y-114314838D01*
X58721057Y-114456883D01*
X58457808Y-114719673D01*
X58315162Y-115063201D01*
X58314838Y-115435167D01*
X58456883Y-115778943D01*
X58719673Y-116042192D01*
X59063201Y-116184838D01*
X59435167Y-116185162D01*
X59778943Y-116043117D01*
X60042192Y-115780327D01*
X60184838Y-115436799D01*
X60184879Y-115389923D01*
X60359980Y-115214822D01*
X60359980Y-118099674D01*
X60417832Y-118390513D01*
X60582579Y-118637075D01*
X60713205Y-118767701D01*
X60713165Y-118813188D01*
X60855210Y-119156964D01*
X61118000Y-119420213D01*
X61461528Y-119562859D01*
X61833494Y-119563183D01*
X62177270Y-119421138D01*
X62440519Y-119158348D01*
X62571649Y-118842552D01*
X62575202Y-118841084D01*
X62614759Y-118936819D01*
X62664503Y-118986649D01*
X62615283Y-119035869D01*
X62450536Y-119282431D01*
X62392684Y-119573270D01*
X62392684Y-125814906D01*
X62314833Y-125814838D01*
X61971057Y-125956883D01*
X61707808Y-126219673D01*
X61565162Y-126563201D01*
X61564838Y-126935167D01*
X61706883Y-127278943D01*
X61774245Y-127346422D01*
X61797852Y-127465103D01*
X61952674Y-127696811D01*
X61952674Y-130025698D01*
X60407588Y-131570784D01*
X60242841Y-131817346D01*
X60184989Y-132108185D01*
X60184989Y-134092461D01*
X60242841Y-134383300D01*
X60407588Y-134629862D01*
X60426344Y-134648618D01*
X60335161Y-134868211D01*
X60334837Y-135240177D01*
X60476882Y-135583953D01*
X60739672Y-135847202D01*
X61083200Y-135989848D01*
X61455166Y-135990172D01*
X61490548Y-135975552D01*
X62175439Y-136660444D01*
X62175439Y-137678397D01*
X62106497Y-137706883D01*
X61843248Y-137969673D01*
X61700602Y-138313201D01*
X61700278Y-138685167D01*
X61842323Y-139028943D01*
X62105113Y-139292192D01*
X62448641Y-139434838D01*
X62820607Y-139435162D01*
X63164383Y-139293117D01*
X63427632Y-139030327D01*
X63570278Y-138686799D01*
X63570279Y-138685167D01*
X65064838Y-138685167D01*
X65206883Y-139028943D01*
X65469673Y-139292192D01*
X65813201Y-139434838D01*
X66185167Y-139435162D01*
X66528943Y-139293117D01*
X66792192Y-139030327D01*
X66934838Y-138686799D01*
X66935162Y-138314833D01*
X66793117Y-137971057D01*
X66530327Y-137707808D01*
X66186799Y-137565162D01*
X65814833Y-137564838D01*
X65471057Y-137706883D01*
X65207808Y-137969673D01*
X65065162Y-138313201D01*
X65064838Y-138685167D01*
X63570279Y-138685167D01*
X63570361Y-138591451D01*
X63637587Y-138490840D01*
X63695439Y-138200001D01*
X63695439Y-136345641D01*
X63637587Y-136054802D01*
X63498874Y-135847202D01*
X63472840Y-135808239D01*
X63243517Y-135578917D01*
X63292192Y-135530327D01*
X63434838Y-135186799D01*
X63434879Y-135139923D01*
X63477530Y-135097272D01*
X63642277Y-134850711D01*
X63653917Y-134792192D01*
X63700129Y-134559871D01*
X63700129Y-134120510D01*
X63821522Y-134414304D01*
X64084312Y-134677553D01*
X64427840Y-134820199D01*
X64799806Y-134820523D01*
X65143582Y-134678478D01*
X65406831Y-134415688D01*
X65549477Y-134072160D01*
X65549801Y-133700194D01*
X65407756Y-133356418D01*
X65198553Y-133146850D01*
X65152040Y-133077238D01*
X64352694Y-132277892D01*
X64352694Y-129425122D01*
X64404544Y-129477063D01*
X64748072Y-129619709D01*
X65120038Y-129620033D01*
X65463814Y-129477988D01*
X65727063Y-129215198D01*
X65869709Y-128871670D01*
X65869750Y-128824794D01*
X67333818Y-127360726D01*
X71054971Y-127360726D01*
X71054972Y-128341976D01*
X71112824Y-128632815D01*
X71277571Y-128879377D01*
X71874999Y-129476805D01*
X71874999Y-130181281D01*
X71932851Y-130472120D01*
X72097598Y-130718682D01*
X72417397Y-131038482D01*
X72459024Y-131066296D01*
X73260120Y-131867392D01*
X73260120Y-132052543D01*
X73162924Y-132092703D01*
X72899675Y-132355493D01*
X72757029Y-132699021D01*
X72756705Y-133070987D01*
X72898750Y-133414763D01*
X73161540Y-133678012D01*
X73505068Y-133820658D01*
X73565155Y-133820710D01*
X73564838Y-134185167D01*
X73706883Y-134528943D01*
X73969673Y-134792192D01*
X74313201Y-134934838D01*
X74685167Y-134935162D01*
X75028943Y-134793117D01*
X75292192Y-134530327D01*
X75434838Y-134186799D01*
X75434879Y-134139923D01*
X75692405Y-133882397D01*
X75857152Y-133635835D01*
X75915004Y-133344996D01*
X75915004Y-132435127D01*
X75955171Y-132435162D01*
X76298947Y-132293117D01*
X76562196Y-132030327D01*
X76704842Y-131686799D01*
X76705166Y-131314833D01*
X76563121Y-130971057D01*
X76530004Y-130937882D01*
X76530004Y-129503268D01*
X77964538Y-129503268D01*
X78159792Y-129975819D01*
X78433156Y-130249660D01*
X78161062Y-130521280D01*
X77964984Y-130993488D01*
X77964538Y-131504788D01*
X78159792Y-131977339D01*
X78431886Y-132249908D01*
X78161062Y-132520260D01*
X77964984Y-132992468D01*
X77964538Y-133503768D01*
X78159792Y-133976319D01*
X78433156Y-134250160D01*
X78161062Y-134521780D01*
X77964984Y-134993988D01*
X77964538Y-135505288D01*
X78159792Y-135977839D01*
X78431886Y-136250408D01*
X78161062Y-136520760D01*
X77964984Y-136992968D01*
X77964538Y-137504268D01*
X78159792Y-137976819D01*
X78433156Y-138250660D01*
X78161062Y-138522280D01*
X77964984Y-138994488D01*
X77964538Y-139505788D01*
X78159792Y-139978339D01*
X78521020Y-140340198D01*
X78993228Y-140536276D01*
X79504528Y-140536722D01*
X79977079Y-140341468D01*
X80338938Y-139980240D01*
X80535016Y-139508032D01*
X80535462Y-138996732D01*
X80340208Y-138524181D01*
X80066844Y-138250340D01*
X80338938Y-137978720D01*
X80535016Y-137506512D01*
X80535462Y-136995212D01*
X80340208Y-136522661D01*
X80068114Y-136250092D01*
X80338938Y-135979740D01*
X80535016Y-135507532D01*
X80535462Y-134996232D01*
X80340208Y-134523681D01*
X80066844Y-134249840D01*
X80338938Y-133978220D01*
X80535016Y-133506012D01*
X80535462Y-132994712D01*
X80340208Y-132522161D01*
X80068114Y-132249592D01*
X80338938Y-131979240D01*
X80535016Y-131507032D01*
X80535462Y-130995732D01*
X80340208Y-130523181D01*
X80066844Y-130249340D01*
X80338938Y-129977720D01*
X80535016Y-129505512D01*
X80535462Y-128994212D01*
X80340208Y-128521661D01*
X79978980Y-128159802D01*
X79506772Y-127963724D01*
X78995472Y-127963278D01*
X78522921Y-128158532D01*
X78161062Y-128519760D01*
X77964984Y-128991968D01*
X77964538Y-129503268D01*
X76530004Y-129503268D01*
X76530004Y-127197531D01*
X76472152Y-126906692D01*
X76307405Y-126660130D01*
X75900215Y-126252940D01*
X75900215Y-121435167D01*
X76360340Y-121435167D01*
X76502385Y-121778943D01*
X76765175Y-122042192D01*
X77108703Y-122184838D01*
X77480669Y-122185162D01*
X77824445Y-122043117D01*
X78087694Y-121780327D01*
X78230340Y-121436799D01*
X78230664Y-121064833D01*
X78088619Y-120721057D01*
X77825829Y-120457808D01*
X77482301Y-120315162D01*
X77110335Y-120314838D01*
X76766559Y-120456883D01*
X76503310Y-120719673D01*
X76360664Y-121063201D01*
X76360340Y-121435167D01*
X75900215Y-121435167D01*
X75900214Y-119685127D01*
X75940382Y-119685162D01*
X76284158Y-119543117D01*
X76547407Y-119280327D01*
X76690053Y-118936799D01*
X76690377Y-118564833D01*
X76548332Y-118221057D01*
X76285542Y-117957808D01*
X75942014Y-117815162D01*
X75900214Y-117815126D01*
X75900214Y-116436415D01*
X76185167Y-116436663D01*
X76528943Y-116294618D01*
X76792192Y-116031828D01*
X76934838Y-115688300D01*
X76935162Y-115316334D01*
X76793117Y-114972558D01*
X76530327Y-114709309D01*
X76186799Y-114566663D01*
X75900214Y-114566413D01*
X75900214Y-113567741D01*
X75842362Y-113276902D01*
X75677615Y-113030340D01*
X74650215Y-112002940D01*
X74650215Y-96435167D01*
X75814838Y-96435167D01*
X75956883Y-96778943D01*
X76219673Y-97042192D01*
X76563201Y-97184838D01*
X76935167Y-97185162D01*
X77278943Y-97043117D01*
X77542192Y-96780327D01*
X77684838Y-96436799D01*
X77685162Y-96064833D01*
X77543117Y-95721057D01*
X77280327Y-95457808D01*
X76936799Y-95315162D01*
X76564833Y-95314838D01*
X76221057Y-95456883D01*
X75957808Y-95719673D01*
X75815162Y-96063201D01*
X75814838Y-96435167D01*
X74650215Y-96435167D01*
X74650215Y-92377000D01*
X81540000Y-92377000D01*
X81540000Y-106829608D01*
X81540000Y-106829608D01*
G37*
X81540000Y-106829608D02*
X81501890Y-106803569D01*
X81250000Y-106752560D01*
X78950000Y-106752560D01*
X78714683Y-106796838D01*
X78498559Y-106935910D01*
X78353569Y-107148110D01*
X78302560Y-107400000D01*
X78302560Y-108200000D01*
X78346838Y-108435317D01*
X78485910Y-108651441D01*
X78620605Y-108743474D01*
X78411065Y-108743291D01*
X77967465Y-108926582D01*
X77627775Y-109265680D01*
X77443710Y-109708959D01*
X77443291Y-110188935D01*
X77626582Y-110632535D01*
X77743750Y-110749907D01*
X77627775Y-110865680D01*
X77443710Y-111308959D01*
X77443291Y-111788935D01*
X77626582Y-112232535D01*
X77743750Y-112349907D01*
X77627775Y-112465680D01*
X77443710Y-112908959D01*
X77443291Y-113388935D01*
X77626582Y-113832535D01*
X77965680Y-114172225D01*
X78408959Y-114356290D01*
X78622003Y-114356476D01*
X78498559Y-114435910D01*
X78353569Y-114648110D01*
X78302560Y-114900000D01*
X78302560Y-115700000D01*
X78346838Y-115935317D01*
X78485910Y-116151441D01*
X78698110Y-116296431D01*
X78950000Y-116347440D01*
X81250000Y-116347440D01*
X81485317Y-116303162D01*
X81540000Y-116267974D01*
X81540000Y-118879884D01*
X81304297Y-118833000D01*
X79695703Y-118833000D01*
X79161094Y-118939340D01*
X78707875Y-119242172D01*
X78405043Y-119695391D01*
X78298703Y-120230000D01*
X78405043Y-120764609D01*
X78707875Y-121217828D01*
X79130174Y-121500000D01*
X78707875Y-121782172D01*
X78405043Y-122235391D01*
X78298703Y-122770000D01*
X78405043Y-123304609D01*
X78707875Y-123757828D01*
X79130174Y-124040000D01*
X78707875Y-124322172D01*
X78405043Y-124775391D01*
X78298703Y-125310000D01*
X78405043Y-125844609D01*
X78707875Y-126297828D01*
X79161094Y-126600660D01*
X79695703Y-126707000D01*
X81304297Y-126707000D01*
X81540000Y-126660116D01*
X81540000Y-146790000D01*
X40377000Y-146790000D01*
X40377000Y-145290000D01*
X41298703Y-145290000D01*
X41405043Y-145824609D01*
X41707875Y-146277828D01*
X42161094Y-146580660D01*
X42695703Y-146687000D01*
X44304297Y-146687000D01*
X44838906Y-146580660D01*
X45292125Y-146277828D01*
X45594957Y-145824609D01*
X45658634Y-145504481D01*
X66465297Y-145504481D01*
X66660515Y-145976943D01*
X67021675Y-146338735D01*
X67493796Y-146534777D01*
X68005001Y-146535223D01*
X68477463Y-146340005D01*
X68750169Y-146067776D01*
X69020655Y-146338735D01*
X69492776Y-146534777D01*
X70003981Y-146535223D01*
X70476443Y-146340005D01*
X70750421Y-146066506D01*
X71022175Y-146338735D01*
X71494296Y-146534777D01*
X72005501Y-146535223D01*
X72477963Y-146340005D01*
X72751941Y-146066506D01*
X73023695Y-146338735D01*
X73495816Y-146534777D01*
X74007021Y-146535223D01*
X74479483Y-146340005D01*
X74752189Y-146067776D01*
X75022675Y-146338735D01*
X75494796Y-146534777D01*
X76006001Y-146535223D01*
X76478463Y-146340005D01*
X76752441Y-146066506D01*
X77024195Y-146338735D01*
X77496316Y-146534777D01*
X78007521Y-146535223D01*
X78479983Y-146340005D01*
X78841775Y-145978845D01*
X79037817Y-145506724D01*
X79038263Y-144995519D01*
X78843045Y-144523057D01*
X78481885Y-144161265D01*
X78009764Y-143965223D01*
X77498559Y-143964777D01*
X77026097Y-144159995D01*
X76752119Y-144433494D01*
X76480365Y-144161265D01*
X76008244Y-143965223D01*
X75497039Y-143964777D01*
X75024577Y-144159995D01*
X74751871Y-144432224D01*
X74481385Y-144161265D01*
X74009264Y-143965223D01*
X73498059Y-143964777D01*
X73025597Y-144159995D01*
X72751619Y-144433494D01*
X72479865Y-144161265D01*
X72007744Y-143965223D01*
X71496539Y-143964777D01*
X71024077Y-144159995D01*
X70750099Y-144433494D01*
X70478345Y-144161265D01*
X70006224Y-143965223D01*
X69495019Y-143964777D01*
X69022557Y-144159995D01*
X68749851Y-144432224D01*
X68479365Y-144161265D01*
X68007244Y-143965223D01*
X67496039Y-143964777D01*
X67023577Y-144159995D01*
X66661785Y-144521155D01*
X66465743Y-144993276D01*
X66465297Y-145504481D01*
X45658634Y-145504481D01*
X45701297Y-145290000D01*
X45594957Y-144755391D01*
X45292125Y-144302172D01*
X45117016Y-144185167D01*
X54769336Y-144185167D01*
X54911381Y-144528943D01*
X55174171Y-144792192D01*
X55517699Y-144934838D01*
X55889665Y-144935162D01*
X56233441Y-144793117D01*
X56496690Y-144530327D01*
X56639336Y-144186799D01*
X56639660Y-143814833D01*
X56497615Y-143471057D01*
X56234825Y-143207808D01*
X55891297Y-143065162D01*
X55519331Y-143064838D01*
X55175555Y-143206883D01*
X54912306Y-143469673D01*
X54769660Y-143813201D01*
X54769336Y-144185167D01*
X45117016Y-144185167D01*
X44838906Y-143999340D01*
X44304297Y-143893000D01*
X42695703Y-143893000D01*
X42161094Y-143999340D01*
X41707875Y-144302172D01*
X41405043Y-144755391D01*
X41298703Y-145290000D01*
X40377000Y-145290000D01*
X40377000Y-141500000D01*
X40357145Y-141431817D01*
X39579626Y-140210000D01*
X41298703Y-140210000D01*
X41405043Y-140744609D01*
X41707875Y-141197828D01*
X42161094Y-141500660D01*
X42695703Y-141607000D01*
X44304297Y-141607000D01*
X44838906Y-141500660D01*
X45292125Y-141197828D01*
X45594957Y-140744609D01*
X45701297Y-140210000D01*
X45594957Y-139675391D01*
X45292125Y-139222172D01*
X44838906Y-138919340D01*
X44304297Y-138813000D01*
X42695703Y-138813000D01*
X42161094Y-138919340D01*
X41707875Y-139222172D01*
X41405043Y-139675391D01*
X41298703Y-140210000D01*
X39579626Y-140210000D01*
X38627000Y-138713018D01*
X38627000Y-133730669D01*
X45814838Y-133730669D01*
X45956883Y-134074445D01*
X46219673Y-134337694D01*
X46563201Y-134480340D01*
X46935167Y-134480664D01*
X47278943Y-134338619D01*
X47542192Y-134075829D01*
X47684838Y-133732301D01*
X47685162Y-133360335D01*
X47543117Y-133016559D01*
X47280327Y-132753310D01*
X46936799Y-132610664D01*
X46564833Y-132610340D01*
X46221057Y-132752385D01*
X45957808Y-133015175D01*
X45815162Y-133358703D01*
X45814838Y-133730669D01*
X38627000Y-133730669D01*
X38627000Y-131799401D01*
X38960881Y-131435167D01*
X45814838Y-131435167D01*
X45956883Y-131778943D01*
X46219673Y-132042192D01*
X46563201Y-132184838D01*
X46935167Y-132185162D01*
X47278943Y-132043117D01*
X47542192Y-131780327D01*
X47684838Y-131436799D01*
X47684839Y-131435167D01*
X48860340Y-131435167D01*
X49002385Y-131778943D01*
X49265175Y-132042192D01*
X49608703Y-132184838D01*
X49980669Y-132185162D01*
X50324445Y-132043117D01*
X50587694Y-131780327D01*
X50730340Y-131436799D01*
X50730664Y-131064833D01*
X50588619Y-130721057D01*
X50325829Y-130457808D01*
X49982301Y-130315162D01*
X49610335Y-130314838D01*
X49266559Y-130456883D01*
X49003310Y-130719673D01*
X48860664Y-131063201D01*
X48860340Y-131435167D01*
X47684839Y-131435167D01*
X47685162Y-131064833D01*
X47543117Y-130721057D01*
X47280327Y-130457808D01*
X46936799Y-130315162D01*
X46564833Y-130314838D01*
X46221057Y-130456883D01*
X45957808Y-130719673D01*
X45815162Y-131063201D01*
X45814838Y-131435167D01*
X38960881Y-131435167D01*
X41343619Y-128835817D01*
X41369630Y-128792633D01*
X41377000Y-128750000D01*
X41377000Y-126435167D01*
X46564838Y-126435167D01*
X46706883Y-126778943D01*
X46969673Y-127042192D01*
X47313201Y-127184838D01*
X47685167Y-127185162D01*
X48028943Y-127043117D01*
X48137081Y-126935167D01*
X52314838Y-126935167D01*
X52456883Y-127278943D01*
X52719673Y-127542192D01*
X53063201Y-127684838D01*
X53435167Y-127685162D01*
X53778943Y-127543117D01*
X54042192Y-127280327D01*
X54184838Y-126936799D01*
X54185162Y-126564833D01*
X54043117Y-126221057D01*
X53780327Y-125957808D01*
X53436799Y-125815162D01*
X53064833Y-125814838D01*
X52721057Y-125956883D01*
X52457808Y-126219673D01*
X52315162Y-126563201D01*
X52314838Y-126935167D01*
X48137081Y-126935167D01*
X48292192Y-126780327D01*
X48434838Y-126436799D01*
X48435162Y-126064833D01*
X48293117Y-125721057D01*
X48030327Y-125457808D01*
X47686799Y-125315162D01*
X47314833Y-125314838D01*
X46971057Y-125456883D01*
X46707808Y-125719673D01*
X46565162Y-126063201D01*
X46564838Y-126435167D01*
X41377000Y-126435167D01*
X41377000Y-123052606D01*
X41552606Y-122877000D01*
X45250000Y-122877000D01*
X45299410Y-122866994D01*
X45339803Y-122839803D01*
X46315117Y-121864489D01*
X46314838Y-122185167D01*
X46456883Y-122528943D01*
X46719673Y-122792192D01*
X47063201Y-122934838D01*
X47242547Y-122934994D01*
X47207808Y-122969673D01*
X47065162Y-123313201D01*
X47064838Y-123685167D01*
X47206883Y-124028943D01*
X47469673Y-124292192D01*
X47813201Y-124434838D01*
X48185167Y-124435162D01*
X48528943Y-124293117D01*
X48792192Y-124030327D01*
X48934838Y-123686799D01*
X48935162Y-123314833D01*
X48793117Y-122971057D01*
X48530327Y-122707808D01*
X48186799Y-122565162D01*
X48007453Y-122565006D01*
X48042192Y-122530327D01*
X48184838Y-122186799D01*
X48185162Y-121814833D01*
X48043117Y-121471057D01*
X47780327Y-121207808D01*
X47436799Y-121065162D01*
X47114725Y-121064881D01*
X48494610Y-119684996D01*
X48685167Y-119685162D01*
X49028943Y-119543117D01*
X49292192Y-119280327D01*
X49331706Y-119185167D01*
X53064838Y-119185167D01*
X53206883Y-119528943D01*
X53469673Y-119792192D01*
X53813201Y-119934838D01*
X54185167Y-119935162D01*
X54528943Y-119793117D01*
X54792192Y-119530327D01*
X54934838Y-119186799D01*
X54935162Y-118814833D01*
X54793117Y-118471057D01*
X54530327Y-118207808D01*
X54186799Y-118065162D01*
X53814833Y-118064838D01*
X53471057Y-118206883D01*
X53207808Y-118469673D01*
X53065162Y-118813201D01*
X53064838Y-119185167D01*
X49331706Y-119185167D01*
X49434838Y-118936799D01*
X49435005Y-118744601D01*
X53036167Y-115143439D01*
X53485139Y-115592411D01*
X53731700Y-115757158D01*
X54022539Y-115815010D01*
X54867941Y-115815011D01*
X56369971Y-117317041D01*
X56369971Y-131527479D01*
X56237962Y-131725045D01*
X56214411Y-131843444D01*
X56147918Y-131909821D01*
X56005272Y-132253349D01*
X56004948Y-132625315D01*
X56146993Y-132969091D01*
X56190113Y-133012287D01*
X56065162Y-133313201D01*
X56064838Y-133685167D01*
X56206883Y-134028943D01*
X56469673Y-134292192D01*
X56761732Y-134413466D01*
X56685198Y-134490000D01*
X52558937Y-134490000D01*
X52684838Y-134186799D01*
X52685162Y-133814833D01*
X52543117Y-133471057D01*
X52280327Y-133207808D01*
X51936799Y-133065162D01*
X51564833Y-133064838D01*
X51221057Y-133206883D01*
X50957808Y-133469673D01*
X50815162Y-133813201D01*
X50814838Y-134185167D01*
X50940792Y-134490000D01*
X43812463Y-134490000D01*
X43780327Y-134457808D01*
X43436799Y-134315162D01*
X43064833Y-134314838D01*
X42721057Y-134456883D01*
X42457808Y-134719673D01*
X42315162Y-135063201D01*
X42314838Y-135435167D01*
X42456883Y-135778943D01*
X42719673Y-136042192D01*
X43063201Y-136184838D01*
X43435167Y-136185162D01*
X43778943Y-136043117D01*
X43812118Y-136010000D01*
X57000000Y-136010000D01*
X57290839Y-135952148D01*
X57537401Y-135787401D01*
X57561037Y-135763765D01*
X57589415Y-135792192D01*
X57932943Y-135934838D01*
X58304909Y-135935162D01*
X58648685Y-135793117D01*
X58911934Y-135530327D01*
X59054580Y-135186799D01*
X59054904Y-134814833D01*
X58912859Y-134471057D01*
X58883328Y-134441474D01*
X58987402Y-134337400D01*
X59152149Y-134090838D01*
X59210001Y-133799999D01*
X59210001Y-129071603D01*
X59278943Y-129043117D01*
X59542192Y-128780327D01*
X59684838Y-128436799D01*
X59685162Y-128064833D01*
X59543117Y-127721057D01*
X59280327Y-127457808D01*
X58936799Y-127315162D01*
X58769991Y-127315017D01*
X58769991Y-121864112D01*
X60243783Y-121864112D01*
X60385828Y-122207888D01*
X60648618Y-122471137D01*
X60992146Y-122613783D01*
X61364112Y-122614107D01*
X61707888Y-122472062D01*
X61971137Y-122209272D01*
X62113783Y-121865744D01*
X62114107Y-121493778D01*
X62066082Y-121377548D01*
X62189878Y-121079416D01*
X62190202Y-120707450D01*
X62048157Y-120363674D01*
X61785367Y-120100425D01*
X61441839Y-119957779D01*
X61069873Y-119957455D01*
X60726097Y-120099500D01*
X60462848Y-120362290D01*
X60320202Y-120705818D01*
X60319878Y-121077784D01*
X60367903Y-121194014D01*
X60244107Y-121492146D01*
X60243783Y-121864112D01*
X58769991Y-121864112D01*
X58769991Y-116599789D01*
X58737543Y-116436663D01*
X58712139Y-116308949D01*
X58547392Y-116062388D01*
X56003684Y-113518680D01*
X56092192Y-113430327D01*
X56234838Y-113086799D01*
X56235162Y-112714833D01*
X56093117Y-112371057D01*
X55950957Y-112228649D01*
X58367350Y-109812256D01*
X58456883Y-110028943D01*
X58657708Y-110230119D01*
X58457808Y-110429670D01*
X58315162Y-110773198D01*
X58314838Y-111145164D01*
X58401578Y-111355090D01*
X58315162Y-111563201D01*
X58314838Y-111935167D01*
X58456883Y-112278943D01*
X58719673Y-112542192D01*
X59063201Y-112684838D01*
X59435167Y-112685162D01*
X59778943Y-112543117D01*
X59919971Y-112402335D01*
X59919971Y-113505227D01*
X59110320Y-114314878D01*
X59064833Y-114314838D01*
X58721057Y-114456883D01*
X58457808Y-114719673D01*
X58315162Y-115063201D01*
X58314838Y-115435167D01*
X58456883Y-115778943D01*
X58719673Y-116042192D01*
X59063201Y-116184838D01*
X59435167Y-116185162D01*
X59778943Y-116043117D01*
X60042192Y-115780327D01*
X60184838Y-115436799D01*
X60184879Y-115389923D01*
X60359980Y-115214822D01*
X60359980Y-118099674D01*
X60417832Y-118390513D01*
X60582579Y-118637075D01*
X60713205Y-118767701D01*
X60713165Y-118813188D01*
X60855210Y-119156964D01*
X61118000Y-119420213D01*
X61461528Y-119562859D01*
X61833494Y-119563183D01*
X62177270Y-119421138D01*
X62440519Y-119158348D01*
X62571649Y-118842552D01*
X62575202Y-118841084D01*
X62614759Y-118936819D01*
X62664503Y-118986649D01*
X62615283Y-119035869D01*
X62450536Y-119282431D01*
X62392684Y-119573270D01*
X62392684Y-125814906D01*
X62314833Y-125814838D01*
X61971057Y-125956883D01*
X61707808Y-126219673D01*
X61565162Y-126563201D01*
X61564838Y-126935167D01*
X61706883Y-127278943D01*
X61774245Y-127346422D01*
X61797852Y-127465103D01*
X61952674Y-127696811D01*
X61952674Y-130025698D01*
X60407588Y-131570784D01*
X60242841Y-131817346D01*
X60184989Y-132108185D01*
X60184989Y-134092461D01*
X60242841Y-134383300D01*
X60407588Y-134629862D01*
X60426344Y-134648618D01*
X60335161Y-134868211D01*
X60334837Y-135240177D01*
X60476882Y-135583953D01*
X60739672Y-135847202D01*
X61083200Y-135989848D01*
X61455166Y-135990172D01*
X61490548Y-135975552D01*
X62175439Y-136660444D01*
X62175439Y-137678397D01*
X62106497Y-137706883D01*
X61843248Y-137969673D01*
X61700602Y-138313201D01*
X61700278Y-138685167D01*
X61842323Y-139028943D01*
X62105113Y-139292192D01*
X62448641Y-139434838D01*
X62820607Y-139435162D01*
X63164383Y-139293117D01*
X63427632Y-139030327D01*
X63570278Y-138686799D01*
X63570279Y-138685167D01*
X65064838Y-138685167D01*
X65206883Y-139028943D01*
X65469673Y-139292192D01*
X65813201Y-139434838D01*
X66185167Y-139435162D01*
X66528943Y-139293117D01*
X66792192Y-139030327D01*
X66934838Y-138686799D01*
X66935162Y-138314833D01*
X66793117Y-137971057D01*
X66530327Y-137707808D01*
X66186799Y-137565162D01*
X65814833Y-137564838D01*
X65471057Y-137706883D01*
X65207808Y-137969673D01*
X65065162Y-138313201D01*
X65064838Y-138685167D01*
X63570279Y-138685167D01*
X63570361Y-138591451D01*
X63637587Y-138490840D01*
X63695439Y-138200001D01*
X63695439Y-136345641D01*
X63637587Y-136054802D01*
X63498874Y-135847202D01*
X63472840Y-135808239D01*
X63243517Y-135578917D01*
X63292192Y-135530327D01*
X63434838Y-135186799D01*
X63434879Y-135139923D01*
X63477530Y-135097272D01*
X63642277Y-134850711D01*
X63653917Y-134792192D01*
X63700129Y-134559871D01*
X63700129Y-134120510D01*
X63821522Y-134414304D01*
X64084312Y-134677553D01*
X64427840Y-134820199D01*
X64799806Y-134820523D01*
X65143582Y-134678478D01*
X65406831Y-134415688D01*
X65549477Y-134072160D01*
X65549801Y-133700194D01*
X65407756Y-133356418D01*
X65198553Y-133146850D01*
X65152040Y-133077238D01*
X64352694Y-132277892D01*
X64352694Y-129425122D01*
X64404544Y-129477063D01*
X64748072Y-129619709D01*
X65120038Y-129620033D01*
X65463814Y-129477988D01*
X65727063Y-129215198D01*
X65869709Y-128871670D01*
X65869750Y-128824794D01*
X67333818Y-127360726D01*
X71054971Y-127360726D01*
X71054972Y-128341976D01*
X71112824Y-128632815D01*
X71277571Y-128879377D01*
X71874999Y-129476805D01*
X71874999Y-130181281D01*
X71932851Y-130472120D01*
X72097598Y-130718682D01*
X72417397Y-131038482D01*
X72459024Y-131066296D01*
X73260120Y-131867392D01*
X73260120Y-132052543D01*
X73162924Y-132092703D01*
X72899675Y-132355493D01*
X72757029Y-132699021D01*
X72756705Y-133070987D01*
X72898750Y-133414763D01*
X73161540Y-133678012D01*
X73505068Y-133820658D01*
X73565155Y-133820710D01*
X73564838Y-134185167D01*
X73706883Y-134528943D01*
X73969673Y-134792192D01*
X74313201Y-134934838D01*
X74685167Y-134935162D01*
X75028943Y-134793117D01*
X75292192Y-134530327D01*
X75434838Y-134186799D01*
X75434879Y-134139923D01*
X75692405Y-133882397D01*
X75857152Y-133635835D01*
X75915004Y-133344996D01*
X75915004Y-132435127D01*
X75955171Y-132435162D01*
X76298947Y-132293117D01*
X76562196Y-132030327D01*
X76704842Y-131686799D01*
X76705166Y-131314833D01*
X76563121Y-130971057D01*
X76530004Y-130937882D01*
X76530004Y-129503268D01*
X77964538Y-129503268D01*
X78159792Y-129975819D01*
X78433156Y-130249660D01*
X78161062Y-130521280D01*
X77964984Y-130993488D01*
X77964538Y-131504788D01*
X78159792Y-131977339D01*
X78431886Y-132249908D01*
X78161062Y-132520260D01*
X77964984Y-132992468D01*
X77964538Y-133503768D01*
X78159792Y-133976319D01*
X78433156Y-134250160D01*
X78161062Y-134521780D01*
X77964984Y-134993988D01*
X77964538Y-135505288D01*
X78159792Y-135977839D01*
X78431886Y-136250408D01*
X78161062Y-136520760D01*
X77964984Y-136992968D01*
X77964538Y-137504268D01*
X78159792Y-137976819D01*
X78433156Y-138250660D01*
X78161062Y-138522280D01*
X77964984Y-138994488D01*
X77964538Y-139505788D01*
X78159792Y-139978339D01*
X78521020Y-140340198D01*
X78993228Y-140536276D01*
X79504528Y-140536722D01*
X79977079Y-140341468D01*
X80338938Y-139980240D01*
X80535016Y-139508032D01*
X80535462Y-138996732D01*
X80340208Y-138524181D01*
X80066844Y-138250340D01*
X80338938Y-137978720D01*
X80535016Y-137506512D01*
X80535462Y-136995212D01*
X80340208Y-136522661D01*
X80068114Y-136250092D01*
X80338938Y-135979740D01*
X80535016Y-135507532D01*
X80535462Y-134996232D01*
X80340208Y-134523681D01*
X80066844Y-134249840D01*
X80338938Y-133978220D01*
X80535016Y-133506012D01*
X80535462Y-132994712D01*
X80340208Y-132522161D01*
X80068114Y-132249592D01*
X80338938Y-131979240D01*
X80535016Y-131507032D01*
X80535462Y-130995732D01*
X80340208Y-130523181D01*
X80066844Y-130249340D01*
X80338938Y-129977720D01*
X80535016Y-129505512D01*
X80535462Y-128994212D01*
X80340208Y-128521661D01*
X79978980Y-128159802D01*
X79506772Y-127963724D01*
X78995472Y-127963278D01*
X78522921Y-128158532D01*
X78161062Y-128519760D01*
X77964984Y-128991968D01*
X77964538Y-129503268D01*
X76530004Y-129503268D01*
X76530004Y-127197531D01*
X76472152Y-126906692D01*
X76307405Y-126660130D01*
X75900215Y-126252940D01*
X75900215Y-121435167D01*
X76360340Y-121435167D01*
X76502385Y-121778943D01*
X76765175Y-122042192D01*
X77108703Y-122184838D01*
X77480669Y-122185162D01*
X77824445Y-122043117D01*
X78087694Y-121780327D01*
X78230340Y-121436799D01*
X78230664Y-121064833D01*
X78088619Y-120721057D01*
X77825829Y-120457808D01*
X77482301Y-120315162D01*
X77110335Y-120314838D01*
X76766559Y-120456883D01*
X76503310Y-120719673D01*
X76360664Y-121063201D01*
X76360340Y-121435167D01*
X75900215Y-121435167D01*
X75900214Y-119685127D01*
X75940382Y-119685162D01*
X76284158Y-119543117D01*
X76547407Y-119280327D01*
X76690053Y-118936799D01*
X76690377Y-118564833D01*
X76548332Y-118221057D01*
X76285542Y-117957808D01*
X75942014Y-117815162D01*
X75900214Y-117815126D01*
X75900214Y-116436415D01*
X76185167Y-116436663D01*
X76528943Y-116294618D01*
X76792192Y-116031828D01*
X76934838Y-115688300D01*
X76935162Y-115316334D01*
X76793117Y-114972558D01*
X76530327Y-114709309D01*
X76186799Y-114566663D01*
X75900214Y-114566413D01*
X75900214Y-113567741D01*
X75842362Y-113276902D01*
X75677615Y-113030340D01*
X74650215Y-112002940D01*
X74650215Y-96435167D01*
X75814838Y-96435167D01*
X75956883Y-96778943D01*
X76219673Y-97042192D01*
X76563201Y-97184838D01*
X76935167Y-97185162D01*
X77278943Y-97043117D01*
X77542192Y-96780327D01*
X77684838Y-96436799D01*
X77685162Y-96064833D01*
X77543117Y-95721057D01*
X77280327Y-95457808D01*
X76936799Y-95315162D01*
X76564833Y-95314838D01*
X76221057Y-95456883D01*
X75957808Y-95719673D01*
X75815162Y-96063201D01*
X75814838Y-96435167D01*
X74650215Y-96435167D01*
X74650215Y-92377000D01*
X81540000Y-92377000D01*
X81540000Y-106829608D01*
G36*
X73130215Y-108805413D02*
X71037401Y-106712599D01*
X70790839Y-106547852D01*
X70500000Y-106490000D01*
X69562463Y-106490000D01*
X69530327Y-106457808D01*
X69186799Y-106315162D01*
X68814833Y-106314838D01*
X68615840Y-106397060D01*
X68543117Y-106221057D01*
X68280327Y-105957808D01*
X67936799Y-105815162D01*
X67564833Y-105814838D01*
X67221057Y-105956883D01*
X66957808Y-106219673D01*
X66815162Y-106563201D01*
X66814838Y-106935167D01*
X66956883Y-107278943D01*
X67219673Y-107542192D01*
X67563201Y-107684838D01*
X67935167Y-107685162D01*
X68134160Y-107602940D01*
X68205891Y-107776542D01*
X68154436Y-107827997D01*
X68108949Y-107827957D01*
X67765173Y-107970002D01*
X67501924Y-108232792D01*
X67395121Y-108490000D01*
X64602055Y-108490000D01*
X64569919Y-108457808D01*
X64226391Y-108315162D01*
X63854425Y-108314838D01*
X63510649Y-108456883D01*
X63247400Y-108719673D01*
X63104754Y-109063201D01*
X63104430Y-109435167D01*
X63234661Y-109750351D01*
X63104754Y-110063201D01*
X63104430Y-110435167D01*
X63163576Y-110578311D01*
X62962599Y-110712599D01*
X62760000Y-110915198D01*
X62760000Y-106145164D01*
X63064838Y-106145164D01*
X63151578Y-106355090D01*
X63065162Y-106563201D01*
X63064838Y-106935167D01*
X63206883Y-107278943D01*
X63469673Y-107542192D01*
X63813201Y-107684838D01*
X64185167Y-107685162D01*
X64528943Y-107543117D01*
X64792192Y-107280327D01*
X64934838Y-106936799D01*
X64935162Y-106564833D01*
X64848422Y-106354907D01*
X64934838Y-106146796D01*
X64935162Y-105774830D01*
X64793117Y-105431054D01*
X64530327Y-105167805D01*
X64186799Y-105025159D01*
X63814833Y-105024835D01*
X63471057Y-105166880D01*
X63207808Y-105429670D01*
X63065162Y-105773198D01*
X63064838Y-106145164D01*
X62760000Y-106145164D01*
X62760000Y-105669606D01*
X63839803Y-104589803D01*
X63867666Y-104547789D01*
X63877000Y-104500000D01*
X63877000Y-102185167D01*
X66314838Y-102185167D01*
X66456883Y-102528943D01*
X66719673Y-102792192D01*
X67063201Y-102934838D01*
X67435167Y-102935162D01*
X67778943Y-102793117D01*
X68042192Y-102530327D01*
X68184838Y-102186799D01*
X68185162Y-101814833D01*
X68043117Y-101471057D01*
X67780327Y-101207808D01*
X67436799Y-101065162D01*
X67064833Y-101064838D01*
X66721057Y-101206883D01*
X66457808Y-101469673D01*
X66315162Y-101813201D01*
X66314838Y-102185167D01*
X63877000Y-102185167D01*
X63877000Y-92576088D01*
X63894511Y-92533917D01*
X64198971Y-92408117D01*
X64230142Y-92377000D01*
X73130215Y-92377000D01*
X73130215Y-108805413D01*
X73130215Y-108805413D01*
G37*
X73130215Y-108805413D02*
X71037401Y-106712599D01*
X70790839Y-106547852D01*
X70500000Y-106490000D01*
X69562463Y-106490000D01*
X69530327Y-106457808D01*
X69186799Y-106315162D01*
X68814833Y-106314838D01*
X68615840Y-106397060D01*
X68543117Y-106221057D01*
X68280327Y-105957808D01*
X67936799Y-105815162D01*
X67564833Y-105814838D01*
X67221057Y-105956883D01*
X66957808Y-106219673D01*
X66815162Y-106563201D01*
X66814838Y-106935167D01*
X66956883Y-107278943D01*
X67219673Y-107542192D01*
X67563201Y-107684838D01*
X67935167Y-107685162D01*
X68134160Y-107602940D01*
X68205891Y-107776542D01*
X68154436Y-107827997D01*
X68108949Y-107827957D01*
X67765173Y-107970002D01*
X67501924Y-108232792D01*
X67395121Y-108490000D01*
X64602055Y-108490000D01*
X64569919Y-108457808D01*
X64226391Y-108315162D01*
X63854425Y-108314838D01*
X63510649Y-108456883D01*
X63247400Y-108719673D01*
X63104754Y-109063201D01*
X63104430Y-109435167D01*
X63234661Y-109750351D01*
X63104754Y-110063201D01*
X63104430Y-110435167D01*
X63163576Y-110578311D01*
X62962599Y-110712599D01*
X62760000Y-110915198D01*
X62760000Y-106145164D01*
X63064838Y-106145164D01*
X63151578Y-106355090D01*
X63065162Y-106563201D01*
X63064838Y-106935167D01*
X63206883Y-107278943D01*
X63469673Y-107542192D01*
X63813201Y-107684838D01*
X64185167Y-107685162D01*
X64528943Y-107543117D01*
X64792192Y-107280327D01*
X64934838Y-106936799D01*
X64935162Y-106564833D01*
X64848422Y-106354907D01*
X64934838Y-106146796D01*
X64935162Y-105774830D01*
X64793117Y-105431054D01*
X64530327Y-105167805D01*
X64186799Y-105025159D01*
X63814833Y-105024835D01*
X63471057Y-105166880D01*
X63207808Y-105429670D01*
X63065162Y-105773198D01*
X63064838Y-106145164D01*
X62760000Y-106145164D01*
X62760000Y-105669606D01*
X63839803Y-104589803D01*
X63867666Y-104547789D01*
X63877000Y-104500000D01*
X63877000Y-102185167D01*
X66314838Y-102185167D01*
X66456883Y-102528943D01*
X66719673Y-102792192D01*
X67063201Y-102934838D01*
X67435167Y-102935162D01*
X67778943Y-102793117D01*
X68042192Y-102530327D01*
X68184838Y-102186799D01*
X68185162Y-101814833D01*
X68043117Y-101471057D01*
X67780327Y-101207808D01*
X67436799Y-101065162D01*
X67064833Y-101064838D01*
X66721057Y-101206883D01*
X66457808Y-101469673D01*
X66315162Y-101813201D01*
X66314838Y-102185167D01*
X63877000Y-102185167D01*
X63877000Y-92576088D01*
X63894511Y-92533917D01*
X64198971Y-92408117D01*
X64230142Y-92377000D01*
X73130215Y-92377000D01*
X73130215Y-108805413D01*
G36*
X81540000Y-92123000D02*
X74650215Y-92123000D01*
X74650215Y-87140215D01*
X74592363Y-86849376D01*
X74592363Y-86849375D01*
X74427616Y-86602814D01*
X74009740Y-86184938D01*
X74009740Y-85557344D01*
X74338678Y-85228980D01*
X74534756Y-84756772D01*
X74535202Y-84245472D01*
X74339948Y-83772921D01*
X73978720Y-83411062D01*
X73506512Y-83214984D01*
X72995212Y-83214538D01*
X72522661Y-83409792D01*
X72250092Y-83681886D01*
X71979740Y-83411062D01*
X71507532Y-83214984D01*
X70996232Y-83214538D01*
X70523681Y-83409792D01*
X70249840Y-83683156D01*
X69978220Y-83411062D01*
X69506012Y-83214984D01*
X68994712Y-83214538D01*
X68522161Y-83409792D01*
X68249592Y-83681886D01*
X67979240Y-83411062D01*
X67507032Y-83214984D01*
X66995732Y-83214538D01*
X66523181Y-83409792D01*
X66249340Y-83683156D01*
X65977720Y-83411062D01*
X65505512Y-83214984D01*
X64994212Y-83214538D01*
X64521661Y-83409792D01*
X64159802Y-83771020D01*
X63963724Y-84243228D01*
X63963278Y-84754528D01*
X64158532Y-85227079D01*
X64519760Y-85588938D01*
X64991968Y-85785016D01*
X65503268Y-85785462D01*
X65975819Y-85590208D01*
X66249660Y-85316844D01*
X66521280Y-85588938D01*
X66993488Y-85785016D01*
X67504788Y-85785462D01*
X67977339Y-85590208D01*
X68249908Y-85318114D01*
X68520260Y-85588938D01*
X68992468Y-85785016D01*
X69503768Y-85785462D01*
X69976319Y-85590208D01*
X70250160Y-85316844D01*
X70497881Y-85564997D01*
X70314833Y-85564838D01*
X69971057Y-85706883D01*
X69707808Y-85969673D01*
X69565162Y-86313201D01*
X69564838Y-86685167D01*
X69706883Y-87028943D01*
X69969673Y-87292192D01*
X70313201Y-87434838D01*
X70685167Y-87435162D01*
X71028943Y-87293117D01*
X71292192Y-87030327D01*
X71434838Y-86686799D01*
X71435162Y-86314833D01*
X71293117Y-85971057D01*
X71107499Y-85785115D01*
X71505288Y-85785462D01*
X71977839Y-85590208D01*
X72250408Y-85318114D01*
X72489740Y-85557864D01*
X72489740Y-86499740D01*
X72547592Y-86790579D01*
X72712339Y-87037141D01*
X73130215Y-87455017D01*
X73130215Y-90145476D01*
X72936799Y-90065162D01*
X72564833Y-90064838D01*
X72221057Y-90206883D01*
X71957808Y-90469673D01*
X71815162Y-90813201D01*
X71814838Y-91185167D01*
X71956883Y-91528943D01*
X72219673Y-91792192D01*
X72563201Y-91934838D01*
X72935167Y-91935162D01*
X73130215Y-91854570D01*
X73130215Y-92123000D01*
X64471491Y-92123000D01*
X64549538Y-91935044D01*
X64685167Y-91935162D01*
X65028943Y-91793117D01*
X65292192Y-91530327D01*
X65434838Y-91186799D01*
X65435162Y-90814833D01*
X65293117Y-90471057D01*
X65030327Y-90207808D01*
X64686799Y-90065162D01*
X64314833Y-90064838D01*
X63971057Y-90206883D01*
X63937882Y-90240000D01*
X63877000Y-90240000D01*
X63877000Y-83210000D01*
X81540000Y-83210000D01*
X81540000Y-92123000D01*
X81540000Y-92123000D01*
G37*
X81540000Y-92123000D02*
X74650215Y-92123000D01*
X74650215Y-87140215D01*
X74592363Y-86849376D01*
X74592363Y-86849375D01*
X74427616Y-86602814D01*
X74009740Y-86184938D01*
X74009740Y-85557344D01*
X74338678Y-85228980D01*
X74534756Y-84756772D01*
X74535202Y-84245472D01*
X74339948Y-83772921D01*
X73978720Y-83411062D01*
X73506512Y-83214984D01*
X72995212Y-83214538D01*
X72522661Y-83409792D01*
X72250092Y-83681886D01*
X71979740Y-83411062D01*
X71507532Y-83214984D01*
X70996232Y-83214538D01*
X70523681Y-83409792D01*
X70249840Y-83683156D01*
X69978220Y-83411062D01*
X69506012Y-83214984D01*
X68994712Y-83214538D01*
X68522161Y-83409792D01*
X68249592Y-83681886D01*
X67979240Y-83411062D01*
X67507032Y-83214984D01*
X66995732Y-83214538D01*
X66523181Y-83409792D01*
X66249340Y-83683156D01*
X65977720Y-83411062D01*
X65505512Y-83214984D01*
X64994212Y-83214538D01*
X64521661Y-83409792D01*
X64159802Y-83771020D01*
X63963724Y-84243228D01*
X63963278Y-84754528D01*
X64158532Y-85227079D01*
X64519760Y-85588938D01*
X64991968Y-85785016D01*
X65503268Y-85785462D01*
X65975819Y-85590208D01*
X66249660Y-85316844D01*
X66521280Y-85588938D01*
X66993488Y-85785016D01*
X67504788Y-85785462D01*
X67977339Y-85590208D01*
X68249908Y-85318114D01*
X68520260Y-85588938D01*
X68992468Y-85785016D01*
X69503768Y-85785462D01*
X69976319Y-85590208D01*
X70250160Y-85316844D01*
X70497881Y-85564997D01*
X70314833Y-85564838D01*
X69971057Y-85706883D01*
X69707808Y-85969673D01*
X69565162Y-86313201D01*
X69564838Y-86685167D01*
X69706883Y-87028943D01*
X69969673Y-87292192D01*
X70313201Y-87434838D01*
X70685167Y-87435162D01*
X71028943Y-87293117D01*
X71292192Y-87030327D01*
X71434838Y-86686799D01*
X71435162Y-86314833D01*
X71293117Y-85971057D01*
X71107499Y-85785115D01*
X71505288Y-85785462D01*
X71977839Y-85590208D01*
X72250408Y-85318114D01*
X72489740Y-85557864D01*
X72489740Y-86499740D01*
X72547592Y-86790579D01*
X72712339Y-87037141D01*
X73130215Y-87455017D01*
X73130215Y-90145476D01*
X72936799Y-90065162D01*
X72564833Y-90064838D01*
X72221057Y-90206883D01*
X71957808Y-90469673D01*
X71815162Y-90813201D01*
X71814838Y-91185167D01*
X71956883Y-91528943D01*
X72219673Y-91792192D01*
X72563201Y-91934838D01*
X72935167Y-91935162D01*
X73130215Y-91854570D01*
X73130215Y-92123000D01*
X64471491Y-92123000D01*
X64549538Y-91935044D01*
X64685167Y-91935162D01*
X65028943Y-91793117D01*
X65292192Y-91530327D01*
X65434838Y-91186799D01*
X65435162Y-90814833D01*
X65293117Y-90471057D01*
X65030327Y-90207808D01*
X64686799Y-90065162D01*
X64314833Y-90064838D01*
X63971057Y-90206883D01*
X63937882Y-90240000D01*
X63877000Y-90240000D01*
X63877000Y-83210000D01*
X81540000Y-83210000D01*
X81540000Y-92123000D01*
M02*
